<svg width="25" height="25" viewBox="0 0 25 25" fill="none" xmlns="http://www.w3.org/2000/svg">
<path d="M12.5 21.875C17.6777 21.875 21.875 17.6777 21.875 12.5C21.875 7.32233 17.6777 3.125 12.5 3.125C7.32233 3.125 3.125 7.32233 3.125 12.5C3.125 17.6777 7.32233 21.875 12.5 21.875Z" stroke="white" stroke-width="1.5" stroke-linecap="round" stroke-linejoin="round"/>
<path d="M17.1875 20.625V17.1875L12.5 7.03125L7.8125 17.1875V20.625" stroke="white" stroke-width="1.5" stroke-linecap="round" stroke-linejoin="round"/>
<path d="M12.5 18.75C12.5 18.1284 12.7469 17.5323 13.1865 17.0927C13.626 16.6532 14.2221 16.4063 14.8438 16.4062C15.4654 16.4063 16.0615 16.6532 16.501 17.0927C16.9406 17.5323 17.1875 18.1284 17.1875 18.75" stroke="white" stroke-width="1.5" stroke-linecap="round" stroke-linejoin="round"/>
<path d="M12.5 21.875V18.75C12.5 18.1284 12.2531 17.5323 11.8135 17.0927C11.374 16.6532 10.7779 16.4063 10.1562 16.4062C9.53465 16.4063 8.93851 16.6532 8.49897 17.0927C8.05943 17.5323 7.8125 18.1284 7.8125 18.75" stroke="white" stroke-width="1.5" stroke-linecap="round" stroke-linejoin="round"/>
<path d="M9.98047 12.5H15.0195" stroke="white" stroke-width="1.5" stroke-linecap="round" stroke-linejoin="round"/>
</svg>
