<svg width="20" height="20" viewBox="0 0 20 20" fill="none" xmlns="http://www.w3.org/2000/svg">
<path d="M11.875 7.5H16.25" stroke="white" stroke-linecap="round" stroke-linejoin="round"/>
<path d="M11.875 12.5H16.25" stroke="white" stroke-linecap="round" stroke-linejoin="round"/>
<path d="M5 5.625V3.125C5 2.95924 5.06585 2.80027 5.18306 2.68306C5.30027 2.56585 5.45924 2.5 5.625 2.5H15.625C15.7908 2.5 15.9497 2.56585 16.0669 2.68306C16.1842 2.80027 16.25 2.95924 16.25 3.125V16.875C16.25 17.0408 16.1842 17.1997 16.0669 17.3169C15.9497 17.4342 15.7908 17.5 15.625 17.5H5.625C5.45924 17.5 5.30027 17.4342 5.18306 17.3169C5.06585 17.1997 5 17.0408 5 16.875V14.375" stroke="white" stroke-linecap="round" stroke-linejoin="round"/>
<path d="M10.625 14.375V17.5" stroke="white" stroke-linecap="round" stroke-linejoin="round"/>
<path d="M10.625 2.5V5.625" stroke="white" stroke-linecap="round" stroke-linejoin="round"/>
<path d="M11.25 5.625H3.125C2.77982 5.625 2.5 5.90482 2.5 6.25V13.75C2.5 14.0952 2.77982 14.375 3.125 14.375H11.25C11.5952 14.375 11.875 14.0952 11.875 13.75V6.25C11.875 5.90482 11.5952 5.625 11.25 5.625Z" stroke="white" stroke-linecap="round" stroke-linejoin="round"/>
<path d="M5.78125 8.125L8.59375 11.875" stroke="white" stroke-linecap="round" stroke-linejoin="round"/>
<path d="M8.59375 8.125L5.78125 11.875" stroke="white" stroke-linecap="round" stroke-linejoin="round"/>
</svg>
