<svg width="24" height="24" viewBox="0 0 24 24" fill="none" xmlns="http://www.w3.org/2000/svg">
<path d="M8.81125 5.75583C8.58709 5.32732 8.53716 4.82876 8.67191 4.36431C8.80665 3.89986 9.11564 3.50542 9.53433 3.26341C9.95302 3.02139 10.449 2.95051 10.9187 3.06556C11.3885 3.18062 11.7956 3.47271 12.055 3.88083L14.8675 8.74646" stroke="#37435E" stroke-width="2" stroke-linecap="round" stroke-linejoin="round"/>
<path d="M6.31906 8.92497L4.81906 6.3281C4.5949 5.89958 4.54498 5.40103 4.67972 4.93657C4.81446 4.47212 5.12345 4.07769 5.54214 3.83567C5.96083 3.59366 6.45684 3.52277 6.92655 3.63783C7.39627 3.75288 7.80337 4.04498 8.06281 4.4531L11.2503 9.97497" stroke="#37435E" stroke-width="2" stroke-linecap="round" stroke-linejoin="round"/>
<path d="M14.4391 15.4965C14.1921 15.0708 14.0315 14.6004 13.9666 14.1125C13.9017 13.6245 13.9338 13.1286 14.0609 12.653C14.1881 12.1775 14.4079 11.7317 14.7076 11.3413C15.0074 10.9509 15.3813 10.6234 15.8079 10.3778L14.8704 8.74654C14.6217 8.31515 14.5546 7.80266 14.6839 7.3218C14.8131 6.84095 15.128 6.43112 15.5594 6.18248C15.9908 5.93384 16.5033 5.86675 16.9842 5.99597C17.465 6.1252 17.8749 6.44015 18.1235 6.87154L19.9985 10.1247C20.9931 11.8477 21.2624 13.8953 20.7473 15.817C20.2321 17.7387 18.9747 19.377 17.2516 20.3715C15.5285 21.3661 13.4809 21.6354 11.5593 21.1203C9.63762 20.6052 7.9993 19.3477 7.00474 17.6247L3.06724 10.7997C2.94412 10.5861 2.86429 10.3503 2.83229 10.1058C2.80029 9.86139 2.81675 9.61302 2.88074 9.37493C3.00996 8.89407 3.32491 8.48424 3.7563 8.2356C4.18769 7.98696 4.70019 7.91988 5.18104 8.0491C5.6619 8.17832 6.07172 8.49327 6.32036 8.92467L8.38286 12.4965" stroke="#37435E" stroke-width="2" stroke-linecap="round" stroke-linejoin="round"/>
<path d="M7.60313 22.5C6.32924 21.6214 5.2688 20.468 4.5 19.125" stroke="#37435E" stroke-width="2" stroke-linecap="round" stroke-linejoin="round"/>
<path d="M16.5 2.90627C17.3558 2.90395 18.1969 3.12825 18.9379 3.55639C19.6789 3.98452 20.2933 4.60121 20.7188 5.34377" stroke="#37435E" stroke-width="2" stroke-linecap="round" stroke-linejoin="round"/>
</svg>
