<svg width="24" height="24" viewBox="0 0 24 24" fill="none" xmlns="http://www.w3.org/2000/svg">
<path d="M7.5 3.75H4.5C4.08579 3.75 3.75 4.08579 3.75 4.5V19.5C3.75 19.9142 4.08579 20.25 4.5 20.25H7.5C7.91421 20.25 8.25 19.9142 8.25 19.5V4.5C8.25 4.08579 7.91421 3.75 7.5 3.75Z" stroke="#37435E" stroke-width="2" stroke-linecap="round" stroke-linejoin="round"/>
<path d="M3.75 7.5H8.25" stroke="#37435E" stroke-width="2" stroke-linecap="round" stroke-linejoin="round"/>
<path d="M12 3.75H9C8.58579 3.75 8.25 4.08579 8.25 4.5V19.5C8.25 19.9142 8.58579 20.25 9 20.25H12C12.4142 20.25 12.75 19.9142 12.75 19.5V4.5C12.75 4.08579 12.4142 3.75 12 3.75Z" stroke="#37435E" stroke-width="2" stroke-linecap="round" stroke-linejoin="round"/>
<path d="M8.25 16.5H12.75" stroke="#37435E" stroke-width="2" stroke-linecap="round" stroke-linejoin="round"/>
<path d="M16.4578 3.50547L13.5478 4.28547C13.146 4.39316 12.9076 4.80618 13.0153 5.20797L16.9153 19.758C17.023 20.1598 17.436 20.3982 17.8378 20.2905L20.7478 19.5105C21.1496 19.4028 21.388 18.9898 21.2803 18.588L17.3803 4.03797C17.2726 3.63618 16.8596 3.39777 16.4578 3.50547Z" stroke="#37435E" stroke-width="2.00848" stroke-linecap="round" stroke-linejoin="round"/>
<path d="M16.0508 16.8008L20.4008 15.6289" stroke="#37435E" stroke-width="2" stroke-linecap="round" stroke-linejoin="round"/>
<path d="M13.7266 8.1L18.0766 6.9375" stroke="#37435E" stroke-width="2" stroke-linecap="round" stroke-linejoin="round"/>
</svg>
