<svg width="66" height="62" viewBox="0 0 66 62" fill="none" xmlns="http://www.w3.org/2000/svg">
<path d="M37.7717 61.6141C50.2779 61.0504 60.0011 53.4029 63.7934 41.4529C67.7009 29.1505 65.8072 11.7519 53.8361 4.59846C40.5964 -3.30913 22.0614 0.506621 11.4538 11.1069C2.75387 19.8053 -3.83527 35.1588 3.20623 46.7184C7.4804 53.7254 16.4428 58.2706 24.3409 59.4445C33.1441 60.7573 41.5604 58.1035 49.1029 53.7243C50.6834 52.8118 49.6236 50.467 47.9066 50.8457C40.3028 52.5159 32.2474 55.2146 24.3999 53.7747C16.6806 52.3587 7.56569 47.0684 6.00844 38.8114C3.3127 24.5222 16.0884 10.3914 29.01 6.76995C37.4529 4.40294 47.9459 5.09145 54.8246 11.0357C60.3902 15.8514 62.2214 24.5547 62.1916 31.6615C62.1189 46.0788 52.3812 58.3414 37.7565 59.7769C36.6068 59.8935 36.5796 61.6571 37.7743 61.6044L37.7717 61.6141Z" fill="#FF1286"/>
</svg>
