<svg width="32" height="32" viewBox="0 0 32 32" fill="none" xmlns="http://www.w3.org/2000/svg">
<path d="M5.91797 7.29199C5.91797 6.53299 6.53397 5.91699 7.29297 5.91699H12.793C13.552 5.91699 14.168 6.53299 14.168 7.29199V12.792C14.168 13.551 13.552 14.167 12.793 14.167H7.29297C6.9283 14.167 6.57856 14.0221 6.3207 13.7643C6.06283 13.5064 5.91797 13.1567 5.91797 12.792V7.29199ZM5.91797 19.2087C5.91797 18.4497 6.53397 17.8337 7.29297 17.8337H12.793C13.552 17.8337 14.168 18.4497 14.168 19.2087V24.7087C14.168 25.4677 13.552 26.0837 12.793 26.0837H7.29297C6.9283 26.0837 6.57856 25.9388 6.3207 25.6809C6.06283 25.4231 5.91797 25.0733 5.91797 24.7087V19.2087ZM17.8346 7.29199C17.8346 6.53299 18.4506 5.91699 19.2096 5.91699H24.7096C25.4686 5.91699 26.0846 6.53299 26.0846 7.29199V12.792C26.0846 13.551 25.4686 14.167 24.7096 14.167H19.2096C18.845 14.167 18.4952 14.0221 18.2374 13.7643C17.9795 13.5064 17.8346 13.1567 17.8346 12.792V7.29199Z" stroke="#373F57" stroke-width="2" stroke-linecap="round" stroke-linejoin="round"/>
<rect x="8.66797" y="8.66699" width="2.75" height="2.75" rx="1" fill="#373F57"/>
<rect x="8.66797" y="20.583" width="2.75" height="2.75" rx="1" fill="#373F57"/>
<rect x="16.918" y="16.917" width="2.75" height="2.75" rx="1" fill="#373F57"/>
<rect x="24.25" y="16.917" width="2.75" height="2.75" rx="1" fill="#373F57"/>
<rect x="20.582" y="20.583" width="2.75" height="2.75" rx="1" fill="#373F57"/>
<rect x="16.918" y="24.25" width="2.75" height="2.75" rx="1" fill="#373F57"/>
<rect x="24.25" y="24.25" width="2.75" height="2.75" rx="1" fill="#373F57"/>
<rect x="20.582" y="8.66699" width="2.75" height="2.75" rx="1" fill="#373F57"/>
</svg>
