<svg width="16" height="16" viewBox="0 0 16 16" fill="none" xmlns="http://www.w3.org/2000/svg">
<path d="M13.3346 2.4451V13.5562C13.3346 13.8509 13.2325 14.1335 13.0506 14.3419C12.8688 14.5503 12.6221 14.6673 12.3649 14.6673H10.1831C9.92594 14.6673 9.67929 14.5503 9.49744 14.3419C9.31559 14.1335 9.21342 13.8509 9.21342 13.5562V2.4451C9.21342 2.15041 9.31559 1.86779 9.49744 1.65942C9.67929 1.45105 9.92594 1.33398 10.1831 1.33398H12.3649C12.6221 1.33398 12.8688 1.45105 13.0506 1.65942C13.2325 1.86779 13.3346 2.15041 13.3346 2.4451ZM5.81948 1.33398H3.63767C3.38049 1.33398 3.13384 1.45105 2.95199 1.65942C2.77013 1.86779 2.66797 2.15041 2.66797 2.4451V13.5562C2.66797 13.8509 2.77013 14.1335 2.95199 14.3419C3.13384 14.5503 3.38049 14.6673 3.63767 14.6673H5.81948C6.07666 14.6673 6.32331 14.5503 6.50516 14.3419C6.68702 14.1335 6.78918 13.8509 6.78918 13.5562V2.4451C6.78918 2.15041 6.68702 1.86779 6.50516 1.65942C6.32331 1.45105 6.07666 1.33398 5.81948 1.33398V1.33398Z" fill="white"/>
</svg>
