<svg width="20" height="20" viewBox="0 0 20 20" fill="none" xmlns="http://www.w3.org/2000/svg">
<path d="M16.25 11.5625C16.25 13.2201 15.5915 14.8098 14.4194 15.9819C13.2473 17.154 11.6576 17.8125 10 17.8125C8.3424 17.8125 6.75269 17.154 5.58058 15.9819C4.40848 14.8098 3.75 13.2201 3.75 11.5625V8.4375C3.75 6.7799 4.40848 5.19019 5.58058 4.01808C6.75269 2.84598 8.3424 2.1875 10 2.1875C11.6576 2.1875 13.2473 2.84598 14.4194 4.01808C15.5915 5.19019 16.25 6.7799 16.25 8.4375V11.5625Z" stroke="white" stroke-width="1.5" stroke-linecap="round" stroke-linejoin="round"/>
<path d="M16.25 10H3.75" stroke="white" stroke-width="1.5" stroke-linecap="round" stroke-linejoin="round"/>
<path d="M12.1875 8.125C12.7053 8.125 13.125 7.70527 13.125 7.1875C13.125 6.66973 12.7053 6.25 12.1875 6.25C11.6697 6.25 11.25 6.66973 11.25 7.1875C11.25 7.70527 11.6697 8.125 12.1875 8.125Z" fill="white"/>
<path d="M7.8125 8.125C8.33027 8.125 8.75 7.70527 8.75 7.1875C8.75 6.66973 8.33027 6.25 7.8125 6.25C7.29473 6.25 6.875 6.66973 6.875 7.1875C6.875 7.70527 7.29473 8.125 7.8125 8.125Z" fill="white"/>
<path d="M4.375 2.1875L5.96094 3.66406" stroke="white" stroke-width="1.5" stroke-linecap="round" stroke-linejoin="round"/>
<path d="M15.625 2.1875L14.0391 3.66406" stroke="white" stroke-width="1.5" stroke-linecap="round" stroke-linejoin="round"/>
</svg>
