<svg width="16" height="16" viewBox="0 0 16 16" fill="none" xmlns="http://www.w3.org/2000/svg">
<path d="M14.5188 7.14422L5.51875 1.65047C5.36884 1.55547 5.19571 1.50347 5.01826 1.50017C4.8408 1.49686 4.66585 1.54237 4.5125 1.63172C4.35689 1.7171 4.22716 1.84284 4.13697 1.99572C4.04678 2.1486 3.99947 2.32297 4 2.50047V13.5005C3.99947 13.678 4.04678 13.8523 4.13697 14.0052C4.22716 14.1581 4.35689 14.2838 4.5125 14.3692C4.66585 14.4586 4.8408 14.5041 5.01826 14.5008C5.19571 14.4975 5.36884 14.4455 5.51875 14.3505L14.5188 8.85672C14.6663 8.76773 14.7883 8.64214 14.873 8.49212C14.9577 8.3421 15.0022 8.17275 15.0022 8.00047C15.0022 7.82819 14.9577 7.65884 14.873 7.50882C14.7883 7.3588 14.6663 7.23321 14.5188 7.14422V7.14422Z" fill="#3157DD"/>
</svg>
