<svg width="14" height="14" viewBox="0 0 14 14" fill="none" xmlns="http://www.w3.org/2000/svg">
<path d="M8.96875 9.1875C9.33119 9.1875 9.625 8.89369 9.625 8.53125C9.625 8.16881 9.33119 7.875 8.96875 7.875C8.60631 7.875 8.3125 8.16881 8.3125 8.53125C8.3125 8.89369 8.60631 9.1875 8.96875 9.1875Z" fill="#4876EB"/>
<path d="M5.03125 9.1875C5.39369 9.1875 5.6875 8.89369 5.6875 8.53125C5.6875 8.16881 5.39369 7.875 5.03125 7.875C4.66881 7.875 4.375 8.16881 4.375 8.53125C4.375 8.89369 4.66881 9.1875 5.03125 9.1875Z" fill="#4876EB"/>
<path d="M1.3125 10.5V9.2477C1.3125 6.10317 3.83906 3.51098 6.97812 3.50004C7.72686 3.49716 8.46879 3.64215 9.16136 3.92668C9.85392 4.21122 10.4835 4.6297 11.0139 5.15812C11.5444 5.68654 11.9653 6.3145 12.2525 7.00597C12.5397 7.69743 12.6875 8.4388 12.6875 9.18754V10.5C12.6875 10.6161 12.6414 10.7274 12.5594 10.8094C12.4773 10.8914 12.366 10.9375 12.25 10.9375H1.75C1.63397 10.9375 1.52269 10.8914 1.44064 10.8094C1.35859 10.7274 1.3125 10.6161 1.3125 10.5Z" stroke="#4876EB" stroke-width="1.5" stroke-linecap="round" stroke-linejoin="round"/>
<path d="M1.75 3.0625L3.45078 4.76328" stroke="#4876EB" stroke-width="1.5" stroke-linecap="round" stroke-linejoin="round"/>
<path d="M12.2484 3.0625L10.5586 4.75234" stroke="#4876EB" stroke-width="1.5" stroke-linecap="round" stroke-linejoin="round"/>
</svg>
