<svg width="20" height="20" viewBox="0 0 20 20" fill="none" xmlns="http://www.w3.org/2000/svg">
<path d="M6.25 3.125H3.75C3.40482 3.125 3.125 3.40482 3.125 3.75V16.25C3.125 16.5952 3.40482 16.875 3.75 16.875H6.25C6.59518 16.875 6.875 16.5952 6.875 16.25V3.75C6.875 3.40482 6.59518 3.125 6.25 3.125Z" stroke="white" stroke-width="1.5" stroke-linecap="round" stroke-linejoin="round"/>
<path d="M3.125 6.25H6.875" stroke="white" stroke-width="1.5" stroke-linecap="round" stroke-linejoin="round"/>
<path d="M10 3.125H7.5C7.15482 3.125 6.875 3.40482 6.875 3.75V16.25C6.875 16.5952 7.15482 16.875 7.5 16.875H10C10.3452 16.875 10.625 16.5952 10.625 16.25V3.75C10.625 3.40482 10.3452 3.125 10 3.125Z" stroke="white" stroke-width="1.5" stroke-linecap="round" stroke-linejoin="round"/>
<path d="M6.875 13.75H10.625" stroke="white" stroke-width="1.5" stroke-linecap="round" stroke-linejoin="round"/>
<path d="M13.7148 2.91992L11.2898 3.56992C10.955 3.65967 10.7563 4.00385 10.8461 4.33867L14.0961 16.4637C14.1858 16.7985 14.53 16.9972 14.8648 16.9074L17.2898 16.2574C17.6247 16.1677 17.8233 15.8235 17.7336 15.4887L14.4836 3.36367C14.3938 3.02885 14.0497 2.83018 13.7148 2.91992Z" stroke="white" stroke-width="1.5" stroke-linecap="round" stroke-linejoin="round"/>
<path d="M13.375 14L17 13.0234" stroke="white" stroke-width="1.5" stroke-linecap="round" stroke-linejoin="round"/>
<path d="M11.4375 6.75L15.0625 5.78125" stroke="white" stroke-width="1.5" stroke-linecap="round" stroke-linejoin="round"/>
</svg>
