<svg width="20" height="20" viewBox="0 0 20 20" fill="none" xmlns="http://www.w3.org/2000/svg">
<path d="M4.25781 15.7422C3.53906 15.0234 4.01563 13.5156 3.64844 12.6328C3.28125 11.75 1.875 10.9766 1.875 10C1.875 9.02344 3.26563 8.28125 3.64844 7.36719C4.03125 6.45313 3.53906 4.97656 4.25781 4.25781C4.97656 3.53906 6.48438 4.01563 7.36719 3.64844C8.25 3.28125 9.02344 1.875 10 1.875C10.9766 1.875 11.7187 3.26563 12.6328 3.64844C13.5469 4.03125 15.0234 3.53906 15.7422 4.25781C16.4609 4.97656 15.9844 6.48438 16.3516 7.36719C16.7188 8.25 18.125 9.02344 18.125 10C18.125 10.9766 16.7344 11.7187 16.3516 12.6328C15.9688 13.5469 16.4609 15.0234 15.7422 15.7422C15.0234 16.4609 13.5156 15.9844 12.6328 16.3516C11.75 16.7188 10.9766 18.125 10 18.125C9.02344 18.125 8.28125 16.7344 7.36719 16.3516C6.45313 15.9688 4.97656 16.4609 4.25781 15.7422Z" stroke="white" stroke-width="1.5" stroke-linecap="round" stroke-linejoin="round"/>
<path d="M10 15C10.5178 15 10.9375 14.5803 10.9375 14.0625C10.9375 13.5447 10.5178 13.125 10 13.125C9.48223 13.125 9.0625 13.5447 9.0625 14.0625C9.0625 14.5803 9.48223 15 10 15Z" fill="white"/>
<path d="M10 11.25V10.625C10.4326 10.625 10.8556 10.4967 11.2153 10.2563C11.575 10.016 11.8554 9.67433 12.021 9.27462C12.1866 8.87491 12.2299 8.43507 12.1455 8.01074C12.0611 7.58641 11.8527 7.19663 11.5468 6.89071C11.2409 6.58478 10.8511 6.37644 10.4268 6.29203C10.0024 6.20763 9.56259 6.25095 9.16288 6.41651C8.76317 6.58208 8.42153 6.86246 8.18116 7.22219C7.94079 7.58192 7.8125 8.00485 7.8125 8.4375" stroke="white" stroke-width="1.5" stroke-linecap="round" stroke-linejoin="round"/>
</svg>
