<svg width="25" height="25" viewBox="0 0 25 25" fill="none" xmlns="http://www.w3.org/2000/svg">
<path d="M12.5 16.0156C14.8731 16.0156 16.7969 14.0918 16.7969 11.7188C16.7969 9.34565 14.8731 7.42188 12.5 7.42188C10.1269 7.42188 8.20312 9.34565 8.20312 11.7188C8.20312 14.0918 10.1269 16.0156 12.5 16.0156Z" fill="#373F57"/>
<path d="M12.5 2.34375C10.4913 2.34375 8.52768 2.9394 6.85749 4.05539C5.18731 5.17137 3.88556 6.75756 3.11685 8.61337C2.34815 10.4692 2.14702 12.5113 2.5389 14.4814C2.93079 16.4515 3.89807 18.2612 5.31845 19.6816C6.73883 21.1019 8.5485 22.0692 10.5186 22.4611C12.4887 22.853 14.5308 22.6519 16.3866 21.8832C18.2424 21.1144 19.8286 19.8127 20.9446 18.1425C22.0606 16.4723 22.6563 14.5087 22.6563 12.5C22.6511 9.80798 21.5794 7.2277 19.6759 5.32415C17.7723 3.4206 15.192 2.34891 12.5 2.34375V2.34375ZM18.9258 18.2031C18.2934 17.296 17.4785 16.5309 16.5332 15.957C15.4479 16.9968 14.003 17.5772 12.5 17.5772C10.997 17.5772 9.5521 16.9968 8.4668 15.957C7.52156 16.5309 6.70663 17.296 6.07422 18.2031C4.9744 16.9646 4.25591 15.4347 4.00524 13.7974C3.75457 12.1601 3.98239 10.4853 4.66128 8.97447C5.34018 7.46364 6.44122 6.18119 7.83191 5.28147C9.22259 4.38174 10.8437 3.90307 12.5 3.90307C14.1564 3.90307 15.7774 4.38174 17.1681 5.28147C18.5588 6.18119 19.6598 7.46364 20.3387 8.97447C21.0176 10.4853 21.2454 12.1601 20.9948 13.7974C20.7441 15.4347 20.0256 16.9646 18.9258 18.2031Z" fill="#373F57"/>
</svg>
