<svg width="24" height="42" viewBox="0 0 24 42" fill="none" xmlns="http://www.w3.org/2000/svg">
<path d="M13.4062 2.25H10.5938C8.41913 2.25 6.65625 4.01288 6.65625 6.1875V11.8125C6.65625 13.9871 8.41913 15.75 10.5938 15.75H13.4062C15.5809 15.75 17.3438 13.9871 17.3438 11.8125V6.1875C17.3438 4.01288 15.5809 2.25 13.4062 2.25Z" stroke="#686A7C" stroke-width="1.125" stroke-linecap="round" stroke-linejoin="round"/>
<path d="M12 7.875V5.0625" stroke="#686A7C" stroke-width="1.125" stroke-linecap="round" stroke-linejoin="round"/>
<path d="M4.31247 23.712C3.82447 24.56 2.80047 25.36 1.21647 25.664V24.888C2.87247 24.512 3.87247 23.48 3.87247 21.896V21.304H4.73647V21.896C4.73647 23.48 5.76047 24.512 7.40847 24.888V25.664C5.83247 25.36 4.80047 24.56 4.31247 23.712ZM1.09647 28.152V27.4H7.53647V28.152H1.09647ZM13.9602 24.712C13.3362 24.848 12.5362 24.888 11.6722 24.888H9.15216V24.128H11.6882C12.5122 24.128 13.3522 24.096 13.9682 23.984V22.112H9.15216V21.344H14.8402V24.024C14.8402 24.904 14.7682 25.904 14.6402 26.56H13.7682C13.8722 26.056 13.9362 25.36 13.9602 24.712ZM8.77616 28.152V27.4H15.2162V28.152H8.77616ZM17.7518 23.024V23.48H22.5118V24.12H20.0958V24.616H22.9438V25.296H16.4078V24.616H19.2318V24.12H16.8878V22.392H21.5998V21.96H16.8878V21.304H22.4718V23.024H17.7518ZM17.7518 27.44V27.92H22.6318V28.544H16.8878V26.832H21.5998V26.368H16.8878V25.736H22.4718V27.44H17.7518ZM2.61647 33.048V32.008H3.48847V33.048H5.12847V33.8H0.992469V33.048H2.61647ZM2.15247 36.744C2.15247 37.432 2.26447 37.92 2.53647 38.176C2.68047 38.304 2.86447 38.376 3.08847 38.376C3.30447 38.376 3.47247 38.304 3.60847 38.184C3.89647 37.928 4.02447 37.432 4.02447 36.744C4.02447 36 3.87247 35.504 3.57647 35.264C3.44847 35.16 3.28847 35.112 3.08847 35.112C2.86447 35.112 2.68847 35.168 2.55247 35.296C2.27247 35.552 2.15247 36.032 2.15247 36.744ZM1.28847 36.744C1.28847 35.776 1.53647 35.064 2.04047 34.672C2.32047 34.472 2.66447 34.36 3.08847 34.36C3.45647 34.36 3.77647 34.44 4.03247 34.616C4.59247 34.984 4.88847 35.728 4.88847 36.744C4.88847 37.76 4.60047 38.488 4.05647 38.856C3.79247 39.032 3.47247 39.12 3.08847 39.12C2.68047 39.12 2.33647 39.016 2.06447 38.816C1.54447 38.44 1.28847 37.728 1.28847 36.744ZM6.96047 32.216V35.176H8.09647V35.936H6.96047V39.472H6.08847V32.216H6.96047ZM10.2482 37.424C9.96016 38.064 9.35216 38.648 8.61616 38.984V38.176C9.34416 37.736 9.81616 37 9.81616 35.392V32.304H10.6722V35.392C10.6722 37.008 11.1442 37.728 11.8802 38.184V38.984C11.1442 38.656 10.5442 38.056 10.2482 37.424ZM13.3282 39.384H12.4802V35.608H11.3842V34.856H12.4802V32.264H13.3282V39.384ZM14.9282 39.472H14.0802V32.216H14.9282V39.472ZM16.6718 34.432C16.6718 33.768 16.9358 33.256 17.3838 32.896C17.9198 32.464 18.7198 32.264 19.6798 32.264C20.6478 32.264 21.4478 32.464 21.9838 32.896C22.4238 33.256 22.6958 33.768 22.6958 34.432C22.6958 35.112 22.4238 35.616 21.9838 35.976C21.8318 36.096 21.6558 36.2 21.4638 36.288V38.4H22.8958V39.152H16.4558V38.4H17.9358V36.304C17.7278 36.216 17.5438 36.104 17.3838 35.976C16.9358 35.616 16.6718 35.112 16.6718 34.432ZM20.5918 36.536C20.3118 36.584 20.0078 36.608 19.6798 36.608C19.3678 36.608 19.0718 36.584 18.7998 36.544V38.4H20.5918V36.536ZM17.5438 34.432C17.5438 34.856 17.7038 35.168 17.9918 35.4C18.3678 35.712 18.9598 35.848 19.6798 35.848C20.3998 35.848 20.9998 35.712 21.3758 35.4C21.6638 35.168 21.8238 34.856 21.8238 34.432C21.8238 34.024 21.6638 33.704 21.3758 33.464C20.9998 33.16 20.3998 33.024 19.6798 33.024C18.9598 33.024 18.3678 33.16 17.9918 33.464C17.7038 33.704 17.5438 34.024 17.5438 34.432Z" fill="#686A7C"/>
</svg>
