<svg width="200" height="152" viewBox="0 0 200 152" fill="none" xmlns="http://www.w3.org/2000/svg">
<g clip-path="url(#clip0_445_4452)">
<path d="M48.3966 111.473C48.234 111.426 48.0399 111.41 47.8039 111.452C47.5678 111.494 47.4525 111.63 47.3633 111.776C47.7357 111.881 48.1711 111.985 48.7008 112.095C48.5645 111.865 48.4648 111.656 48.3966 111.468V111.473Z" fill="#BF0005"/>
<path d="M185.872 113.209C184.603 113.46 184.015 112.106 182.882 112.279C182.819 112.289 182.594 111.777 182.615 111.761C183.486 111.176 182.783 110.831 182.552 110.256C182.242 109.471 182.395 108.488 181.293 109.701C181.277 109.717 180.805 109.45 180.81 109.335C180.879 108.452 180.49 107.981 179.635 108.196C178.078 108.593 178.581 106.972 177.899 106.538C176.735 106.622 175.429 106.084 174.542 107.323C174.149 106.931 173.755 106.538 173.357 106.141C173.619 105.854 173.881 105.561 174.144 105.273C173.047 104.651 171.558 104.421 171.547 102.696C171.547 102.597 171.353 102.408 171.269 102.419C170.892 102.476 170.519 102.586 170.147 102.68C170.257 102.874 170.377 103.062 170.472 103.266C170.556 103.449 170.608 103.642 170.771 104.092C169.433 103.951 168.237 104.186 167.031 103.951C166.921 103.93 166.832 103.768 166.564 103.501C167.535 103.308 168.384 103.146 169.218 102.978C169.061 101.87 169.502 100.887 168.83 99.92C168.07 99.92 167.23 99.7998 166.443 99.9514C165.473 100.14 165.074 99.1934 164.293 99.1045C163.884 99.0574 163.459 99.1411 163.055 99.0731C162.903 99.047 162.798 98.7438 162.677 98.566C162.913 98.4667 163.149 98.2785 163.38 98.2837C164.193 98.3046 164.272 97.7661 164.198 97.212C164.141 96.7885 163.81 96.5219 163.328 96.6213C162.127 96.867 161.702 96.1664 161.492 95.0215H157.978C157.804 94.6451 157.6 94.4099 157.605 94.1851C157.631 93.3329 156.42 93.014 156.692 92.0469C156.703 92.0207 155.953 91.8796 155.67 91.6548C153.991 90.306 152.139 90.7974 150.309 91.1059C150.089 91.1425 149.915 91.4718 149.716 91.6705C149.239 91.2732 149.102 90.7608 149.485 90.2799C149.91 89.7414 150.445 89.297 150.985 88.7585C150.576 88.4031 150.172 88.0476 149.627 87.5718C148.599 87.2163 147.193 88.0162 146.034 87.1641C146.223 86.6779 147.162 86.521 146.396 85.8937C145.997 85.5643 145.766 85.0102 145.084 85.0572C143.983 85.1304 144.649 83.8496 144.093 83.6405C143.338 83.3529 142.687 83.0288 142.079 82.4694C141.423 81.863 140.631 81.2723 139.797 81.0422C139.105 80.854 138.617 80.556 138.092 80.1274C137.395 79.5627 136.634 78.9772 135.8 78.6949C134.94 78.4022 133.964 78.4597 133.157 78.3708C131.924 77.6546 131.51 76.0653 129.889 75.9294C129.653 75.9085 129.584 74.9675 129.254 74.6486C128.913 74.3192 128.194 74.3506 127.906 74.0055C127.549 73.5821 127.88 72.7927 126.857 72.6149C126.17 72.4947 125.614 71.6687 124.99 71.172C124.895 71.0988 124.738 71.0204 124.633 71.0466C123.122 71.4125 122.451 70.231 121.69 69.52C120.673 69.1489 119.676 69.703 118.7 69.06C118.921 68.7777 119.141 68.5058 119.367 68.2183C118.858 66.7702 117.63 66.8277 116.413 66.9113C115.459 66.9793 115.475 66.4251 115.275 65.688C114.981 64.5797 114.803 64.3445 115.438 63.9367C115.747 63.738 116.188 63.7485 116.529 63.5812C116.686 63.5028 116.77 63.2361 116.828 63.0375C116.844 62.98 116.66 62.8231 116.539 62.7813C116.177 62.6559 115.475 62.5199 115.48 62.4676C115.579 61.7044 116.219 62.0181 116.676 61.9501C117.321 61.8508 118.055 62.2219 118.596 61.5998C118.312 59.6655 120.882 60.4758 121.061 58.9911C120.326 58.1651 120.3 58.0187 121.108 57.8724C121.748 57.7573 121.947 57.2241 122.419 57.0098C122.766 56.8529 123.274 56.9 123.5 56.6543C123.92 56.2047 124.439 56.236 124.932 56.074C125.378 55.9276 125.404 55.2689 125.016 54.6886C124.869 54.469 124.628 54.307 124.428 54.124C124.549 54.0037 124.633 53.8417 124.743 53.8208C127.492 53.3137 126.957 53.5489 128.981 51.233C129.432 50.7154 129.946 50.4331 130.67 50.2763C131.074 50.1874 131.232 49.2203 131.625 48.7602C131.84 48.5093 132.643 48.4779 132.637 48.3681C132.59 47.2337 133.167 46.9723 134.153 47.0821C135.15 47.1918 135.879 46.3606 135.952 45.7542C136.094 44.5936 137.374 44.2956 137.489 43.4957C137.72 41.8699 138.79 42.1731 139.797 42.0685C139.944 42.0529 140.049 41.6503 140.175 41.4255C140.353 41.1118 140.532 40.5316 140.71 40.5263C141.339 40.5263 141.665 40.1499 142.105 39.831C142.493 39.5487 143.034 39.4808 143.527 39.3082C143.207 38.9475 142.95 38.66 142.588 38.2574C143.076 38.1581 143.448 38.017 143.82 38.017C144.544 38.017 145.163 38.0379 145.179 37.0184C145.179 36.6995 145.619 36.3911 145.84 36.067C146.186 35.5546 146.8 35.6592 147.225 35.4292C147.571 35.241 147.539 34.4411 147.87 34.1065C148.205 33.7719 149.102 33.7772 149.186 33.4739C149.375 32.7996 149.349 32.3134 150.298 32.1565C150.985 32.0467 151.583 31.3358 152.37 31.2051C153.598 29.3492 155.963 28.8473 157.296 27.1169C157.694 26.6045 158.408 26.3484 158.408 25.5067C158.408 24.3409 159.719 24.9839 160.228 24.2886C160.637 23.724 160.658 22.9398 161.093 22.6052C161.544 22.255 162.352 22.3647 162.997 22.2445C163.107 22.2236 163.291 22.0406 163.275 21.9674C162.987 20.5245 164.366 20.6971 165.022 20.305C165.924 19.7665 166.868 19.3483 167.597 18.5275C168.5 17.5081 169.512 16.588 170.367 15.7358C171.364 15.5633 172.68 16.2168 172.47 14.4864C173.451 13.3624 174.71 12.5259 176.153 12.4789C177.102 12.4475 177.464 11.4385 178.287 11.5954C179.441 11.8149 180.003 11.0517 180.721 10.4191C181.183 10.0113 181.922 9.90676 182.384 9.49376C182.867 9.06508 183.36 9.07553 183.889 9.1069C184.87 9.15918 185.18 8.36977 185.699 7.72152C185.185 7.53332 184.613 7.47058 184.251 7.16214C183.758 6.74391 183.423 6.13748 182.961 5.5415C182.332 6.47729 181.749 6.79619 181.01 6.61844C179.594 6.2734 178.245 6.7805 177.265 7.52809C176.305 8.25999 175.104 7.91495 174.369 8.54229C173.357 9.41012 172.303 8.96052 171.269 9.10167C170.886 9.15395 170.503 9.201 170.21 9.2376C169.821 9.84403 170.21 10.9523 169.134 10.7223C167.923 10.4661 167.283 11.7156 166.186 11.6476C165.599 12.5364 164.44 12.9128 164.151 14.1152C163.926 15.0562 163.317 15.809 162.142 15.7045C161.376 16.865 159.063 16.405 159.168 18.5327C159.173 18.6739 158.554 18.9248 158.203 18.9876C157.684 19.0764 157.154 18.93 156.703 19.4058C156.467 19.6567 155.953 19.6254 155.664 19.8502C155.024 20.3468 154.505 21.2983 153.839 21.3976C152.082 21.6538 151.458 23.1489 150.424 24.137C149.291 25.2192 147.833 26.0608 147.387 27.8226C147.225 28.4657 146.433 29.1819 145.42 28.9205L142.645 30.1804C142.997 31.4821 141.775 31.1789 141.234 31.6076C140.306 32.3447 139.016 32.5173 138.318 33.6151C138.04 34.0542 137.51 34.6659 137.133 34.645C135.685 34.5561 135.527 36.5793 134.09 36.3545C133.088 37.2851 132.092 38.2104 131.058 39.1723C131.336 39.4912 131.588 39.7735 131.892 40.1186C131.389 40.5106 130.917 40.9968 130.34 41.2896C128.635 42.1626 126.904 42.9782 125.163 43.7728C124.397 44.1231 123.799 44.557 123.584 45.4091C123.332 46.4077 122.766 47.0559 121.643 47.1082C121.486 47.1134 121.339 47.4166 121.187 47.5839C121.418 47.6937 121.643 47.8244 121.879 47.9081C122 47.9499 122.162 47.8819 122.288 47.9237C122.409 47.9656 122.598 48.1067 122.582 48.1642C122.54 48.3629 122.425 48.7132 122.33 48.7132C121.229 48.755 120.127 48.7393 118.758 48.7393C118.79 50.5325 117.798 51.2173 115.983 51.2905C115.118 51.3271 114.389 52.1949 114.462 53.3346C114.488 53.7005 114.336 54.0822 114.242 54.5893C113.828 54.2338 113.539 53.9881 113.209 53.7005C112.946 54.2547 112.689 54.8088 112.432 55.3525H110.638C110.481 55.8126 110.434 56.4138 110.109 56.7327C109.783 57.0568 109.18 57.1039 108.635 57.2973C108.965 57.6632 109.222 57.9508 109.469 58.2174C109.138 58.8291 108.519 58.5154 108.031 58.667C107.428 58.8552 106.898 59.3048 106.29 59.4355C105.802 59.5401 105.063 59.5139 104.769 59.2159C104.197 58.6409 103.599 58.5834 102.912 58.6513C102.408 58.6984 102.188 58.4474 102.036 58.0344C101.905 57.6842 101.779 57.0568 101.59 57.0359C99.8801 56.8425 98.7681 55.0493 96.8955 55.3159C96.7015 55.3421 96.2923 55.0859 96.2714 54.9238C96.2032 54.4011 96.3395 53.8783 95.5895 53.6639C94.9863 53.4914 94.4198 53.1568 93.8585 52.8536C91.9649 51.8342 89.7829 51.3166 88.3404 49.581C88.0467 49.8737 87.8683 50.2135 87.6533 50.2345C87.1602 50.2867 87.1078 49.8842 87.1182 49.4817C87.134 48.9955 86.8665 48.7497 86.3891 48.7341C85.9748 48.7184 85.5604 48.7341 84.8103 48.7341C84.333 48.1956 83.7979 47.3539 83.0426 46.7945C82.2348 46.1986 81.2277 45.8797 80.3098 45.4248C80.079 45.3098 79.8639 45.1634 79.6541 45.0066C79.1296 44.6041 78.6523 43.9192 78.0858 43.8408C77.2465 43.7258 76.9161 42.5913 75.9509 42.9521C75.4788 42.0058 74.2147 42.3247 73.6482 41.5092C73.0555 40.657 72.232 40.3224 71.1829 40.4636C70.265 40.5891 69.5044 40.4479 69.7037 39.2194C69.0795 38.7541 68.7648 37.8131 67.7262 37.9856C67.165 38.0797 66.5513 38.0274 66.3047 37.4576C65.7959 36.2918 64.4899 36.4329 63.6611 35.7638C62.9005 35.1521 61.7203 35.0737 60.8968 34.5143C60.0051 33.8974 59.3075 32.993 58.5312 32.2193C57.7548 32.1408 56.8841 32.4807 56.2809 31.639C55.6882 30.813 54.7912 30.7346 53.8628 30.4679C52.6774 30.1281 51.4709 29.506 50.5373 28.4657C49.9026 27.7547 49.8186 27.0855 49.8029 26.2647C49.8029 26.0452 49.5459 25.8308 49.4095 25.6113C48.3027 25.6113 47.2012 25.6165 46.0945 25.6008C45.9948 25.6008 45.9004 25.4178 45.8007 25.3237C45.7588 25.2035 45.6958 25.0832 45.6853 24.963C45.5752 23.6926 45.5857 23.7658 44.2953 23.9383C43.6764 24.022 42.921 24.2311 42.386 23.5828C42.6483 23.2901 42.9105 22.9973 43.1728 22.7046C42.2863 21.774 41.038 22.7621 40.141 22.1504C39.6479 21.0682 39.1759 20.0279 38.709 19.0032C37.6547 19.1392 36.9046 18.7366 36.0287 18.287C35.1579 17.8427 33.8833 18.1877 32.4618 18.1877C32.787 16.8755 31.9425 15.9031 30.9564 15.8038C29.6556 15.6731 30.2011 14.5596 29.6084 14.1413C29.4143 14.2773 29.2202 14.4079 29.0314 14.5543C28.9212 14.638 28.853 14.7844 28.7324 14.8366C28.1659 15.0876 27.5417 14.8262 27.4578 14.2877C27.3529 13.6499 27.7568 12.573 27.0172 12.4841C25.8684 12.3482 25.3334 11.5954 24.7722 10.9105C24.0483 10.0375 22.8314 10.0479 22.1495 9.19055C21.3312 8.16066 19.9517 7.55423 19.8101 6.02769C18.504 5.88654 17.1979 5.74016 15.9285 5.59901C15.8341 4.94552 15.9705 4.18749 15.2833 4.18226C14.2657 4.18226 13.4108 4.03588 12.7918 3.16283C12.6344 2.94326 12.3984 2.59299 12.2148 2.60344C10.6989 2.69232 10.8878 1.66766 10.8773 0.716187C10.8773 0.261364 10.6045 -0.041852 10.1062 0.0261101C9.85967 0.0574773 9.61313 0.167262 9.39283 0.287503C9.30366 0.334554 9.25645 0.507073 9.23547 0.627314C8.98369 2.09111 8.07625 2.6139 6.64952 2.50934C6.14072 2.47275 5.54275 2.295 5.08641 2.92757C5.08641 3.39285 5.20181 3.96269 5.06543 4.46979C4.65105 6.03292 6.32431 5.49445 6.73869 6.20021C6.77016 9.04417 6.79114 9.02325 9.00468 10.9889C9.33513 11.2817 9.36136 11.9195 9.52921 12.4005C10.4367 12.4005 11.2602 12.437 12.0837 12.39C13.159 12.3273 13.6468 12.9755 14.1241 13.7126C13.8147 14.0211 13.6206 14.2145 13.3426 14.4864C13.8514 14.8941 14.3602 15.647 14.848 15.6313C16.196 15.5947 15.5666 16.9016 16.4321 17.4192H19.7629C19.8678 17.8113 19.9832 18.0622 19.9884 18.3079C19.9884 19.1496 19.8835 20.0174 21.2106 19.8711C21.3207 19.8606 21.4886 20.5193 21.6617 20.8539C21.7771 21.0787 21.9711 21.4603 22.1023 21.4499C23.0937 21.3662 23.9539 21.5178 24.6935 22.2706C24.8089 22.3909 25.4436 22.1347 25.7373 21.9204C26.073 21.6694 26.351 21.4028 26.608 21.9047C26.7182 22.1243 26.7234 22.4954 26.608 22.7098C26.4244 23.0391 26.0992 23.2901 25.8422 23.5619C26.4244 24.8323 27.998 24.6284 28.7429 25.606C30.3112 25.4335 31.4705 26.317 32.6821 27.0907C33.4427 27.5769 33.9253 27.0594 34.4918 26.4216C35.3415 27.2685 36.1913 28.0997 37.0148 28.9519C37.1459 29.0878 37.1669 29.323 37.2298 29.4955C36.999 29.7256 36.805 29.919 36.6476 30.0758L39.543 32.9616C40.1305 32.4667 40.7879 32.3325 41.5153 32.5591C41.253 32.8623 41.0065 33.1446 40.7862 33.4008C41.7408 34.3522 42.706 35.3142 43.7341 36.3388H45.8322C46.0315 36.6839 46.4354 37.3844 47.0176 38.3934C47.4635 36.7884 48.4234 37.2485 49.2049 37.1648C50.1281 38.2627 51.4027 37.9385 52.5882 38.0117C52.756 38.0222 52.9134 38.3097 53.0498 38.4875C53.0603 38.5031 52.8347 38.775 52.777 38.7541C51.6807 38.3672 51.3346 40.082 50.2278 39.669C50.2225 39.669 50.0494 40.0297 50.018 40.2336C50.0075 40.2963 50.1963 40.4218 50.317 40.4636C50.6789 40.5943 51.3608 40.6884 51.366 40.8139C51.408 41.8333 51.8224 42.3247 52.8714 42.1156C54.2038 41.849 53.7841 43.1246 54.3664 43.7728H55.8455C56.6743 43.7728 57.5031 43.7624 58.3318 43.7728C58.8249 43.7833 59.1868 44.51 58.9036 45.0275C58.7305 45.3516 58.4105 45.5974 58.1587 45.8744C58.8826 46.2508 59.5697 46.6011 60.2779 46.9723C60.4719 46.7998 60.7604 46.5384 61.0174 46.3083C61.4581 46.4338 61.563 47.4114 62.2501 46.6847C62.3865 46.5384 62.7537 46.3711 62.8113 46.4234C63.9181 47.5055 64.92 47.3539 65.9795 46.3188C66.1316 46.1672 66.8555 46.3083 67.0338 46.5331C67.3328 46.9043 67.401 47.4585 67.5584 47.9133C69.0376 47.9133 70.4171 47.9081 71.7914 47.9237C71.891 47.9237 71.9854 48.1067 72.1008 48.2165C71.9697 48.3838 71.8438 48.6922 71.697 48.7027C70.8787 48.7707 70.0499 48.7027 69.2474 48.8334C69.0743 48.8595 68.8592 49.5392 68.9222 49.8685C69.0008 50.2867 69.347 50.4227 69.7142 49.9835C69.8401 49.8371 70.2492 49.696 70.265 49.7221C70.821 50.6056 71.7861 50.1404 72.4733 50.4279C73.1814 50.7259 73.7059 51.463 74.4665 52.1479C76.0296 51.5101 77.3619 52.4981 78.7729 53.2091C78.7939 54.4011 78.2501 55.2497 77.1416 55.7551C77.7448 56.3406 78.3218 56.9261 78.925 57.4855C79.4024 57.9194 80.7924 58.0397 81.1333 57.5273C81.8572 56.4452 83.2052 56.3563 84.0602 55.5251C84.1179 55.4675 84.5533 55.6192 84.6005 55.7551C84.6949 55.9956 84.7106 56.3354 84.6005 56.5549C84.5008 56.7536 84.1809 56.9732 83.9763 56.9627C83.1318 56.9052 82.8276 57.6057 82.3555 58.0449C82.1981 58.1913 82.1352 58.5363 82.1666 58.7716C82.1981 59.0068 82.4027 59.2159 82.5338 59.4407C83.1685 58.5049 84.1284 58.552 85.0778 58.6461C86.001 58.735 86.9871 58.3115 87.8316 58.9232C88.2617 59.7753 87.6428 60.1883 87.1654 60.6536C88.1656 61.6852 89.1045 61.8525 89.9822 61.1555C90.2602 61.4064 90.5907 61.626 90.8162 61.9292C91.9649 63.4348 91.9964 63.508 93.869 64.3967C94.2676 64.5849 94.5404 64.6947 94.5876 65.1809C94.661 66.0226 95.2275 66.4774 95.9671 66.7597C96.8536 65.8344 97.6509 64.8306 99.1143 65.2489C99.2297 65.2802 99.4133 65.458 99.3976 65.5103C99.3346 65.7089 99.2087 66.0278 99.0829 66.0383C98.5426 66.0853 98.1177 66.0383 97.8554 66.7545C97.4253 67.9412 97.3152 67.8942 96.0458 68.5424C95.8203 68.6574 95.4216 68.8509 95.4373 68.9659C95.6104 70.2624 94.7292 70.0428 93.9162 70.2415C92.9458 70.4767 91.9859 70.9786 91.1729 71.5693C90.2917 72.2124 89.5888 73.0959 88.8492 73.833C89.1062 74.2878 89.4052 74.7113 89.5783 75.1818C89.6412 75.3543 89.4052 75.6419 89.2846 75.8614C89.2741 75.8823 89.08 75.8353 89.0066 75.7778C88.7968 75.5948 88.6132 75.3961 88.4191 75.1975C87.9365 75.898 87.0605 75.8562 86.4206 76.2587C86.5727 77.5448 85.3925 77.503 84.7159 77.9578C84.7998 78.9772 84.2018 79.1811 83.3206 79.4321C82.6177 79.6307 82.0985 80.8017 81.4585 80.8436C80.1419 80.922 80.6927 82.0669 80.1472 82.5531C78.8096 83.7398 77.5665 85.0259 76.3548 86.2126C76.3548 86.7511 76.3705 87.1641 76.3548 87.5771C76.3233 88.1521 75.7516 88.5756 75.2533 88.3456C74.9019 88.1835 74.6186 87.8541 74.3091 87.6032C73.9367 88.2149 73.4961 88.8265 73.1709 89.4957C72.9401 89.9714 74.178 90.1753 73.6115 90.6144C72.9768 91.1111 73.2286 91.8744 72.6464 92.5331C71.634 92.2089 70.3227 93.0768 69.3313 91.6496C68.3714 92.6063 67.422 93.5525 66.4726 94.4987C66.824 95.9834 65.219 95.5182 64.7626 96.203V97.8707C64.2014 98.153 63.4932 98.3151 63.0946 98.7542C62.4337 99.4757 61.5997 99.7841 60.7919 100.218C60.0051 100.641 59.6379 101.745 58.4787 101.671C58.379 101.666 58.2007 102.084 58.143 102.325C58.0224 102.832 58.3476 103.412 58.0643 103.705C57.1831 104.165 56.5222 104.766 55.8246 104.813C54.9433 104.871 54.6181 106.016 53.6897 105.697C52.7298 105.373 52.3521 106.523 51.5496 106.512C50.7733 106.502 50.6422 106.962 50.6894 107.553C50.7681 108.494 50.6159 109.199 49.42 109.022C48.8955 109.795 47.9041 110.182 48.3709 111.474C48.9374 111.63 49.0318 112.179 48.6752 112.101C49.5354 112.995 49.4305 113.12 49.3203 113.126C48.5073 113.141 47.6943 113.136 47.0229 113.136C46.5193 112.864 46.4669 112.603 46.7921 112.493C47.1278 112.378 47.1802 112.049 47.3376 111.787C46.1784 111.463 45.6643 111.144 45.1555 110.601C45.0506 111.055 45.0716 111.505 44.8618 111.782C44.374 112.43 43.776 112.99 43.2253 113.591C43.5557 114.657 42.0031 115.044 42.3231 116.105C41.7671 116.456 41.5468 117.156 40.7442 117.303C39.5273 117.522 39.0133 118.374 39.0447 119.65C39.0552 120.1 38.6251 120.565 38.3838 121.046C38.4782 121.114 38.6828 121.386 38.8821 121.38C39.8682 121.375 40.2407 122.154 40.7232 122.766C40.8439 122.917 40.7495 123.299 40.655 123.539C40.5082 123.916 40.3141 123.9 40.0728 123.644C39.8105 123.367 39.606 122.938 39.0814 123.053C37.917 123.309 37.4973 122.729 37.1931 121.663C37.0515 121.15 36.2804 121.302 35.8031 121.772C36.0601 122.065 36.3119 122.353 36.4745 122.536C36.1388 124 34.3974 123.587 33.7417 124.669C33.0441 124.69 32.4146 124.711 32.4304 125.714C32.4408 126.357 31.6645 126.661 31.5491 127.424C31.4442 128.103 30.7938 128.814 29.8287 128.851C29.3776 128.867 29.0838 129.128 29.1415 129.635C29.3199 131.104 28.5803 131.805 27.2112 132.171C26.4559 132.375 26.4612 132.808 27.0224 133.744C27.1378 133.938 27.2584 134.126 27.4525 134.44C26.6238 134.56 25.8632 134.67 25.0921 134.779C25.1341 135.009 25.1288 135.119 25.1761 135.198C25.3964 135.543 26.2513 136.16 25.2652 136.18C24.0168 136.207 23.2248 136.63 22.5534 137.519C22.8052 137.806 23.0517 138.089 23.2982 138.371C22.7107 139.035 21.9712 138.606 21.0532 138.805C20.5706 139.328 19.936 140.054 19.2646 140.734C18.6194 141.387 18.0634 142.198 16.9776 142.229C16.8832 142.229 16.752 142.668 16.7258 142.914C16.6838 143.316 16.7153 143.729 16.7153 144.477C15.4197 144.038 14.848 145.742 13.4632 145.355C12.9911 145.225 12.7341 145.528 12.5715 145.941C12.3564 146.49 12.1361 147.039 11.8476 147.771C12.7184 148.006 13.7412 147.525 14.4913 148.429C15.0525 149.104 16.4373 148.178 16.9828 149.339C17.2871 149.161 17.5913 148.978 18.0476 148.706C18.7977 149.757 19.5898 150.866 20.408 152.016C21.0637 151.279 21.5463 150.782 22.5167 151.493C23.4451 152.178 23.5343 152.052 24.9662 151.514C24.7459 151.388 24.5309 151.242 24.2948 151.137C23.9906 151.001 23.6759 150.902 23.293 150.756C24.377 149.724 25.3771 149.555 26.2933 150.249C26.949 149.71 26.5189 148.968 26.6657 148.272C27.1903 147.724 27.7515 147.138 28.3233 146.537V144.101C28.5331 143.892 28.7219 143.688 28.9265 143.505C29.493 142.996 30.1591 142.968 30.9249 143.421C31.5911 143.813 31.9635 143.839 32.3359 143.405C32.6716 143.003 33.0493 142.606 33.2696 142.14C33.9987 140.593 34.9166 139.396 36.8889 139.532C37.0462 139.542 37.2508 138.951 37.4292 138.638C37.555 138.413 37.6757 138.188 37.8121 137.947C38.1058 138.214 38.3943 138.475 38.6828 138.737C39.0325 137.897 38.5744 137.141 37.3085 136.468C39.7056 136.881 40.6131 135.036 41.9611 133.823C42.2496 134.084 42.5381 134.345 42.8266 134.607C43.2934 133.99 44.1117 133.661 44.0907 132.646C44.075 131.867 43.797 131.36 43.1676 130.885C43.8757 130.205 44.5576 129.531 45.2657 128.882C45.5699 128.6 46.3357 128.935 46.5351 129.442C46.6714 129.792 46.7554 130.163 46.855 130.503C47.8884 130.372 48.8745 130.801 50.0127 130.006C49.2994 129.536 48.6384 129.097 47.8254 128.558C48.7381 128.135 49.2889 127.879 49.8396 127.622C49.5511 127.293 49.3099 127.006 49.0633 126.728C49.1997 126.593 49.2836 126.462 49.399 126.404C49.5092 126.352 49.6613 126.357 49.7924 126.363C50.1963 126.378 50.5845 126.326 50.511 125.819C50.4901 125.693 50.0704 125.631 49.8344 125.531C49.5983 125.432 49.3675 125.333 49.1315 125.228C49.2626 125.056 49.4043 124.721 49.5197 124.731C50.4061 124.794 50.7366 124.439 50.7261 123.555C50.7261 123.393 51.3241 123.106 51.665 123.085C52.0951 123.053 52.3889 123.346 52.3469 123.864C52.3154 124.271 52.3207 124.69 52.3521 125.097C52.3626 125.202 52.5567 125.395 52.6092 125.38C52.8085 125.317 53.1337 125.191 53.1389 125.071C53.1966 124.256 53.1232 123.424 53.2439 122.619C53.2701 122.442 53.9467 122.206 54.2719 122.269C54.6758 122.348 55.0325 122.708 55.4574 122.975C55.6252 122.039 55.9924 121.244 55.2266 120.586C55.1269 120.685 55.0168 120.769 54.9381 120.879C54.5709 121.365 54.0884 121.558 53.5271 121.333C52.9921 121.119 53.0655 120.46 53.6897 119.645C53.7736 119.535 53.8838 119.446 54.0202 119.315C53.4537 119.049 52.8977 118.793 52.2787 118.505C53.8313 118.055 53.8995 117.956 54.8856 118.625C55.557 119.08 56.197 118.824 56.8422 118.897C56.9313 118.908 57.0939 118.573 57.1621 118.374C57.1831 118.322 56.9943 118.134 56.8789 118.108C56.5065 118.024 56.1235 117.982 55.2738 117.852C55.9714 117.177 56.3911 116.769 56.7425 116.435C57.2933 116.816 57.5975 117.182 57.9489 117.229C58.2636 117.271 58.72 117.046 58.9403 116.79C59.1658 116.524 59.2445 115.75 59.2865 115.76C60.0313 115.891 59.7218 116.518 59.8005 116.979C59.8635 117.35 59.9684 117.721 60.2306 118.819C60.5349 117.271 60.6975 116.435 60.9178 115.321C61.4685 116.205 61.8357 116.665 62.5438 115.839C62.8271 115.504 63.4723 115.478 64.1227 115.253C62.7956 114.453 62.8113 113.486 63.4618 112.321C64.3587 112.352 65.3396 112.08 66.0267 113.209C66.3782 112.77 66.7139 112.352 67.0811 111.902C67.0286 111.819 66.8975 111.636 66.7768 111.437C66.1316 110.371 66.2838 109.978 67.401 109.848C67.9203 109.785 68.5078 109.999 68.9379 109.372C68.6494 109.116 68.3347 108.854 68.0462 108.572C67.7787 108.311 67.5426 108.018 67.2751 107.725C68.4239 107.019 69.3208 107.239 70.1863 108.175C70.501 108.52 71.335 108.044 71.3822 107.527C71.4294 107.004 71.3927 106.476 71.3927 106.204C73.0555 104.521 74.5032 103.057 75.9404 101.603C76.2394 101.87 76.5279 102.126 76.8164 102.382C77.1364 102.063 77.493 101.813 77.7029 101.467C77.8969 101.149 78.0333 100.725 77.9966 100.37C77.9494 99.9462 77.1626 99.805 76.6276 100.103C76.2866 100.291 76.0034 100.605 75.6519 100.741C75.4579 100.814 75.1694 100.626 74.9176 100.558C74.9753 100.364 74.9858 100.134 75.1012 99.9828C75.3477 99.6586 75.6519 99.3763 75.909 99.1045C76.8007 99.1045 77.6294 99.1149 78.4529 99.094C78.5526 99.094 78.647 98.9111 78.8463 98.7176C77.9441 98.2471 76.9108 98.0014 76.3653 97.0238C78.1068 96.2501 79.78 94.8595 81.768 96.5951C82.025 96.3546 82.2925 96.0566 82.602 95.8109C83.0531 95.4554 82.901 95.1784 82.4919 95.0058C82.1457 94.8647 81.7523 94.8333 81.2225 94.7183C82.1404 94.1955 82.8538 93.6623 83.6563 93.3695C84.4851 93.0663 85.5342 93.7982 86.3105 92.8781C85.7597 92.6115 85.2352 92.3605 84.333 91.9214C85.4765 91.7489 86.2423 91.6339 87.1182 91.5032C86.8088 90.9961 86.515 90.6144 86.3419 90.1805C86.2633 89.9819 86.3996 89.6682 86.515 89.4434C86.6671 89.1559 86.8297 89.2813 87.1077 89.5427C87.37 89.7884 87.7739 89.9505 88.1411 90.0028C88.3352 90.0341 88.5764 89.7623 88.7967 89.6316C87.8159 89.0095 87.8998 88.0371 87.989 87.0909C88.0729 86.1708 87.6375 85.1879 88.3456 84.2678C88.8282 84.6756 89.2321 85.2611 90.0032 85.1043C90.0766 85.0886 90.2182 85.4441 90.3336 85.6218C90.0976 85.7159 89.8563 85.8048 89.6203 85.9041C89.3842 86.0035 89.1534 86.108 88.9174 86.2074C89.0485 86.3799 89.1429 86.6465 89.316 86.7145C89.9402 86.9602 90.5854 87.1431 91.2568 87.3575C91.4142 86.2387 91.0208 85.2663 91.5401 84.4299C92.2429 83.928 93.2448 84.7174 93.7851 83.7921C93.7326 83.0079 94.0001 82.1924 93.1871 81.5441C92.7098 81.1625 92.8724 80.5822 93.3287 80.1535C94.1103 80.7024 94.6663 81.382 94.8236 82.3596C94.8446 82.4747 95.2852 82.5949 95.5213 82.574C95.7573 82.5531 96.1874 82.3335 96.1717 82.2499C96.0038 81.1102 96.7015 80.2685 97.0634 79.3014C97.504 78.1303 98.1859 77.5134 99.45 77.6441C100.609 77.7644 101.506 77.4455 101.931 76.2692C101.831 76.1751 101.737 76.0078 101.632 75.9973C101.223 75.966 100.803 75.9555 100.394 75.9973C99.8749 76.0444 99.6546 75.7621 99.5812 75.323C99.471 74.6799 99.7857 74.2983 100.483 74.3506C101.386 74.4238 102.351 74.016 103.158 74.9361C103.51 75.3386 103.667 74.7322 103.73 74.361C103.772 74.1153 103.851 73.7285 104.003 73.6762C104.627 73.4671 105.309 73.4096 105.697 72.7718C106.841 72.9443 107.921 70.644 109.112 72.6829C110.077 72.6829 111.047 72.7456 112.007 72.6672C112.894 72.594 113.597 72.8188 114.147 73.5089C115.092 73.19 115.396 74.4133 116.288 74.361C117.064 74.314 116.954 75.0041 116.996 75.5425C117.006 75.6523 117.489 75.851 117.515 75.8196C118.354 74.774 119.104 75.0197 119.828 75.9451C120.767 75.6732 121.134 76.7083 121.942 76.8443C122.933 77.0168 123.526 77.6494 123.621 78.7786C123.752 80.3469 123.951 80.4515 125.21 79.683C125.724 79.3693 126.175 79.3014 126.71 79.2857C127.534 79.2595 128.194 80.0803 127.675 80.509C126.61 81.3977 126.993 82.4851 126.93 83.5255C126.92 83.7398 127.156 83.9751 127.282 84.1999C128.205 84.2521 129.223 84.0378 129.81 85.0729C130.613 84.0692 131.625 83.7659 132.616 84.6181C133.288 85.1932 133.424 84.6181 133.828 84.4142C134.127 84.2678 134.594 84.294 134.924 84.4142C135.37 84.5763 135.328 85.0363 134.872 85.7944C134.804 85.9094 134.651 85.9773 134.589 86.0923C134.143 86.8817 134.384 87.483 135.129 87.5509C136.199 87.6502 137.3 87.3 138.334 87.7234C138.491 88.539 138.633 89.2918 138.79 90.123C139.204 89.7466 139.493 89.4852 139.661 89.3284C140.206 89.5845 140.652 89.8982 141.14 89.9923C141.796 90.123 142.493 90.0446 143.159 90.1439C143.296 90.1648 143.453 90.5726 143.458 90.8079C143.469 91.0431 143.301 91.2836 143.212 91.5189C143.018 91.4195 142.824 91.315 142.624 91.2313C142.436 91.1529 142.236 91.1006 142.042 91.0327C141.969 91.2784 141.822 91.5293 141.843 91.7646C141.864 91.9998 142.089 92.4233 142.184 92.4076C143.322 92.2664 143.469 93.014 143.632 93.84C143.658 93.976 144.072 94.0387 144.308 94.138C144.806 92.5069 145.903 92.1567 147.518 92.7108V95.5704C146.674 95.6123 146.044 94.5981 145.137 94.964C145.189 96.4853 145.221 96.7049 146.191 96.5637C147.634 96.3599 147.461 97.557 147.948 98.1792C148.048 98.1373 148.163 98.1216 148.237 98.0537C148.441 97.8707 148.599 97.6145 148.83 97.4891C149.312 97.2329 149.9 97.4734 150.099 98.0328C150.225 98.3883 150.314 98.7542 150.408 99.1045C151.442 98.979 152.417 99.3816 153.341 98.7804C153.362 98.4092 153.362 98.0119 153.419 97.625C153.514 96.9715 152.942 96.7153 152.701 96.2658C152.554 95.9939 152.617 95.4136 152.827 95.2045C153.031 94.9954 153.734 94.9117 153.876 95.0686C154.689 96.0044 155.413 96.0723 156.205 95.0843C156.236 95.0477 156.451 95.0843 156.477 95.1365C156.582 95.3666 156.787 95.675 156.708 95.8423C156.247 96.8513 155.722 97.8289 155.213 98.817C156 99.162 157.044 99.2561 156.755 100.589C156.692 100.877 156.955 101.232 157.075 101.572C157.841 101.169 157.227 100.03 158.119 99.9462C158.743 99.8834 159.493 99.6534 160.06 100.349C159.488 100.615 158.937 100.866 158.35 101.138C158.628 101.3 158.848 101.546 159.069 101.546C159.897 101.546 160.768 101.457 161.214 102.335C161.707 103.302 162.887 103.036 163.532 103.763C164.052 104.338 164.057 103.627 164.183 103.35C164.319 103.046 164.419 102.727 164.676 102.037C164.917 103.099 165.935 103.177 165.835 104.045C165.777 104.568 166.097 104.923 166.485 104.845C167.902 104.557 168.835 106.12 170.283 105.733C170.692 105.624 170.97 106.46 170.734 107.014C170.362 107.893 170.451 108.384 170.981 108.766C171.505 109.147 172.177 109.09 172.738 109.571C173.241 109.999 174.196 109.905 175.051 110.062C174.747 110.402 174.511 110.569 174.416 110.794C174.27 111.144 174.049 111.62 174.186 111.876C174.317 112.127 174.857 112.294 175.203 112.268C175.618 112.237 175.817 111.871 175.801 111.395C175.796 111.17 176.011 110.94 176.174 110.616C176.457 111.212 176.714 111.751 176.96 112.268C178.146 112.436 179.483 111.829 180.123 112.775C180.873 113.282 180.706 111.892 181.54 112.629C182.001 113.037 182.662 113.214 183.218 113.523C183.743 113.816 183.91 114.61 184.629 114.621C184.776 114.474 184.902 114.391 184.97 114.276C185.18 113.925 185.374 113.884 185.557 114.192C185.998 114.924 186.711 114.778 187.383 114.767C187.22 113.884 186.517 113.058 185.835 113.194L185.872 113.209ZM73.4961 102.346C72.5887 102.346 71.6393 102.628 70.7318 102.147C70.821 101.954 70.9626 101.598 70.9888 101.603C71.9382 101.907 72.2477 100.736 73.0712 100.725C73.5695 100.715 73.8738 100.95 73.879 101.358C73.8843 101.703 73.6325 102.346 73.4961 102.346ZM152.208 93.2911C151.573 93.312 150.891 93.4741 150.162 93.0663C150.686 92.2508 151.153 91.6339 152.213 91.6339C153.272 91.6339 153.739 92.2508 154.222 93.0036C153.54 93.5525 152.848 93.2702 152.213 93.2911H152.208Z" fill="#BF0005"/>
<path d="M194.024 118.583C194.014 118.442 193.704 118.322 193.531 118.191C193.426 118.421 193.316 118.646 193.222 118.876C193.127 119.106 193.049 119.347 192.944 119.645C191.779 119.645 190.588 119.65 189.398 119.634C189.298 119.634 189.204 119.456 189.146 119.394C189.403 118.949 189.655 118.521 189.907 118.087C190.232 118.27 190.588 118.416 190.866 118.651C191.354 119.059 191.79 119.038 192.346 118.589C192.12 118.317 191.91 118.05 191.685 117.799C191.412 117.506 190.956 117.276 190.872 116.942C190.672 116.163 190.636 115.353 189.487 115.598C189.004 114.814 188.265 114.678 187.426 114.783V116.435C187.289 116.435 187.153 116.435 187.016 116.435C186.487 116.414 185.878 116.32 185.784 117.062C185.71 117.627 185.836 118.165 186.612 118.081C187.132 118.024 187.515 118.385 187.399 118.725C186.791 120.523 188.522 120.465 189.282 121.129C189.786 121.574 189.985 121.605 190.63 121.03C191.37 120.366 192.11 120.575 192.875 120.643C193.264 120.68 193.374 121.689 194.061 120.993C194.061 120.199 194.087 119.388 194.04 118.583H194.024Z" fill="#BF0005"/>
</g>
<defs>
<clipPath id="clip0_445_4452">
<rect width="200" height="152" fill="white"/>
</clipPath>
</defs>
</svg>
