<svg width="41" height="40" viewBox="0 0 41 40" fill="none" xmlns="http://www.w3.org/2000/svg">
<path d="M36.5829 32.4797C37.6094 30.5042 37.399 31.1022 37.1423 30.2853C36.5213 30.9153 36.9216 30.0344 36.162 33.0082C36.1107 33.2058 36.0132 33.4247 35.8695 33.5475C35.7463 33.6543 34.997 32.9495 34.8789 32.8427C34.766 33.1204 34.5402 33.4033 34.5607 33.6756C34.6326 34.7541 34.5915 35.5817 33.1749 35.0478C32.6514 34.8502 31.7891 36.3452 31.1835 37.0606C31.0603 37.2101 30.0646 36.8844 30.0441 36.9218C29.2742 38.1605 27.8063 37.8188 26.7901 38.4862C26.5848 38.6196 26.2614 38.5449 25.9945 38.5929C22.6225 39.1856 22.4993 39.6661 20.8569 39.9117C20.1999 40.0131 19.4814 39.5593 18.7782 39.5166C18.383 39.4953 17.9827 39.8797 17.567 39.9437C16.2017 40.152 15.0212 39.7942 14.0717 38.6677C13.887 38.4488 13.3121 38.3153 13.0812 38.4488C11.9315 39.1162 11.3053 38.0857 10.4995 37.6746C9.85794 37.3489 9.2369 36.9752 8.621 36.6068C8.44136 36.5 7.40973 35.4375 7.26602 35.288C6.5834 34.5673 7.72795 35.3735 5.65955 34.0974C5.34646 33.9052 5.00772 33.7183 4.60225 32.7787C4.36102 32.2234 3.4423 30.0931 3.16001 29.0573C2.96498 29.2068 2.76481 29.351 2.86233 29.2762C2.59544 28.8064 2.18484 28.2725 1.97954 27.6691C1.8153 27.1886 1.9898 26.5906 1.85636 26.0888C1.75371 25.7097 1.4047 25.4 1.17373 25.053C1.10188 24.9462 1.00949 24.8234 0.994096 24.7006C0.383327 19.7245 0.32687 22.33 0.891446 13.5098C0.896578 13.4244 0.942771 13.2749 0.978698 13.2696C2.58517 13.1254 1.5792 11.6838 2.04113 10.9791C2.48766 10.301 2.8572 9.30795 3.48336 9.05701C5.48504 8.2508 5.56203 6.17923 6.994 4.96725C7.2147 5.55989 7.12231 5.23421 7.3738 6.18457C8.90329 2.47923 8.67746 3.15196 9.31389 3.06119C9.34469 3.31213 9.37548 3.56307 9.41141 3.81401C8.28739 3.91011 8.48756 4.09164 8.49782 5.46379C9.30363 4.89251 8.17961 5.82151 12.8348 1.83854C13.0658 1.64099 13.2813 1.41675 13.5379 1.27793C13.887 1.08572 14.9135 1.55023 15.3549 1.57692C15.4729 1.58226 15.6577 1.16047 15.7398 0.904193C16.0477 -0.0248117 16.4789 -0.355836 17.2436 0.477064C17.3411 0.583847 17.5875 0.717324 17.6029 0.695968C18.5421 -0.473297 19.2556 0.914871 20.0819 0.925549C20.1845 0.925549 20.3283 0.914871 20.3796 0.850802C21.1238 -0.136933 21.7448 0.605203 22.4685 0.92021C22.9612 1.13377 23.5925 1.02165 24.1622 1.04835C24.5164 1.06437 24.968 0.925549 25.2093 1.10174C25.6558 1.42743 25.8714 2.29236 26.6207 1.54489C27.0313 2.48457 26.8209 2.10549 27.3957 2.98644C28.0783 2.37779 27.8371 2.60203 28.1861 2.26033C28.258 2.36711 28.3452 2.46855 28.3966 2.58601C28.5762 2.98644 28.7045 3.41891 28.9406 3.77663C29.033 3.91545 29.4795 4.01155 29.5565 3.92079C30.583 2.80492 31.2554 3.7446 31.9534 4.35326C32.8259 5.11141 33.683 5.89092 34.4991 6.7078C35.3254 7.53536 34.4837 9.70304 36.2236 8.80607C36.2698 8.78472 36.4187 8.88082 36.4546 8.95557C37.2604 10.6587 37.8455 12.5381 38.9233 14.0224C39.6521 15.0261 39.1389 15.9178 39.4314 16.788C39.5957 17.2686 40.2219 17.5942 40.3296 18.0641C40.5144 18.8489 40.5247 19.6978 40.4733 20.5094C40.3656 22.3087 39.7753 24.1934 40.1192 25.8805C40.5093 27.7866 38.292 28.4006 38.677 30.0771C38.8104 28.1016 38.9079 28.8277 38.677 28.0909C37.9276 28.6248 38.6975 27.4022 37.091 32.6932C36.9165 32.6185 36.7471 32.5491 36.5726 32.4743L36.5829 32.4797ZM32.9696 25.7844C33.9397 23.8196 33.0209 18.6781 31.4915 17.1511C31.1117 16.772 30.0184 14.3481 29.6592 13.8355C29.2024 13.1841 28.5043 12.7143 28.0527 12.0629C27.2058 10.8456 27.2879 9.55355 26.3743 9.99669C25.6866 10.3277 25.0656 10.5893 24.5318 9.72974C24.4035 9.52151 24.0852 9.27057 23.8851 9.30261C22.7303 9.45744 22.1708 8.92887 22.0374 7.77562C22.022 7.64215 21.8885 7.52469 21.791 7.4179C21.7808 7.40723 21.5857 7.50867 21.5755 7.57274C21.442 8.45369 21.1443 8.40564 20.6259 7.82368C20.5028 7.68486 20.1281 7.80766 19.8715 7.77562C18.6858 7.64215 17.454 8.78471 16.2992 7.63147C16.2274 7.56206 15.8886 7.62079 15.863 7.68486C15.6525 8.32021 15.6936 8.96624 14.6004 8.84344C13.733 8.74734 12.9528 10.1889 11.8391 9.29193C11.798 9.2599 11.6338 9.33464 11.5722 9.40405C10.0324 11.246 10.869 9.91127 7.76387 15.3198C7.73308 15.3732 7.68175 15.4266 7.66636 15.4853C6.5834 18.897 6.37296 16.5638 7.59963 24.6205C7.63043 24.8287 7.73308 25.037 7.84599 25.2131C8.26173 25.8432 9.09833 26.4999 9.047 27.0712C8.89816 28.7263 10.7356 28.7583 10.9512 30.0023C10.9563 30.0397 11.1257 30.029 11.1873 30.0824C11.7878 30.6003 13.1427 30.3974 12.7527 31.8657C12.7424 31.903 12.8451 32.0258 12.9015 32.0258C13.4045 32.0472 13.9742 31.8977 14.3899 32.1006C15.4267 32.6025 16.3762 33.2859 17.3925 33.8358C17.916 34.1188 18.8706 33.6276 19.3787 33.5795C20.1794 33.5101 21.0981 33.7397 21.7654 33.4087C23.0023 32.8 23.3975 30.9527 25.0348 30.7925C25.081 30.7925 25.1015 30.611 25.1579 30.5896C25.3786 30.4989 25.625 30.4668 25.8406 30.3654C26.5386 30.0237 27.5497 30.312 27.9706 29.9703C29.1408 29.0253 30.0544 27.7385 31.0706 26.5853C31.1117 26.5372 31.1938 26.4572 31.2092 26.4678C32.2357 27.1726 32.0663 26.0354 32.2819 25.651C32.5282 25.2078 32.5847 24.6472 32.7233 24.14C32.8054 24.6686 32.8824 25.1918 32.9696 25.7791V25.7844ZM33.0158 18.7421C33.1954 18.315 33.3392 18.1228 33.3443 17.9306C33.3443 17.7811 33.1801 17.6263 33.0877 17.4768C32.6206 18.3524 32.6873 18.0054 33.0158 18.7421ZM19.0349 0.760037C18.9938 0.818767 18.963 0.86148 18.9322 0.898854C19.0297 0.968262 18.9733 0.994958 19.1734 0.882837C19.1324 0.845463 19.0913 0.808089 19.0349 0.760037Z" fill="#4876EB"/>
</svg>
