<svg width="200" height="152" viewBox="0 0 200 152" fill="none" xmlns="http://www.w3.org/2000/svg">
<mask id="mask0_4343_6176" style="mask-type:luminance" maskUnits="userSpaceOnUse" x="0" y="0" width="200" height="152">
<path d="M200 0H0V152H200V0Z" fill="white"/>
</mask>
<g mask="url(#mask0_4343_6176)">
<path d="M151.599 40.5204C151.759 40.5704 151.959 40.5804 152.189 40.5404C152.429 40.5004 152.539 40.3604 152.629 40.2204C152.259 40.1204 151.819 40.0104 151.289 39.9004C151.429 40.1304 151.529 40.3404 151.589 40.5304L151.599 40.5204Z" fill="#BF0005"/>
<path d="M92.6932 91.95C94.0558 89.6126 96.7229 87.9612 99.1894 86.6442C99.1033 86.6114 99.0241 86.5998 98.9394 86.5571C98.825 86.5101 98.6729 86.3059 98.7 86.2594C98.7883 86.0701 98.9632 85.7723 99.0933 85.7812C99.6349 85.8099 100.053 85.9216 100.415 85.2468C101.012 84.1316 101.114 84.197 102.465 83.7376C102.708 83.662 103.123 83.5206 103.129 83.4103C103.149 82.0994 103.988 82.4444 104.818 82.3637C105.813 82.2666 106.835 81.9108 107.722 81.4442C108.685 80.9383 109.507 80.159 110.344 79.5438C110.152 79.0609 109.918 78.592 109.817 78.1023C109.783 77.9254 110.052 77.6718 110.203 77.4715C110.216 77.4531 110.396 77.5301 110.468 77.5911C110.65 77.7996 110.799 78.0236 110.968 78.2504C111.544 77.6272 112.409 77.7942 113.1 77.491C113.139 76.1929 114.299 76.4131 115.038 76.0563C115.107 75.0355 115.72 74.923 116.636 74.8044C117.358 74.7078 118.042 73.6254 118.681 73.6784C119.999 73.7903 119.619 72.5827 120.225 72.176C121.723 71.1924 123.135 70.1054 124.504 69.103C124.582 68.5687 124.622 68.1601 124.701 67.7573C124.815 67.1877 125.44 66.8547 125.901 67.1546C126.224 67.3636 126.453 67.7306 126.724 68.0228C127.178 67.4728 127.702 66.9329 128.126 66.3177C128.423 65.876 127.225 65.4987 127.852 65.1458C128.548 64.7422 128.411 63.9541 129.09 63.3864C130.043 63.8492 131.464 63.1878 132.248 64.7376C133.336 63.9266 134.412 63.134 135.49 62.3315C135.358 60.8164 136.874 61.5031 137.428 60.8968L137.67 59.2444C138.264 59.0484 138.99 58.9928 139.449 58.6153C140.207 57.9984 141.073 57.8118 141.936 57.5035C142.779 57.2023 143.296 56.156 144.432 56.4031C144.531 56.4175 144.768 56.0379 144.862 55.8091C145.055 55.3219 144.812 54.7002 145.141 54.4552C146.079 54.1274 146.818 53.6292 147.518 53.6811C148.398 53.749 148.889 52.6688 149.763 53.12C150.667 53.5756 151.209 52.4927 151.999 52.6183C152.77 52.7411 152.965 52.3048 153.001 51.7137C153.058 50.772 153.309 50.0912 154.47 50.443C155.096 49.7563 156.142 49.5152 155.864 48.1707C155.323 47.9299 155.313 47.3727 155.658 47.5039C154.936 46.4989 155.054 46.3847 155.162 46.4006C155.967 46.498 156.777 46.6266 157.44 46.7236C157.895 47.0631 157.917 47.329 157.575 47.3901C157.222 47.4498 157.125 47.769 156.928 48.013C158.029 48.4975 158.487 48.888 158.912 49.506C159.086 49.0766 159.122 48.627 159.37 48.3804C159.949 47.8081 160.624 47.3409 161.255 46.8268C161.083 45.7203 162.672 45.5686 162.509 44.4734C163.113 44.2081 163.432 43.5474 164.246 43.5147C165.485 43.4736 166.112 42.7063 166.268 41.4355C166.323 40.9887 166.815 40.5958 167.123 40.1457C167.045 40.0634 166.876 39.7659 166.676 39.7468C165.697 39.6035 165.442 38.7881 165.057 38.1052C164.96 37.9394 165.104 37.5764 165.238 37.3534C165.441 36.9991 165.626 37.0464 165.826 37.3384C166.043 37.6531 166.188 38.1089 166.72 38.0654C167.906 37.9761 168.237 38.6107 168.389 39.7143C168.454 40.2392 169.238 40.2022 169.78 39.8066C169.565 39.4821 169.36 39.1589 169.228 38.9577C169.775 37.5622 171.438 38.2197 172.237 37.2452C172.933 37.3267 173.559 37.398 173.685 36.3958C173.768 35.7611 174.585 35.5672 174.803 34.8311C175.011 34.1742 175.757 33.5657 176.712 33.6651C177.16 33.7104 177.485 33.4951 177.508 32.9932C177.542 31.5126 178.376 30.927 179.785 30.7592C180.566 30.6713 180.62 30.2345 180.2 29.2332C180.109 29.0278 180.018 28.8225 179.876 28.4784C180.715 28.4797 181.483 28.4809 182.26 28.4835C182.254 28.2501 182.27 28.1412 182.242 28.0563C182.075 27.6781 181.312 26.9501 182.295 27.0736C183.536 27.2248 184.378 26.9235 185.17 26.1399C184.965 25.8167 184.758 25.5035 184.561 25.1917C185.24 24.6241 185.912 25.1467 186.84 25.0904C187.39 24.6453 188.129 24.0156 188.89 23.4398C189.627 22.8907 190.289 22.1688 191.373 22.2869C191.462 22.3 191.664 21.8849 191.719 21.6503C191.816 21.2603 191.847 20.8404 191.955 20.1081C193.167 20.7302 193.989 19.1221 195.298 19.7077C195.744 19.9044 196.045 19.6452 196.264 19.2527C196.561 18.7404 196.858 18.228 197.241 17.5462C196.415 17.1828 195.335 17.52 194.724 16.5111C194.267 15.7671 192.759 16.4763 192.392 15.2503C192.069 15.385 191.736 15.5183 191.242 15.7189C190.652 14.5714 190.031 13.3587 189.386 12.1022C188.626 12.7389 188.08 13.1543 187.223 12.3114C186.401 11.5039 186.295 11.6097 184.802 11.937C185.001 12.0975 185.188 12.2664 185.41 12.41C185.686 12.5919 185.988 12.7372 186.344 12.9307C185.126 13.7936 184.112 13.8171 183.302 13.0012C182.571 13.44 182.889 14.2344 182.649 14.9068C182.055 15.3758 181.407 15.8672 180.755 16.3883L180.402 18.8026C180.164 18.98 179.947 19.1504 179.721 19.3094C179.084 19.7316 178.426 19.6658 177.731 19.0992C177.124 18.6163 176.763 18.5331 176.333 18.9149C175.938 19.2615 175.514 19.6037 175.229 20.037C174.282 21.465 173.2 22.5093 171.269 22.0956C171.112 22.0626 170.829 22.6174 170.606 22.8981C170.446 23.097 170.294 23.3072 170.13 23.5259C169.882 23.2167 169.633 22.9175 169.384 22.6183C168.916 23.3988 169.261 24.2174 170.411 25.0626C168.095 24.3096 166.939 26 165.426 27.0118C165.177 26.7126 164.928 26.4134 164.678 26.1141C164.123 26.6596 163.264 26.8675 163.148 27.8712C163.055 28.6459 163.248 29.1896 163.804 29.7458C163.003 30.3159 162.233 30.8804 161.436 31.4208C161.099 31.6545 160.385 31.2165 160.261 30.6829C160.173 30.3164 160.147 29.9387 160.097 29.5878C159.059 29.5674 158.142 28.9986 156.898 29.6252C157.533 30.193 158.132 30.7254 158.855 31.3769C157.894 31.6608 157.312 31.8385 156.73 32.0161C156.97 32.3846 157.165 32.7063 157.374 33.0096C157.215 33.1279 157.117 33.245 156.991 33.2771C156.875 33.3106 156.726 33.2889 156.599 33.2602C156.206 33.1825 155.812 33.1855 155.809 33.6903C155.809 33.8219 156.216 33.942 156.439 34.0757C156.662 34.2094 156.876 34.3416 157.089 34.4738C156.935 34.6232 156.748 34.9394 156.63 34.9121C155.758 34.724 155.381 35.0225 155.262 35.9046C155.239 36.0629 154.604 36.263 154.264 36.2336C153.834 36.2011 153.589 35.8722 153.704 35.3634C153.793 34.9621 153.854 34.5465 153.882 34.1464C153.887 34.046 153.718 33.8191 153.666 33.8317C153.459 33.8621 153.123 33.9444 153.096 34.0617C152.918 34.8644 152.877 35.6973 152.633 36.47C152.577 36.6438 151.881 36.7744 151.563 36.6673C151.179 36.5302 150.875 36.1219 150.498 35.794C150.194 36.6995 149.714 37.4276 150.38 38.1921C150.493 38.1077 150.614 38.0444 150.709 37.9471C151.146 37.5159 151.648 37.3973 152.169 37.7059C152.663 37.9904 152.498 38.6333 151.766 39.355C151.671 39.4523 151.549 39.5254 151.392 39.6338C151.917 39.9834 152.425 40.3104 152.996 40.687C151.398 40.908 151.314 40.9968 150.431 40.1906C149.833 39.6484 149.164 39.8031 148.531 39.6398C148.443 39.6169 148.237 39.9203 148.139 40.108C148.112 40.1546 148.273 40.3701 148.377 40.4157C148.732 40.5484 149.11 40.6543 149.923 40.9045C149.133 41.4661 148.658 41.8111 148.263 42.0968C147.773 41.6412 147.53 41.2317 147.18 41.14C146.869 41.0541 146.392 41.2067 146.136 41.4321C145.87 41.666 145.689 42.4178 145.641 42.4006C144.928 42.1649 145.316 41.585 145.313 41.1197C145.307 40.7449 145.252 40.3629 145.154 39.2368C144.633 40.7271 144.344 41.5238 143.964 42.6001C143.548 41.6498 143.248 41.1411 142.427 41.8497C142.102 42.1357 141.455 42.0714 140.778 42.2049C141.978 43.1889 141.818 44.1458 141.007 45.1995C140.121 45.0396 139.112 45.165 138.593 43.947C138.183 44.3317 137.786 44.6981 137.365 45.0913C137.402 45.1777 137.504 45.3845 137.593 45.5997C138.072 46.7511 137.867 47.1153 136.75 47.0833C136.227 47.0674 135.673 46.7742 135.157 47.3354C135.406 47.6346 135.675 47.9367 135.921 48.2557C136.151 48.5521 136.337 48.8723 136.56 49.2082C135.32 49.7443 134.461 49.3964 133.746 48.3418C133.48 47.9492 132.589 48.304 132.465 48.8113C132.34 49.3186 132.303 49.8488 132.264 50.116C130.378 51.5381 128.731 52.7828 127.096 54.0091C126.838 53.6986 126.587 53.4092 126.338 53.11C125.975 53.3803 125.583 53.5756 125.326 53.8816C125.091 54.1708 124.892 54.5661 124.88 54.9281C124.868 55.3509 125.62 55.6023 126.196 55.3935C126.56 55.2547 126.882 54.9885 127.258 54.902C127.457 54.8603 127.717 55.0803 127.955 55.1858C127.868 55.3651 127.825 55.5912 127.693 55.7336C127.399 56.0141 127.06 56.2576 126.764 56.4872C125.883 56.3584 125.063 56.2284 124.249 56.1295C124.15 56.115 124.035 56.2801 123.808 56.449C124.631 57.0443 125.614 57.4408 126.018 58.4801C124.184 58.9902 122.331 60.1239 120.612 58.1242C120.32 58.324 120.019 58.5832 119.678 58.7758C119.181 59.0669 119.29 59.3558 119.67 59.5932C119.996 59.7824 120.377 59.8685 120.884 60.064C119.899 60.4454 119.118 60.8769 118.285 61.0481C117.42 61.2248 116.487 60.3506 115.592 61.1495C116.097 61.4962 116.585 61.8203 117.412 62.3859C116.259 62.3891 115.48 62.3964 114.6 62.3992C114.833 62.9487 115.065 63.3666 115.181 63.8181C115.231 64.0276 115.048 64.3141 114.906 64.5258C114.715 64.791 114.566 64.6378 114.336 64.3414C114.115 64.0564 113.733 63.8388 113.384 63.7372C113.2 63.68 112.924 63.9125 112.677 64.0078C113.557 64.7631 113.338 65.7113 113.111 66.6383C112.899 67.537 113.182 68.5689 112.347 69.3765C111.931 68.9014 111.609 68.2681 110.826 68.3051C110.754 68.3148 110.657 67.9369 110.575 67.7428C110.825 67.6885 111.076 67.6342 111.318 67.5685C111.57 67.5043 111.812 67.4387 112.054 67.373C111.95 67.186 111.89 66.9043 111.732 66.8105C111.154 66.4734 110.537 66.2012 109.905 65.8965C109.584 66.9815 109.84 67.9992 109.204 68.7551C108.439 69.1485 107.554 68.2207 106.895 69.0642C106.831 69.8432 106.445 70.6155 107.163 71.3774C107.583 71.8228 107.34 72.3736 106.823 72.7325C106.131 72.0754 105.675 71.3215 105.668 70.3301C105.666 70.2085 105.248 70.0261 105.006 70.021C104.766 70.0061 104.309 70.1615 104.317 70.2436C104.32 71.3962 103.506 72.1261 103.009 73.0337C102.405 74.1278 101.642 74.6428 100.404 74.3304C99.2738 74.0438 98.3369 74.2302 97.752 75.3271C97.838 75.4306 97.9024 75.6119 98.0098 75.6377C98.4111 75.7267 98.8253 75.7974 99.2367 75.8171C99.7585 75.8429 99.9342 76.1617 99.9413 76.5973C99.9575 77.2465 99.5859 77.5761 98.9104 77.4268C98.03 77.2273 97.0123 77.4827 96.344 76.4552C96.0555 76.0088 95.8104 76.5793 95.696 76.9466C95.6203 77.1882 95.4861 77.5526 95.3305 77.5804C94.6866 77.6985 93.9952 77.658 93.528 78.2263C92.6959 77.9733 91.7007 79.1112 90.8831 78.7592C88.9106 81.1893 86.1053 83.1642 83.074 84.1964C83.1829 85.041 83.2288 85.2802 82.6127 85.5539C82.277 85.7069 81.8431 85.6334 81.4821 85.7524C81.3122 85.8084 81.194 86.064 81.1071 86.2433C81.0786 86.2997 81.2449 86.4757 81.3564 86.5425C81.6938 86.7232 82.3677 86.9532 82.3604 87.0026C82.1515 87.7402 81.5631 87.3408 81.0978 87.3435C80.4402 87.3484 79.7714 86.8766 79.1474 87.412C79.1451 89.3622 76.7194 88.1888 76.3257 89.6371C76.9279 90.564 76.9373 90.7068 76.1141 90.738C75.4635 90.7642 75.1889 91.2596 74.6934 91.3994C74.324 91.5071 73.8266 91.3838 73.5727 91.5993C73.092 91.9838 72.5818 91.8789 72.0738 91.9663C71.6069 92.0496 71.4916 92.6997 71.7935 93.3301C71.9101 93.5695 72.1244 93.7625 72.2963 93.9696C72.1602 94.0709 72.0579 94.2177 71.9461 94.2215C69.1513 94.3282 69.7203 94.1689 67.376 96.1707C66.8554 96.6201 66.3004 96.8219 65.5648 96.876C65.156 96.9072 64.8573 97.8438 64.4049 98.2426C64.151 98.4581 63.3551 98.372 63.349 98.4823C63.235 99.6076 62.622 99.7909 61.6584 99.5387C60.6848 99.2852 59.8424 100.001 59.6848 100.594C59.3785 101.722 58.0685 101.833 57.834 102.608C57.3705 104.187 56.3567 103.726 55.3414 103.688C55.1901 103.686 55.0332 104.068 54.8728 104.267C54.6498 104.547 54.3878 105.095 54.2082 105.079C53.5848 104.988 53.2132 105.317 52.7216 105.569C52.2952 105.79 51.7508 105.781 51.2413 105.878C51.5059 106.281 51.7212 106.605 52.0195 107.053C51.5202 107.081 51.1338 107.166 50.7677 107.112C50.0553 107.008 49.4447 106.899 49.2773 107.905C49.231 108.222 48.7508 108.465 48.4868 108.75C48.0667 109.204 47.4776 109.016 47.0287 109.183C46.6549 109.321 46.5787 110.118 46.1945 110.395C45.8103 110.673 44.9297 110.544 44.7972 110.828C44.5123 111.463 44.4711 111.952 43.5079 111.973C42.8093 111.982 42.1128 112.598 41.3222 112.613C39.836 114.276 37.4285 114.429 35.8522 115.947C35.3827 116.394 34.6425 116.548 34.5209 117.379C34.3516 118.537 33.1495 117.704 32.5435 118.323C32.0554 118.828 31.9227 119.597 31.4396 119.86C30.9437 120.141 30.1581 119.915 29.5075 119.941C29.3958 119.945 29.1916 120.097 29.1899 120.177C29.2685 121.644 27.9276 121.276 27.2181 121.567C26.2494 121.971 25.2487 122.249 24.4077 122.955C23.3696 123.834 22.237 124.598 21.2631 125.314C20.249 125.338 19.0469 124.505 19.0043 126.247C17.8725 127.214 16.5043 127.863 15.0722 127.704C14.1278 127.596 13.6255 128.543 12.8372 128.266C11.7312 127.882 11.0572 128.552 10.2621 129.082C9.74758 129.421 9.00089 129.413 8.4864 129.752C7.94923 130.108 7.45594 130.026 6.93586 129.92C5.97341 129.728 5.55235 130.465 4.94376 131.033C5.4209 131.295 5.98611 131.438 6.29746 131.797C6.72152 132.283 6.97112 132.926 7.33945 133.587C8.0974 132.757 8.7176 132.525 9.42521 132.8C10.7811 133.342 12.1793 133.041 13.2674 132.442C14.323 131.859 15.4611 132.369 16.2831 131.863C17.4083 131.148 18.392 131.747 19.4315 131.757C19.8147 131.763 20.2078 131.77 20.5006 131.772C20.9747 131.225 20.748 130.08 21.7834 130.464C22.943 130.896 23.7572 129.752 24.8369 129.971C25.5495 129.175 26.7523 128.967 27.2129 127.822C27.5765 126.925 28.2787 126.27 29.4318 126.539C30.3616 125.503 32.5807 126.292 32.7801 124.169C32.8003 124.03 33.4401 123.871 33.8064 123.854C34.334 123.84 34.8367 124.065 35.3514 123.656C35.6251 123.443 36.1254 123.547 36.4442 123.371C37.1498 122.969 37.8018 122.104 38.4792 122.102C40.2583 122.099 41.0874 120.715 42.2498 119.884C43.5242 118.979 45.0904 118.359 45.7918 116.673C46.0427 116.063 46.9286 115.465 47.9003 115.87L50.8234 115.024C50.6652 113.687 51.829 114.16 52.4255 113.813C53.4528 113.215 54.7538 113.234 55.6057 112.247C55.9464 111.852 56.5591 111.325 56.9322 111.4C58.3539 111.699 58.8045 109.723 60.1877 110.148C61.3117 109.372 62.4358 108.597 63.5938 107.796C63.3631 107.439 63.1563 107.125 62.9101 106.736C63.4612 106.422 64.0071 106.007 64.6131 105.802C66.4211 105.187 68.2614 104.628 70.0974 104.098C70.91 103.863 71.556 103.523 71.8981 102.704C72.2902 101.751 72.9483 101.19 74.0637 101.303C74.222 101.326 74.4054 101.039 74.5883 100.894C74.3767 100.752 74.1679 100.59 73.9519 100.478C73.839 100.421 73.6705 100.467 73.5491 100.399C73.4362 100.342 73.2684 100.176 73.2969 100.119C73.3654 99.927 73.5348 99.598 73.6239 99.6111C74.7181 99.7307 75.805 99.8997 77.1606 100.098C77.39 98.3225 78.4694 97.783 80.2705 97.9757C81.1371 98.062 81.974 97.3153 82.0697 96.1771C82.0935 95.8067 82.3069 95.4538 82.4683 94.9721C82.8218 95.3877 83.0741 95.6671 83.3586 96.0018C83.6955 95.4952 84.0338 94.9788 84.3692 94.4821L86.1404 94.7411C86.3652 94.3091 86.4916 93.7212 86.8645 93.4523C87.2373 93.1834 87.8382 93.2208 88.4 93.1109C88.1271 92.6971 87.9103 92.3824 87.7119 92.0805C88.1267 91.5247 88.6953 91.9212 89.2019 91.8436C89.8231 91.7425 90.4126 91.3739 91.035 91.3335C91.5343 91.3055 92.2636 91.4324 92.5072 91.7712C92.5832 91.8733 92.6551 91.9343 92.734 92.0166L92.6932 91.95ZM129.649 53.5538C130.549 53.6854 131.53 53.5459 132.351 54.1511C132.234 54.326 132.043 54.662 132.015 54.6477C131.119 54.2134 130.643 55.3263 129.83 55.2175C129.334 55.155 129.07 54.884 129.12 54.4769C129.169 54.1405 129.51 53.5335 129.639 53.5523L129.649 53.5538Z" fill="#BF0005"/>
</g>
</svg>
