<svg width="200" height="152" viewBox="0 0 200 152" fill="none" xmlns="http://www.w3.org/2000/svg">
<g clip-path="url(#clip0_437_4281)">
<path d="M199.945 42.9831C199.961 42.8832 199.934 42.7766 199.927 42.6713C198.861 42.0368 197.774 41.49 196.463 41.7114C196.396 41.7222 196.261 41.4617 196.203 41.3092C196.188 41.2687 196.33 41.1175 196.418 41.0972C196.915 40.9825 197.479 41.3105 197.966 40.8461C197.984 40.5559 197.962 40.2386 198.031 39.943C198.097 39.6595 198.196 39.3342 198.392 39.1425C198.763 38.7807 198.497 38.6578 198.229 38.5323C197.961 38.4067 197.629 38.3838 197.402 38.2137C196.543 37.5725 196.545 37.3146 197.321 36.2212C196.856 35.8297 196.169 35.9134 195.739 35.3423C195.358 34.8374 195.456 34.3474 195.471 33.852C195.48 33.5307 195.774 33.3714 196.149 33.3835C196.323 33.3889 196.502 33.2229 196.679 33.1338C196.446 33.0083 196.227 32.8206 195.98 32.772C195.433 32.6627 194.938 32.7882 194.58 33.2769C194.568 33.2931 194.224 33.1594 194.184 33.0434C194.119 32.8584 194.096 32.5236 194.203 32.4399C194.426 32.2671 194.756 32.2415 195.019 32.1092C195.168 32.0336 195.268 31.8662 195.39 31.7393C195.212 31.6515 195.042 31.5435 194.855 31.4814C194.025 31.2074 194.031 31.2034 194.483 30.2084C194.705 30.4082 194.928 30.6121 195.239 30.8929C195.322 30.5243 195.534 30.1382 195.421 29.9708C195.077 29.4592 194.607 29.0313 194.2 28.5871C194.403 28.3455 194.713 28.1309 194.774 27.8609C194.829 27.6138 194.687 27.2426 194.504 27.0387C194.023 26.5028 193.43 26.0641 193.36 25.2554C193.353 25.1785 193.01 25.1083 192.817 25.0745C192.42 25.0043 191.958 25.2338 191.594 24.7303C191.594 24.382 191.699 23.9257 191.567 23.5531C191.404 23.0969 190.776 22.8444 190.94 22.2059C190.955 22.1505 190.825 22.0223 190.737 21.9818C190.378 21.8171 190.006 21.6821 189.646 21.5188C189.556 21.4769 189.499 21.3149 189.416 21.3068C188.103 21.1745 187.641 20.4023 187.723 19.1644C187.734 19.0051 187.507 18.6784 187.415 18.6879C186.493 18.7783 186.221 17.9198 185.627 17.5458C185.39 17.396 185.022 17.3487 184.738 17.3987C183.703 17.5782 184.03 16.5982 183.575 16.0987H181.407C179.419 15.3683 180.398 13.8496 179.851 12.9452C179.643 12.9209 179.541 12.9114 179.438 12.8979C178.886 12.8223 178.122 13.2138 178.066 12.123C178.05 11.7909 177.614 11.4508 177.319 11.17C176.961 10.8271 176.579 10.8892 176.227 11.2388C176.101 11.3644 175.932 11.4467 175.771 11.5574C175.513 11.1052 174.845 10.958 174.893 10.3033C174.921 9.9118 174.706 9.72281 174.351 9.69851C173.713 9.65666 173.066 9.63236 172.679 10.3046C172.374 9.80786 172.051 9.32727 171.779 8.81834C171.566 8.42145 171.815 7.77617 170.982 7.73567C170.526 7.71407 170.062 7.12279 169.647 7.17274C168.642 7.29288 167.814 6.88115 167.037 6.45861C166.079 5.93753 165.251 5.30439 164.313 6.44106C164.222 6.55041 163.91 6.47346 163.701 6.48966C163.127 6.53421 162.655 6.49506 162.673 5.71073C162.679 5.38269 162.449 5.1586 162.042 5.2018C161.409 5.2693 161.528 4.76576 161.382 4.38507C160.989 3.3699 160.733 4.67261 160.318 4.44447C159.984 4.11103 159.606 3.73439 159.131 3.26056C158.718 3.3132 158.151 3.25516 157.736 3.47655C157.366 3.67364 157.234 3.95714 156.784 3.53325C156.377 3.14851 155.656 3.18631 155.265 2.68412C154.792 3.04591 154.529 3.64934 153.882 3.82214C153.542 3.45765 153.75 3.01216 153.698 2.61123C153.619 2.01454 153.148 1.77965 152.592 2.18329C152.231 2.44518 152.112 2.63283 151.643 2.25619C151.037 1.7675 150.281 1.77425 149.707 2.46543C149.54 2.66657 149.394 2.65172 149.255 2.37363C149.212 2.28724 149.198 2.17519 149.203 2.07664C149.221 1.76345 149.155 1.42191 148.804 1.48941C148.674 1.51371 148.647 2.02534 148.551 2.30614C148.52 2.39658 148.39 2.53968 148.348 2.52618C148.194 2.47758 147.93 2.36283 147.935 2.29129C147.99 1.62846 147.759 1.32471 147.049 1.35036C146.539 1.36926 145.957 1.38816 145.529 1.16947C145.156 0.977775 145.019 0.690234 144.579 1.12222C144.171 1.52316 144.041 1.44351 143.506 1.13032C143.292 1.00477 143.177 0.563338 142.819 0.989925C142.352 1.54341 141.467 1.42731 141.034 2.11714C140.553 2.88257 139.806 2.73677 139.071 2.48433C139.209 1.69325 140.112 0.948076 139.251 0.108402C138.904 0.143501 138.929 0.942676 138.316 0.463441C137.498 -0.17644 136.571 -0.106242 135.733 0.416192C135.411 0.617336 135.277 0.644336 135.029 0.385143C134.934 0.286596 134.641 0.206949 134.6 0.255547C134.293 0.620036 134.055 0.794181 133.666 0.308196C133.267 -0.191289 132.665 0.201549 132.164 0.0746528C131.933 0.529589 131.76 1.00612 131.474 1.40301C131.048 1.99564 130.585 2.13739 130.163 1.92005C129.741 1.7027 129.856 1.23157 130.54 0.374344C129.739 0.0922023 129.684 0.034154 129.455 0.254197C128.715 0.962926 127.98 0.915677 127.264 0.285246C127.039 0.0868024 127.001 0.0706029 126.789 0.309546C126.203 0.968326 125.524 0.912977 124.834 0.448591C124.686 0.350044 124.532 0.260947 124.38 0.1678C123.977 0.844129 123.304 0.665935 122.687 0.742883C122.203 0.803631 121.985 1.50696 121.341 1.40031C121.246 1.38411 121.011 1.8404 120.948 2.10364C120.855 2.49243 121.073 2.95682 120.638 3.25786C120.564 3.20116 120.448 3.15931 120.42 3.08506C120.356 2.89742 120.358 2.68412 120.285 2.49918C120.051 1.90115 119.732 1.835 119.09 2.24404C118.929 2.34663 118.787 2.47893 118.626 2.60583C118.43 2.20489 118.235 1.80665 118.027 1.38006C117.577 1.82825 117.198 2.20624 116.814 2.58963C116.665 2.47893 116.522 2.35878 116.365 2.25889C115.783 1.8917 115.758 1.89845 115.381 2.30074C115.844 2.88662 116.302 3.4671 116.639 3.89234C117.803 4.02868 118.771 3.70334 119.918 4.32027C119.081 4.47687 118.319 4.39722 117.956 4.73876C117.389 5.27469 116.723 5.00065 116.228 5.2585C115.657 5.55414 115.274 5.96722 114.81 5.21125C114.312 5.31789 113.753 4.9804 113.3 5.44479C113.125 5.62433 112.884 6.04687 112.65 5.56224C112.546 5.34624 112.615 4.84541 112.781 4.73336C113.609 4.17448 113.749 3.17281 114.339 2.47083C114.394 2.40603 114.297 2.08744 114.202 2.04964C114.019 1.97405 113.718 1.9241 113.592 2.02264C113.176 2.34798 112.768 2.70707 112.444 3.12151C111.846 3.88829 110.865 4.00978 110.137 4.55247C110.031 4.63076 109.643 4.54167 109.585 4.42827C109.456 4.17718 109.361 3.83699 109.43 3.5805C109.497 3.3321 109.785 3.14311 109.996 2.90552C108.814 2.67512 107.962 3.08551 107.44 4.13668C107.309 4.39992 107.195 4.67531 106.832 4.29597C106.219 3.65609 105.543 3.72089 104.877 4.23523C105.085 4.46472 105.289 4.68746 105.49 4.90751C105.173 5.35704 104.698 5.2558 104.318 5.18695C103.896 5.11 103.507 4.84811 103.104 4.66721C102.412 6.38706 103.66 7.55208 104.141 8.90069C103.444 9.05323 102.832 9.30162 102.305 8.73734C102.216 7.83422 102.634 6.82175 101.683 6.09277C101.6 6.02932 101.789 5.52714 101.935 5.2774C102.075 5.03575 102.427 4.84271 101.996 4.60377C101.83 4.51332 101.515 4.48767 101.383 4.58487C100.968 4.89131 100.667 5.34354 100.031 5.218C99.3878 5.08975 99.0617 5.34219 99.0684 6.05902C99.0711 6.37086 98.7193 6.45051 98.3782 6.51261C97.6962 6.63545 97.2618 6.21562 96.753 5.94157C95.9112 6.94189 94.7663 6.31281 93.7744 6.50316C93.6147 6.53421 93.4875 6.72725 93.3576 6.8339C93.5457 7.05394 93.7324 7.27263 93.9192 7.49268C92.727 7.36308 91.44 8.4147 90.3885 7.12549C90.1841 7.55343 89.9852 7.97191 89.7985 8.36205C89.5129 8.17306 89.1177 7.84367 89.0677 7.88957C88.3098 8.58479 87.0865 8.64014 86.5601 9.90911C86.1459 8.78054 85.2812 8.92903 84.6397 9.12748C84.2121 9.25977 83.7358 9.55272 83.3284 9.79841C82.6166 10.2263 82.0888 10.9567 81.4839 11.5601C80.4892 11.5061 80.1333 12.4173 79.4797 12.879C78.8531 12.0947 78.1251 11.9705 77.2725 12.5321C77.8909 12.9465 78.9966 12.9708 78.5378 14.1804H80.8127C81.0062 13.7646 81.2065 13.334 81.4068 12.9033C81.6625 13.1261 81.8831 13.3178 82.0969 13.504C82.5949 13.1342 82.8426 12.5172 83.484 12.3741C83.8968 12.8507 83.5355 13.396 83.7033 13.8591C82.6951 14.418 81.3878 14.5881 81.3986 16.1149C81.1997 15.6869 81.0008 15.2603 80.7112 14.638C80.5975 15.1213 80.5637 15.4196 80.4554 15.6896C80.3011 16.0717 79.7152 16.2715 79.4404 16.0352C78.8802 15.5519 78.2698 15.074 78.5378 14.1817H76.2873C76.2088 14.1034 76.1222 14.0359 76.0586 13.9509C75.7771 13.5715 75.4009 13.419 74.9638 13.5918C74.551 13.7551 74.6065 14.2695 75.0842 14.9026C75.1478 14.9877 75.2344 15.0551 75.3522 15.1726C74.9421 15.4858 74.57 15.8557 74.1234 16.0811C73.8676 16.2107 73.4928 16.1162 73.172 16.0973C73.0841 16.0919 72.9542 16.0177 72.9244 15.9434C72.7769 15.5789 72.6551 15.2036 72.5103 14.7919C72.0109 15.2576 71.5671 15.6707 71.1502 16.0595C70.8011 15.9488 70.774 15.29 70.1705 15.7504C69.6048 16.1824 69.667 16.856 69.2543 17.3676C68.805 16.9478 68.3625 16.5334 67.92 16.1203C67.0863 16.9518 66.2568 17.7848 65.4164 18.6069C65.3568 18.6649 65.2229 18.6501 65.3149 18.6325C64.7154 18.6744 64.3094 18.7027 63.9873 18.7257C63.4203 19.5667 64.1903 20.5333 63.4244 21.2474C63.2173 20.8046 63.017 20.378 62.81 19.9366C62.6232 20.1229 62.4771 20.2795 62.3187 20.4212C62.2592 20.4752 62.1699 20.4955 62.0941 20.5306C61.0913 19.6761 61.0737 19.6734 59.9627 20.9423C60.1467 21.1624 60.3294 21.3797 60.5175 21.6051C60.0236 22.0925 59.2887 21.6132 58.9978 21.9102C58.5241 22.3962 57.9057 22.4367 57.3982 22.7594C56.9814 23.0253 56.4726 23.1617 56.095 23.4654C55.7959 23.7057 55.2925 23.9244 55.4251 24.4468C55.4955 24.7249 55.7255 24.9611 55.8744 25.2203C56.1491 25.6969 56.1221 26.2058 55.7702 26.2922C55.5077 26.357 55.1788 26.2652 54.9122 26.1599C54.7295 26.0884 54.6037 25.8724 54.4521 25.7225C53.7349 25.7968 52.9784 25.4944 52.3017 25.9277C52.1786 26.2909 52.0582 26.6432 51.8971 27.1157C51.6292 26.5662 51.4302 26.1613 51.2069 25.7036C50.2596 26.8308 49.1567 27.5274 47.7547 27.626C47.3866 27.6516 47.0754 27.7758 47.0808 28.0931C47.0943 28.8355 46.7154 28.8963 46.0997 28.9611C45.7099 29.0016 45.9535 29.3431 46.1213 29.6104C46.5841 30.3448 46.5544 30.6931 45.9779 30.8065C45.5232 30.8956 45.2471 31.1129 44.9088 31.3573C44.6124 31.5705 44.2051 31.6286 43.8329 31.7609C44.0752 32.039 44.2673 32.2604 44.4581 32.4804C43.6642 33.2364 42.8838 33.3273 42.117 32.7531C42.0452 33.0825 42.0236 33.3876 41.9113 33.6562C41.7773 33.9775 41.5621 34.0855 41.2806 33.7453C41.1832 33.6279 40.9937 33.5874 40.834 33.505C40.4524 34.2151 40.7447 34.9711 40.6067 35.6798C40.3049 35.9822 40.0018 36.2833 39.6932 36.591C39.2494 36.178 38.8055 35.7662 38.3386 35.3315C37.8947 36.3818 36.7241 35.6245 36.2139 36.1969C36.5049 36.7719 36.7498 37.3187 37.0543 37.829C37.1991 38.072 37.5564 38.3028 37.1112 38.4877C36.8865 38.5809 36.5279 38.4256 36.2586 38.3149C36.08 38.242 35.9514 38.0504 35.7998 37.9127C35.1435 38.9508 33.9377 38.1678 33.23 38.6484C32.7144 38.9994 32.0553 39.025 31.6507 39.5056C31.5979 39.5677 31.6777 39.7284 31.6385 39.8174C31.3719 40.4263 31.3678 40.4236 30.5505 39.7094C30.0132 40.3237 29.48 40.9649 28.9116 41.5724C28.2066 42.3257 28.1931 42.3135 29.0646 43.3503C28.8941 43.4542 28.7344 43.5879 28.5503 43.6567C27.7018 43.9753 27.5584 44.3155 28.0658 44.8946C28.277 45.1349 28.5151 45.3523 28.7452 45.5764C29.185 46.0057 29.2513 46.4255 28.729 46.8426C27.8886 46.0043 27.0549 45.1727 26.1374 44.2575C25.8194 45.0013 25.3512 45.6857 25.2646 46.416C25.1752 47.168 25.0399 47.4501 24.2293 47.604C23.6663 47.7107 23.96 48.5341 23.9722 49.0282C23.9762 49.1673 24.4363 49.2942 24.684 49.4305C24.8586 49.5264 25.0291 49.6303 25.7761 50.0663C23.9424 49.768 22.987 50.555 21.9653 51.1207C21.3035 51.4865 21.3806 50.7481 21.0274 50.7359C20.9341 50.8858 20.7338 51.0586 20.7405 51.2246C20.7676 52.0197 20.2615 52.0224 19.6999 51.9968C19.4928 51.9873 19.2831 52.0211 19.076 52.0359C18.7729 52.3383 18.4697 52.6407 18.1679 52.9418C18.0624 53.6545 18.3655 54.4105 17.9555 55.0814C17.2166 55.5094 16.2571 54.7196 15.5981 55.5539C16.0365 55.7699 16.4682 55.9805 16.8715 56.1776C16.8715 56.7837 16.8864 57.3183 16.8661 57.8516C16.8526 58.2106 16.655 58.3875 16.2706 58.4104C15.8863 58.4334 15.6941 58.2579 15.5886 57.9326C15.4993 57.6585 15.4235 57.3804 15.3274 57.0564C15.1799 57.2036 15.0473 57.2724 15.0365 57.3561C14.9566 58.0297 14.8118 58.5886 13.9092 58.4064C13.1256 58.2484 12.8617 58.9923 12.3746 59.3581C12.7954 59.8009 13.4382 60.2086 12.7508 60.8971C12.3123 61.3371 12.2257 61.7111 12.6547 62.2362C12.9592 62.6075 13.1134 63.1002 13.3246 63.5187C13.855 63.6402 14.4248 63.3 14.8889 63.7927C14.4112 64.0897 13.9687 64.4798 13.4572 64.6337C13.2095 64.708 12.8387 64.2301 12.5031 64.1937C12.0092 64.141 11.4638 64.0168 11.0402 64.5203C10.5151 65.144 9.74107 65.5814 9.66258 66.525C9.65581 66.6087 9.31208 66.6573 9.12938 66.7329C8.94669 66.8085 8.61108 66.9071 8.61649 66.9786C8.64085 67.3418 8.93316 67.3715 9.24577 67.3796C9.64904 67.3904 10.1065 67.227 10.4123 67.6604C10.0929 67.9911 9.88046 68.4555 9.35674 68.5284L8.8885 68.0613C8.76535 68.1909 8.52582 68.3313 8.53665 68.4487C8.60837 69.2479 8.19291 70.1254 9.02654 70.8247C9.25118 71.0123 9.14968 71.6157 9.15239 72.0288C9.1551 72.4014 8.56777 72.6728 8.17397 72.4581C7.92497 72.3231 7.73415 72.0828 7.51492 71.8884C6.85993 72.6242 7.588 73.584 7.0318 74.2981C6.186 73.8553 6.18059 73.8513 5.67311 74.3791C5.55266 74.5046 5.47823 74.672 5.3835 74.8178C5.47011 74.9042 5.53237 75.0176 5.62304 75.0473C5.90587 75.1418 6.45124 75.2053 6.45124 75.2809C6.45124 75.9302 5.9167 75.6616 5.57702 75.6913C5.15615 75.7277 4.73122 75.6994 4.33877 75.6994C3.83806 76.1516 4.10465 77.0007 3.39959 77.2802L2.98008 78.8272C3.84212 79.4792 2.49966 79.706 2.69589 80.3324C2.87994 80.9156 2.85152 81.6297 2.70536 82.2345C2.5335 82.9473 3.16548 83.2807 3.27103 83.8963C2.66341 83.9895 2.07473 84.0799 1.42516 84.1798C1.88663 84.8602 2.61063 85.3826 1.66334 86.0819C1.53071 86.1791 1.41298 86.4855 1.46846 86.6192C1.73912 87.255 2.02601 87.8949 2.40764 88.4673C2.53214 88.6536 2.96113 88.636 3.25073 88.7116C3.0315 89.014 2.8664 89.5054 2.58492 89.5837C1.51447 89.8834 0.870313 90.6623 -0.00390625 91.6532C0.502221 91.9583 1.02323 92.2728 1.54425 92.5873C1.19104 92.9397 1.03947 93.0909 0.730925 93.3987C1.23705 93.7456 1.74453 94.0926 2.27231 94.4543C2.02331 94.6838 1.95564 94.7918 1.86497 94.8188C1.67146 94.8755 1.45493 94.8607 1.26818 94.9295C0.891966 95.0699 0.670028 95.6207 0.843247 95.9204C1.03406 96.2525 1.47794 96.3119 1.93535 96.0297C2.11262 95.9204 2.24254 95.7341 2.3914 95.5856C2.85558 95.8434 2.64176 96.3105 2.75273 96.6791C2.89211 97.1462 3.28457 97.5619 3.33734 98.025C3.37524 98.3598 3.03827 98.7378 2.83392 99.1724C3.08834 99.6895 3.97339 99.9122 4.03158 100.746C3.78528 101.498 3.09375 101.866 2.60928 102.404C2.32374 102.72 1.98677 102.983 2.09639 103.452C2.56462 103.889 3.02474 104.318 3.50244 104.765C2.98278 105.201 2.57951 105.448 3.21014 106.026C3.58364 106.369 3.3211 107.363 4.33606 107.116C4.36719 107.109 4.56342 107.485 4.52146 107.527C4.22104 107.835 3.91249 108.12 4.11413 108.968C4.61078 109.358 5.3605 109.946 5.85309 110.334C6.09804 111.295 5.47282 112.294 6.85452 112.259C7.25103 112.25 7.37012 112.81 7.13059 113.273C7.0115 113.502 6.8058 113.686 6.48372 114.08C7.21855 114.123 7.72603 114.153 8.23893 114.184C8.68957 114.609 8.44056 115.448 9.14156 115.731C9.01977 116.351 9.38109 116.784 9.83444 117.031C10.4962 117.391 10.2634 118.18 10.7425 118.613C10.9685 118.408 11.1931 118.204 11.4164 118.003C11.7142 118.751 11.8603 119.688 13.0823 119.291C13.2149 119.248 13.5817 119.45 13.583 119.543C13.606 120.85 14.7266 121.05 15.5426 121.535C15.3545 121.753 15.1637 121.973 14.9133 122.263C15.5778 122.413 16.3315 122.366 16.7037 122.72C17.1922 123.184 17.9677 122.934 18.3141 123.572C18.3818 123.696 18.6741 123.743 18.8662 123.75C19.4928 123.771 20.2317 123.608 20.0842 124.657C20.0815 124.68 22.1507 125.68 22.1872 125.68C22.9193 125.68 23.6514 125.68 24.255 125.68C24.7611 126.185 25.1401 126.562 25.5176 126.94C26.5556 126.509 27.1673 127.684 28.1335 127.617C29.093 127.551 30.0592 127.59 31.0228 127.613C31.2055 127.617 31.3841 127.763 31.5654 127.846C31.6412 128.134 31.6331 128.598 31.8077 128.681C32.3463 128.94 32.8768 129.197 33.4018 129.49C33.705 129.659 34.3775 129.625 34.5968 129.402C35.2897 128.699 35.8296 128.707 36.4048 129.471C36.9758 129.447 37.3115 129.875 37.7526 130.104C38.1735 130.323 38.7946 130.163 39.3278 130.166C39.9707 130.169 40.6216 130.101 41.2509 130.192C41.6149 130.244 41.9437 130.551 42.2888 130.744C42.4756 130.582 42.6975 130.389 42.8978 130.216C43.2348 130.361 43.3403 131.042 43.8613 130.487C44.3648 129.949 44.9981 130.095 45.5895 130.316C45.8655 130.42 46.0915 130.774 46.35 130.784C47.5247 130.837 48.7061 130.842 49.8807 130.779C50.1284 130.766 50.3571 130.396 50.5966 130.188C50.8091 130.379 51.0351 130.582 51.2354 130.764C51.4803 130.582 51.8931 130.231 51.9201 130.259C52.7537 131.108 53.5332 131.123 54.3885 130.271C54.5225 130.138 54.9731 130.222 55.2316 130.324C56.6174 130.869 57.2778 130.959 58.4822 130.612C58.6622 130.56 58.7894 130.323 58.9355 130.177C59.1602 130.381 59.3848 130.585 59.5743 130.755C60.0723 130.335 60.5053 129.844 61.0466 129.553C61.4756 129.324 61.7855 129.8 62.0887 130.084C62.1171 130.109 62.2632 130.065 62.3052 130.012C62.5894 129.659 62.8316 129.429 63.2281 129.934C63.6274 130.44 64.3135 130.261 64.7046 130.104C65.0429 129.968 65.166 129.298 65.3731 128.885C66.8184 128.885 68.2109 128.894 69.6021 128.873C69.7807 128.87 69.9566 128.707 70.1339 128.619C70.1515 128.519 70.1894 128.419 70.184 128.321C70.1664 128.008 70.2178 127.715 70.5873 127.708C70.6644 127.707 70.8241 128.045 70.8133 128.221C70.7916 128.615 70.9878 128.862 71.3167 128.867C71.9974 128.88 72.8716 129.177 72.8256 127.898C72.8148 127.608 73.3845 127.296 73.7282 126.953C73.938 127.4 74.1396 127.829 74.3711 128.322C74.8569 128.049 75.4442 128.517 75.8759 128.026C76.1669 126.932 76.1993 126.902 76.9964 126.961C77.2048 126.976 77.5053 126.91 77.604 127.021C77.9992 127.465 78.3077 127.684 78.7827 127.086C78.891 126.949 79.4865 126.959 79.6001 127.103C80.2754 127.962 81.2295 127.697 81.963 127.528C82.461 127.414 83.0875 127.09 83.5246 126.721C83.7506 126.531 83.6099 125.933 83.6897 125.53C83.7249 125.356 83.8995 125.209 84.2419 124.718C84.6194 125.335 84.9551 125.885 85.2244 126.326C86.3313 126.292 87.2137 126.404 88.069 125.721C88.7483 125.178 89.6726 124.855 90.6632 125.019C91.0489 125.082 91.6227 125.074 91.8473 124.843C92.5794 124.093 93.4496 124.518 94.2521 124.395C94.696 123.978 95.1412 123.558 95.5485 123.176C95.8327 123.358 96.2103 123.689 96.2807 123.634C97.3741 122.766 98.5894 122.355 99.9859 122.467C100.064 122.474 100.184 122.378 100.23 122.299C100.783 121.358 102.208 122.334 102.664 121.193C103.2 121.193 103.741 121.244 104.266 121.171C104.538 121.134 104.778 120.873 105.035 120.715C105.509 120.426 105.632 121.333 105.92 121.065C106.348 120.665 106.769 120.457 107.325 120.556C108.02 120.679 108.256 119.666 108.987 119.911C109.299 119.341 109.612 118.771 109.927 118.197C109.31 117.814 108.663 118.031 108.046 117.996C107.406 117.96 106.755 118.045 106.122 117.973C105.421 117.894 104.992 118.336 104.438 118.582C103.902 118.821 103.169 118.581 102.571 118.735C102.224 118.824 102.023 119.323 101.514 119.283C101.1 119.249 101.001 118.52 100.573 118.801C100.22 119.033 99.9589 119.317 99.4771 119.281C98.7463 119.227 97.9709 119.122 97.4946 119.909C96.7435 119.847 96.0127 119.843 95.5134 120.553C94.5945 120.588 93.9273 121.514 92.8826 121.216C92.2005 121.02 91.9556 121.474 92.0111 122.13C92.0165 122.195 91.6186 122.361 91.6132 122.351C91.1869 121.667 90.5022 121.806 89.8891 121.857C89.6171 121.879 89.3424 122.119 89.7403 122.448C89.8661 122.552 89.9189 122.743 90.0055 122.894C89.8228 122.968 89.6022 123.148 89.4628 123.098C88.9987 122.934 88.5818 122.6 88.1109 122.501C87.6048 122.393 87.0567 122.477 86.2718 122.477C85.9998 122.875 85.6425 123.4 85.3989 123.758C83.8318 123.758 82.5422 123.829 81.2633 123.735C80.2172 123.658 80.6706 124.658 80.1198 125.039H77.3537C76.3901 125.039 75.4226 125.097 74.4644 125.023C73.4941 124.947 72.9203 125.892 71.8296 125.742C70.2165 125.521 70.1853 125.687 68.127 126.793C67.694 127.025 67.3597 127.052 67.0254 126.687C66.8116 126.455 66.6452 126.29 66.3271 126.617C66.139 126.812 65.7737 126.972 65.5192 126.936C65.0348 126.864 64.7276 126.018 64.1998 126.357C63.6828 126.689 63.0576 126.82 62.6246 127.192C62.1915 127.565 62.0535 127.474 61.6664 127.165C61.3904 126.947 60.8843 126.99 60.4783 126.968C59.9451 126.94 59.4051 126.998 58.8733 126.951C58.3861 126.907 58.1181 127.177 57.7852 127.453C57.4212 127.755 57.1695 126.587 56.6539 127.312C56.2763 127.844 55.6024 127.397 55.191 127.632C54.6565 127.937 54.2518 128.465 53.7755 128.88C53.5765 129.052 52.9933 128.716 52.8471 128.345C52.7754 128.16 52.8038 127.887 52.6793 127.782C52.1231 127.311 51.1447 127.998 50.7171 127.094C50.6995 127.056 50.5222 127.037 50.5046 127.064C49.9917 127.869 49.1608 127.67 48.4787 127.574C47.0618 127.376 45.4988 128.242 44.2064 127.03C44.1848 127.01 43.9358 127.284 43.7653 127.354C43.4905 127.466 43.0115 127.671 42.9343 127.578C42.4742 127.019 41.914 126.944 41.2441 126.945C40.2291 126.948 39.1249 127.246 38.298 126.32C37.6552 126.32 36.9975 126.232 36.375 126.343C35.6334 126.474 35.4169 125.561 34.7091 125.671C33.3233 125.883 32.0946 125.44 30.9483 124.681C30.7102 124.523 30.3759 124.387 30.1066 124.419C29.4854 124.494 29.1796 124.076 28.7425 123.796C28.3365 123.534 27.6193 124.051 27.2715 123.526C26.9223 122.997 26.2403 123.315 25.9304 122.857C25.5528 122.303 24.8491 122.362 24.3308 122.022C23.8003 121.675 22.9085 121.892 22.1777 121.83C21.6865 121.788 21.1167 122.05 20.7365 121.505C20.815 121.427 20.9016 121.358 20.9652 121.274C21.5457 120.502 21.5092 120.251 20.7825 119.913C20.3332 119.704 19.9083 119.383 19.4387 119.295C18.4738 119.115 18.2478 117.78 17.1137 117.894C16.9784 117.907 16.8052 117.621 16.6631 117.462C16.1908 116.931 15.4546 116.568 15.5263 115.689C14.8849 115.373 15.1095 114.241 14.6129 114.215C13.6263 114.162 13.6548 113.675 13.6399 112.993C13.6345 112.721 13.4085 112.456 13.2961 112.182C12.6276 110.572 11.7994 109.069 10.4475 108.079C10.4475 107.485 10.4191 107.056 10.4542 106.631C10.5151 105.876 10.0794 105.76 9.47312 105.795C9.40275 105.799 9.3229 105.655 9.23765 105.57C9.33508 105.424 9.44064 105.278 9.53266 105.126C10.032 104.302 9.91429 103.999 9.03736 103.899C8.63273 103.853 8.17938 104.011 7.96015 103.685C8.15502 102.894 9.20246 102.786 9.16322 101.863C8.83708 101.193 8.00887 100.625 9.05225 99.7664C9.52184 99.3803 8.95211 98.839 8.53665 98.4745C8.74911 98.2477 9.00353 98.0547 9.15104 97.7995C9.34862 97.4567 9.03601 96.8829 8.65303 96.8532C8.24569 96.8208 7.8343 96.8465 7.48109 96.8465C7.0521 96.0189 7.32817 95.267 7.23209 94.5488C7.05616 93.2434 7.74363 91.7949 6.59334 90.6488C6.59334 89.9009 6.57439 89.1531 6.60687 88.4065C6.61499 88.231 6.79498 88.0623 6.89647 87.8908C7.36606 87.6303 8.11984 88.3134 8.4568 87.4912C8.02511 87.0606 7.64619 86.6826 7.26862 86.306C7.41207 86.1885 7.53793 86.0333 7.70167 85.9631C7.88301 85.8862 8.13743 85.9456 8.2917 85.8443C9.22817 85.2247 9.37298 84.6091 8.88715 83.4414C8.81948 83.2794 8.69904 83.1376 8.60296 82.9864C9.48124 82.5585 8.89527 81.5973 9.29854 81.0358C10.0631 79.972 10.5449 78.7678 11.0538 77.5907C11.3298 76.9521 11.9253 76.6875 12.2189 76.1475C12.3434 75.9167 12.38 75.5198 12.2622 75.3025C12.0498 74.9123 11.3055 74.5775 12.4219 74.4061C13.4098 74.2549 13.4612 73.2856 13.9051 72.6363C14.2177 72.1787 14.1785 72.0558 13.851 71.6859C13.4991 71.2904 13.6155 70.6397 13.943 70.6465C14.7157 70.6627 15.3112 70.1794 15.433 69.6893C15.6305 68.8942 16.18 68.4811 16.6157 67.9195C16.7849 67.7009 16.8647 67.3539 16.8553 67.0704C16.8404 66.6128 16.9635 66.2861 17.2978 65.9567C17.651 65.6071 18.1246 65.3587 18.1896 64.7215C18.237 64.2585 18.6673 63.8467 18.781 63.3769C18.9772 62.5629 19.9813 63.111 20.2358 62.4279C20.3386 62.1525 20.7202 61.9001 20.6905 61.6746C20.6417 61.302 20.363 60.9605 20.1586 60.5623C20.9611 59.4945 22.7163 59.3581 23.2955 57.8704C23.2468 57.6774 23.236 57.4614 23.1385 57.2967C23.033 57.1185 22.8043 57.0119 22.7028 56.8323C22.4876 56.453 22.742 55.8428 23.1034 55.8388C23.9478 55.8266 24.7909 55.8347 25.5948 55.8347C26.224 54.3916 26.178 54.258 27.0793 53.9488C28.0293 53.6235 28.3879 53.124 28.4624 52.152C28.5341 51.2152 29.0564 50.8763 30.1215 50.7008C30.4111 50.6536 30.9375 50.4902 30.9307 50.4281C30.8319 49.5385 31.5262 49.5885 32.0323 49.278C32.4762 49.0053 33.0811 48.9567 33.3491 48.6205C33.7023 48.1764 34.0108 47.5743 34.1543 47.0546C34.3329 46.4052 34.5467 46.2986 35.1489 46.169C35.5752 46.0759 35.8797 45.4846 36.4927 45.5197C36.5753 45.5237 36.8053 44.977 36.7566 44.7259C36.6957 44.4114 36.4169 44.1387 36.1206 43.6729H39.6675C40.3861 42.9561 40.9924 42.3513 41.5973 41.7479C42.4039 41.9396 42.6488 41.1782 43.1549 40.8515C43.7409 40.4749 43.6651 39.6879 44.0846 39.3261C44.7856 38.7199 44.0143 38.5309 43.9033 38.1705C44.4419 37.8924 44.9724 37.6184 45.5272 37.3308C45.6761 37.4658 45.9007 37.6697 46.1254 37.8735C46.8331 37.1688 46.0604 36.2009 46.7046 35.3315C47.1065 35.3315 47.6235 35.3612 48.1363 35.3234C48.6384 35.287 49.1567 35.4854 49.6344 35.048C49.9768 34.7335 50.4816 34.5958 50.9079 34.3812C50.6954 34.1368 50.5019 33.9168 50.2218 33.5968C50.8997 33.177 51.755 33.6819 52.3248 33.0096C52.8579 32.3805 54.0854 33.2013 54.513 32.1281C55.4427 32.4953 56.0314 31.5948 56.819 31.5125C57.363 31.4544 57.8502 31.4437 58.2034 30.955C58.7731 30.1679 59.7123 29.9371 60.5324 29.6104C61.0223 29.4147 61.1711 29.2446 61.2104 28.7788C61.2375 28.4454 61.454 28.2429 61.8546 28.2766C62.3796 28.3225 62.9304 28.3846 63.2674 27.8204C64.2769 27.6651 64.7858 26.8119 65.5111 26.2504C66.3908 25.5713 67.3367 24.9436 68.6115 25.0853C69.2732 24.1903 70.3856 23.6476 70.8322 22.4786C69.8173 22.4421 68.8037 22.4421 67.8252 22.4421C67.537 21.917 67.9321 21.89 68.169 21.8873C68.7847 21.8778 69.3003 21.8333 69.824 21.3433C70.3126 20.887 70.7849 21.3041 70.8309 22.2059C70.8363 22.3085 70.8309 22.4124 70.8309 22.4786C72.0434 22.974 72.0678 21.8724 72.4737 21.2704C72.9406 21.6321 73.2099 22.2288 73.8324 22.407C73.9867 22.0358 74.0571 21.4378 74.3061 21.3514C74.9936 21.1138 75.7649 21.0584 76.2684 21.8589C76.7231 21.431 77.1737 21.0071 77.6934 20.5171C78.8626 21.0301 79.8383 20.2376 80.8424 19.8192C81.2755 19.6383 81.8642 19.4776 82.1524 19.1617C82.6856 18.5772 83.365 18.8674 83.8724 18.6217C84.4016 18.3652 84.9564 18.1196 85.4639 17.8158C85.9064 17.5499 86.192 17.0085 86.644 16.7763C87.0729 16.5563 87.6955 16.9586 88.1502 16.4605C87.9485 16.2337 87.7509 16.0123 87.5479 15.7828C87.9823 15.3022 88.4168 15.3467 88.8417 15.8111C89.1705 16.1716 89.5725 16.2661 89.927 15.9353C90.2532 15.6316 90.6442 15.5749 90.9947 15.4075C91.3466 15.2387 91.4779 14.611 91.7255 14.148C91.9393 14.6002 92.1396 15.0228 92.4779 15.7382C92.6173 14.8527 92.7107 14.2654 92.7973 13.7133C93.6797 13.2395 94.3401 13.7713 95.1371 14.1021C95.1832 13.5675 95.1926 13.0545 95.2901 12.5591C95.3144 12.4322 95.6067 12.2999 95.7894 12.2783C95.9721 12.2553 96.1711 12.3674 96.3632 12.42C96.3199 12.5712 96.3226 12.7683 96.2252 12.8655C95.7759 13.311 95.7218 13.7335 96.2076 14.1804C96.5919 13.797 96.9316 13.3677 97.3606 13.0613C97.6678 12.8412 98.0941 12.7859 98.4919 12.6495C98.2375 12.3701 98.0345 12.146 97.8275 11.9192C98.0142 11.8152 98.1766 11.6735 98.3634 11.6317C98.8776 11.5169 99.1645 12.2486 99.3729 12.1824C99.8181 12.0407 100.092 11.5183 100.721 11.6033C101.349 11.6884 101.998 11.6222 102.396 11.6222C102.95 11.903 103.293 12.1932 103.664 12.2324C104.03 12.2702 104.874 11.4332 105.525 10.6772C105.622 10.5652 105.896 10.4369 105.954 10.4828C106.976 11.2928 108.099 11.0525 109.211 10.8028C109.387 10.7636 109.517 10.5166 109.669 10.3654C109.896 10.5665 110.122 10.7677 110.458 11.0633C110.577 10.4032 110.681 9.81731 110.785 9.23683C111.395 8.90609 112.038 9.10993 112.657 9.06268C113.277 9.01543 113.202 8.57805 113.245 8.16091C113.256 8.05021 113.492 7.94626 113.643 7.88012C113.68 7.86392 113.85 8.01511 113.854 8.09341C113.869 8.5065 113.776 9.03568 114.371 9.04513C116.495 9.08023 118.618 9.05863 120.695 9.05863C121.25 7.48323 121.366 7.44678 122.525 8.39985C123.452 8.41065 124.391 8.46195 125.238 8.38095C125.352 8.12716 125.396 8.03941 125.432 7.94626C125.536 7.67357 125.345 6.9041 125.962 7.41033C126.46 7.81937 127.098 7.76402 127.586 8.23381C127.969 8.60234 128.751 8.65364 129.287 8.10286C128.684 7.69922 128.537 7.10524 128.654 6.45051C128.831 5.45694 130.283 4.85216 131.076 5.44209C131.103 5.46234 130.83 5.88488 130.688 6.13462C131.099 6.61655 131.097 6.58821 132.363 6.50451C133.198 6.45051 134.04 6.49371 134.79 6.49371C135.189 5.93887 134.922 4.97905 135.948 5.2126C136.412 4.21363 137.56 4.89941 138.148 4.34997C138.814 3.72764 139.431 3.79919 140.135 4.15558V5.78363C139.353 5.82683 138.63 5.86598 137.908 5.90648C137.604 6.20887 137.303 6.51126 137.12 6.69215C137.261 7.85717 138.395 7.59392 139.028 8.13526C139.621 8.64149 140.645 8.71304 141.334 8.15956C142.023 7.60472 142.141 8.26485 142.526 8.37285C142.769 7.91926 143.451 7.79102 143.421 7.13629H141.821C141.482 5.78903 141.716 4.74236 142.522 3.99628C142.884 4.51197 142.848 5.31519 143.838 5.36379C144.284 5.38539 143.978 6.10357 144.064 6.49641C144.585 6.6044 144.682 6.01447 145.07 5.89973C145.617 6.47661 145.993 7.27803 146.196 8.304C147.42 7.65602 147.991 7.58043 149.842 7.76537C150.015 7.78292 150.21 7.63712 150.389 7.55208C150.605 7.44948 150.724 6.93514 151.07 7.39683C151.09 7.60202 151.109 7.80722 151.129 8.01241C151.16 8.3121 151.191 8.61179 151.225 8.93308C152.446 8.4084 153.577 8.64959 154.619 9.65666C155.178 9.22603 155.719 8.54835 156.393 9.50682C156.556 9.73631 156.684 9.71336 156.851 9.44202C157.358 8.61449 158.601 9.54597 159.047 8.54025C159.061 8.5092 159.239 8.49705 159.26 8.5281C159.774 9.33942 160.589 9.03568 161.29 9.03973C161.801 9.04243 162.057 9.35292 162.314 9.66206C162.497 9.88211 162.568 10.1926 162.693 10.4599C163.02 11.1592 163.286 11.1632 164.1 10.5368C164.175 10.4788 164.252 10.4234 164.558 10.1939C164.854 10.6759 165.173 11.1943 165.474 11.683C166.712 10.7177 166.816 10.7258 167.172 11.6924C167.294 12.0231 167.393 12.2769 167.764 12.254C168.168 12.2283 168.72 12.2891 168.946 12.0582C169.68 11.309 170.551 11.7518 171.347 11.6209C171.727 12.0866 172.411 12.3323 172.365 13.1247C172.358 13.2503 172.809 13.4163 173.06 13.5405C173.664 13.8415 173.768 14.1304 173.418 14.6934C173.259 14.9472 172.861 15.0686 172.976 15.4696C173.031 15.6572 173.125 15.8341 173.202 16.015C173.354 15.9245 173.51 15.8422 173.654 15.7423C173.741 15.6829 173.807 15.5938 173.906 15.4952C174.255 16.1932 174.519 16.9478 175.138 17.3042C175.555 17.099 175.925 16.7547 176.265 16.7831C176.904 16.8371 177.403 17.612 177.472 18.3504C177.499 18.6447 177.555 18.9376 177.602 19.2684C178.023 19.0335 178.345 18.8445 178.675 18.6703C179.027 18.4854 179.387 18.3139 179.863 18.0777C180.05 18.287 180.369 18.5745 180.593 18.9228C180.781 19.2144 181.38 19.2724 181.165 19.8124C180.936 19.8624 180.74 19.9029 180.545 19.9501C180.214 20.0324 179.965 20.185 180.038 20.59C181.069 20.351 181.663 21.3217 182.558 21.4715C182.468 21.8643 181.6 22.133 182.395 22.6217C182.602 23.73 183.5 24.3307 184.207 25.0691C184.822 24.9044 185.109 25.435 185.547 25.6469C185.658 25.7009 186.017 25.0894 186.233 25.1083C187.019 25.1771 187.578 24.6709 188.231 24.5035C188.873 24.3402 189.511 24.1701 190.123 23.9014C190.438 24.648 190.526 25.3769 189.81 25.8724C189.168 26.3165 189.213 27.1359 188.691 27.6192C188.197 27.0441 188.259 26.056 187.331 25.8089C186.789 26.5365 185.546 26.3408 185.248 27.3911C185.685 27.8649 186.255 27.5261 186.926 27.6786C187.032 27.8042 187.229 28.0539 187.44 28.2915C187.581 28.4508 187.743 28.5925 187.891 28.7451C188.375 29.2482 188.347 29.8161 187.808 30.4487C188.011 30.8254 188.252 31.1588 188.371 31.53C188.465 31.8189 188.285 32.2469 188.439 32.4548C188.924 33.1028 189.742 33.5145 189.784 34.4676C189.788 34.5432 189.93 34.6795 190.003 34.6768C191.05 34.6296 191.032 34.8806 190.408 35.6339C190.178 35.912 190.326 36.6612 190.533 37.0811C190.657 37.3322 191.231 37.3605 191.634 37.4996C191.442 37.7061 191.276 37.8398 191.169 38.0112C191.066 38.1745 191.043 38.3865 190.951 38.5579C190.81 38.8212 190.623 39.0601 190.485 39.3261C190.217 39.8404 190.962 39.866 190.958 40.267C190.949 41.0122 190.903 41.7641 190.979 42.5025C191.013 42.836 191.481 43.4016 191.443 43.4272C190.652 43.9861 190.981 44.7974 190.986 45.49C190.989 45.8477 191.304 46.2041 191.499 46.605C191.163 46.9628 190.749 47.4042 190.366 47.8133C190.552 48.0832 190.711 48.3168 190.871 48.549C190.194 48.9499 190.273 49.6141 190.323 50.2364C190.382 50.9857 190.221 51.3798 189.33 51.423C188.949 51.4419 188.868 52.0994 189.197 52.4517C189.505 52.7825 189.66 52.9202 189.284 53.3913C188.689 54.1351 188.982 54.914 189.634 55.5512C189.332 55.8523 189.037 56.1614 188.726 56.453C188.252 56.8985 188.232 57.348 188.73 57.7679C189.081 58.0635 188.937 58.2606 188.627 58.3875C188.358 58.4982 188.055 58.5252 187.688 58.6062C187.969 58.9167 188.172 59.1394 188.374 59.3608C188.217 59.4634 188.053 59.6605 187.884 59.6645C186.477 59.7037 186.724 61.2183 185.938 61.8015C186.134 62.2187 186.331 62.6345 186.538 63.0745C185.796 63.7401 185.098 64.3678 184.539 64.8686C184.829 65.4653 185.099 65.8082 185.153 66.1821C185.244 66.8112 185.271 67.3337 184.263 67.4309C183.447 67.5105 183.306 67.7589 182.884 67.412C182.37 68.3961 181.774 69.3451 181.938 70.5506C181.97 70.7869 181.719 71.1122 181.517 71.3133C181.309 71.5212 181.276 71.6279 181.751 71.8749C182.034 72.1962 182.838 71.4065 183.234 72.315C182.923 72.3785 182.495 72.3366 182.367 72.5121C181.602 73.5529 180.199 73.7136 179.413 74.7071C179.314 74.8313 179.123 74.8826 178.98 74.9663C178.815 74.8016 178.664 74.6518 178.446 74.4344C178.234 74.8583 178.096 75.3079 177.816 75.6373C177.565 75.9315 177.306 76.2177 176.851 76.3784C175.931 76.7037 175.959 76.859 176.879 78.0307C176.398 78.3736 175.896 78.73 175.541 78.9825C175.541 80.0854 175.541 80.9372 175.541 81.789C175.844 82.0901 176.146 82.3911 176.472 82.7178C176.693 82.5248 176.915 82.329 177.208 82.0712C177.299 82.3682 177.381 82.6382 177.467 82.9081C177.57 83.2335 177.75 83.4724 178.133 83.382C178.321 83.3374 178.624 83.2578 178.652 83.139C178.861 82.3007 179.421 81.6554 179.629 81.0317C180.229 81.5001 180.796 81.9429 181.357 82.3803C180.928 82.9135 180.467 82.7502 180.073 82.734C179.219 82.6989 179.597 83.5534 179.269 83.7843C178.713 84.1744 178.047 84.4336 177.395 84.6482C177.059 84.7589 176.823 84.4687 176.829 84.0988C176.835 83.7856 176.609 83.3469 176.456 83.5035C175.978 83.9949 175.66 84.0057 175.288 83.4589C175.158 83.571 174.944 83.6641 174.912 83.8005C174.795 84.2878 175.105 84.8602 174.615 85.28C173.721 85.0708 173.047 85.5878 172.327 85.9523C172.136 85.6175 171.944 85.2841 171.745 84.9358C171.901 84.7724 172.109 84.5551 172.316 84.3377C172.236 84.2581 172.173 84.1704 172.087 84.1177C172.009 84.0691 171.887 84.0084 171.819 84.0367C171.123 84.3256 170.432 84.632 169.565 85.0087C170.11 85.1869 170.491 85.2679 170.823 85.4393C170.951 85.5041 170.972 85.7741 171.043 85.9509C170.635 85.8497 170.518 86.2425 170.262 86.4018C169.73 86.7326 169.707 86.0009 169.325 85.9388C168.17 85.7512 167.331 86.3762 167.186 87.5871C167.151 87.88 167.084 88.1703 167.029 88.4794C166.862 88.416 166.773 88.4025 166.712 88.3552C166.183 87.9435 165.949 87.934 165.91 88.3377C165.879 88.6549 165.939 88.983 165.893 89.2961C165.845 89.6309 165.648 89.8766 165.251 89.7929C164.337 89.6012 164.083 90.1021 163.778 90.8729C163.591 91.3454 163.334 90.395 162.915 90.5381C162.549 91.0511 161.559 91.3683 162.333 92.3268C162.552 92.1311 162.77 91.9367 162.987 91.7436C163.315 92.3309 164.149 92.2296 164.6 92.7588C163.518 93.3217 162.387 92.6548 161.455 93.2178C161.436 93.4837 161.47 93.7119 161.392 93.8928C161.336 94.0251 161.02 94.187 161.014 94.1776C160.39 93.4122 159.8 93.4486 159.219 94.2208C158.444 94.2019 158.088 94.511 158.184 95.3453C158.32 96.5319 157.932 97.3567 156.579 97.5484C156.38 97.5768 156.269 98.2302 156.074 98.7C155.404 98.7378 154.684 98.7783 153.967 98.8188C153.888 98.8971 153.734 98.9997 153.749 99.0442C154.045 99.8893 152.786 100.142 153.016 101.021C153.086 101.292 152.369 101.482 151.974 101.181C151.634 100.922 151.361 100.562 150.89 100.699C150.379 100.849 150.547 101.372 150.404 101.725C150.367 101.816 150.237 101.867 150.186 101.956C149.91 102.446 149.915 102.441 150.516 102.616C150.704 102.672 150.877 102.777 151.057 102.861C150.658 103.463 150.29 104.026 149.379 103.915C148.548 103.814 147.696 103.893 146.937 103.893C146.566 104.282 146.286 104.576 146.006 104.871C146.108 104.973 146.196 105.041 146.259 105.127C146.364 105.272 146.454 105.427 146.55 105.578C146.368 105.658 146.194 105.768 146.004 105.81C145.487 105.925 145.36 105.365 144.999 105.203C144.56 106.21 143.399 105.484 142.808 106.11C142.308 106.638 141.823 107.14 141.032 107.267C140.716 107.318 140.783 108.151 141.132 108.322C141.306 108.408 141.563 108.318 141.743 108.395C141.875 108.452 141.966 108.644 142.034 108.794C142.049 108.827 141.87 109.018 141.824 109.003C140.603 108.611 139.79 110.013 138.56 109.739C138.322 109.686 137.918 110.15 137.567 110.351C136.761 110.808 136.104 111.523 135.376 112.143C134.503 111.472 134.254 111.45 133.653 112.036C133.424 112.26 133.216 112.51 132.967 112.71C132.608 112.999 132.355 113.352 132.519 113.794C132.619 114.062 132.914 114.258 133.121 114.488C132.818 114.79 132.515 115.093 132.213 115.395C130.912 114.023 129.838 115.248 128.696 115.696C129.021 116.106 129.057 116.452 128.851 116.833C128.758 117.004 128.662 117.201 128.657 117.389C128.647 117.776 128.456 117.958 128.099 117.99C127.575 118.034 127.351 117.787 127.345 117.259C127.344 117.085 127.167 116.912 127.061 116.725H125.721C125.093 117.52 124.337 118.222 123.137 118.039C122.989 118.928 121.261 118.164 121.536 119.591C121.594 119.893 121.116 119.836 120.906 119.561C120.602 119.161 120.328 119.419 120.32 119.693C120.305 120.187 120.162 120.693 120.568 121.19C120.973 121.687 121.19 122.335 121.486 122.907C121.349 123.002 121.266 123.109 121.182 123.11C120.334 123.122 119.484 123.118 119.263 123.118C118.083 122.82 117.952 122.056 117.284 121.956C116.894 122.344 116.516 122.721 116.128 123.109H114.913C113.936 123.755 113.475 125.009 112.167 125.138C111.869 125.78 111.742 126.531 110.998 126.925C110.786 126.739 110.565 126.543 110.34 126.344C109.808 126.824 109.265 127.246 109.344 128.149C109.426 129.1 109.048 128.668 108.506 128.43C108.096 128.251 107.609 129.024 106.92 128.915C106.321 128.819 105.679 128.971 105.058 129.035C104.975 129.043 104.906 129.178 104.829 129.252C104.265 129.792 104.25 128.948 103.906 128.912C103.232 129.445 102.72 130.046 102.919 131.045C102.966 131.283 102.622 131.543 102.331 131.156C102.117 130.871 101.652 130.84 101.707 131.141C101.918 132.295 101.192 132.892 100.52 133.561C100.474 133.607 100.487 133.708 100.468 133.802C100.918 134.234 101.483 133.907 101.979 134.02C102.067 134.041 102.211 134.19 102.196 134.231C102.139 134.383 102.036 134.626 101.935 134.635C101.403 134.675 100.864 134.632 100.331 134.666C100.148 134.678 99.9738 134.828 99.7965 134.915C99.4798 135.397 100.196 136.173 99.3458 136.507C99.2674 136.429 99.1929 136.35 99.1144 136.277C98.7247 135.918 98.3715 135.586 98.427 134.946C98.4676 134.489 98.5772 134.159 98.9169 133.854C99.2241 133.579 99.5461 133.267 99.7058 132.904C99.7965 132.696 99.5773 132.353 99.4879 132.04C99.197 132.303 98.9723 132.507 98.7639 132.696C98.5244 132.495 98.3052 132.311 98.1942 132.218C97.2929 132.579 97.0886 133.239 97.1576 134.047C97.182 134.329 97.1495 134.666 96.6934 134.508C96.2198 133.54 96.8693 132.415 96.2536 131.446C95.5079 132.009 96.2942 133.179 95.3307 133.614C95.3171 133.621 95.3388 133.776 95.3834 133.829C95.5228 133.989 95.6825 134.134 96.0222 134.474C95.5377 134.864 95.0708 135.28 94.5606 135.633C94.3252 135.797 93.9814 135.957 93.7338 135.905C93.4618 135.847 93.2453 135.538 92.9963 135.332C92.57 135.729 92.1261 136.142 91.67 136.568C91.4833 136.004 91.6222 135.451 92.0868 134.909C91.7675 134.817 91.4251 134.593 91.2153 134.682C90.3614 135.042 89.9527 135.835 90.1111 136.68C90.1449 136.865 90.2694 137.06 90.4088 137.191C90.674 137.44 90.7633 137.675 90.3912 137.846C90.2193 137.926 89.8621 137.935 89.7809 137.83C89.0244 136.855 88.3748 137.141 87.7618 137.958C87.4059 138.433 86.9444 138.545 86.3787 138.518C86.127 138.506 85.8672 138.675 85.5952 138.767C85.9118 139.357 86.7969 138.887 86.8672 139.575C86.916 140.061 87.0946 140.64 86.5871 141.051C86.3584 140.848 86.1311 140.647 85.9037 140.446C85.4544 140.873 85.0349 141.541 84.361 140.77C84.0294 140.392 83.6329 140.443 83.2161 140.416C82.7181 140.383 82.1484 140.63 81.7532 140.095C82.1754 139.652 82.8561 139.268 82.0536 138.485C81.7343 138.872 81.3215 139.212 81.1388 139.648C80.9872 140.013 81.1902 140.511 81.086 140.91C80.9642 141.38 80.6137 141.789 80.4865 142.258C80.3837 142.636 80.4662 143.062 80.4662 143.581H83.9523C84.4435 144.071 84.8224 144.449 85.2014 144.827C86.2055 144.265 86.3584 143.911 87.0242 142.603C87.2475 142.163 87.4708 141.722 87.6792 141.268C87.736 141.144 88.0378 141.071 88.2205 141.082C88.4032 141.093 88.6441 141.194 88.7388 141.336C88.839 141.488 88.8336 141.738 88.8133 141.938C88.7266 142.776 89.1895 143.226 89.9703 143.555C90.0596 142.95 90.1476 142.359 90.2545 141.635C90.6009 141.926 90.8202 142.109 91.0597 142.31C91.2681 142.121 91.4928 141.918 91.7147 141.716C92.1992 142.445 92.9299 142.436 93.6702 142.289C93.7947 142.265 93.9232 141.968 93.9422 141.785C93.9611 141.603 93.8448 141.407 93.7893 141.217C93.6377 141.267 93.4834 141.31 93.3359 141.371C93.1803 141.436 92.9502 141.621 92.8948 141.576C92.5835 141.329 92.3169 141.027 92.0408 140.751C92.3968 140.389 92.6958 140.084 92.9881 139.787H96.1927C96.4282 139.999 96.6515 140.2 96.9397 140.461C97.4012 139.361 98.607 139.292 99.3878 138.614C99.6598 138.378 100.564 138.432 100.824 138.699C101.61 139.505 102.098 139.108 102.644 138.504C103.648 138.676 103.622 138.02 103.603 137.343C103.598 137.149 103.689 136.955 103.736 136.761C104.69 136.254 105.823 136.927 106.748 136.377C106.775 136.209 106.783 136.106 106.808 136.007C106.966 135.347 107.019 135.287 107.428 135.628C107.931 136.048 108.332 136.067 108.763 135.59C108.958 135.376 109.149 135.158 109.34 134.944C109.08 134.684 108.827 134.477 108.633 134.224C108.478 134.02 108.076 133.957 108.233 133.549C108.338 133.276 108.937 133.345 109.338 133.652C109.719 133.941 109.9 134.486 110.46 134.558C110.571 134.25 111.259 133.534 111.54 133.374C111.888 133.175 112.199 132.896 112.567 132.751C112.938 132.606 113.417 132.921 113.757 132.538C114.11 131.566 113.549 130.465 114.163 129.524C114.427 129.754 114.65 129.949 114.883 130.153C115.062 129.59 114.941 129.062 114.519 128.568C115.504 128.152 115.733 128.232 115.81 128.947C115.875 129.553 115.561 130.217 116.089 130.787C116.315 130.589 116.537 130.392 116.884 130.087C117.025 130.805 117.152 131.453 117.313 132.277C117.531 131.898 117.702 131.731 117.715 131.551C117.753 131.021 117.704 130.482 117.746 129.952C117.756 129.823 117.985 129.711 118.113 129.592C118.2 129.771 118.294 129.945 118.37 130.127C118.446 130.309 118.503 130.5 118.568 130.686C118.717 130.618 119 130.535 118.994 130.483C118.94 130.014 119.132 129.699 119.465 129.379C119.82 129.038 119.749 128.633 119.385 128.298C119.157 128.087 118.924 127.85 119.335 127.632C119.502 127.543 119.835 127.52 119.952 127.624C120.634 128.23 121.276 128.882 122.066 129.652C122.184 128.85 122.27 128.263 122.365 127.626C123.432 128.31 123.426 128.329 124.244 127.839C124.756 127.532 125.341 127.411 125.847 127.017C126.18 126.758 126.881 126.99 127.414 126.956C127.597 126.944 127.772 126.795 127.987 126.69C127.782 126.463 127.483 126.273 127.417 126.02C127.349 125.765 127.424 125.279 127.59 125.194C128.03 124.966 128.552 124.946 128.925 124.506C129.033 124.378 129.558 124.427 129.747 124.577C130.087 124.845 130.362 125.154 130.869 125.03C131.688 124.454 132.198 123.446 133.145 123.053C133.642 123.365 134.024 123.152 134.47 122.801C135.185 122.239 135.496 121.119 136.688 121.159C136.784 121.162 136.985 120.641 136.981 120.365C136.975 119.979 136.418 119.78 135.995 119.97C135.905 120.01 135.838 120.113 135.767 120.191C135.557 120.418 135.319 120.654 135.1 120.244C135.01 120.078 135.002 119.785 135.091 119.624C135.236 119.364 135.491 119.165 135.717 118.922C135.286 118.714 134.876 118.516 134.477 118.323C134.809 117.965 135.097 117.655 135.384 117.346C136.012 117.972 136.595 118.601 137.231 119.169C137.585 119.485 137.669 119.844 137.687 120.272C137.69 120.351 137.882 120.498 137.895 120.488C138.036 120.386 138.253 120.27 138.268 120.136C138.318 119.713 138.265 119.254 138.895 119.281C139.546 119.308 140.019 118.725 140.076 118.385C140.234 117.432 140.974 117.015 141.515 116.372C141.08 116.168 140.653 115.969 140.222 115.767C140.667 114.991 141.709 115.931 142.077 115.056C141.676 114.539 141.594 114.035 141.833 113.547C142.053 113.737 142.273 113.929 142.291 113.944C142.842 114.076 143.157 113.126 143.367 113.856C143.677 114.935 144.153 115.464 145.28 115.454C145.544 115.452 145.878 115.642 146.065 115.847C146.966 116.843 147.253 115.259 147.962 115.423C148.337 115.51 148.585 115.237 148.543 114.89C148.512 114.632 148.289 114.191 148.149 114.189C147.663 114.187 147.393 113.928 147.072 113.643C146.722 113.331 146.523 112.992 146.655 112.541C146.77 112.148 147.264 112.174 147.972 112.596C148.141 112.698 148.32 112.838 148.502 112.853C148.685 112.868 148.879 112.749 149.068 112.688C149.01 112.537 148.965 112.379 148.888 112.237C148.793 112.061 148.566 111.882 148.588 111.734C148.628 111.461 148.753 111.06 148.946 110.987C149.168 110.904 149.536 111.07 149.772 111.229C149.881 111.303 149.784 111.635 149.862 111.816C149.923 111.958 150.103 112.058 150.248 112.147C150.27 112.16 150.42 112.021 150.463 111.931C150.979 110.84 151.01 110.789 151.776 111.307C152.133 111.549 152.269 111.498 152.412 111.19C152.537 110.922 152.658 110.377 152.692 110.384C153.871 110.627 153.476 109.361 154.032 109.022C154.372 109.444 154.748 109.689 155.361 109.697C156.15 109.708 156.419 109.095 156.901 108.721C156.3 108.032 155.481 108.599 154.833 108.363C154.22 108.139 153.679 107.72 153.106 107.387C154.336 107.568 154.534 106.257 155.405 105.839C155.541 106.217 155.673 106.586 155.857 107.103C156.851 107.103 157.904 107.117 158.955 107.09C159.13 107.086 159.299 106.9 159.483 106.789V106.161L161.633 105.181C162.471 105.346 162.524 104.798 162.824 104.189C163.153 103.519 163.552 102.863 163.839 102.157C163.467 102.025 163.095 101.891 162.628 101.724C163.133 101.22 163.563 100.773 164.018 100.351C164.123 100.252 164.306 100.238 164.439 100.19C164.617 100.369 164.769 100.52 164.92 100.671C165.654 100.162 166.084 99.0874 167.268 99.4141C168.415 98.6365 169.929 98.6946 170.994 97.7928C170.798 97.5498 170.497 97.3338 170.431 97.0598C170.332 96.6534 170.396 96.3132 169.799 96.1769C169.139 96.0257 168.531 95.6329 167.917 95.3143C167.735 95.2198 167.613 95.0173 167.456 94.8715C167.088 94.5272 167.086 94.1628 167.47 93.6457C168.16 94.1655 168.699 94.8607 169.6 95.1536C170.695 95.5087 170.815 95.6761 171.384 94.8971C171.65 94.5326 171.805 94.0872 172.021 93.6565C172.227 93.8617 172.376 94.0156 172.53 94.1628C173.64 95.2157 174.124 95.1563 174.894 93.8415C174.989 93.6781 174.887 93.3784 175.001 93.2529C175.55 92.6454 176.238 92.1405 176.352 91.2414C177.338 90.5719 176.442 89.4122 177.047 88.6212C177.192 88.6968 177.381 88.74 177.479 88.8588C177.766 89.207 178.085 89.0653 178.088 88.7656C178.093 88.0785 178.34 87.7977 179.02 87.8733C179.231 87.8976 179.579 87.961 179.641 87.8638C180.296 86.8433 181.623 86.7515 182.359 85.8754C182.744 85.4177 182.673 84.7144 183.26 84.3134C183.77 83.9652 184.163 83.4454 184.54 83.0701C184.54 82.8285 184.547 82.7205 184.54 82.6152C184.493 81.9213 184.517 81.2976 185.508 81.4556C185.57 81.465 185.678 81.326 185.726 81.2355C185.754 81.1815 185.733 81.0587 185.688 81.0182C185.283 80.6456 184.841 80.165 185.382 79.7249C185.866 79.3308 185.651 78.726 186.051 78.3898C186.094 78.3534 186.454 78.5478 186.448 78.6166C186.393 79.2767 186.632 79.679 187.328 79.5292C187.865 79.4144 187.783 78.9015 187.748 78.4978C187.685 77.7972 188.002 77.5758 188.672 77.5866C188.79 77.5879 189.076 77.0385 189.003 76.8549C188.859 76.4904 188.526 76.1948 188.254 75.8843C187.699 75.2512 187.577 74.8111 187.933 74.5667C188.334 74.2914 188.696 74.3751 189.033 74.7233C189.141 74.8354 189.457 74.938 189.462 74.9285C189.756 74.3885 190.538 74.6059 190.764 74.2347C191.066 73.7379 191.271 73.1695 191.576 72.6498C191.668 72.4932 191.449 72.0626 191.262 71.856C190.81 71.3579 190.897 70.9718 191.327 70.5155C191.713 70.1065 192.105 69.8621 192.698 69.9161C192.974 69.9418 193.266 69.7784 193.586 69.692C193.319 69.3991 193.115 69.1764 192.913 68.9536C193.397 68.3614 193.426 67.6901 193.002 66.9395C193.188 66.8693 193.392 66.71 193.554 66.7451C194.449 66.9422 194.933 66.3684 195.418 65.8028C195.634 65.5504 195.396 64.9118 195.002 64.8254C194.584 64.735 194.127 64.8011 194.176 64.1667C194.724 64.1667 195.249 64.1667 195.774 64.1667C196.039 63.79 196.586 63.6145 196.606 63.0529C195.394 62.5913 194.586 62.9544 194.149 64.1653H194.174C193.533 64.1653 192.89 64.1491 192.249 64.1761C192.063 64.1842 191.826 64.2666 191.71 64.4002C191.139 65.0468 190.669 64.8902 190.139 64.3273C189.829 63.9993 189.478 63.6388 189.703 63.2446C190.083 62.5751 190.275 63.3891 190.57 63.4363C191.5 63.5875 192.435 63.5578 193.468 63.4471C193.51 62.2362 193.536 61.0901 193.611 59.948C193.618 59.8481 193.939 59.7104 194.121 59.6969C194.304 59.6834 194.496 59.8049 194.684 59.867C194.622 60.0182 194.576 60.1775 194.498 60.3179C194.006 61.1994 194.016 61.1967 194.867 61.6098C195.226 61.784 195.526 62.1147 195.896 62.2133C196.131 62.2767 196.486 62.0945 196.709 61.9217C196.816 61.8393 196.817 61.4802 196.729 61.3209C196.584 61.0564 196.33 60.8539 196.192 60.7013C196.483 60.1384 196.756 59.6078 197.041 59.0557C197.269 59.2636 197.494 59.4675 197.739 59.6902C198.211 58.9221 198.043 58.1121 197.913 57.1833C197.157 56.8904 196.226 57.4641 195.457 56.7999C196.273 55.9859 197.112 55.1975 197.888 54.3525C198.207 54.0042 198.077 53.583 197.72 53.2765C197.494 53.4817 197.269 53.6856 197.041 53.8935C196.756 53.3427 196.483 52.8122 196.191 52.2452C196.187 52.2506 196.253 52.1075 196.314 52.1102C197.574 52.1642 197.322 50.8264 197.973 50.3282C196.832 49.6101 198.545 48.9958 198.061 48.2547C197.973 48.1197 198.199 47.5986 198.406 47.4866C199.233 47.037 199.261 46.1069 199.739 45.4535C200.282 44.7097 199.819 43.8079 199.955 42.9872L199.945 42.9831ZM51.1853 29.547C50.897 29.7535 50.3057 29.4079 50.2759 29.0488C50.2596 28.8436 50.2339 28.6263 50.2827 28.4332C50.3517 28.1592 50.4207 27.765 50.6129 27.6719C50.8145 27.5747 51.1921 27.7137 51.4316 27.8528C51.6901 28.004 51.8795 28.2753 52.2124 28.606C51.7916 28.9989 51.5155 29.3107 51.1866 29.5456L51.1853 29.547ZM97.8085 137.143C96.5892 136.997 96.6285 137.91 96.2333 138.478C95.9383 138.204 95.65 137.937 95.3713 137.679C95.3577 137.586 95.3077 137.473 95.3401 137.441C96.052 136.716 96.7733 136.001 97.4621 135.314C97.6502 135.48 97.7936 135.546 97.7977 135.619C97.8193 136.041 97.8085 136.466 97.8085 137.143ZM101.657 136.223C101.024 136.537 101.166 137.395 100.613 137.816C100.184 137.059 100.42 136.326 100.415 135.624C100.415 135.515 100.905 135.312 101.169 135.311C101.484 135.308 101.732 135.525 101.665 135.921C101.648 136.022 101.699 136.202 101.657 136.222V136.223ZM125.05 124.973C124.769 124.822 124.755 124.685 124.974 124.526C125.669 124.025 125.322 122.704 126.522 122.585C126.964 123.358 126.563 124.135 126.771 124.973H125.049H125.05ZM127.36 123.076C127.351 122.344 127.352 121.611 127.367 120.88C127.368 120.803 127.524 120.656 127.57 120.669C127.723 120.714 127.974 120.808 127.981 120.899C128.021 121.418 127.928 121.957 128.025 122.462C128.094 122.822 128.386 123.141 128.575 123.47C127.617 123.851 127.37 123.78 127.36 123.076ZM138.545 118.041C138.337 118.226 138.123 118.407 137.918 118.584C137.447 118.215 137.862 117.315 136.845 117.29C136.254 117.275 135.677 116.69 135.091 116.36C135.171 116.28 135.25 116.137 135.319 116.143C136.33 116.214 137.09 115.807 137.725 115.036C138.033 114.661 138.665 114.667 138.78 114.99C138.872 115.246 138.894 115.587 138.801 115.835C138.688 116.136 138.073 116.276 138.621 116.745C139.132 117.18 139.001 117.637 138.542 118.044L138.545 118.041ZM195.752 49.3981C195.261 49.3617 194.724 49.6208 194.23 49.1929C194.814 48.5638 195.184 47.9132 194.272 47.2584C194.262 47.2517 194.404 46.9209 194.525 46.8777C194.706 46.8116 195.095 46.817 195.112 46.8764C195.331 47.6229 195.985 48.171 196.073 48.958C196.089 49.0998 195.854 49.4076 195.752 49.3995V49.3981Z" fill="#BF0005"/>
<path d="M80.3755 144.262C79.8504 144.253 79.3254 144.261 78.8612 144.261C78.5756 143.976 78.3808 143.694 78.1128 143.541C77.9707 143.46 77.9585 143.1 77.8205 142.98C78.2387 142.982 78.5513 143.005 78.8504 142.97C79.1427 142.936 79.5419 142.93 79.6921 142.746C79.9844 142.392 79.8004 142.028 79.4986 141.671C78.849 140.905 78.148 140.776 77.2386 141.361C77.6933 141.577 78.1061 141.771 78.5229 141.97C78.2806 142.291 78.0519 142.596 77.7786 142.959C77.6892 142.919 77.558 142.959 77.332 143.185C76.9991 143.517 76.4726 143.656 76.0328 143.881C76.2047 144.154 76.3766 144.428 76.6147 144.806C75.0558 144.806 73.6998 144.81 72.3424 144.797C72.2666 144.797 72.1909 144.656 72.1164 144.581C72.0014 144.085 72.337 143.524 71.8972 143.077C71.3031 143.387 70.6684 143.636 70.1339 144.022C69.5114 144.471 69.5628 143.648 69.1379 143.648C68.6791 144.491 68.9822 145.453 68.9227 146.371C68.9132 146.514 69.1433 146.788 69.2786 146.8C69.5614 146.823 69.8565 146.711 70.2435 146.637C69.9661 146.318 69.7739 146.098 69.5804 145.877C69.9079 145.575 70.1082 145.089 70.6386 145.03C71.0311 145.422 71.4073 145.797 71.7849 146.174C71.8607 146.105 71.927 146.022 72.0122 145.971C72.268 145.821 72.5224 145.593 72.7958 145.561C73.4156 145.489 73.3439 145.983 73.4196 146.396C73.4711 146.673 73.693 146.947 74.007 146.541C74.2113 146.277 74.4332 146.142 74.685 146.502C74.9218 146.84 75.1721 146.785 75.3156 146.448C75.4293 146.183 75.4387 145.874 75.4956 145.582C76.1303 145.743 75.8474 146.276 76.0491 146.562C76.2886 146.904 76.6161 147.185 77.2981 147.91C76.9585 146.523 77.5796 146.037 78.2969 145.621C78.8964 145.752 78.0912 146.753 78.9708 146.712C79.3511 146.333 79.7273 145.958 80.1224 145.563C80.343 145.769 80.5352 146.08 80.7923 146.148C81.044 146.215 81.3918 146.084 81.6381 145.939C81.7504 145.872 81.814 145.505 81.7355 145.374C81.4216 144.853 81.1144 144.275 80.3769 144.261L80.3755 144.262Z" fill="#BF0005"/>
<path d="M66.3695 148.739C66.3154 149.138 66.3099 149.569 66.1124 149.875C66.0068 150.039 65.5656 149.978 65.2774 150.031C64.8159 150.114 64.5155 149.875 64.2435 149.55C64.1122 149.393 63.9552 149.258 63.7116 149.014C64.5832 148.517 65.4912 148.852 66.3695 148.739C66.3343 148.64 66.3397 148.533 66.333 148.427C66.2788 147.506 65.8349 147.125 65.2774 147.626C64.6928 148.15 64.4559 147.934 64.1176 147.474C63.6643 147.898 63.2231 148.312 62.6899 148.81C62.6074 148.434 62.6182 148.093 62.4585 147.876C62.3083 147.671 61.9916 147.539 61.725 147.487C61.5775 147.459 61.3867 147.664 61.2148 147.765C61.9564 148.347 61.7683 149.763 62.7643 149.928C64.0405 150.139 64.2611 151.1 64.7929 152C65.2476 150.895 66.4642 150.838 67.2234 150.152C67.2775 150.103 67.6673 150.423 67.9393 150.595C68.2154 150.074 68.509 149.519 68.8406 148.893C68.0097 148.566 67.1557 148.844 66.3708 148.739H66.3695Z" fill="#BF0005"/>
<path d="M73.3981 147.484C72.735 147.495 72.1977 147.356 71.7769 146.842C71.3262 147.291 70.8702 147.73 70.433 148.186C70.0514 148.585 70.1164 148.986 70.6157 149.488C70.7646 149.638 70.8999 149.804 71.0664 149.931C71.3695 150.164 72.0922 150.01 72.0827 149.665C72.0597 148.888 72.6633 148.613 73.0544 148.126C73.2763 148.324 73.4969 148.521 73.7134 148.716C74.1559 147.788 74.095 147.47 73.3994 147.482L73.3981 147.484Z" fill="#BF0005"/>
<path d="M179.106 21.83C179.719 21.7139 179.991 22.2336 180.411 22.4604C180.505 22.2687 180.631 22.1 180.669 21.9123C180.775 21.3912 180.272 21.2252 180.033 20.9053C179.865 20.6812 179.257 20.4584 179.083 20.5961C178.935 20.7136 178.75 20.9349 178.771 21.0821C178.811 21.3548 179.035 21.8435 179.104 21.83H179.106Z" fill="#BF0005"/>
</g>
<defs>
<clipPath id="clip0_437_4281">
<rect width="200" height="152" fill="white"/>
</clipPath>
</defs>
</svg>
