<svg width="180" height="146" viewBox="0 0 180 146" fill="none" xmlns="http://www.w3.org/2000/svg">
<g clip-path="url(#clip0_437_4287)">
<path d="M41.2771 106.521C41.1222 106.476 40.9374 106.461 40.7126 106.501C40.4878 106.541 40.3779 106.671 40.293 106.81C40.6477 106.91 41.0623 107.01 41.5668 107.115C41.437 106.895 41.342 106.696 41.2771 106.516V106.521Z" fill="#BF0005"/>
<path d="M172.209 108.179C171 108.419 170.44 107.125 169.361 107.29C169.301 107.3 169.087 106.81 169.107 106.795C169.936 106.235 169.266 105.906 169.047 105.356C168.752 104.607 168.897 103.668 167.848 104.827C167.833 104.842 167.383 104.587 167.388 104.477C167.453 103.633 167.083 103.183 166.269 103.388C164.785 103.768 165.265 102.219 164.615 101.804C163.506 101.884 162.263 101.37 161.418 102.554C161.044 102.179 160.669 101.804 160.289 101.425C160.539 101.15 160.789 100.87 161.039 100.595C159.995 100.001 158.576 99.7812 158.566 98.1327C158.566 98.0377 158.381 97.8579 158.301 97.8679C157.941 97.9228 157.587 98.0278 157.232 98.1177C157.337 98.3025 157.452 98.4823 157.542 98.6772C157.622 98.852 157.672 99.0369 157.827 99.4665C156.553 99.3316 155.414 99.5564 154.265 99.3316C154.16 99.3116 154.075 99.1567 153.82 98.902C154.744 98.7171 155.554 98.5623 156.348 98.4024C156.198 97.3434 156.618 96.4042 155.978 95.48C155.254 95.48 154.455 95.3651 153.705 95.51C152.781 95.6898 152.401 94.7856 151.657 94.7007C151.267 94.6557 150.863 94.7357 150.478 94.6707C150.333 94.6458 150.233 94.356 150.118 94.1862C150.343 94.0912 150.568 93.9114 150.788 93.9164C151.562 93.9364 151.637 93.4218 151.567 92.8923C151.512 92.4877 151.197 92.2329 150.738 92.3278C149.594 92.5626 149.189 91.8932 148.989 90.7992H145.642C145.477 90.4395 145.283 90.2147 145.288 89.9999C145.313 89.1856 144.159 88.8809 144.418 87.9567C144.428 87.9317 143.714 87.7968 143.444 87.582C141.846 86.2932 140.082 86.7628 138.339 87.0575C138.129 87.0925 137.964 87.4072 137.774 87.597C137.32 87.2173 137.19 86.7278 137.555 86.2682C137.959 85.7536 138.469 85.329 138.983 84.8145C138.594 84.4748 138.209 84.1351 137.689 83.6805C136.71 83.3408 135.371 84.1051 134.267 83.2908C134.447 82.8262 135.341 82.6764 134.612 82.0769C134.232 81.7622 134.013 81.2327 133.363 81.2776C132.314 81.3476 132.949 80.1236 132.419 79.9238C131.7 79.6491 131.08 79.3393 130.501 78.8048C129.876 78.2253 129.122 77.6608 128.328 77.441C127.668 77.2612 127.204 76.9764 126.704 76.5668C126.04 76.0273 125.315 75.4678 124.521 75.198C123.702 74.9183 122.773 74.9732 122.003 74.8883C120.829 74.2039 120.435 72.6852 118.891 72.5554C118.666 72.5354 118.601 71.6362 118.287 71.3314C117.962 71.0167 117.278 71.0467 117.003 70.717C116.663 70.3123 116.978 69.558 116.004 69.3882C115.349 69.2733 114.82 68.484 114.225 68.0094C114.135 67.9394 113.985 67.8645 113.886 67.8895C112.447 68.2392 111.807 67.1102 111.083 66.4308C110.114 66.0761 109.165 66.6056 108.236 65.9912C108.445 65.7214 108.655 65.4617 108.87 65.1869C108.385 63.8031 107.216 63.8581 106.057 63.938C105.148 64.0029 105.163 63.4734 104.973 62.769C104.694 61.71 104.524 61.4852 105.128 61.0955C105.423 60.9057 105.843 60.9157 106.167 60.7558C106.317 60.6809 106.397 60.4261 106.452 60.2363C106.467 60.1813 106.292 60.0315 106.177 59.9915C105.833 59.8716 105.163 59.7417 105.168 59.6918C105.263 58.9624 105.873 59.2621 106.307 59.1972C106.922 59.1023 107.621 59.457 108.136 58.8625C107.866 57.0141 110.314 57.7885 110.484 56.3697C109.784 55.5804 109.759 55.4405 110.528 55.3007C111.138 55.1908 111.328 54.6812 111.777 54.4764C112.107 54.3265 112.592 54.3715 112.806 54.1367C113.206 53.7071 113.701 53.7371 114.17 53.5822C114.595 53.4423 114.62 52.8129 114.25 52.2584C114.11 52.0485 113.881 51.8937 113.691 51.7188C113.806 51.6039 113.886 51.4491 113.99 51.4291C116.608 50.9445 116.099 51.1693 118.027 48.9563C118.456 48.4617 118.946 48.192 119.635 48.0421C120.02 47.9572 120.17 47.033 120.545 46.5934C120.749 46.3536 121.514 46.3236 121.509 46.2187C121.464 45.1347 122.013 44.8849 122.952 44.9898C123.902 45.0947 124.596 44.3004 124.666 43.7209C124.801 42.6119 126.02 42.3272 126.13 41.5629C126.349 40.0092 127.369 40.299 128.328 40.1991C128.468 40.1841 128.567 39.7994 128.687 39.5846C128.857 39.2849 129.027 38.7304 129.197 38.7254C129.796 38.7254 130.106 38.3657 130.526 38.061C130.895 37.7912 131.41 37.7263 131.88 37.5614C131.575 37.2167 131.33 36.942 130.985 36.5573C131.45 36.4624 131.805 36.3275 132.159 36.3275C132.849 36.3275 133.438 36.3475 133.453 35.3733C133.453 35.0686 133.873 34.7739 134.083 34.4642C134.412 33.9746 134.997 34.0745 135.401 33.8547C135.731 33.6749 135.701 32.9105 136.016 32.5908C136.336 32.2711 137.19 32.2761 137.27 31.9864C137.45 31.3419 137.425 30.8773 138.329 30.7275C138.983 30.6226 139.553 29.9432 140.302 29.8183C141.471 28.0448 143.724 27.5653 144.993 25.9117C145.373 25.4222 146.052 25.1774 146.052 24.3731C146.052 23.2591 147.301 23.8736 147.785 23.2091C148.175 22.6696 148.195 21.9203 148.61 21.6006C149.039 21.2659 149.809 21.3708 150.423 21.2559C150.528 21.2359 150.703 21.061 150.688 20.9911C150.413 19.6123 151.727 19.7772 152.351 19.4025C153.211 18.888 154.11 18.4883 154.804 17.704C155.663 16.7299 156.628 15.8507 157.442 15.0364C158.391 14.8715 159.645 15.496 159.445 13.8424C160.379 12.7684 161.578 11.9691 162.952 11.9242C163.856 11.8942 164.201 10.93 164.985 11.0799C166.084 11.2897 166.619 10.5604 167.303 9.9559C167.743 9.56624 168.447 9.46633 168.887 9.07168C169.346 8.66205 169.816 8.67204 170.32 8.70201C171.255 8.75197 171.549 7.99764 172.044 7.37819C171.554 7.19835 171.01 7.1384 170.665 6.84366C170.196 6.44402 169.876 5.86453 169.436 5.29503C168.837 6.18924 168.282 6.49397 167.578 6.32412C166.229 5.99441 164.945 6.47898 164.011 7.19335C163.097 7.89273 161.953 7.56302 161.253 8.16249C160.289 8.99175 159.285 8.56214 158.301 8.69702C157.936 8.74697 157.572 8.79193 157.292 8.8269C156.922 9.40639 157.292 10.4654 156.268 10.2456C155.114 10.0009 154.504 11.1948 153.46 11.1299C152.901 11.9791 151.797 12.3388 151.522 13.4878C151.307 14.387 150.728 15.1063 149.609 15.0064C148.879 16.1154 146.676 15.6758 146.776 17.709C146.781 17.8439 146.192 18.0837 145.857 18.1436C145.363 18.2286 144.858 18.0887 144.428 18.5433C144.204 18.7831 143.714 18.7531 143.439 18.9679C142.83 19.4425 142.335 20.3517 141.701 20.4466C140.027 20.6914 139.433 22.1201 138.449 23.0643C137.37 24.0984 135.981 24.9026 135.556 26.5861C135.401 27.2006 134.647 27.885 133.683 27.6352L131.04 28.8391C131.375 30.083 130.211 29.7933 129.696 30.2029C128.812 30.9073 127.583 31.0722 126.919 32.1212C126.654 32.5409 126.15 33.1253 125.79 33.1054C124.411 33.0204 124.261 34.9537 122.893 34.7389C121.938 35.6281 120.989 36.5123 120.005 37.4315C120.27 37.7362 120.51 38.006 120.799 38.3357C120.32 38.7104 119.87 39.175 119.321 39.4547C117.697 40.289 116.049 41.0683 114.39 41.8276C113.661 42.1623 113.091 42.577 112.886 43.3912C112.647 44.3454 112.107 44.9648 111.038 45.0148C110.888 45.0198 110.748 45.3095 110.603 45.4694C110.823 45.5743 111.038 45.6992 111.263 45.7791C111.378 45.8191 111.533 45.7541 111.652 45.7941C111.767 45.8341 111.947 45.9689 111.932 46.0239C111.892 46.2137 111.782 46.5484 111.692 46.5484C110.643 46.5884 109.594 46.5734 108.29 46.5734C108.32 48.2869 107.376 48.9413 105.648 49.0112C104.824 49.0462 104.129 49.8755 104.199 50.9645C104.224 51.3142 104.079 51.6789 103.989 52.1634C103.595 51.8237 103.32 51.589 103.005 51.3142C102.755 51.8437 102.511 52.3733 102.266 52.8928H100.557C100.407 53.3324 100.363 53.9069 100.053 54.2116C99.7431 54.5214 99.1686 54.5663 98.649 54.7512C98.9637 55.1008 99.2085 55.3756 99.4433 55.6304C99.1286 56.2149 98.5391 55.9151 98.0745 56.06C97.5 56.2398 96.9955 56.6695 96.416 56.7943C95.9514 56.8943 95.247 56.8693 94.9673 56.5845C94.4228 56.035 93.8533 55.9801 93.1989 56.045C92.7193 56.09 92.5095 55.8502 92.3646 55.4555C92.2397 55.1208 92.1198 54.5214 91.94 54.5014C90.3114 54.3165 89.2524 52.6031 87.4689 52.8578C87.2841 52.8828 86.8944 52.638 86.8745 52.4832C86.8095 51.9836 86.9394 51.4841 86.225 51.2792C85.6506 51.1144 85.111 50.7947 84.5765 50.5049C82.7731 49.5308 80.695 49.0362 79.3212 47.3777C79.0414 47.6574 78.8716 47.9822 78.6668 48.0021C78.1972 48.0521 78.1472 47.6674 78.1572 47.2828C78.1722 46.8182 77.9174 46.5834 77.4628 46.5684C77.0682 46.5534 76.6735 46.5684 75.9592 46.5684C75.5046 46.0539 74.995 45.2496 74.2756 44.7151C73.5063 44.1456 72.5472 43.8408 71.673 43.4062C71.4532 43.2963 71.2483 43.1564 71.0485 43.0066C70.549 42.6219 70.0944 41.9675 69.5548 41.8926C68.7555 41.7827 68.4408 40.6986 67.5216 41.0433C67.072 40.1391 65.8681 40.4438 65.3286 39.6645C64.7641 38.8503 63.9798 38.5305 62.9807 38.6654C62.1064 38.7853 61.3821 38.6504 61.5719 37.4765C60.9774 37.0319 60.6777 36.1327 59.6886 36.2975C59.1541 36.3874 58.5696 36.3375 58.3348 35.793C57.8502 34.679 56.6063 34.8138 55.817 34.1744C55.0927 33.5899 53.9687 33.515 53.1844 32.9805C52.3351 32.391 51.6707 31.5268 50.9314 30.7874C50.192 30.7125 49.3628 31.0372 48.7883 30.2329C48.2238 29.4436 47.3695 29.3687 46.4853 29.1139C45.3563 28.7892 44.2073 28.1947 43.3181 27.2006C42.7136 26.5212 42.6337 25.8818 42.6187 25.0975C42.6187 24.8877 42.3739 24.6828 42.2441 24.473C41.19 24.473 40.1409 24.478 39.0869 24.463C38.9919 24.463 38.902 24.2882 38.8071 24.1983C38.7671 24.0834 38.7072 23.9685 38.6972 23.8536C38.5923 22.6396 38.6023 22.7096 37.3734 22.8744C36.7839 22.9544 36.0645 23.1542 35.555 22.5347C35.8048 22.255 36.0546 21.9752 36.3043 21.6955C35.4601 20.8063 34.2711 21.7504 33.4169 21.166C32.9473 20.1319 32.4977 19.1378 32.0531 18.1586C31.049 18.2885 30.3346 17.9038 29.5004 17.4742C28.6711 17.0496 27.4572 17.3793 26.1034 17.3793C26.4131 16.1254 25.6088 15.1962 24.6697 15.1013C23.4308 14.9764 23.9503 13.9124 23.3858 13.5127C23.201 13.6426 23.0161 13.7675 22.8363 13.9074C22.7314 13.9873 22.6664 14.1272 22.5515 14.1772C22.012 14.4169 21.4175 14.1672 21.3376 13.6526C21.2377 13.0432 21.6224 12.0141 20.918 11.9291C19.824 11.7993 19.3144 11.0799 18.7799 10.4255C18.0905 9.59122 16.9315 9.60121 16.2821 8.78194C15.5028 7.79781 14.189 7.21833 14.0541 5.75962C12.8102 5.62474 11.5663 5.48487 10.3574 5.34999C10.2674 4.72554 10.3973 4.00118 9.7429 3.99619C8.77376 3.99619 7.95948 3.85631 7.37 3.02205C7.22013 2.81224 6.99533 2.47753 6.82049 2.48753C5.37677 2.57245 5.55661 1.59332 5.54662 0.684126C5.54662 0.249512 5.28685 -0.0402313 4.81227 0.024711C4.57748 0.0546845 4.34269 0.159591 4.13287 0.274489C4.04795 0.31945 4.00299 0.484303 3.98301 0.599201C3.74322 1.99796 2.87899 2.49752 1.52019 2.39761C1.03562 2.36264 0.466127 2.19279 0.0315127 2.79725C0.0315127 3.24186 0.141415 3.78637 0.0115304 4.27094C-0.383119 5.76462 1.21047 5.25007 1.60512 5.92448C1.63509 8.64206 1.65507 8.62208 3.7632 10.5004C4.07792 10.7802 4.1029 11.3896 4.26276 11.8492C5.12699 11.8492 5.9113 11.8842 6.6956 11.8392C7.71969 11.7793 8.18428 12.3987 8.63888 13.1031C8.34414 13.3978 8.1593 13.5827 7.89454 13.8424C8.37911 14.2321 8.86368 14.9515 9.32827 14.9365C10.6121 14.9015 10.0127 16.1504 10.8369 16.645H14.0091C14.109 17.0196 14.2189 17.2594 14.2239 17.4942C14.2239 18.2985 14.124 19.1278 15.3879 18.9879C15.4928 18.9779 15.6527 19.6073 15.8175 19.9271C15.9274 20.1419 16.1122 20.5065 16.2371 20.4965C17.1813 20.4166 18.0006 20.5615 18.7049 21.2809C18.8148 21.3957 19.4193 21.151 19.6991 20.9461C20.0188 20.7064 20.2835 20.4516 20.5283 20.9312C20.6332 21.141 20.6382 21.4957 20.5283 21.7005C20.3535 22.0152 20.0438 22.255 19.799 22.5148C20.3535 23.7287 21.8522 23.5339 22.5615 24.468C24.0552 24.3032 25.1592 25.1474 26.3132 25.8868C27.0376 26.3514 27.4971 25.8568 28.0367 25.2473C28.8459 26.0566 29.6552 26.8509 30.4395 27.6652C30.5644 27.7951 30.5844 28.0199 30.6444 28.1847C30.4245 28.4045 30.2397 28.5894 30.0898 28.7392L32.8474 31.4968C33.4069 31.0239 34.033 30.8957 34.7257 31.1121C34.476 31.4019 34.2412 31.6716 34.0314 31.9164C34.9405 32.8256 35.8597 33.7448 36.8389 34.7239H38.8371C39.0269 35.0536 39.4116 35.723 39.9661 36.6872C40.3907 35.1535 41.3049 35.5931 42.0492 35.5132C42.9285 36.5623 44.1424 36.2526 45.2714 36.3225C45.4312 36.3325 45.5811 36.6073 45.711 36.7771C45.721 36.7921 45.5062 37.0519 45.4512 37.0319C44.4071 36.6622 44.0774 38.3007 43.0234 37.9061C43.0184 37.9061 42.8535 38.2508 42.8236 38.4456C42.8136 38.5056 42.9934 38.6255 43.1083 38.6654C43.453 38.7903 44.1024 38.8802 44.1074 39.0001C44.1474 39.9743 44.542 40.4438 45.5411 40.244C46.81 39.9892 46.4104 41.2082 46.9649 41.8276H48.3736C49.1629 41.8276 49.9522 41.8176 50.7415 41.8276C51.2111 41.8376 51.5558 42.532 51.286 43.0266C51.1212 43.3363 50.8165 43.5711 50.5767 43.8358C51.2661 44.1955 51.9205 44.5302 52.5949 44.8849C52.7797 44.7201 53.0545 44.4703 53.2993 44.2505C53.7189 44.3704 53.8188 45.3045 54.4732 44.6102C54.6031 44.4703 54.9528 44.3104 55.0077 44.3604C56.0618 45.3945 57.016 45.2496 58.0251 44.2605C58.1699 44.1156 58.8593 44.2505 59.0292 44.4653C59.3139 44.82 59.3789 45.3495 59.5287 45.7841C60.9375 45.7841 62.2513 45.7791 63.5602 45.7941C63.6551 45.7941 63.745 45.9689 63.8549 46.0739C63.73 46.2337 63.6101 46.5284 63.4702 46.5384C62.6909 46.6034 61.9016 46.5384 61.1373 46.6633C60.9724 46.6883 60.7676 47.3377 60.8276 47.6524C60.9025 48.0521 61.2322 48.182 61.5819 47.7624C61.7018 47.6225 62.0915 47.4876 62.1064 47.5126C62.636 48.3568 63.5552 47.9122 64.2096 48.187C64.884 48.4717 65.3835 49.1761 66.1079 49.8305C67.5966 49.2211 68.8654 50.1652 70.2093 50.8446C70.2292 51.9836 69.7114 52.7946 68.6556 53.2775C69.2301 53.837 69.7796 54.3965 70.3541 54.931C70.8087 55.3456 72.1325 55.4605 72.4573 54.971C73.1466 53.9369 74.4305 53.8519 75.2448 53.0577C75.2997 53.0027 75.7144 53.1476 75.7593 53.2775C75.8492 53.5073 75.8642 53.832 75.7593 54.0418C75.6644 54.2316 75.3597 54.4414 75.1649 54.4314C74.3606 54.3765 74.0708 55.0459 73.6212 55.4655C73.4714 55.6054 73.4114 55.9351 73.4414 56.1599C73.4714 56.3847 73.6662 56.5845 73.7911 56.7993C74.3955 55.9051 75.3097 55.9501 76.2139 56.04C77.0931 56.1249 78.0323 55.7203 78.8366 56.3048C79.2462 57.1191 78.6568 57.5137 78.2022 57.9583C79.1546 58.9441 80.0489 59.104 80.8848 58.4379C81.1496 58.6777 81.4643 58.8875 81.6791 59.1772C82.7731 60.6159 82.8031 60.6859 84.5865 61.5351C84.9662 61.715 85.2259 61.8199 85.2709 62.2845C85.3408 63.0888 85.8804 63.5234 86.5847 63.7931C87.429 62.9089 88.1883 61.9498 89.5821 62.3494C89.692 62.3794 89.8668 62.5492 89.8518 62.5992C89.7919 62.789 89.672 63.0937 89.5521 63.1037C89.0375 63.1487 88.6329 63.1037 88.3831 63.7881C87.9735 64.9221 87.8686 64.8772 86.6597 65.4966C86.4449 65.6065 86.0652 65.7914 86.0802 65.9013C86.245 67.1402 85.4058 66.9303 84.6315 67.1202C83.7073 67.345 82.7931 67.8245 82.0188 68.389C81.1795 69.0035 80.5101 69.8478 79.8057 70.5521C80.0505 70.9867 80.3353 71.3914 80.5001 71.841C80.5601 72.0058 80.3353 72.2806 80.2204 72.4904C80.2104 72.5104 80.0255 72.4654 79.9556 72.4105C79.7558 72.2356 79.5809 72.0458 79.3961 71.856C78.9365 72.5254 78.1022 72.4854 77.4928 72.8701C77.6377 74.099 76.5137 74.059 75.8692 74.4936C75.9492 75.4678 75.3797 75.6626 74.5404 75.9024C73.871 76.0922 73.3764 77.2112 72.767 77.2512C71.5131 77.3261 72.0376 78.4202 71.5181 78.8847C70.2442 80.0187 69.0603 81.2476 67.9063 82.3816C67.9063 82.8962 67.9213 83.2908 67.9063 83.6855C67.8763 84.235 67.3318 84.6396 66.8572 84.4198C66.5225 84.265 66.2528 83.9502 65.958 83.7105C65.6033 84.2949 65.1837 84.8794 64.874 85.5189C64.6542 85.9734 65.8331 86.1683 65.2936 86.5879C64.6892 87.0625 64.9289 87.7918 64.3744 88.4213C63.4103 88.1116 62.1614 88.9408 61.2172 87.577C60.303 88.4912 59.3988 89.3954 58.4946 90.2996C58.8293 91.7183 57.3007 91.2737 56.8661 91.9282V93.5218C56.3316 93.7915 55.6572 93.9464 55.2775 94.366C54.6481 95.0554 53.8538 95.3501 53.0844 95.7648C52.3351 96.1694 51.9854 97.2235 50.8814 97.1535C50.7865 97.1485 50.6166 97.5482 50.5617 97.778C50.4468 98.2625 50.7565 98.8171 50.4868 99.0968C49.6475 99.5364 49.0181 100.111 48.3536 100.156C47.5144 100.211 47.2047 101.305 46.3204 101C45.4063 100.69 45.0466 101.789 44.2823 101.779C43.5429 101.769 43.418 102.209 43.463 102.774C43.5379 103.673 43.393 104.347 42.2541 104.177C41.7545 104.917 40.8103 105.286 41.2549 106.52C41.7945 106.67 41.8844 107.195 41.5447 107.12C42.364 107.974 42.264 108.094 42.1591 108.099C41.3848 108.114 40.6105 108.109 39.9711 108.109C39.4915 107.849 39.4416 107.599 39.7513 107.494C40.071 107.384 40.1209 107.07 40.2708 106.82C39.1668 106.51 38.6772 106.205 38.1927 105.686C38.0927 106.121 38.1127 106.55 37.9129 106.815C37.4483 107.434 36.8788 107.969 36.3543 108.543C36.669 109.563 35.1903 109.932 35.4951 110.946C34.9655 111.281 34.7557 111.95 33.9914 112.09C32.8324 112.3 32.3428 113.114 32.3728 114.333C32.3828 114.763 31.9732 115.208 31.7434 115.667C31.8333 115.732 32.0281 115.992 32.218 115.987C33.1571 115.982 33.5118 116.726 33.9714 117.311C34.0863 117.456 33.9964 117.82 33.9065 118.05C33.7666 118.41 33.5818 118.395 33.352 118.15C33.1022 117.885 32.9073 117.475 32.4078 117.585C31.2988 117.83 30.8991 117.276 30.6094 116.257C30.4745 115.767 29.7402 115.912 29.2856 116.361C29.5303 116.641 29.7701 116.916 29.925 117.091C29.6053 118.49 27.9467 118.095 27.3223 119.129C26.6579 119.149 26.0584 119.169 26.0734 120.128C26.0834 120.743 25.3441 121.032 25.2342 121.762C25.1342 122.411 24.5148 123.091 23.5956 123.125C23.166 123.14 22.8862 123.39 22.9412 123.875C23.111 125.279 22.4067 125.948 21.1028 126.298C20.3835 126.493 20.3885 126.907 20.923 127.801C21.0329 127.986 21.1478 128.166 21.3326 128.466C20.5433 128.581 19.819 128.686 19.0846 128.79C19.1246 129.01 19.1196 129.115 19.1645 129.19C19.3744 129.52 20.1886 130.109 19.2495 130.129C18.0605 130.154 17.3062 130.559 16.6668 131.408C16.9065 131.683 17.1413 131.953 17.3761 132.222C16.8166 132.857 16.1122 132.447 15.238 132.637C14.7784 133.137 14.174 133.831 13.5345 134.48C12.9201 135.105 12.3905 135.879 11.3565 135.909C11.2665 135.909 11.1417 136.329 11.1167 136.564C11.0767 136.948 11.1067 137.343 11.1067 138.057C9.87278 137.638 9.32827 139.266 8.00944 138.897C7.55983 138.772 7.31505 139.061 7.16019 139.456C6.95537 139.981 6.74556 140.505 6.4708 141.204C7.30006 141.429 8.2742 140.97 8.98857 141.834C9.52309 142.478 10.8419 141.594 11.3615 142.703C11.6512 142.533 11.9409 142.358 12.3756 142.099C13.0899 143.103 13.8443 144.162 14.6236 145.261C15.248 144.556 15.7076 144.082 16.6318 144.761C17.516 145.416 17.6009 145.296 18.9647 144.781C18.7549 144.661 18.5501 144.522 18.3253 144.422C18.0355 144.292 17.7358 144.197 17.3711 144.057C18.4035 143.071 19.356 142.91 20.2286 143.572C20.853 143.058 20.4434 142.348 20.5833 141.684C21.0828 141.159 21.6174 140.6 22.1619 140.025V137.698C22.3617 137.498 22.5415 137.303 22.7364 137.128C23.2759 136.642 23.9103 136.615 24.6397 137.048C25.2741 137.423 25.6288 137.448 25.9835 137.033C26.3032 136.648 26.6629 136.269 26.8727 135.824C27.5671 134.346 28.4413 133.202 30.3196 133.331C30.4695 133.341 30.6643 132.777 30.8342 132.477C30.9541 132.262 31.069 132.048 31.1989 131.818C31.4786 132.073 31.7534 132.322 32.0281 132.572C32.3612 131.769 31.9249 131.047 30.7193 130.404C33.0023 130.799 33.8665 129.035 35.1504 127.876C35.4251 128.126 35.6999 128.376 35.9746 128.626C36.4192 128.036 37.1985 127.721 37.1786 126.752C37.1636 126.008 36.8988 125.523 36.2993 125.069C36.9737 124.419 37.6232 123.775 38.2976 123.155C38.5873 122.886 39.3167 123.205 39.5065 123.69C39.6364 124.025 39.7163 124.379 39.8112 124.704C40.7954 124.579 41.7345 124.989 42.8186 124.23C42.1392 123.78 41.5097 123.36 40.7354 122.846C41.6046 122.441 42.1292 122.196 42.6537 121.952C42.3789 121.637 42.1491 121.362 41.9144 121.097C42.0442 120.967 42.1242 120.843 42.2341 120.788C42.339 120.738 42.4839 120.743 42.6087 120.748C42.9934 120.763 43.3631 120.713 43.2931 120.228C43.2732 120.108 42.8735 120.048 42.6487 119.953C42.4239 119.858 42.2041 119.763 41.9793 119.664C42.1042 119.499 42.2391 119.179 42.349 119.189C43.1932 119.249 43.5079 118.909 43.498 118.065C43.498 117.91 44.0674 117.635 44.3922 117.615C44.8018 117.585 45.0815 117.865 45.0416 118.36C45.0116 118.749 45.0166 119.149 45.0466 119.539C45.0566 119.639 45.2414 119.823 45.2914 119.808C45.4812 119.748 45.7909 119.629 45.7959 119.514C45.8509 118.734 45.7809 117.94 45.8958 117.171C45.9208 117.001 46.5652 116.776 46.875 116.836C47.2596 116.911 47.5993 117.256 48.004 117.51C48.1638 116.616 48.5135 115.857 47.7842 115.227C47.6892 115.322 47.5843 115.402 47.5094 115.507C47.1597 115.972 46.7001 116.157 46.1656 115.942C45.656 115.737 45.726 115.108 46.3204 114.328C46.4004 114.223 46.5053 114.138 46.6352 114.014C46.0956 113.759 45.5661 113.514 44.9766 113.239C46.4553 112.81 46.5203 112.715 47.4594 113.354C48.0989 113.789 48.7083 113.544 49.3228 113.614C49.4077 113.624 49.5626 113.304 49.6275 113.114C49.6475 113.064 49.4677 112.885 49.3578 112.86C49.0031 112.78 48.6384 112.74 47.8291 112.615C48.4935 111.97 48.8932 111.581 49.2279 111.261C49.7524 111.626 50.0421 111.975 50.3768 112.02C50.6766 112.06 51.1112 111.845 51.321 111.601C51.5358 111.346 51.6108 110.607 51.6507 110.617C52.3601 110.741 52.0654 111.341 52.1403 111.781C52.2002 112.135 52.3001 112.49 52.5499 113.539C52.8397 112.06 52.9945 111.261 53.2043 110.197C53.7289 111.041 54.0786 111.481 54.753 110.692C55.0227 110.372 55.6372 110.347 56.2566 110.132C54.9928 109.368 55.0077 108.444 55.6272 107.33C56.4814 107.359 57.4156 107.1 58.07 108.179C58.4047 107.759 58.7244 107.359 59.0741 106.93C59.0242 106.85 58.8993 106.675 58.7844 106.485C58.1699 105.466 58.3148 105.091 59.3789 104.967C59.8734 104.907 60.4329 105.111 60.8426 104.512C60.5678 104.267 60.2681 104.017 59.9933 103.748C59.7385 103.498 59.5137 103.218 59.259 102.938C60.353 102.264 61.2072 102.474 62.0315 103.368C62.3312 103.698 63.1255 103.243 63.1705 102.749C63.2155 102.249 63.1805 101.744 63.1805 101.485C64.7641 99.8761 66.1429 98.4774 67.5116 97.0886C67.7964 97.3434 68.0712 97.5881 68.3459 97.8329C68.6506 97.5282 68.9903 97.2884 69.1902 96.9587C69.375 96.654 69.5049 96.2493 69.4699 95.9096C69.4249 95.505 68.6756 95.3701 68.1661 95.6549C67.8414 95.8347 67.5716 96.1344 67.2369 96.2643C67.0521 96.3343 66.7773 96.1544 66.5375 96.0895C66.5925 95.9046 66.6025 95.6848 66.7124 95.54C66.9471 95.2302 67.2369 94.9605 67.4817 94.7007C68.3309 94.7007 69.1202 94.7107 69.9045 94.6907C69.9994 94.6907 70.0894 94.5159 70.2792 94.331C69.42 93.8814 68.4358 93.6466 67.9163 92.7125C69.5748 91.9731 71.1684 90.6443 73.0617 92.3028C73.3065 92.073 73.5613 91.7883 73.856 91.5535C74.2856 91.2138 74.1408 90.949 73.7511 90.7842C73.4214 90.6493 73.0467 90.6193 72.5422 90.5094C73.4164 90.0099 74.0958 89.5003 74.8601 89.2206C75.6494 88.9308 76.6485 89.6302 77.3879 88.751C76.8634 88.4962 76.3638 88.2564 75.5046 87.8368C76.5936 87.6719 77.3229 87.562 78.1572 87.4371C77.8625 86.9526 77.5827 86.5879 77.4179 86.1733C77.3429 85.9834 77.4728 85.6837 77.5827 85.4689C77.7276 85.1941 77.8824 85.314 78.1472 85.5638C78.397 85.7986 78.7816 85.9535 79.1313 86.0034C79.3162 86.0334 79.546 85.7736 79.7558 85.6487C78.8216 85.0543 78.9015 84.1251 78.9865 83.2209C79.0664 82.3417 78.6518 81.4025 79.3262 80.5233C79.7858 80.9129 80.1704 81.4724 80.9048 81.3226C80.9747 81.3076 81.1096 81.6473 81.2195 81.8171C80.9947 81.9071 80.7649 81.992 80.5401 82.0869C80.3153 82.1818 80.0955 82.2817 79.8707 82.3766C79.9956 82.5415 80.0855 82.7963 80.2503 82.8612C80.8448 83.096 81.4593 83.2708 82.0987 83.4757C82.2486 82.4066 81.8739 81.4774 82.3685 80.6781C83.0379 80.1986 83.992 80.9529 84.5066 80.0687C84.4566 79.3194 84.7114 78.54 83.9371 77.9206C83.4825 77.5559 83.6373 77.0014 84.072 76.5918C84.8163 77.1163 85.3458 77.7657 85.4957 78.6999C85.5157 78.8098 85.9353 78.9247 86.1601 78.9047C86.3849 78.8847 86.7945 78.6749 86.7796 78.595C86.6197 77.506 87.2841 76.7017 87.6288 75.7775C88.0484 74.6585 88.6979 74.069 89.9018 74.1939C91.0058 74.3088 91.86 74.0041 92.2647 72.8801C92.1698 72.7901 92.0798 72.6303 91.9799 72.6203C91.5903 72.5903 91.1906 72.5803 90.801 72.6203C90.3064 72.6653 90.0966 72.3955 90.0267 71.9759C89.9218 71.3614 90.2215 70.9967 90.8859 71.0467C91.7451 71.1166 92.6643 70.727 93.4336 71.6062C93.7684 71.9909 93.9182 71.4114 93.9782 71.0567C94.0181 70.8219 94.0931 70.4522 94.2379 70.4023C94.8324 70.2024 95.4818 70.1475 95.8515 69.538C96.9405 69.7029 97.9696 67.5048 99.1036 69.4531C100.023 69.4531 100.947 69.5131 101.861 69.4381C102.705 69.3682 103.375 69.583 103.899 70.2424C104.799 69.9377 105.088 71.1066 105.938 71.0567C106.677 71.0117 106.572 71.6711 106.612 72.1857C106.622 72.2906 107.082 72.4804 107.107 72.4504C107.906 71.4513 108.62 71.6861 109.31 72.5703C110.204 72.3106 110.553 73.2997 111.323 73.4296C112.267 73.5944 112.831 74.1989 112.921 75.2779C113.046 76.7766 113.236 76.8765 114.435 76.1422C114.925 75.8424 115.354 75.7775 115.864 75.7625C116.648 75.7375 117.277 76.5218 116.783 76.9315C115.769 77.7807 116.134 78.8198 116.074 79.8139C116.064 80.0187 116.288 80.2435 116.408 80.4583C117.287 80.5083 118.257 80.3035 118.816 81.2926C119.58 80.3335 120.545 80.0437 121.489 80.858C122.128 81.4075 122.258 80.858 122.643 80.6632C122.927 80.5233 123.372 80.5483 123.687 80.6632C124.111 80.818 124.071 81.2576 123.637 81.982C123.572 82.0919 123.427 82.1568 123.367 82.2667C122.942 83.0211 123.172 83.5956 123.882 83.6605C124.901 83.7554 125.95 83.4207 126.934 83.8254C127.084 84.6047 127.219 85.324 127.369 86.1183C127.763 85.7586 128.038 85.5089 128.198 85.359C128.717 85.6038 129.142 85.9035 129.607 85.9934C130.231 86.1183 130.895 86.0434 131.53 86.1383C131.66 86.1583 131.81 86.5479 131.815 86.7727C131.825 86.9975 131.665 87.2273 131.58 87.4521C131.395 87.3572 131.21 87.2573 131.02 87.1774C130.84 87.1024 130.651 87.0525 130.466 86.9876C130.396 87.2223 130.256 87.4621 130.276 87.6869C130.296 87.9117 130.511 88.3164 130.601 88.3014C131.685 88.1665 131.825 88.8809 131.979 89.6702C132.004 89.8001 132.399 89.86 132.624 89.9549C133.098 88.3963 134.143 88.0616 135.681 88.5911V91.3237C134.877 91.3637 134.277 90.3945 133.413 90.7442C133.463 92.1979 133.493 92.4077 134.417 92.2729C135.791 92.078 135.626 93.222 136.091 93.8165C136.186 93.7765 136.296 93.7615 136.366 93.6966C136.56 93.5217 136.71 93.277 136.93 93.1571C137.39 92.9123 137.949 93.1421 138.139 93.6766C138.259 94.0163 138.344 94.366 138.434 94.7007C139.418 94.5808 140.347 94.9655 141.226 94.391C141.246 94.0363 141.246 93.6566 141.301 93.287C141.391 92.6625 140.847 92.4177 140.617 91.9881C140.477 91.7283 140.537 91.1738 140.737 90.974C140.932 90.7742 141.601 90.6943 141.736 90.8441C142.51 91.7383 143.2 91.8033 143.954 90.8591C143.984 90.8241 144.189 90.8591 144.214 90.9091C144.314 91.1289 144.508 91.4236 144.433 91.5835C143.994 92.5476 143.494 93.4818 143.01 94.426C143.759 94.7557 144.753 94.8456 144.478 96.1194C144.418 96.3942 144.668 96.7339 144.783 97.0586C145.512 96.674 144.928 95.5849 145.777 95.505C146.372 95.445 147.086 95.2252 147.626 95.8896C147.081 96.1444 146.557 96.3842 145.997 96.644C146.262 96.7988 146.472 97.0336 146.681 97.0336C147.471 97.0336 148.3 96.9487 148.725 97.788C149.194 98.7121 150.318 98.4574 150.933 99.1518C151.427 99.7013 151.432 99.0219 151.552 98.7571C151.682 98.4674 151.777 98.1626 152.022 97.5032C152.251 98.5173 153.221 98.5923 153.126 99.4215C153.071 99.9211 153.375 100.261 153.745 100.186C155.094 99.9111 155.983 101.405 157.362 101.035C157.752 100.93 158.016 101.729 157.792 102.259C157.437 103.098 157.522 103.568 158.026 103.933C158.526 104.297 159.165 104.242 159.7 104.702C160.179 105.111 161.089 105.022 161.903 105.171C161.613 105.496 161.388 105.656 161.298 105.871C161.159 106.205 160.949 106.66 161.079 106.905C161.204 107.145 161.718 107.305 162.048 107.28C162.442 107.25 162.632 106.9 162.617 106.445C162.612 106.23 162.817 106.011 162.972 105.701C163.242 106.27 163.487 106.785 163.721 107.28C164.85 107.439 166.124 106.86 166.734 107.764C167.448 108.249 167.288 106.92 168.082 107.624C168.522 108.014 169.151 108.184 169.681 108.478C170.181 108.758 170.34 109.518 171.025 109.528C171.165 109.388 171.285 109.308 171.35 109.198C171.549 108.863 171.734 108.823 171.909 109.118C172.329 109.817 173.008 109.677 173.647 109.667C173.493 108.823 172.823 108.034 172.174 108.164L172.209 108.179ZM65.1837 97.798C64.3195 97.798 63.4153 98.0677 62.551 97.6081C62.636 97.4233 62.7709 97.0836 62.7958 97.0886C63.7 97.3783 63.9948 96.2593 64.7791 96.2493C65.2537 96.2393 65.5434 96.4641 65.5484 96.8538C65.5534 97.1835 65.3136 97.798 65.1837 97.798ZM140.147 89.1456C139.543 89.1656 138.893 89.3205 138.199 88.9308C138.699 88.1515 139.143 87.562 140.152 87.562C141.161 87.562 141.606 88.1515 142.066 88.8709C141.416 89.3954 140.757 89.1257 140.152 89.1456H140.147Z" fill="#BF0005"/>
<path d="M179.971 113.314C179.961 113.18 179.666 113.065 179.501 112.94C179.401 113.16 179.296 113.374 179.206 113.594C179.117 113.814 179.042 114.044 178.942 114.329C177.833 114.329 176.699 114.334 175.565 114.319C175.47 114.319 175.38 114.149 175.325 114.089C175.57 113.664 175.809 113.255 176.049 112.84C176.359 113.015 176.699 113.155 176.963 113.379C177.428 113.769 177.843 113.749 178.372 113.319C178.157 113.06 177.958 112.805 177.743 112.565C177.483 112.285 177.048 112.066 176.968 111.746C176.779 111.002 176.744 110.227 175.65 110.462C175.19 109.713 174.486 109.583 173.686 109.683V111.261C173.556 111.261 173.427 111.261 173.297 111.261C172.792 111.241 172.213 111.151 172.123 111.861C172.053 112.4 172.173 112.915 172.912 112.835C173.407 112.78 173.771 113.125 173.661 113.449C173.082 115.168 174.73 115.113 175.455 115.747C175.934 116.172 176.124 116.202 176.739 115.652C177.443 115.018 178.147 115.218 178.877 115.283C179.246 115.318 179.351 116.282 180.006 115.617C180.006 114.858 180.031 114.084 179.986 113.314H179.971Z" fill="#BF0005"/>
</g>
<defs>
<clipPath id="clip0_437_4287">
<rect width="180" height="145.246" fill="white"/>
</clipPath>
</defs>
</svg>
