<svg width="102" height="43" viewBox="0 0 102 43" fill="none" xmlns="http://www.w3.org/2000/svg">
<g clip-path="url(#clip0_423_11283)">
<path d="M21.31 35.2804H7.88V32.4904H28.03V26.3904H17.27V25.4404C16.23 25.7204 15.14 25.8804 14.01 25.8804C12.88 25.8804 11.79 25.7204 10.75 25.4404V26.3904H0V32.4904H1.36V36.9704C1.36 38.1404 1.73 39.2004 2.52 40.0504C3.36 40.9704 4.48 41.3804 5.74 41.3804H21.15C20.45 40.5904 20.02 39.5604 20.02 38.4204C20.02 37.2004 20.51 36.0904 21.31 35.2804Z" fill="white"/>
<path d="M27.0195 38.4199C27.0195 39.7999 25.8995 40.9199 24.5195 40.9199C23.1395 40.9199 22.0195 39.7999 22.0195 38.4199C22.0195 37.0399 23.1395 35.9199 24.5195 35.9199C25.8995 35.9199 27.0195 37.0399 27.0195 38.4199Z" fill="white"/>
<path d="M18.0113 13.0203C18.0113 15.2203 16.2313 17.0103 14.0213 17.0103C11.8113 17.0103 10.0312 15.2303 10.0312 13.0203C10.0312 10.8103 11.8113 9.03027 14.0213 9.03027C16.2313 9.03027 18.0113 10.8103 18.0113 13.0203Z" fill="white"/>
<path d="M91.0187 17.9201C91.0187 15.6001 92.3387 13.5901 94.2687 12.5901V3.12012H87.4688V39.3501H94.2687V23.2501C92.3387 22.2501 91.0187 20.2401 91.0187 17.9201Z" fill="white"/>
<path d="M97.0195 21.9199C99.2287 21.9199 101.02 20.1291 101.02 17.9199C101.02 15.7108 99.2287 13.9199 97.0195 13.9199C94.8104 13.9199 93.0195 15.7108 93.0195 17.9199C93.0195 20.1291 94.8104 21.9199 97.0195 21.9199Z" fill="white"/>
<path d="M64.5906 3.12012V9.45012H77.6106V10.4501C77.6106 11.1901 77.5606 11.9701 77.4606 12.8001C77.3606 13.6101 77.1906 14.4301 76.9406 15.2701C76.6906 16.0801 76.3706 16.8901 75.9706 17.7101C75.5806 18.4701 75.0806 19.2101 74.4706 19.9101C73.2106 21.3401 71.7306 22.3901 70.0106 23.0601C68.4606 23.6501 67.3806 23.6501 65.3306 23.6501C65.1906 23.6501 65.0506 23.6501 64.9006 23.6501H64.1406V30.3801H64.9006C67.8306 30.3801 70.5206 29.9801 72.9606 29.1801C75.4506 28.3701 77.6206 27.0901 79.4606 25.3201V25.3101C81.3506 23.4201 82.7706 21.2101 83.7206 18.6801C84.7106 16.1201 85.1906 13.0601 85.1906 9.52012V3.12012H64.5906Z" fill="white"/>
<path d="M14.0108 0C6.99078 0 1.30078 5.79 1.30078 12.94C1.30078 18.94 5.32078 23.97 10.7608 25.44C11.8008 25.72 12.8908 25.88 14.0208 25.88C15.1508 25.88 16.2408 25.72 17.2808 25.44C22.7208 23.97 26.7408 18.94 26.7408 12.94C26.7308 5.79 21.0408 0 14.0108 0ZM7.45078 12.94C7.45078 9.93 9.31078 7.49 11.8008 6.56C12.5008 6.3 13.2408 6.15 14.0108 6.15C14.7808 6.15 15.5108 6.3 16.2108 6.55C17.4908 7.02 18.6008 7.89 19.3808 9.03C20.1208 10.12 20.5708 11.45 20.5708 12.92C20.5708 16.77 17.5308 19.7 14.0108 19.7C10.4908 19.7 7.45078 16.76 7.45078 12.92V12.94Z" fill="#2D65F2"/>
<path d="M50.5594 8.46027H53.5294V3.03027H31.6094V8.46027H34.6194V16.0303H31.6094V21.4603H53.9294V16.0303H50.5694V8.46027H50.5594ZM44.7394 16.0303H40.3794V8.46027H44.7394V16.0303Z" fill="white"/>
<path d="M58.0392 3.03027V5.77027H54.1992V11.2103H58.0392V13.1603H54.1992V18.5903H58.0392V22.2803H63.2092H63.7392H63.8592V3.03027H58.0392Z" fill="white"/>
<path fill-rule="evenodd" clip-rule="evenodd" d="M49.6119 36.0402C52.1419 36.0402 54.3919 33.9202 54.3919 31.0602C54.3919 28.2002 52.1419 26.0802 49.6119 26.0802C47.0819 26.0802 44.8319 28.2002 44.8319 31.0602C44.8319 33.9202 47.0819 36.0402 49.6119 36.0402ZM49.6119 42.7102C55.9319 42.7102 61.0519 37.5002 61.0519 31.0602C61.0519 24.6202 55.9319 19.4102 49.6119 19.4102C43.2919 19.4102 38.1719 24.6202 38.1719 31.0602C38.1719 37.5002 43.2919 42.7102 49.6119 42.7102Z" fill="#2D65F2"/>
</g>
<defs>
<clipPath id="clip0_423_11283">
<rect width="101.02" height="42.71" fill="white"/>
</clipPath>
</defs>
</svg>
