<svg width="32" height="32" viewBox="0 0 32 32" fill="none" xmlns="http://www.w3.org/2000/svg">
<path d="M28.9862 26.4999C27.1202 23.2856 24.1335 20.873 20.5987 19.7249C22.293 18.7173 23.6097 17.1814 24.3464 15.3529C25.0832 13.5245 25.1993 11.5047 24.6768 9.60396C24.1544 7.70316 23.0223 6.02648 21.4545 4.83148C19.8867 3.63647 17.9699 2.98926 15.9987 2.98926C14.0274 2.98926 12.1106 3.63647 10.5428 4.83148C8.97504 6.02648 7.84296 7.70316 7.3205 9.60396C6.79804 11.5047 6.91411 13.5245 7.65086 15.3529C8.38761 17.1814 9.7043 18.7173 11.3987 19.7249C7.86378 20.873 4.87707 23.2856 3.01115 26.4999C2.91954 26.6506 2.87109 26.8235 2.87109 26.9999C2.87109 27.1762 2.91954 27.3492 3.01115 27.4999C3.09663 27.6531 3.22187 27.7805 3.37367 27.8685C3.52547 27.9565 3.6982 28.0019 3.87365 27.9999H28.1237C28.2991 28.0019 28.4718 27.9565 28.6236 27.8685C28.7754 27.7805 28.9007 27.6531 28.9862 27.4999C29.0778 27.3492 29.1262 27.1762 29.1262 26.9999C29.1262 26.8235 29.0778 26.6506 28.9862 26.4999V26.4999Z" fill="#2D65F2"/>
</svg>
