<svg width="20" height="20" viewBox="0 0 20 20" fill="none" xmlns="http://www.w3.org/2000/svg">
<path d="M16.25 3.125H3.75C3.40482 3.125 3.125 3.40482 3.125 3.75V16.25C3.125 16.5952 3.40482 16.875 3.75 16.875H16.25C16.5952 16.875 16.875 16.5952 16.875 16.25V3.75C16.875 3.40482 16.5952 3.125 16.25 3.125Z" stroke="#8491A7" stroke-width="1.6" stroke-linecap="round" stroke-linejoin="round"/>
<path d="M3.125 12.5H5.99219C6.07334 12.4997 6.15376 12.5154 6.22883 12.5463C6.3039 12.5771 6.37216 12.6224 6.42969 12.6797L7.94531 14.1953C8.00284 14.2526 8.0711 14.2979 8.14617 14.3287C8.22124 14.3596 8.30166 14.3753 8.38281 14.375H11.6172C11.6983 14.3753 11.7788 14.3596 11.8538 14.3287C11.9289 14.2979 11.9972 14.2526 12.0547 14.1953L13.5703 12.6797C13.6278 12.6224 13.6961 12.5771 13.7712 12.5463C13.8462 12.5154 13.9267 12.4997 14.0078 12.5H16.875" stroke="#8491A7" stroke-width="1.6" stroke-linecap="round" stroke-linejoin="round"/>
</svg>
