<svg width="20" height="20" viewBox="0 0 20 20" fill="none" xmlns="http://www.w3.org/2000/svg">
<path d="M12.4994 6.25089L5.99155 12.8681C5.7761 13.1059 5.66034 13.4174 5.66824 13.7382C5.67614 14.0589 5.80709 14.3644 6.03398 14.5913C6.26087 14.8182 6.56632 14.9491 6.88709 14.957C7.20787 14.9649 7.51939 14.8492 7.75718 14.6337L15.515 6.76652C15.9459 6.29096 16.1774 5.6679 16.1616 5.02636C16.1458 4.38481 15.8839 3.7739 15.4301 3.32012C14.9764 2.86634 14.3654 2.60444 13.7239 2.58865C13.0824 2.57285 12.4593 2.80437 11.9837 3.23527L4.22593 11.1025C3.52352 11.8049 3.12891 12.7575 3.12891 13.7509C3.12891 14.7443 3.52352 15.6969 4.22593 16.3993C4.92833 17.1017 5.88101 17.4964 6.87436 17.4964C7.86772 17.4964 8.82039 17.1017 9.5228 16.3993L15.9369 10.0009" stroke="#8491A7" stroke-width="1.6" stroke-linecap="round" stroke-linejoin="round"/>
</svg>
