<svg width="20" height="20" viewBox="0 0 20 20" fill="none" xmlns="http://www.w3.org/2000/svg">
<path d="M10 8.125V11.25" stroke="#96A0B5" stroke-width="1.5" stroke-linecap="round" stroke-linejoin="round"/>
<path d="M8.92138 3.1252L2.04638 15.0002C1.93685 15.1899 1.8791 15.4051 1.87891 15.6241C1.87871 15.8431 1.93608 16.0584 2.04527 16.2483C2.15446 16.4382 2.31164 16.5961 2.50105 16.7061C2.69046 16.8161 2.90546 16.8744 3.1245 16.8752H16.8745C17.0936 16.8744 17.3085 16.8161 17.498 16.7061C17.6874 16.5961 17.8445 16.4382 17.9537 16.2483C18.0629 16.0584 18.1203 15.8431 18.1201 15.6241C18.1199 15.4051 18.0622 15.1899 17.9526 15.0002L11.0776 3.1252C10.9689 2.93525 10.812 2.77739 10.6226 2.66761C10.4333 2.55782 10.2184 2.5 9.9995 2.5C9.78065 2.5 9.56568 2.55782 9.37636 2.66761C9.18704 2.77739 9.03008 2.93525 8.92138 3.1252V3.1252Z" stroke="#96A0B5" stroke-width="1.5" stroke-linecap="round" stroke-linejoin="round"/>
<path d="M10 15C10.5178 15 10.9375 14.5803 10.9375 14.0625C10.9375 13.5447 10.5178 13.125 10 13.125C9.48223 13.125 9.0625 13.5447 9.0625 14.0625C9.0625 14.5803 9.48223 15 10 15Z" fill="#96A0B5"/>
</svg>
