<svg width="20" height="20" viewBox="0 0 20 20" fill="none" xmlns="http://www.w3.org/2000/svg">
<path d="M16.875 4.37402H3.125" stroke="#8491A7" stroke-width="1.5" stroke-linecap="round" stroke-linejoin="round"/>
<path d="M8.125 8.12402V13.124" stroke="#8491A7" stroke-width="1.5" stroke-linecap="round" stroke-linejoin="round"/>
<path d="M11.875 8.12402V13.124" stroke="#8491A7" stroke-width="1.5" stroke-linecap="round" stroke-linejoin="round"/>
<path d="M15.625 4.37402V16.249C15.625 16.4148 15.5592 16.5738 15.4419 16.691C15.3247 16.8082 15.1658 16.874 15 16.874H5C4.83424 16.874 4.67527 16.8082 4.55806 16.691C4.44085 16.5738 4.375 16.4148 4.375 16.249V4.37402" stroke="#8491A7" stroke-width="1.5" stroke-linecap="round" stroke-linejoin="round"/>
<path d="M13.125 4.37402V3.12402C13.125 2.7925 12.9933 2.47456 12.7589 2.24014C12.5245 2.00572 12.2065 1.87402 11.875 1.87402H8.125C7.79348 1.87402 7.47554 2.00572 7.24112 2.24014C7.0067 2.47456 6.875 2.7925 6.875 3.12402V4.37402" stroke="#8491A7" stroke-width="1.5" stroke-linecap="round" stroke-linejoin="round"/>
</svg>
