<svg width="27" height="10" viewBox="0 0 27 10" fill="none" xmlns="http://www.w3.org/2000/svg">
<path d="M8.618 0.525V2.296H5.703V9.49H3.701V2.296H0.786V0.525H8.618ZM13.7282 9.71C10.9452 9.71 8.88819 7.719 8.88819 5.002C8.88819 2.285 10.9452 0.293999 13.7282 0.293999C16.5112 0.293999 18.5682 2.285 18.5682 5.002C18.5682 7.719 16.5112 9.71 13.7282 9.71ZM13.7282 7.906C15.3562 7.906 16.5662 6.685 16.5662 5.002C16.5662 3.308 15.3562 2.098 13.7282 2.098C12.1002 2.098 10.8902 3.308 10.8902 5.002C10.8902 6.685 12.1002 7.906 13.7282 7.906ZM19.7578 9.49V0.525H23.2008C25.5328 0.525 26.8968 1.823 26.8968 3.803C26.8968 5.805 25.5328 7.103 23.2008 7.103H21.7598V9.49H19.7578ZM21.7598 5.332H23.1128C24.2238 5.332 24.8948 4.804 24.8948 3.803C24.8948 2.813 24.2238 2.296 23.1128 2.296H21.7598V5.332Z" fill="white"/>
</svg>
