<svg width="243" height="28" viewBox="0 0 243 28" fill="none" xmlns="http://www.w3.org/2000/svg">
<g clip-path="url(#clip0_1556_5214)">
<path d="M27.6345 4.77713C32.1568 10.5938 30.1974 19.4385 23.2576 24.5322C16.3179 29.6259 7.02603 29.0394 2.50321 23.2227C-2.01907 17.4061 -0.05971 8.56089 6.88004 3.46771C13.8198 -1.62599 23.1117 -1.04008 27.6345 4.77713ZM9.25775 6.52531C6.42847 8.60217 4.55299 11.5592 4.11122 14.639C3.87427 16.293 3.9489 18.7239 5.65061 20.913C7.35286 23.1026 9.73874 23.8367 11.441 24.0669C14.6102 24.4956 18.0507 23.5509 20.8799 21.474C23.7092 19.3977 25.5852 16.4407 26.0265 13.3608C26.2634 11.7069 26.1888 9.27646 24.4865 7.08687C21.2819 2.96544 14.4506 2.7135 9.25721 6.52478L9.25775 6.52531Z" fill="#004998"/>
<path d="M3.74729 10.9827C3.81701 11.1314 3.8181 11.2854 3.75055 11.4453C3.66013 11.658 3.51741 11.7835 3.32349 11.8205C3.21455 11.8412 3.1165 11.8364 3.0288 11.8052L3.14101 11.5411C3.21564 11.5501 3.27556 11.5485 3.32077 11.5363C3.40193 11.5125 3.4624 11.4532 3.50271 11.359C3.54356 11.2627 3.53321 11.1695 3.47166 11.0801C3.4101 10.9906 3.3017 10.9149 3.14591 10.852C2.99012 10.7895 2.86102 10.772 2.75862 10.7996C2.65621 10.8265 2.58594 10.8853 2.54781 10.9753C2.50859 11.0674 2.51186 11.151 2.55761 11.2261C2.58213 11.2669 2.62625 11.3103 2.68998 11.3574L2.57777 11.6215C2.43669 11.5379 2.33918 11.4304 2.28471 11.2981C2.23024 11.1658 2.23459 11.0261 2.29724 10.8789C2.37459 10.6963 2.49933 10.5788 2.67146 10.5259C2.84414 10.4725 3.04187 10.491 3.26521 10.5804C3.50652 10.6768 3.66721 10.8112 3.74729 10.9827Z" fill="#A28A3D"/>
<path d="M2.00306 11.7227L3.44113 12.136L3.35779 12.4102L2.80871 12.2525L2.65128 12.769L3.20036 12.9267L3.11702 13.2009L1.67896 12.7875L1.7623 12.5134L2.40452 12.6976L2.56195 12.1815L1.91972 11.9968L2.00306 11.7227Z" fill="#A28A3D"/>
<path d="M3.06913 13.3941L3.01574 13.6815L2.10824 13.5222C2.00692 13.5042 1.93066 13.5026 1.87945 13.5164C1.79012 13.5359 1.7351 13.6042 1.71331 13.7207C1.69207 13.836 1.71931 13.9186 1.79557 13.9673C1.83806 13.998 1.90996 14.0218 2.01182 14.0398L2.91933 14.1991L2.86594 14.4865L1.95953 14.3272C1.80265 14.2997 1.68499 14.2563 1.606 14.1959C1.46165 14.0843 1.41099 13.9107 1.45512 13.6751C1.49869 13.4396 1.60873 13.2935 1.78413 13.2374C1.87945 13.2083 2.00583 13.2073 2.16271 13.2348L3.06913 13.3936V13.3941Z" fill="#A28A3D"/>
<path d="M2.84094 14.6874L2.82079 14.9881L1.74224 15.4692L2.78429 15.5348L2.76686 15.8021L1.27051 15.7079L1.28957 15.421L2.38828 14.9277L1.32661 14.861L1.34459 14.5938L2.84094 14.6874Z" fill="#A28A3D"/>
<path d="M2.3507 16.9502C2.45256 16.9227 2.5212 16.8655 2.5566 16.7787C2.57621 16.7295 2.58384 16.6766 2.58057 16.6189C2.57349 16.5088 2.52229 16.4204 2.42696 16.3548C2.33163 16.2891 2.19273 16.2616 2.01079 16.2727C1.82722 16.2838 1.69976 16.3299 1.6284 16.4119C1.55704 16.4934 1.52436 16.5834 1.53089 16.6813C1.53688 16.7776 1.57175 16.8544 1.63548 16.9126C1.69921 16.9708 1.77983 17.0036 1.87788 17.0121L1.85773 16.6967L2.10775 16.6813L2.14425 17.2556L1.3446 17.3037L1.33207 17.109L1.51619 17.0693C1.44265 17.0185 1.38981 16.9719 1.35822 16.929C1.3032 16.857 1.27215 16.7649 1.26507 16.6543C1.25363 16.4723 1.31246 16.3188 1.44156 16.1944C1.5712 16.0652 1.75532 15.9933 1.99445 15.979C2.23576 15.9647 2.43295 16.0139 2.58656 16.1277C2.74017 16.242 2.82297 16.3997 2.83605 16.6009C2.84748 16.7761 2.80772 16.9195 2.71784 17.0317C2.62796 17.1434 2.51139 17.2122 2.36813 17.236L2.34961 16.9507L2.3507 16.9502Z" fill="#A28A3D"/>
<path d="M2.73964 17.5565C2.8829 17.6423 2.97223 17.7698 3.00764 17.9387C3.05449 18.1647 3.00819 18.3457 2.86819 18.4817C2.78975 18.5579 2.70478 18.6066 2.61435 18.6283L2.55607 18.3483C2.62307 18.3155 2.67209 18.2816 2.7026 18.2467C2.75652 18.1827 2.77287 18.1012 2.75217 18.0006C2.73092 17.8984 2.66882 17.827 2.56642 17.7857C2.46401 17.745 2.33001 17.7407 2.16496 17.773C1.99991 17.8053 1.88279 17.8603 1.81307 17.9387C1.74389 18.0165 1.71883 18.1033 1.73898 18.1985C1.75914 18.2965 1.81034 18.3637 1.89151 18.4018C1.93508 18.4224 1.99718 18.4346 2.07671 18.4388L2.135 18.7193C1.96995 18.7262 1.82723 18.6897 1.7063 18.6093C1.58537 18.5288 1.50857 18.4108 1.47643 18.2546C1.43612 18.0609 1.47207 17.8958 1.58428 17.7582C1.69704 17.6211 1.8719 17.529 2.10831 17.4824C2.36433 17.4322 2.57459 17.4565 2.73909 17.5555L2.73964 17.5565Z" fill="#A28A3D"/>
<path d="M1.73291 19.1471L3.14592 18.6602L3.24451 18.9296L2.70469 19.1153L2.8899 19.6229L3.42972 19.4366L3.52831 19.706L2.1153 20.1929L2.01671 19.9241L2.64804 19.706L2.46284 19.199L1.8315 19.4165L1.73291 19.1471Z" fill="#A28A3D"/>
<path d="M3.85589 20.8897L3.51762 20.2583L3.23164 20.4033L3.54104 20.9802L3.31335 21.0956L3.00394 20.5181L2.65968 20.6923L3.01375 21.3533L2.77516 21.474L2.28491 20.5594L3.61512 19.8867L4.08957 20.7717L3.85643 20.8897H3.85589Z" fill="#A28A3D"/>
<path d="M3.70983 22.5666C3.55241 22.5476 3.41459 22.4581 3.29639 22.2983C3.17818 22.1379 3.13515 21.9823 3.16729 21.8315C3.19997 21.6367 3.32526 21.4636 3.54423 21.3107C3.76757 21.1551 3.97729 21.0952 4.17284 21.1312C4.33027 21.1503 4.46808 21.2397 4.58629 21.3996C4.70449 21.5599 4.74753 21.7156 4.71484 21.8664C4.68652 22.0575 4.56069 22.2305 4.33735 22.3861C4.11837 22.5386 3.9092 22.5989 3.70929 22.5666H3.70983ZM3.78664 22.294C3.90157 22.2967 4.02849 22.2501 4.16631 22.1543C4.30358 22.0585 4.38964 21.9569 4.42451 21.85C4.45937 21.7431 4.44248 21.6425 4.3733 21.5494C4.30467 21.4557 4.21206 21.4075 4.09658 21.4043C3.9811 21.4006 3.85418 21.4472 3.71582 21.543C3.57801 21.6393 3.49194 21.741 3.45817 21.8489C3.4244 21.9564 3.44183 22.0569 3.51046 22.1501C3.5791 22.2438 3.67116 22.2914 3.78609 22.294H3.78664Z" fill="#A28A3D"/>
<path d="M5.03074 22.0508L5.24536 22.2678L4.88257 23.366L5.63592 22.6631L5.82657 22.8563L4.7453 23.8657L4.54049 23.6582L4.90763 22.5372L4.14012 23.2533L3.94946 23.0606L5.03074 22.0513V22.0508Z" fill="#A28A3D"/>
<path d="M6.41922 23.9029C6.46497 23.8102 6.46552 23.7224 6.42194 23.6393C6.39688 23.5927 6.36093 23.552 6.31409 23.517C6.22366 23.4493 6.1218 23.4286 6.0085 23.4556C5.89465 23.4821 5.78244 23.5657 5.67077 23.706C5.55856 23.8473 5.51062 23.9711 5.52696 24.0775C5.5433 24.1834 5.59124 24.2659 5.67131 24.3263C5.74975 24.385 5.83255 24.4099 5.91916 24.4014C6.00632 24.393 6.08476 24.3559 6.15557 24.2892L5.89792 24.0966L6.05099 23.9039L6.51945 24.2548L6.03029 24.872L5.87177 24.7529L5.96165 24.592C5.87395 24.6126 5.80314 24.62 5.74921 24.6153C5.65715 24.6079 5.56564 24.5703 5.47467 24.502C5.32596 24.3909 5.24589 24.2469 5.23445 24.0701C5.21974 23.8896 5.28511 23.7081 5.43109 23.5239C5.57871 23.3381 5.74703 23.2265 5.93605 23.1889C6.12561 23.1513 6.30265 23.1947 6.46715 23.3175C6.60987 23.4249 6.69539 23.5477 6.72317 23.6869C6.75095 23.8266 6.72698 23.9563 6.65181 24.0775L6.41867 23.9029H6.41922Z" fill="#A28A3D"/>
<path d="M7.09571 23.8047L7.36643 23.9513L7.34955 25.104L7.85832 24.2175L8.09908 24.3482L7.36861 25.6206L7.11041 25.4804L7.12458 24.3043L6.606 25.2073L6.36523 25.0771L7.09571 23.8047Z" fill="#A28A3D"/>
<path d="M8.64603 24.5669L8.95544 24.685L8.87427 26.2193L8.57468 26.105L8.60028 25.7911L8.11384 25.6054L7.91012 25.8515L7.62305 25.7414L8.64549 24.5664L8.64603 24.5669ZM8.28325 25.4021L8.62207 25.5318L8.67109 24.9342L8.28325 25.4021Z" fill="#A28A3D"/>
<path d="M10.4235 25.1069L10.8375 25.2064L10.4786 26.6206L10.2111 26.5566L10.454 25.5996C10.4611 25.5721 10.4709 25.534 10.4845 25.4843C10.4976 25.435 10.508 25.3964 10.5145 25.3699L9.95126 26.4941L9.67019 26.4269L9.71159 25.1773C9.70451 25.2043 9.69524 25.2429 9.68326 25.2927C9.67128 25.3419 9.66202 25.3805 9.65494 25.4081L9.41199 26.365L9.14453 26.3009L9.5035 24.8867L9.92239 24.9873L9.89135 26.1596L10.4241 25.1074L10.4235 25.1069Z" fill="#A28A3D"/>
<path d="M11.8369 25.3546C11.9317 25.3996 12.0041 25.47 12.0542 25.5658C12.0945 25.6436 12.118 25.7251 12.1256 25.8109C12.1332 25.8966 12.1321 25.9776 12.1229 26.0533C12.0994 26.2454 12.0417 26.4042 11.9496 26.5291C11.8255 26.6969 11.6566 26.7689 11.4436 26.744L10.8357 26.6731L11.0138 25.2266L11.6217 25.2975C11.7089 25.3086 11.7808 25.3277 11.8369 25.3541V25.3546ZM11.2698 25.5081L11.1527 26.4592L11.4256 26.491C11.5651 26.5074 11.6708 26.4476 11.7427 26.3121C11.7824 26.238 11.8091 26.147 11.8222 26.0395C11.8407 25.8913 11.832 25.7744 11.7966 25.6902C11.7612 25.6055 11.6762 25.5552 11.5427 25.5399L11.2698 25.5081Z" fill="#A28A3D"/>
<path d="M13.4391 26.7027C13.3313 26.8154 13.176 26.8715 12.9728 26.8704C12.7702 26.8694 12.6149 26.8122 12.5082 26.6984C12.3649 26.5587 12.2936 26.3581 12.2952 26.0961C12.2963 25.8294 12.3693 25.6293 12.5142 25.4959C12.622 25.3832 12.7778 25.3271 12.9805 25.3281C13.1831 25.3292 13.3378 25.3869 13.4451 25.5002C13.5878 25.6346 13.6586 25.8352 13.657 26.1019C13.6559 26.3639 13.5829 26.564 13.4391 26.7021V26.7027ZM13.2572 26.4819C13.3269 26.393 13.3623 26.266 13.3628 26.1009C13.3639 25.9368 13.3296 25.8098 13.261 25.7193C13.1923 25.6293 13.0987 25.5838 12.9805 25.5832C12.8622 25.5832 12.768 25.6272 12.6972 25.7161C12.6264 25.805 12.591 25.932 12.5899 26.0972C12.5888 26.2623 12.6237 26.3893 12.6934 26.4788C12.7631 26.5682 12.8573 26.6137 12.9756 26.6143C13.0938 26.6153 13.1874 26.5703 13.2572 26.4814V26.4819Z" fill="#A28A3D"/>
<path d="M15.8041 26.4467C15.7164 26.5753 15.5726 26.6552 15.3727 26.6864C15.1722 26.7177 15.0099 26.6864 14.8852 26.5906C14.7201 26.4758 14.6161 26.2889 14.5736 26.0307C14.53 25.7671 14.5681 25.5586 14.688 25.404C14.7757 25.2754 14.9195 25.1955 15.1194 25.1642C15.3199 25.1325 15.4822 25.1642 15.6069 25.26C15.7703 25.3701 15.8738 25.5564 15.9174 25.82C15.9604 26.0783 15.9223 26.2868 15.8041 26.4467ZM15.5873 26.2582C15.6412 26.1593 15.6543 26.0285 15.6276 25.8655C15.6004 25.7036 15.5454 25.5834 15.4626 25.5056C15.3792 25.4278 15.2795 25.3982 15.163 25.4162C15.0464 25.4342 14.9603 25.4929 14.9059 25.5924C14.8508 25.6914 14.8372 25.8227 14.8645 25.9851C14.8917 26.1482 14.9473 26.2683 15.0311 26.3456C15.115 26.4228 15.2158 26.4525 15.3324 26.434C15.449 26.4154 15.5345 26.3572 15.5879 26.2577L15.5873 26.2582Z" fill="#A28A3D"/>
<path d="M15.9536 25.0703L16.9292 24.8242L16.9951 25.0714L16.3044 25.246L16.391 25.5694L16.9973 25.4165L17.0616 25.6578L16.4558 25.8108L16.6138 26.4025L16.3289 26.4745L15.9536 25.0698V25.0703Z" fill="#A28A3D"/>
<path d="M17.0604 24.7817L18.0125 24.4609L18.0986 24.7023L17.4242 24.9299L17.537 25.2458L18.1286 25.0468L18.2124 25.2829L17.6209 25.4819L17.8268 26.0593L17.549 26.153L17.0598 24.7822L17.0604 24.7817Z" fill="#A28A3D"/>
<path d="M18.9652 25.6405L18.6929 25.749L18.1226 24.4015L18.3949 24.293L18.9652 25.6405Z" fill="#A28A3D"/>
<path d="M18.7975 24.2955C18.847 24.1388 18.9516 24.0234 19.1112 23.9477C19.3242 23.8472 19.5165 23.8456 19.687 23.943C19.7823 23.9975 19.8526 24.0652 19.8967 24.1451L19.632 24.2701C19.5824 24.215 19.5366 24.1774 19.4942 24.1573C19.4168 24.1229 19.3313 24.1277 19.2365 24.1727C19.1401 24.2182 19.0845 24.2944 19.0693 24.4008C19.054 24.5077 19.0834 24.6342 19.157 24.7819C19.2305 24.929 19.3149 25.0253 19.4103 25.0708C19.5056 25.1169 19.5977 25.1185 19.6881 25.0756C19.7807 25.0317 19.8352 24.9671 19.8526 24.8814C19.8618 24.8353 19.8591 24.7739 19.8433 24.6982L20.1075 24.5728C20.156 24.7263 20.1554 24.8697 20.1053 25.0036C20.0558 25.1375 19.9572 25.2391 19.8096 25.3085C19.6271 25.3947 19.4533 25.4022 19.2883 25.3312C19.1227 25.2593 18.9876 25.1185 18.8819 24.9073C18.768 24.6792 18.7392 24.4754 18.7964 24.2955H18.7975Z" fill="#A28A3D"/>
<path d="M20.8521 23.3251L20.2235 23.6903L20.3885 23.9592L20.9638 23.6252L21.0956 23.839L20.5204 24.173L20.7197 24.4969L21.3777 24.1143L21.5161 24.3392L20.6053 24.8679L19.8362 23.6173L20.7175 23.1055L20.8526 23.3246L20.8521 23.3251Z" fill="#A28A3D"/>
<path d="M23.311 22.8716C23.3012 23.0251 23.2174 23.1643 23.0605 23.2886C22.903 23.413 22.7456 23.4638 22.5887 23.4421C22.3867 23.4225 22.2009 23.3109 22.031 23.1081C21.8577 22.9007 21.7836 22.7011 21.8087 22.509C21.8185 22.355 21.9019 22.2158 22.0593 22.0919C22.2167 21.9676 22.3741 21.9168 22.531 21.9385C22.7287 21.9543 22.9145 22.066 23.0877 22.273C23.2577 22.4762 23.3317 22.6757 23.3105 22.8716H23.311ZM23.0262 22.8133C23.0218 22.7017 22.9668 22.5815 22.8595 22.454C22.7533 22.3264 22.6432 22.2491 22.5315 22.2216C22.4199 22.1946 22.318 22.2169 22.226 22.2899C22.1344 22.3624 22.0903 22.4545 22.0936 22.5672C22.0969 22.68 22.1524 22.8001 22.2592 22.9277C22.366 23.0558 22.476 23.133 22.5882 23.1595C22.701 23.186 22.8028 23.1627 22.8949 23.0907C22.9869 23.0182 23.0305 22.9261 23.0262 22.8144V22.8133Z" fill="#A28A3D"/>
<path d="M22.7373 21.6015L23.4629 20.9219L23.6454 21.1061L23.1317 21.5872L23.3703 21.828L23.8213 21.4056L23.9994 21.5851L23.5489 22.0074L23.9858 22.4478L23.7739 22.6462L22.7378 21.6015H22.7373Z" fill="#A28A3D"/>
<path d="M24.9703 19.5689L24.5171 20.1278L24.7704 20.3216L25.1849 19.8103L25.3865 19.9648L24.9719 20.4756L25.277 20.709L25.7514 20.1236L25.9628 20.2856L25.3059 21.0954L24.1282 20.1935L24.7639 19.4102L24.9703 19.5684V19.5689Z" fill="#A28A3D"/>
<path d="M25.3728 18.5836C25.4561 18.5211 25.5531 18.4894 25.6642 18.4883C25.7535 18.4878 25.8396 18.5031 25.9218 18.5349C26.0046 18.5666 26.0782 18.6031 26.1441 18.645C26.3108 18.7508 26.4317 18.8715 26.5063 19.0064C26.606 19.1896 26.5973 19.3679 26.4802 19.5426L26.1457 20.0406L24.8901 19.2441L25.2246 18.746C25.2742 18.6751 25.3232 18.6211 25.3722 18.5841L25.3728 18.5836ZM25.2627 19.1456L26.0885 19.6691L26.2389 19.4457C26.3157 19.332 26.3075 19.2129 26.2144 19.0901C26.1637 19.0223 26.0918 18.9588 25.9981 18.9001C25.8695 18.818 25.7584 18.7741 25.6642 18.7672C25.5705 18.7603 25.4866 18.8122 25.4131 18.9218L25.2627 19.1451V19.1456Z" fill="#A28A3D"/>
<path d="M25.6218 18.1396L25.7613 17.8808L26.5778 18.2968C26.6693 18.3434 26.7412 18.3672 26.7941 18.3688C26.885 18.3757 26.9591 18.3265 27.0158 18.2222C27.0719 18.1179 27.0713 18.0311 27.0136 17.9623C26.9825 17.921 26.921 17.8771 26.8295 17.8305L26.0124 17.4145L26.1518 17.1562L26.9678 17.5712C27.1089 17.6432 27.2081 17.7189 27.2653 17.7993C27.3687 17.948 27.3633 18.128 27.2489 18.3402C27.1345 18.5525 26.9853 18.6594 26.8001 18.662C26.6998 18.662 26.5789 18.6266 26.4384 18.5546L25.6224 18.1396H25.6218Z" fill="#A28A3D"/>
<path d="M26.4389 16.902C26.3675 16.7538 26.3654 16.5998 26.4313 16.4395C26.5201 16.2256 26.6611 16.0991 26.8551 16.0605C26.9635 16.0388 27.0621 16.043 27.1503 16.0732L27.0403 16.3384C26.9656 16.3294 26.9057 16.332 26.8605 16.3447C26.7794 16.3696 26.7194 16.4289 26.6802 16.5236C26.6404 16.6199 26.6513 16.7131 26.7134 16.802C26.7761 16.8909 26.885 16.9661 27.0414 17.0269C27.1977 17.0883 27.3268 17.1047 27.4292 17.0762C27.5311 17.0481 27.6008 16.9888 27.6384 16.8989C27.6765 16.8062 27.6727 16.7226 27.6258 16.648C27.6013 16.6078 27.5567 16.5644 27.4924 16.5183L27.6024 16.2531C27.7441 16.3352 27.8426 16.4421 27.8982 16.5739C27.9538 16.7057 27.951 16.8454 27.8895 16.9931C27.8138 17.1762 27.6901 17.2948 27.5185 17.3493C27.3464 17.4038 27.1487 17.3874 26.9248 17.3C26.6829 17.2053 26.5206 17.0725 26.4389 16.902Z" fill="#A28A3D"/>
<path d="M26.8474 15.3605L26.9389 15.0498L28.5186 14.9805L28.4304 15.2806L28.1068 15.2859L27.963 15.7738L28.2343 15.9474L28.1498 16.2359L26.8474 15.3605ZM27.738 15.6315L27.8383 15.2912L27.2216 15.3012L27.7386 15.6315H27.738Z" fill="#A28A3D"/>
<path d="M27.2559 13.6172L27.5174 13.6654L27.4368 14.075L28.6482 14.2999L28.5921 14.5836L27.3807 14.3587L27.3 14.7684L27.0386 14.7197L27.2559 13.6177V13.6172Z" fill="#A28A3D"/>
<path d="M28.7773 13.4335L28.7419 13.7177L27.2532 13.5415L27.2886 13.2578L28.7773 13.4335Z" fill="#A28A3D"/>
<path d="M28.7302 12.032C28.843 12.1405 28.8958 12.2934 28.8882 12.4903C28.8806 12.6872 28.8169 12.8359 28.6959 12.9365C28.5478 13.0709 28.3391 13.1334 28.07 13.1239C27.7955 13.1138 27.5923 13.0365 27.46 12.8926C27.3472 12.7835 27.2944 12.6311 27.302 12.4342C27.3096 12.2373 27.3733 12.0886 27.4937 11.9886C27.6364 11.8541 27.8451 11.7922 28.1196 11.8017C28.3887 11.8113 28.5919 11.888 28.7297 12.032H28.7302ZM28.4977 12.2019C28.4083 12.1315 28.2787 12.0934 28.1093 12.087C27.9404 12.0812 27.8086 12.1103 27.7133 12.1743C27.6185 12.2384 27.5689 12.3273 27.5645 12.4422C27.5602 12.557 27.6027 12.6502 27.692 12.7216C27.7819 12.7931 27.911 12.8317 28.0804 12.838C28.2498 12.8444 28.3822 12.8148 28.4764 12.7497C28.5706 12.6846 28.6202 12.5951 28.6246 12.4803C28.6289 12.3654 28.5864 12.2733 28.4971 12.2024L28.4977 12.2019Z" fill="#A28A3D"/>
<path d="M27.3637 11.6365L27.3354 11.337L28.3235 10.6981L27.2837 10.7918L27.2581 10.5251L28.7511 10.3906L28.7784 10.677L27.7723 11.3311L28.8318 11.2359L28.8574 11.5026L27.3643 11.6365H27.3637Z" fill="#A28A3D"/>
<path d="M3.74729 10.9827C3.81701 11.1314 3.8181 11.2854 3.75055 11.4453C3.66013 11.658 3.51741 11.7835 3.32349 11.8205C3.21455 11.8412 3.1165 11.8364 3.0288 11.8052L3.14101 11.5411C3.21564 11.5501 3.27556 11.5485 3.32077 11.5363C3.40193 11.5125 3.4624 11.4532 3.50271 11.359C3.54356 11.2627 3.53321 11.1695 3.47166 11.0801C3.4101 10.9906 3.3017 10.9149 3.14591 10.852C2.99012 10.7895 2.86102 10.772 2.75862 10.7996C2.65621 10.8265 2.58594 10.8853 2.54781 10.9753C2.50859 11.0674 2.51186 11.151 2.55761 11.2261C2.58213 11.2669 2.62625 11.3103 2.68998 11.3574L2.57777 11.6215C2.43669 11.5379 2.33918 11.4304 2.28471 11.2981C2.23024 11.1658 2.23459 11.0261 2.29724 10.8789C2.37459 10.6963 2.49933 10.5788 2.67146 10.5259C2.84414 10.4725 3.04187 10.491 3.26521 10.5804C3.50652 10.6768 3.66721 10.8112 3.74729 10.9827Z" fill="white"/>
<path d="M2.00306 11.7227L3.44113 12.136L3.35779 12.4102L2.80871 12.2525L2.65128 12.769L3.20036 12.9267L3.11702 13.2009L1.67896 12.7875L1.7623 12.5134L2.40452 12.6976L2.56195 12.1815L1.91972 11.9968L2.00306 11.7227Z" fill="white"/>
<path d="M3.06913 13.3941L3.01574 13.6815L2.10824 13.5222C2.00692 13.5042 1.93066 13.5026 1.87945 13.5164C1.79012 13.5359 1.7351 13.6042 1.71331 13.7207C1.69207 13.836 1.71931 13.9186 1.79557 13.9673C1.83806 13.998 1.90996 14.0218 2.01182 14.0398L2.91933 14.1991L2.86594 14.4865L1.95953 14.3272C1.80265 14.2997 1.68499 14.2563 1.606 14.1959C1.46165 14.0843 1.41099 13.9107 1.45512 13.6751C1.49869 13.4396 1.60873 13.2935 1.78413 13.2374C1.87945 13.2083 2.00583 13.2073 2.16271 13.2348L3.06913 13.3936V13.3941Z" fill="white"/>
<path d="M2.84094 14.6874L2.82079 14.9881L1.74224 15.4692L2.78429 15.5348L2.76686 15.8021L1.27051 15.7079L1.28957 15.421L2.38828 14.9277L1.32661 14.861L1.34459 14.5938L2.84094 14.6874Z" fill="white"/>
<path d="M2.3507 16.9502C2.45256 16.9227 2.5212 16.8655 2.5566 16.7787C2.57621 16.7295 2.58384 16.6766 2.58057 16.6189C2.57349 16.5088 2.52229 16.4204 2.42696 16.3548C2.33163 16.2891 2.19273 16.2616 2.01079 16.2727C1.82722 16.2838 1.69976 16.3299 1.6284 16.4119C1.55704 16.4934 1.52436 16.5834 1.53089 16.6813C1.53688 16.7776 1.57175 16.8544 1.63548 16.9126C1.69921 16.9708 1.77983 17.0036 1.87788 17.0121L1.85773 16.6967L2.10775 16.6813L2.14425 17.2556L1.3446 17.3037L1.33207 17.109L1.51619 17.0693C1.44265 17.0185 1.38981 16.9719 1.35822 16.929C1.3032 16.857 1.27215 16.7649 1.26507 16.6543C1.25363 16.4723 1.31246 16.3188 1.44156 16.1944C1.5712 16.0652 1.75532 15.9933 1.99445 15.979C2.23576 15.9647 2.43295 16.0139 2.58656 16.1277C2.74017 16.242 2.82297 16.3997 2.83605 16.6009C2.84748 16.7761 2.80772 16.9195 2.71784 17.0317C2.62796 17.1434 2.51139 17.2122 2.36813 17.236L2.34961 16.9507L2.3507 16.9502Z" fill="white"/>
<path d="M2.73964 17.5565C2.8829 17.6423 2.97223 17.7698 3.00764 17.9387C3.05449 18.1647 3.00819 18.3457 2.86819 18.4817C2.78975 18.5579 2.70478 18.6066 2.61435 18.6283L2.55607 18.3483C2.62307 18.3155 2.67209 18.2816 2.7026 18.2467C2.75652 18.1827 2.77287 18.1012 2.75217 18.0006C2.73092 17.8984 2.66882 17.827 2.56642 17.7857C2.46401 17.745 2.33001 17.7407 2.16496 17.773C1.99991 17.8053 1.88279 17.8603 1.81307 17.9387C1.74389 18.0165 1.71883 18.1033 1.73898 18.1985C1.75914 18.2965 1.81034 18.3637 1.89151 18.4018C1.93508 18.4224 1.99718 18.4346 2.07671 18.4388L2.135 18.7193C1.96995 18.7262 1.82723 18.6897 1.7063 18.6093C1.58537 18.5288 1.50857 18.4108 1.47643 18.2546C1.43612 18.0609 1.47207 17.8958 1.58428 17.7582C1.69704 17.6211 1.8719 17.529 2.10831 17.4824C2.36433 17.4322 2.57459 17.4565 2.73909 17.5555L2.73964 17.5565Z" fill="white"/>
<path d="M1.73291 19.1471L3.14592 18.6602L3.24451 18.9296L2.70469 19.1153L2.8899 19.6229L3.42972 19.4366L3.52831 19.706L2.1153 20.1929L2.01671 19.9241L2.64804 19.706L2.46284 19.199L1.8315 19.4165L1.73291 19.1471Z" fill="white"/>
<path d="M3.85589 20.8897L3.51762 20.2583L3.23164 20.4033L3.54104 20.9802L3.31335 21.0956L3.00394 20.5181L2.65968 20.6923L3.01375 21.3533L2.77516 21.474L2.28491 20.5594L3.61512 19.8867L4.08957 20.7717L3.85643 20.8897H3.85589Z" fill="white"/>
<path d="M3.70983 22.5666C3.55241 22.5476 3.41459 22.4581 3.29639 22.2983C3.17818 22.1379 3.13515 21.9823 3.16729 21.8315C3.19997 21.6367 3.32526 21.4636 3.54423 21.3107C3.76757 21.1551 3.97729 21.0952 4.17284 21.1312C4.33027 21.1503 4.46808 21.2397 4.58629 21.3996C4.70449 21.5599 4.74753 21.7156 4.71484 21.8664C4.68652 22.0575 4.56069 22.2305 4.33735 22.3861C4.11837 22.5386 3.9092 22.5989 3.70929 22.5666H3.70983ZM3.78664 22.294C3.90157 22.2967 4.02849 22.2501 4.16631 22.1543C4.30358 22.0585 4.38964 21.9569 4.42451 21.85C4.45937 21.7431 4.44248 21.6425 4.3733 21.5494C4.30467 21.4557 4.21206 21.4075 4.09658 21.4043C3.9811 21.4006 3.85418 21.4472 3.71582 21.543C3.57801 21.6393 3.49194 21.741 3.45817 21.8489C3.4244 21.9564 3.44183 22.0569 3.51046 22.1501C3.5791 22.2438 3.67116 22.2914 3.78609 22.294H3.78664Z" fill="white"/>
<path d="M5.03074 22.0508L5.24536 22.2678L4.88257 23.366L5.63592 22.6631L5.82657 22.8563L4.7453 23.8657L4.54049 23.6582L4.90763 22.5372L4.14012 23.2533L3.94946 23.0606L5.03074 22.0513V22.0508Z" fill="white"/>
<path d="M6.41922 23.9029C6.46497 23.8102 6.46552 23.7224 6.42194 23.6393C6.39688 23.5927 6.36093 23.552 6.31409 23.517C6.22366 23.4493 6.1218 23.4286 6.0085 23.4556C5.89465 23.4821 5.78244 23.5657 5.67077 23.706C5.55856 23.8473 5.51062 23.9711 5.52696 24.0775C5.5433 24.1834 5.59124 24.2659 5.67131 24.3263C5.74975 24.385 5.83255 24.4099 5.91916 24.4014C6.00632 24.393 6.08476 24.3559 6.15557 24.2892L5.89792 24.0966L6.05099 23.9039L6.51945 24.2548L6.03029 24.872L5.87177 24.7529L5.96165 24.592C5.87395 24.6126 5.80314 24.62 5.74921 24.6153C5.65715 24.6079 5.56564 24.5703 5.47467 24.502C5.32596 24.3909 5.24589 24.2469 5.23445 24.0701C5.21974 23.8896 5.28511 23.7081 5.43109 23.5239C5.57871 23.3381 5.74703 23.2265 5.93605 23.1889C6.12561 23.1513 6.30265 23.1947 6.46715 23.3175C6.60987 23.4249 6.69539 23.5477 6.72317 23.6869C6.75095 23.8266 6.72698 23.9563 6.65181 24.0775L6.41867 23.9029H6.41922Z" fill="white"/>
<path d="M7.09571 23.8047L7.36643 23.9513L7.34955 25.104L7.85832 24.2175L8.09908 24.3482L7.36861 25.6206L7.11041 25.4804L7.12458 24.3043L6.606 25.2073L6.36523 25.0771L7.09571 23.8047Z" fill="white"/>
<path d="M8.64603 24.5669L8.95544 24.685L8.87427 26.2193L8.57468 26.105L8.60028 25.7911L8.11384 25.6054L7.91012 25.8515L7.62305 25.7414L8.64549 24.5664L8.64603 24.5669ZM8.28325 25.4021L8.62207 25.5318L8.67109 24.9342L8.28325 25.4021Z" fill="white"/>
<path d="M10.4235 25.1069L10.8375 25.2064L10.4786 26.6206L10.2111 26.5566L10.454 25.5996C10.4611 25.5721 10.4709 25.534 10.4845 25.4843C10.4976 25.435 10.508 25.3964 10.5145 25.3699L9.95126 26.4941L9.67019 26.4269L9.71159 25.1773C9.70451 25.2043 9.69524 25.2429 9.68326 25.2927C9.67128 25.3419 9.66202 25.3805 9.65494 25.4081L9.41199 26.365L9.14453 26.3009L9.5035 24.8867L9.92239 24.9873L9.89135 26.1596L10.4241 25.1074L10.4235 25.1069Z" fill="white"/>
<path d="M11.8369 25.3546C11.9317 25.3996 12.0041 25.47 12.0542 25.5658C12.0945 25.6436 12.118 25.7251 12.1256 25.8109C12.1332 25.8966 12.1321 25.9776 12.1229 26.0533C12.0994 26.2454 12.0417 26.4042 11.9496 26.5291C11.8255 26.6969 11.6566 26.7689 11.4436 26.744L10.8357 26.6731L11.0138 25.2266L11.6217 25.2975C11.7089 25.3086 11.7808 25.3277 11.8369 25.3541V25.3546ZM11.2698 25.5081L11.1527 26.4592L11.4256 26.491C11.5651 26.5074 11.6708 26.4476 11.7427 26.3121C11.7824 26.238 11.8091 26.147 11.8222 26.0395C11.8407 25.8913 11.832 25.7744 11.7966 25.6902C11.7612 25.6055 11.6762 25.5552 11.5427 25.5399L11.2698 25.5081Z" fill="white"/>
<path d="M13.4391 26.7027C13.3313 26.8154 13.176 26.8715 12.9728 26.8704C12.7702 26.8694 12.6149 26.8122 12.5082 26.6984C12.3649 26.5587 12.2936 26.3581 12.2952 26.0961C12.2963 25.8294 12.3693 25.6293 12.5142 25.4959C12.622 25.3832 12.7778 25.3271 12.9805 25.3281C13.1831 25.3292 13.3378 25.3869 13.4451 25.5002C13.5878 25.6346 13.6586 25.8352 13.657 26.1019C13.6559 26.3639 13.5829 26.564 13.4391 26.7021V26.7027ZM13.2572 26.4819C13.3269 26.393 13.3623 26.266 13.3628 26.1009C13.3639 25.9368 13.3296 25.8098 13.261 25.7193C13.1923 25.6293 13.0987 25.5838 12.9805 25.5832C12.8622 25.5832 12.768 25.6272 12.6972 25.7161C12.6264 25.805 12.591 25.932 12.5899 26.0972C12.5888 26.2623 12.6237 26.3893 12.6934 26.4788C12.7631 26.5682 12.8573 26.6137 12.9756 26.6143C13.0938 26.6153 13.1874 26.5703 13.2572 26.4814V26.4819Z" fill="white"/>
<path d="M15.8041 26.4467C15.7164 26.5753 15.5726 26.6552 15.3727 26.6864C15.1722 26.7177 15.0099 26.6864 14.8852 26.5906C14.7201 26.4758 14.6161 26.2889 14.5736 26.0307C14.53 25.7671 14.5681 25.5586 14.688 25.404C14.7757 25.2754 14.9195 25.1955 15.1194 25.1642C15.3199 25.1325 15.4822 25.1642 15.6069 25.26C15.7703 25.3701 15.8738 25.5564 15.9174 25.82C15.9604 26.0783 15.9223 26.2868 15.8041 26.4467ZM15.5873 26.2582C15.6412 26.1593 15.6543 26.0285 15.6276 25.8655C15.6004 25.7036 15.5454 25.5834 15.4626 25.5056C15.3792 25.4278 15.2795 25.3982 15.163 25.4162C15.0464 25.4342 14.9603 25.4929 14.9059 25.5924C14.8508 25.6914 14.8372 25.8227 14.8645 25.9851C14.8917 26.1482 14.9473 26.2683 15.0311 26.3456C15.115 26.4228 15.2158 26.4525 15.3324 26.434C15.449 26.4154 15.5345 26.3572 15.5879 26.2577L15.5873 26.2582Z" fill="white"/>
<path d="M15.9536 25.0703L16.9292 24.8242L16.9951 25.0714L16.3044 25.246L16.391 25.5694L16.9973 25.4165L17.0616 25.6578L16.4558 25.8108L16.6138 26.4025L16.3289 26.4745L15.9536 25.0698V25.0703Z" fill="white"/>
<path d="M17.0604 24.7817L18.0125 24.4609L18.0986 24.7023L17.4242 24.9299L17.537 25.2458L18.1286 25.0468L18.2124 25.2829L17.6209 25.4819L17.8268 26.0593L17.549 26.153L17.0598 24.7822L17.0604 24.7817Z" fill="white"/>
<path d="M18.9652 25.6405L18.6929 25.749L18.1226 24.4015L18.3949 24.293L18.9652 25.6405Z" fill="white"/>
<path d="M18.7975 24.2955C18.847 24.1388 18.9516 24.0234 19.1112 23.9477C19.3242 23.8472 19.5165 23.8456 19.687 23.943C19.7823 23.9975 19.8526 24.0652 19.8967 24.1451L19.632 24.2701C19.5824 24.215 19.5366 24.1774 19.4942 24.1573C19.4168 24.1229 19.3313 24.1277 19.2365 24.1727C19.1401 24.2182 19.0845 24.2944 19.0693 24.4008C19.054 24.5077 19.0834 24.6342 19.157 24.7819C19.2305 24.929 19.3149 25.0253 19.4103 25.0708C19.5056 25.1169 19.5977 25.1185 19.6881 25.0756C19.7807 25.0317 19.8352 24.9671 19.8526 24.8814C19.8618 24.8353 19.8591 24.7739 19.8433 24.6982L20.1075 24.5728C20.156 24.7263 20.1554 24.8697 20.1053 25.0036C20.0558 25.1375 19.9572 25.2391 19.8096 25.3085C19.6271 25.3947 19.4533 25.4022 19.2883 25.3312C19.1227 25.2593 18.9876 25.1185 18.8819 24.9073C18.768 24.6792 18.7392 24.4754 18.7964 24.2955H18.7975Z" fill="white"/>
<path d="M20.8521 23.3251L20.2235 23.6903L20.3885 23.9592L20.9638 23.6252L21.0956 23.839L20.5204 24.173L20.7197 24.4969L21.3777 24.1143L21.5161 24.3392L20.6053 24.8679L19.8362 23.6173L20.7175 23.1055L20.8526 23.3246L20.8521 23.3251Z" fill="white"/>
<path d="M23.311 22.8716C23.3012 23.0251 23.2174 23.1643 23.0605 23.2886C22.903 23.413 22.7456 23.4638 22.5887 23.4421C22.3867 23.4225 22.2009 23.3109 22.031 23.1081C21.8577 22.9007 21.7836 22.7011 21.8087 22.509C21.8185 22.355 21.9019 22.2158 22.0593 22.0919C22.2167 21.9676 22.3741 21.9168 22.531 21.9385C22.7287 21.9543 22.9145 22.066 23.0877 22.273C23.2577 22.4762 23.3317 22.6757 23.3105 22.8716H23.311ZM23.0262 22.8133C23.0218 22.7017 22.9668 22.5815 22.8595 22.454C22.7533 22.3264 22.6432 22.2491 22.5315 22.2216C22.4199 22.1946 22.318 22.2169 22.226 22.2899C22.1344 22.3624 22.0903 22.4545 22.0936 22.5672C22.0969 22.68 22.1524 22.8001 22.2592 22.9277C22.366 23.0558 22.476 23.133 22.5882 23.1595C22.701 23.186 22.8028 23.1627 22.8949 23.0907C22.9869 23.0182 23.0305 22.9261 23.0262 22.8144V22.8133Z" fill="white"/>
<path d="M22.7373 21.6015L23.4629 20.9219L23.6454 21.1061L23.1317 21.5872L23.3703 21.828L23.8213 21.4056L23.9994 21.5851L23.5489 22.0074L23.9858 22.4478L23.7739 22.6462L22.7378 21.6015H22.7373Z" fill="white"/>
<path d="M24.9703 19.5689L24.5171 20.1278L24.7704 20.3216L25.1849 19.8103L25.3865 19.9648L24.9719 20.4756L25.277 20.709L25.7514 20.1236L25.9628 20.2856L25.3059 21.0954L24.1282 20.1935L24.7639 19.4102L24.9703 19.5684V19.5689Z" fill="white"/>
<path d="M25.3728 18.5836C25.4561 18.5211 25.5531 18.4894 25.6642 18.4883C25.7535 18.4878 25.8396 18.5031 25.9218 18.5349C26.0046 18.5666 26.0782 18.6031 26.1441 18.645C26.3108 18.7508 26.4317 18.8715 26.5063 19.0064C26.606 19.1896 26.5973 19.3679 26.4802 19.5426L26.1457 20.0406L24.8901 19.2441L25.2246 18.746C25.2742 18.6751 25.3232 18.6211 25.3722 18.5841L25.3728 18.5836ZM25.2627 19.1456L26.0885 19.6691L26.2389 19.4457C26.3157 19.332 26.3075 19.2129 26.2144 19.0901C26.1637 19.0223 26.0918 18.9588 25.9981 18.9001C25.8695 18.818 25.7584 18.7741 25.6642 18.7672C25.5705 18.7603 25.4866 18.8122 25.4131 18.9218L25.2627 19.1451V19.1456Z" fill="white"/>
<path d="M25.6218 18.1396L25.7613 17.8808L26.5778 18.2968C26.6693 18.3434 26.7412 18.3672 26.7941 18.3688C26.885 18.3757 26.9591 18.3265 27.0158 18.2222C27.0719 18.1179 27.0713 18.0311 27.0136 17.9623C26.9825 17.921 26.921 17.8771 26.8295 17.8305L26.0124 17.4145L26.1518 17.1562L26.9678 17.5712C27.1089 17.6432 27.2081 17.7189 27.2653 17.7993C27.3687 17.948 27.3633 18.128 27.2489 18.3402C27.1345 18.5525 26.9853 18.6594 26.8001 18.662C26.6998 18.662 26.5789 18.6266 26.4384 18.5546L25.6224 18.1396H25.6218Z" fill="white"/>
<path d="M26.4389 16.902C26.3675 16.7538 26.3654 16.5998 26.4313 16.4395C26.5201 16.2256 26.6611 16.0991 26.8551 16.0605C26.9635 16.0388 27.0621 16.043 27.1503 16.0732L27.0403 16.3384C26.9656 16.3294 26.9057 16.332 26.8605 16.3447C26.7794 16.3696 26.7194 16.4289 26.6802 16.5236C26.6404 16.6199 26.6513 16.7131 26.7134 16.802C26.7761 16.8909 26.885 16.9661 27.0414 17.0269C27.1977 17.0883 27.3268 17.1047 27.4292 17.0762C27.5311 17.0481 27.6008 16.9888 27.6384 16.8989C27.6765 16.8062 27.6727 16.7226 27.6258 16.648C27.6013 16.6078 27.5567 16.5644 27.4924 16.5183L27.6024 16.2531C27.7441 16.3352 27.8426 16.4421 27.8982 16.5739C27.9538 16.7057 27.951 16.8454 27.8895 16.9931C27.8138 17.1762 27.6901 17.2948 27.5185 17.3493C27.3464 17.4038 27.1487 17.3874 26.9248 17.3C26.6829 17.2053 26.5206 17.0725 26.4389 16.902Z" fill="white"/>
<path d="M26.8474 15.3605L26.9389 15.0498L28.5186 14.9805L28.4304 15.2806L28.1068 15.2859L27.963 15.7738L28.2343 15.9474L28.1498 16.2359L26.8474 15.3605ZM27.738 15.6315L27.8383 15.2912L27.2216 15.3012L27.7386 15.6315H27.738Z" fill="white"/>
<path d="M27.2559 13.6172L27.5174 13.6654L27.4368 14.075L28.6482 14.2999L28.5921 14.5836L27.3807 14.3587L27.3 14.7684L27.0386 14.7197L27.2559 13.6177V13.6172Z" fill="white"/>
<path d="M28.7773 13.4335L28.7419 13.7177L27.2532 13.5415L27.2886 13.2578L28.7773 13.4335Z" fill="white"/>
<path d="M28.7302 12.032C28.843 12.1405 28.8958 12.2934 28.8882 12.4903C28.8806 12.6872 28.8169 12.8359 28.6959 12.9365C28.5478 13.0709 28.3391 13.1334 28.07 13.1239C27.7955 13.1138 27.5923 13.0365 27.46 12.8926C27.3472 12.7835 27.2944 12.6311 27.302 12.4342C27.3096 12.2373 27.3733 12.0886 27.4937 11.9886C27.6364 11.8541 27.8451 11.7922 28.1196 11.8017C28.3887 11.8113 28.5919 11.888 28.7297 12.032H28.7302ZM28.4977 12.2019C28.4083 12.1315 28.2787 12.0934 28.1093 12.087C27.9404 12.0812 27.8086 12.1103 27.7133 12.1743C27.6185 12.2384 27.5689 12.3273 27.5645 12.4422C27.5602 12.557 27.6027 12.6502 27.692 12.7216C27.7819 12.7931 27.911 12.8317 28.0804 12.838C28.2498 12.8444 28.3822 12.8148 28.4764 12.7497C28.5706 12.6846 28.6202 12.5951 28.6246 12.4803C28.6289 12.3654 28.5864 12.2733 28.4971 12.2024L28.4977 12.2019Z" fill="white"/>
<path d="M27.3637 11.6365L27.3354 11.337L28.3235 10.6981L27.2837 10.7918L27.2581 10.5251L28.7511 10.3906L28.7784 10.677L27.7723 11.3311L28.8318 11.2359L28.8574 11.5026L27.3643 11.6365H27.3637Z" fill="white"/>
<path d="M4.83296 8.63394C4.83296 8.78108 4.70985 8.90069 4.55896 8.90069C4.40808 8.90069 4.28442 8.78108 4.28442 8.63394C4.28442 8.4868 4.40699 8.36719 4.55896 8.36719C4.71094 8.36719 4.83296 8.48627 4.83296 8.63394Z" fill="white"/>
<path d="M27.6328 8.63394C27.6328 8.78108 27.5102 8.90069 27.3588 8.90069C27.2073 8.90069 27.0842 8.78108 27.0842 8.63394C27.0842 8.4868 27.2073 8.36719 27.3588 8.36719C27.5102 8.36719 27.6328 8.48627 27.6328 8.63394Z" fill="white"/>
<path d="M10.2478 2.91562L9.84351 3.125L9.95215 3.32303L10.3564 3.11365L10.2478 2.91562Z" fill="white"/>
<path d="M8.93699 3.36347C8.93699 3.36347 9.14017 3.83293 8.73926 4.28334L8.96041 4.37861C8.96041 4.37861 9.45883 3.89062 9.23005 3.25391L8.93645 3.36294L8.93699 3.36347Z" fill="white"/>
<path d="M9.25882 3.19584C9.25882 3.19584 9.54697 3.62138 10.1554 3.54887L10.1135 3.78016C10.1135 3.78016 9.41842 3.91036 9.00171 3.37156L9.25882 3.19531V3.19584Z" fill="white"/>
<path d="M9.20533 3.12643L8.90028 3.28468L8.77881 3.0645L9.0844 2.90625L9.20533 3.12643Z" fill="white"/>
<path d="M9.72783 2.88661C9.75779 2.94113 9.73654 3.00834 9.68044 3.03692L8.55722 3.61912C8.50166 3.64823 8.43193 3.62759 8.40252 3.5736C8.37256 3.51909 8.3938 3.45187 8.44937 3.42329L9.57258 2.84109C9.62814 2.81251 9.69732 2.83263 9.72728 2.88714L9.72783 2.88661Z" fill="white"/>
<path d="M11.0329 4.05659C11.0748 4.13281 10.9936 4.13387 10.9152 4.17462C10.8368 4.21538 10.7393 4.18627 10.6973 4.11058L9.90094 2.65985C9.85899 2.58364 9.88841 2.4889 9.96685 2.44814C10.0453 2.40739 10.1428 2.4365 10.1847 2.51218L11.0329 4.05659Z" fill="white"/>
<path d="M11.0249 4.03918C11.1747 4.31228 10.9279 4.72511 10.4736 4.96064C10.0193 5.19616 9.52853 5.16546 9.37873 4.89236C9.22839 4.61873 9.47569 4.20643 9.92999 3.9709C10.3848 3.73538 10.8745 3.76607 11.0249 4.03918ZM10.0302 4.1535C9.74696 4.30011 9.5939 4.55892 9.68868 4.73146C9.78346 4.90401 10.0901 4.92518 10.3728 4.77804C10.6561 4.63143 10.8092 4.37209 10.7144 4.19955C10.6196 4.02753 10.3135 4.00636 10.0297 4.1535H10.0302Z" fill="white"/>
<path d="M26.8216 6.0952L26.6213 6.20703L26.8496 6.59294L27.0499 6.48111L26.8216 6.0952Z" fill="white"/>
<path d="M26.5486 5.22161C26.5486 5.22161 26.0725 5.43438 25.5959 5.05859L25.5049 5.27665C25.5049 5.27665 26.0229 5.74506 26.6711 5.50318L26.5491 5.22161H26.5486Z" fill="white"/>
<path d="M26.7302 5.52471C26.7302 5.52471 26.3015 5.81846 26.3952 6.40701L26.1556 6.37419C26.1556 6.37419 25.9998 5.70308 26.5412 5.28125L26.7302 5.52471Z" fill="white"/>
<path d="M26.8525 5.05512L26.6296 5.17969L26.8021 5.47101L27.025 5.34644L26.8525 5.05512Z" fill="white"/>
<path d="M27.0648 5.97185C27.0103 6.00255 26.9401 5.98455 26.9085 5.93057L26.2744 4.85826C26.2428 4.80481 26.2614 4.73706 26.3164 4.70636C26.3714 4.67567 26.4411 4.69366 26.4733 4.74712L27.1073 5.81942C27.1389 5.87288 27.1198 5.94062 27.0648 5.97132V5.97185Z" fill="white"/>
<path d="M25.9035 7.27756C25.8267 7.32043 25.8229 7.2421 25.7787 7.16694C25.7346 7.09179 25.7608 6.99652 25.8381 6.95365L27.305 6.13434C27.3818 6.09094 27.4804 6.11687 27.5246 6.1915C27.5687 6.26613 27.542 6.36192 27.4652 6.40532L25.9035 7.27756Z" fill="white"/>
<path d="M25.9176 7.26888C25.6414 7.42342 25.2089 7.19689 24.9518 6.76289C24.6952 6.32889 24.711 5.85149 24.9877 5.69694C25.2639 5.54239 25.6964 5.76945 25.953 6.20345C26.2095 6.63746 26.1937 7.11433 25.917 7.26888H25.9176ZM25.7683 6.30719C25.6082 6.0362 25.3374 5.89595 25.1631 5.99333C24.9888 6.09072 24.9768 6.38923 25.137 6.65969C25.2971 6.93014 25.5684 7.0704 25.7422 6.97248C25.9165 6.87563 25.9284 6.57712 25.7683 6.30666V6.30719Z" fill="white"/>
<path d="M14.2174 1.46357L13.7781 1.58984L13.8436 1.80504L14.2829 1.67876L14.2174 1.46357Z" fill="white"/>
<path d="M14.4037 3.31413C14.4217 3.37288 14.3874 3.4348 14.3264 3.45227L12.9357 3.85134C12.8753 3.86827 12.8115 3.83493 12.7935 3.77618C12.7756 3.71743 12.8104 3.65551 12.8709 3.63804L14.261 3.23897C14.322 3.22151 14.3852 3.25538 14.4032 3.31413H14.4037Z" fill="white"/>
<path d="M13.5808 2.2522C13.5987 2.31095 13.5639 2.37287 13.5029 2.39034L12.426 2.6989C12.3655 2.71637 12.3018 2.6825 12.2838 2.62375C12.2658 2.565 12.3007 2.50307 12.3611 2.48561L13.438 2.17651C13.4985 2.15905 13.5622 2.19239 13.5808 2.25167V2.2522Z" fill="white"/>
<path d="M14.1784 2.34042L13.8445 1.24113C13.8194 1.15856 13.7301 1.11093 13.6446 1.13527C13.5596 1.15962 13.5105 1.24695 13.5356 1.32952L13.8695 2.42881L14.1784 2.34042Z" fill="white"/>
<path d="M14.5013 3.40012L14.2529 2.58399C14.2344 2.52206 14.15 2.49189 14.0645 2.51624C13.9795 2.54059 13.9256 2.61045 13.9441 2.67238L14.1919 3.48904L14.5008 3.40065L14.5013 3.40012Z" fill="white"/>
<path d="M12.4706 2.50803L12.2434 1.7607C12.2184 1.67761 12.1285 1.6305 12.0435 1.65485C11.958 1.67919 11.9095 1.76652 11.9346 1.84909L12.1617 2.59642L12.4706 2.50803Z" fill="white"/>
<path d="M13.3564 2.2017L13.5727 2.13978C13.5727 2.13978 13.7214 2.09479 13.7677 1.98047L13.8451 2.15089C13.8451 2.15089 13.7497 2.3319 13.436 2.41182" fill="white"/>
<path d="M14.2175 2.46607L12.4517 2.97266L12.5123 3.17215L14.2781 2.66556L14.2175 2.46607Z" fill="white"/>
<path d="M12.5321 2.46875C12.5626 2.56878 12.5038 2.67411 12.4003 2.70375C12.2974 2.73339 12.189 2.67622 12.1584 2.57619" fill="white"/>
<path d="M12.553 2.42606C12.499 2.44141 12.4424 2.41124 12.4266 2.35938L12.3552 2.41124L12.3983 2.5425L12.5666 2.51286L12.553 2.42606Z" fill="white"/>
<path d="M13.0779 3.57841C13.0239 3.59376 12.9673 3.56412 12.9515 3.51172L12.8801 3.56359L12.9232 3.69485L13.0909 3.66574L13.0773 3.57894L13.0779 3.57841Z" fill="white"/>
<path d="M12.9936 3.65204L12.7605 2.88672L12.4521 2.97511L12.6831 3.73514L12.9936 3.65204Z" fill="white"/>
<path d="M12.6809 3.72463C12.7114 3.82466 12.8193 3.88182 12.9228 3.85218C13.0257 3.82254 13.0845 3.71775 13.054 3.61719L12.8323 3.6283L12.6809 3.72463Z" fill="white"/>
<path d="M17.9003 2.4929C17.9014 2.5543 17.8512 2.60511 17.7875 2.60564L15.6991 2.63898C15.6359 2.63951 15.5836 2.59082 15.583 2.52942C15.5819 2.46803 15.6321 2.41722 15.6952 2.41616L17.7837 2.38282C17.8469 2.38229 17.8992 2.43045 17.9003 2.49238V2.4929Z" fill="white"/>
<path d="M17.6913 0.918169C17.6924 0.979565 17.6417 1.02985 17.5785 1.03143L15.9171 1.0579C15.8534 1.05896 15.8016 1.00973 15.8006 0.948338C15.7995 0.886943 15.8501 0.836133 15.9133 0.835074L17.5753 0.808611C17.6384 0.807552 17.6907 0.856774 17.6918 0.918169H17.6913Z" fill="white"/>
<path d="M17.7047 1.73405C17.7058 1.79544 17.6573 1.84625 17.5963 1.84731L15.9965 1.87272C15.9354 1.87377 15.8853 1.82508 15.8848 1.76316C15.8837 1.70176 15.9322 1.65095 15.9932 1.65042L17.593 1.62502C17.6535 1.62396 17.7036 1.67318 17.7047 1.73458V1.73405Z" fill="white"/>
<path d="M16.9073 2.53267L16.9013 2.15795C16.9003 2.07168 16.8251 2.00235 16.7341 2.00393C16.6431 2.00499 16.5707 2.07644 16.5718 2.16271L16.5783 2.53744L16.9079 2.53214L16.9073 2.53267Z" fill="white"/>
<path d="M16.1975 1.64817C16.1414 1.64923 16.0951 1.60583 16.094 1.55078L16.0112 1.58201L16.0167 1.72015L16.1866 1.7355L16.1975 1.64817Z" fill="white"/>
<path d="M15.7742 1.68627C15.7758 1.79054 15.8646 1.87363 15.9719 1.87204C16.0798 1.87045 16.1647 1.78418 16.1631 1.67992L15.9468 1.63281L15.7742 1.68627Z" fill="white"/>
<path d="M16.0974 1.72226L16.0827 0.832031L15.7607 0.837324L15.7754 1.69263L16.0974 1.72226Z" fill="white"/>
<path d="M21.1578 3.13047C21.142 3.18975 21.0794 3.22574 21.0184 3.21039L19.0095 2.70759C18.9485 2.69224 18.912 2.63137 18.9278 2.57209C18.9436 2.51229 19.0056 2.47683 19.0667 2.49165L21.0761 2.99445C21.1377 3.0098 21.1747 3.07067 21.1589 3.12995L21.1578 3.13047Z" fill="white"/>
<path d="M20.3719 2.82747L20.526 2.24633C20.5484 2.16271 20.4966 2.07697 20.4106 2.0558C20.3245 2.0341 20.2368 2.08491 20.2145 2.168L20.0603 2.74914L20.3724 2.82747H20.3719Z" fill="white"/>
<path d="M19.7486 2.66731L19.9027 2.08618C19.9251 2.00255 19.8733 1.91681 19.7873 1.89564C19.7012 1.87394 19.613 1.92475 19.5912 2.00837L19.437 2.58951L19.7486 2.66731Z" fill="white"/>
<path d="M20.8429 2.29297L20.7596 2.60841C20.7596 2.60841 20.679 2.85241 20.5586 2.90481L20.7939 2.93656C20.7939 2.93656 21.0265 2.85082 21.1534 2.37077L20.8435 2.2935L20.8429 2.29297Z" fill="white"/>
<path d="M20.9314 1.55026C20.9859 1.56402 21.0186 1.618 21.0044 1.67093L21.0926 1.66193L21.1253 1.5275L20.9657 1.46875L20.9314 1.54973V1.55026Z" fill="white"/>
<path d="M21.3506 1.62293C21.3778 1.52184 21.3146 1.41863 21.2106 1.3927C21.1065 1.36676 21.0009 1.42763 20.9736 1.52872L21.1697 1.63034L21.3506 1.62293Z" fill="white"/>
<path d="M21.0374 1.55469L20.8386 2.30466L21.1502 2.38247L21.3507 1.62561L21.0374 1.55469Z" fill="white"/>
<path d="M21.2152 1.39361L19.6546 1.00354C19.5936 0.988193 19.5309 1.02418 19.5151 1.08346C19.4993 1.14274 19.5364 1.20361 19.5979 1.21895L21.158 1.60956L21.2152 1.39414V1.39361Z" fill="white"/>
<path d="M24.2982 4.44462C24.2573 4.4912 24.1854 4.49808 24.1364 4.45838L22.5447 3.16537C22.4962 3.12568 22.4897 3.05581 22.5305 3.00871C22.5708 2.9616 22.6433 2.95525 22.6918 2.99442L24.2834 4.28743C24.3319 4.32659 24.3385 4.39699 24.2982 4.44462Z" fill="white"/>
<path d="M24.6337 3.73552C24.4414 3.95888 23.9647 3.88002 23.5687 3.55928C23.1733 3.23801 23.0093 2.79607 23.2016 2.57272C23.3944 2.34884 23.871 2.4277 24.2665 2.74896C24.6614 3.07023 24.8259 3.51217 24.6337 3.73552ZM24.138 2.89822C23.8912 2.69815 23.5932 2.65052 23.4718 2.79131C23.3503 2.93262 23.4516 3.20943 23.6978 3.40896C23.9446 3.60956 24.2425 3.65719 24.364 3.51641C24.4855 3.37509 24.3842 3.09881 24.138 2.89822Z" fill="white"/>
<path d="M22.9362 3.95863L23.2108 3.63947C23.2679 3.57332 23.2587 3.47487 23.1901 3.4193C23.122 3.36372 23.0206 3.37272 22.9634 3.43888L22.6895 3.7575L22.9362 3.9581V3.95863Z" fill="white"/>
<path d="M23.5485 4.4545L23.8231 4.13535C23.8803 4.06919 23.871 3.97075 23.8029 3.91517C23.7348 3.86013 23.6335 3.8686 23.5763 3.93476L23.3018 4.25338L23.5485 4.45397V4.4545Z" fill="white"/>
<path d="M23.4585 4.52359C23.5015 4.55852 23.5075 4.62098 23.471 4.66332L23.5549 4.69243L23.6437 4.58446L23.5255 4.46484L23.4585 4.52412V4.52359Z" fill="white"/>
<path d="M23.8062 4.76298C23.8748 4.68306 23.8639 4.56398 23.7817 4.49676C23.6994 4.43007 23.5899 4.45124 23.5208 4.53116L23.6395 4.69365L23.8062 4.76245V4.76298Z" fill="white"/>
<path d="M23.5617 4.55852L23.1616 5.02344L23.4086 5.22408L23.8087 4.75917L23.5617 4.55852Z" fill="white"/>
<path d="M23.7768 4.48995L22.513 3.46317C22.4645 3.424 22.3921 3.43035 22.3518 3.47746C22.3109 3.52456 22.3175 3.59496 22.3665 3.63465L23.6302 4.66144L23.7773 4.49048L23.7768 4.48995Z" fill="white"/>
<path d="M6.1442 5.0007L5.90259 5.25L6.08977 5.42126L6.33138 5.17197L6.1442 5.0007Z" fill="white"/>
<path d="M7.07993 5.85633L6.83813 6.10547L7.02519 6.27686L7.26699 6.02773L7.07993 5.85633Z" fill="white"/>
<path d="M6.91425 4.61184C6.96001 4.65419 6.9611 4.72511 6.91643 4.77168L5.71532 6.01018C5.67065 6.05569 5.59766 6.0594 5.55136 6.01706C5.50506 5.97472 5.50397 5.90326 5.54864 5.85722L6.7492 4.61872C6.79387 4.57268 6.86741 4.5695 6.91371 4.61184H6.91425Z" fill="white"/>
<path d="M7.73831 5.14349C7.78407 5.18583 7.78625 5.25623 7.74267 5.30069L6.31005 6.77788C6.26702 6.82287 6.19403 6.82446 6.14827 6.78264C6.10197 6.74083 6.09979 6.66991 6.14337 6.62545L7.57598 5.14826C7.61956 5.10327 7.69146 5.10168 7.73777 5.14349H7.73831Z" fill="white"/>
<path d="M6.29109 5.14115C6.29109 5.14115 6.89192 5.64714 6.08192 6.48233L5.87329 6.41087C5.87329 6.41087 6.52696 5.74452 6.02854 5.36662L6.29164 5.14062L6.29109 5.14115Z" fill="white"/>
<path d="M6.06274 5.37511C6.06274 5.37511 6.61836 5.92767 7.42836 5.09248L7.34284 4.89453C7.34284 4.89453 6.6968 5.56829 6.27954 5.10677L6.06274 5.37511Z" fill="white"/>
<path d="M8.14588 5.77203C8.3507 5.95939 8.22051 6.41774 7.85446 6.79511C7.4884 7.17248 7.02539 7.3265 6.82057 7.13861C6.61576 6.95071 6.74595 6.4929 7.11254 6.115C7.4786 5.73763 7.94107 5.58361 8.14643 5.7715L8.14588 5.77203ZM7.24927 6.24096C7.02321 6.47437 6.94423 6.75965 7.07332 6.87768C7.20242 6.9957 7.49058 6.90255 7.71664 6.66914C7.94324 6.43573 8.02169 6.15046 7.89313 6.03243C7.76403 5.9144 7.47587 6.00755 7.24981 6.24096H7.24927Z" fill="white"/>
<path d="M19.2675 5.96672C18.9183 5.23579 17.8087 5.01456 16.7896 5.47396C15.7688 5.93284 15.2251 6.89876 15.5737 7.62968C15.9229 8.36061 17.0331 8.58184 18.0528 8.12243C19.0725 7.66409 19.6161 6.69817 19.2675 5.96672Z" fill="#E7290F"/>
<path d="M16.4899 20.393C16.844 20.2697 15.6047 20.846 15.2866 21.0085C14.3061 21.5081 13.129 21.7797 12.2198 21.9691C10.4026 22.3465 8.83655 22.0782 7.95301 21.0779C6.1843 19.0762 7.81357 14.9002 11.5923 11.7495C13.4808 10.1738 15.5492 9.15286 17.3658 8.77655C18.2749 8.5876 19.1209 8.56113 19.8497 8.70509C19.8497 8.70509 21.8924 9.03536 20.8961 11.4695C20.8961 11.4695 18.3005 16.9522 11.0002 19.9764C11.0002 19.9764 15.6832 16.7849 17.9421 12.8022C17.9421 12.8022 19.7359 9.93141 16.9927 9.98275C16.9927 9.98275 15.8259 9.97429 14.0223 10.9968C12.4312 11.8442 10.4239 13.3918 9.33007 16.0678C9.33007 16.0678 7.44533 20.4385 12.667 20.899C12.667 20.899 14.5545 21.0651 16.4904 20.393H16.4899Z" fill="#004998"/>
<path d="M20.6321 12.7422C20.3396 13.1662 19.7682 13.9743 19.193 14.6777C19.8608 14.7307 20.5177 14.9043 20.0493 16.1714C20.0493 16.1714 19.2763 18.1164 17.0195 20.0837C17.0195 20.0837 20.832 17.928 22.1998 15.0938C22.1998 15.0938 23.7937 12.1002 20.6316 12.7427L20.6321 12.7422Z" fill="#10A035"/>
</g>
<path d="M35.8467 18.888C35.8467 17.176 37.3347 16.328 39.8787 16.152V15.128H34.8227C34.3427 15.128 34.1187 14.744 34.1187 14.28C34.1187 13.816 34.3427 13.432 34.8227 13.432H46.9507C47.4307 13.432 47.6547 13.816 47.6547 14.28C47.6547 14.744 47.4307 15.128 46.9507 15.128H41.8947V16.152C44.4227 16.328 45.9267 17.176 45.9267 18.888C45.9267 20.824 44.0227 21.656 40.8867 21.656C37.7507 21.656 35.8467 20.824 35.8467 18.888ZM36.3107 7.704H39.8467V7.064C39.8467 6.472 40.3427 6.184 40.8867 6.184C41.4307 6.184 41.9267 6.472 41.9267 7.064V7.704H45.4627C45.9427 7.704 46.1667 8.088 46.1667 8.536C46.1667 9 45.9427 9.384 45.4627 9.384H41.9267V9.496C41.9267 9.896 42.2947 10.2 43.2387 10.504C44.2627 10.84 45.0627 11.08 45.9747 11.336C46.4067 11.464 46.5507 11.928 46.4067 12.376C46.2627 12.824 45.8307 13.048 45.3187 12.904C44.5507 12.696 43.6547 12.424 42.7747 12.136C41.4467 11.704 41.0147 11.384 40.9027 11.016H40.8867C40.7587 11.448 40.3267 11.752 38.9987 12.184C38.1187 12.472 37.2227 12.744 36.4547 12.952C35.9427 13.096 35.5267 12.872 35.3667 12.408C35.2227 11.944 35.3507 11.464 35.7987 11.336C36.7107 11.08 37.5107 10.84 38.5347 10.504C39.4787 10.2 39.8467 9.896 39.8467 9.496V9.384H36.3107C35.8307 9.384 35.6067 9 35.6067 8.536C35.6067 8.088 35.8307 7.704 36.3107 7.704ZM43.8947 18.888C43.8947 18.152 43.0307 17.736 40.8867 17.736C38.7427 17.736 37.8787 18.152 37.8787 18.888C37.8787 19.624 38.7427 20.04 40.8867 20.04C43.0307 20.04 43.8947 19.624 43.8947 18.888ZM50.6972 9.88H48.2492C47.7532 9.88 47.5292 9.48 47.5292 9.016C47.5292 8.552 47.7532 8.152 48.2492 8.152H50.6972V7.176C50.6972 6.584 51.1932 6.312 51.7212 6.312C52.2492 6.312 52.7452 6.584 52.7452 7.176V8.152H55.0332C55.5292 8.152 55.7532 8.552 55.7532 9.016C55.7532 9.48 55.5292 9.88 55.0332 9.88H52.7452V10.44C52.7452 11.272 53.0012 11.768 53.6412 12.248C54.3612 12.776 54.9372 13.176 55.3852 13.464C55.8332 13.752 55.8812 14.312 55.6092 14.712C55.3852 15.048 54.8892 15.32 54.3612 14.984C54.0092 14.76 53.4812 14.392 52.9052 13.976C52.1052 13.4 51.8332 13.096 51.7532 12.792H51.7372C51.6572 13.16 51.3372 13.512 50.5372 14.088C49.9132 14.536 49.3852 14.904 48.7612 15.304C48.2972 15.608 47.7852 15.32 47.5612 14.968C47.3212 14.584 47.2732 14.04 47.7692 13.72C48.4252 13.288 49.0652 12.856 49.8012 12.312C50.4412 11.832 50.6972 11.336 50.6972 10.504V9.88ZM57.4012 14.744V12.408H55.5612C55.0652 12.408 54.8412 12.008 54.8412 11.544C54.8412 11.064 55.0652 10.664 55.5612 10.664H57.4012V7.336C57.4012 6.744 57.8972 6.472 58.4252 6.472C58.9372 6.472 59.4332 6.744 59.4332 7.336V14.744C59.4332 15.336 58.9372 15.608 58.4252 15.608C57.8972 15.608 57.4012 15.336 57.4012 14.744ZM49.8172 18.648C49.8172 16.664 51.6412 15.704 54.6492 15.704C57.6572 15.704 59.4812 16.68 59.4812 18.648C59.4812 20.632 57.6572 21.592 54.6492 21.592C51.6412 21.592 49.8172 20.632 49.8172 18.648ZM57.4492 18.648C57.4492 17.848 56.6652 17.336 54.6492 17.336C52.6332 17.336 51.8492 17.848 51.8492 18.648C51.8492 19.448 52.6332 19.96 54.6492 19.96C56.6652 19.96 57.4492 19.448 57.4492 18.648ZM61.9477 13.88C60.9237 13.88 60.5877 13.56 60.5877 12.552V7.992C60.5877 7.4 61.0837 7.128 61.6117 7.128C62.1557 7.128 62.6517 7.4 62.6517 7.992V11.768C62.6517 12.04 62.7477 12.136 63.0197 12.136C64.7797 12.136 66.4277 12.04 67.9797 11.832C68.4757 11.768 68.7637 12.12 68.8117 12.584C68.8597 13.064 68.6997 13.496 68.2357 13.56C66.9237 13.736 65.0837 13.88 61.9477 13.88ZM71.6117 9.752H73.1157C73.6277 9.752 73.8517 10.152 73.8517 10.632C73.8517 11.128 73.6277 11.528 73.1157 11.528H71.6117V14.04C71.6117 14.632 71.1157 14.904 70.5877 14.904C70.0597 14.904 69.5637 14.632 69.5637 14.04V7.336C69.5637 6.744 70.0597 6.472 70.5877 6.472C71.1157 6.472 71.6117 6.744 71.6117 7.336V9.752ZM70.2517 21.304H63.4997C62.4757 21.304 62.1397 20.984 62.1397 19.976V16.824C62.1397 15.816 62.4757 15.496 63.4997 15.496H70.2517C71.2757 15.496 71.6117 15.816 71.6117 16.824V19.976C71.6117 20.984 71.2757 21.304 70.2517 21.304ZM64.5397 19.608H69.2117C69.4837 19.608 69.5797 19.512 69.5797 19.24V17.56C69.5797 17.288 69.4837 17.192 69.2117 17.192H64.5397C64.2677 17.192 64.1717 17.288 64.1717 17.56V19.24C64.1717 19.512 64.2677 19.608 64.5397 19.608ZM85.8222 19.144H73.7262C73.2302 19.144 73.0062 18.744 73.0062 18.28C73.0062 17.816 73.2302 17.416 73.7262 17.416H78.7502V14.584H76.0942C75.0702 14.584 74.7342 14.264 74.7342 13.256V8.696C74.7342 7.688 75.0702 7.368 76.0942 7.368H84.0302C84.5262 7.368 84.7502 7.768 84.7502 8.232C84.7502 8.696 84.5262 9.096 84.0302 9.096H77.1662C76.8942 9.096 76.7982 9.192 76.7982 9.464V12.488C76.7982 12.76 76.8942 12.856 77.1662 12.856H84.1902C84.6862 12.856 84.9102 13.256 84.9102 13.72C84.9102 14.184 84.6862 14.584 84.1902 14.584H80.7982V17.416H85.8222C86.3182 17.416 86.5422 17.816 86.5422 18.28C86.5422 18.744 86.3182 19.144 85.8222 19.144ZM95.5047 9.256H88.2247C87.7287 9.256 87.5047 8.856 87.5047 8.376C87.5047 7.896 87.7287 7.496 88.2247 7.496H96.5447C97.5687 7.496 97.9047 7.816 97.9047 8.824V10.264C97.9047 12.216 97.7607 13.688 97.4727 15.016C97.3447 15.592 96.8007 15.8 96.2247 15.688C95.7447 15.592 95.3607 15.272 95.4727 14.696C95.7447 13.352 95.8727 11.928 95.8727 10.216V9.624C95.8727 9.352 95.7767 9.256 95.5047 9.256ZM90.8487 17.432H92.2887V13.224C92.2887 12.664 92.7687 12.408 93.2647 12.408C93.7607 12.408 94.2407 12.664 94.2407 13.224V17.432H98.7847C99.2807 17.432 99.5047 17.832 99.5047 18.28C99.5047 18.744 99.2807 19.144 98.7847 19.144H86.6887C86.1927 19.144 85.9687 18.744 85.9687 18.28C85.9687 17.832 86.1927 17.432 86.6887 17.432H88.8967V13.224C88.8967 12.664 89.3767 12.408 89.8727 12.408C90.3687 12.408 90.8487 12.664 90.8487 13.224V17.432ZM108.691 20.712V18.552C108.691 18.28 108.595 18.184 108.323 18.184H101.171C100.691 18.184 100.467 17.8 100.467 17.336C100.467 16.872 100.691 16.488 101.171 16.488H102.723V15.048H99.6352C99.1552 15.048 98.9312 14.664 98.9312 14.216C98.9312 13.752 99.1552 13.368 99.6352 13.368H111.763C112.243 13.368 112.467 13.752 112.467 14.216C112.467 14.664 112.243 15.048 111.763 15.048H108.675V16.488H109.379C110.403 16.488 110.739 16.808 110.739 17.816V20.712C110.739 21.304 110.243 21.576 109.715 21.576C109.187 21.576 108.691 21.304 108.691 20.712ZM100.691 9.656C100.691 7.672 102.579 6.776 105.699 6.776C108.819 6.776 110.707 7.672 110.707 9.656C110.707 11.64 108.819 12.536 105.699 12.536C102.579 12.536 100.691 11.64 100.691 9.656ZM108.675 9.656C108.675 8.888 107.827 8.424 105.699 8.424C103.571 8.424 102.723 8.888 102.723 9.656C102.723 10.424 103.571 10.888 105.699 10.888C107.827 10.888 108.675 10.424 108.675 9.656ZM104.675 15.048V16.488H106.723V15.048H104.675ZM115.51 9.88H113.062C112.566 9.88 112.342 9.48 112.342 9.016C112.342 8.552 112.566 8.152 113.062 8.152H115.51V7.176C115.51 6.584 116.006 6.312 116.534 6.312C117.062 6.312 117.558 6.584 117.558 7.176V8.152H119.846C120.342 8.152 120.566 8.552 120.566 9.016C120.566 9.48 120.342 9.88 119.846 9.88H117.558V10.44C117.558 11.272 117.814 11.768 118.454 12.248C119.174 12.776 119.75 13.176 120.198 13.464C120.646 13.752 120.694 14.312 120.422 14.712C120.198 15.048 119.702 15.32 119.174 14.984C118.822 14.76 118.294 14.392 117.718 13.976C116.918 13.4 116.646 13.096 116.566 12.792H116.55C116.47 13.16 116.15 13.512 115.35 14.088C114.726 14.536 114.198 14.904 113.574 15.304C113.11 15.608 112.598 15.32 112.374 14.968C112.134 14.584 112.086 14.04 112.582 13.72C113.238 13.288 113.878 12.856 114.614 12.312C115.254 11.832 115.51 11.336 115.51 10.504V9.88ZM122.214 14.744V12.408H120.374C119.878 12.408 119.654 12.008 119.654 11.544C119.654 11.064 119.878 10.664 120.374 10.664H122.214V7.336C122.214 6.744 122.71 6.472 123.238 6.472C123.75 6.472 124.246 6.744 124.246 7.336V14.744C124.246 15.336 123.75 15.608 123.238 15.608C122.71 15.608 122.214 15.336 122.214 14.744ZM114.63 18.648C114.63 16.664 116.454 15.704 119.462 15.704C122.47 15.704 124.294 16.68 124.294 18.648C124.294 20.632 122.47 21.592 119.462 21.592C116.454 21.592 114.63 20.632 114.63 18.648ZM122.262 18.648C122.262 17.848 121.478 17.336 119.462 17.336C117.446 17.336 116.662 17.848 116.662 18.648C116.662 19.448 117.446 19.96 119.462 19.96C121.478 19.96 122.262 19.448 122.262 18.648ZM134.392 9.256H127.112C126.616 9.256 126.392 8.856 126.392 8.376C126.392 7.896 126.616 7.496 127.112 7.496H135.432C136.456 7.496 136.792 7.816 136.792 8.824V10.264C136.792 12.216 136.648 13.688 136.36 15.016C136.232 15.592 135.688 15.8 135.112 15.688C134.632 15.592 134.248 15.272 134.36 14.696C134.632 13.352 134.76 11.928 134.76 10.216V9.624C134.76 9.352 134.664 9.256 134.392 9.256ZM129.736 17.432H131.176V13.224C131.176 12.664 131.656 12.408 132.152 12.408C132.648 12.408 133.128 12.664 133.128 13.224V17.432H137.672C138.168 17.432 138.392 17.832 138.392 18.28C138.392 18.744 138.168 19.144 137.672 19.144H125.576C125.08 19.144 124.856 18.744 124.856 18.28C124.856 17.832 125.08 17.432 125.576 17.432H127.784V13.224C127.784 12.664 128.264 12.408 128.76 12.408C129.256 12.408 129.736 12.664 129.736 13.224V17.432ZM147.579 20.712V18.552C147.579 18.28 147.483 18.184 147.211 18.184H140.059C139.579 18.184 139.355 17.8 139.355 17.336C139.355 16.872 139.579 16.488 140.059 16.488H141.611V15.048H138.523C138.043 15.048 137.819 14.664 137.819 14.216C137.819 13.752 138.043 13.368 138.523 13.368H150.651C151.131 13.368 151.355 13.752 151.355 14.216C151.355 14.664 151.131 15.048 150.651 15.048H147.563V16.488H148.267C149.291 16.488 149.627 16.808 149.627 17.816V20.712C149.627 21.304 149.131 21.576 148.603 21.576C148.075 21.576 147.579 21.304 147.579 20.712ZM139.579 9.656C139.579 7.672 141.467 6.776 144.587 6.776C147.707 6.776 149.595 7.672 149.595 9.656C149.595 11.64 147.707 12.536 144.587 12.536C141.467 12.536 139.579 11.64 139.579 9.656ZM147.563 9.656C147.563 8.888 146.715 8.424 144.587 8.424C142.459 8.424 141.611 8.888 141.611 9.656C141.611 10.424 142.459 10.888 144.587 10.888C146.715 10.888 147.563 10.424 147.563 9.656ZM143.563 15.048V16.488H145.611V15.048H143.563ZM156.733 9.384H152.189C151.693 9.384 151.469 8.984 151.469 8.504C151.469 8.024 151.693 7.624 152.189 7.624H157.773C158.797 7.624 159.133 7.944 159.133 8.952V10.168C159.133 11.608 158.973 13.08 158.733 13.96C158.605 14.44 158.109 14.664 157.517 14.552C157.005 14.456 156.653 14.12 156.765 13.544C156.989 12.456 157.101 11.368 157.101 10.28V9.752C157.101 9.48 157.005 9.384 156.733 9.384ZM162.621 7.32V11.672H163.917C164.429 11.672 164.653 12.072 164.653 12.552C164.653 13.048 164.429 13.448 163.917 13.448H162.621V19.608C162.621 20.184 162.141 20.456 161.613 20.456C161.085 20.456 160.605 20.184 160.605 19.608V7.32C160.605 6.744 161.085 6.472 161.613 6.472C162.141 6.472 162.621 6.744 162.621 7.32ZM159.357 17.656C157.293 17.832 154.365 17.928 151.453 17.928C150.957 17.928 150.733 17.528 150.733 17.064C150.733 16.6 150.957 16.2 151.453 16.2C152.061 16.2 152.669 16.216 153.293 16.2V12.76C153.293 12.168 153.789 11.896 154.301 11.896C154.813 11.896 155.309 12.168 155.309 12.76V16.168C156.621 16.136 157.933 16.072 159.213 15.96C159.709 15.912 159.949 16.264 159.981 16.728C160.013 17.176 159.837 17.608 159.357 17.656ZM171.568 9.016H169.376V9.576C169.376 10.552 169.648 11.16 170.336 11.736C171.04 12.312 171.664 12.776 172.096 13.096C172.544 13.432 172.528 13.928 172.24 14.328C172 14.648 171.488 14.936 170.992 14.584C170.656 14.344 170.096 13.912 169.456 13.4C168.688 12.776 168.464 12.504 168.384 12.2H168.368C168.288 12.552 168.016 12.888 167.248 13.512C166.608 14.024 166.032 14.456 165.424 14.888C164.96 15.224 164.432 14.952 164.192 14.616C163.92 14.232 163.872 13.688 164.352 13.336C165.04 12.84 165.664 12.376 166.368 11.8C167.056 11.224 167.328 10.616 167.328 9.64V9.016H164.976C164.48 9.016 164.256 8.616 164.256 8.152C164.256 7.688 164.48 7.288 164.976 7.288H171.568C172.064 7.288 172.288 7.688 172.288 8.152C172.288 8.616 172.064 9.016 171.568 9.016ZM174.064 14.424V11.752H172.192C171.696 11.752 171.472 11.352 171.472 10.888C171.472 10.408 171.696 10.008 172.192 10.008H174.064V7.336C174.064 6.744 174.56 6.472 175.088 6.472C175.6 6.472 176.096 6.744 176.096 7.336V14.424C176.096 15.016 175.6 15.288 175.088 15.288C174.56 15.288 174.064 15.016 174.064 14.424ZM166.48 18.488C166.48 16.408 168.304 15.384 171.312 15.384C174.32 15.384 176.144 16.408 176.144 18.488C176.144 20.568 174.32 21.592 171.312 21.592C168.304 21.592 166.48 20.568 166.48 18.488ZM174.112 18.488C174.112 17.608 173.328 17.016 171.312 17.016C169.296 17.016 168.512 17.608 168.512 18.488C168.512 19.368 169.296 19.96 171.312 19.96C173.328 19.96 174.112 19.368 174.112 18.488ZM177.762 7.32H184.594C185.09 7.32 185.314 7.72 185.314 8.152C185.314 8.584 185.09 8.984 184.594 8.984H183.922V13.064C184.242 13.048 184.546 13.016 184.834 12.984C185.33 12.936 185.602 13.272 185.65 13.688C185.698 14.152 185.522 14.6 185.058 14.648C183.762 14.792 181.938 14.872 177.666 14.872C177.17 14.872 176.946 14.472 176.946 14.04C176.946 13.608 177.17 13.208 177.666 13.208H178.514V8.984H177.762C177.266 8.984 177.042 8.584 177.042 8.152C177.042 7.72 177.266 7.32 177.762 7.32ZM180.45 8.984V13.192C180.962 13.192 181.474 13.176 181.986 13.16V8.984H180.45ZM187.042 14.744V12.936H185.858C185.378 12.936 185.186 12.552 185.186 12.088C185.186 11.624 185.378 11.24 185.858 11.24H187.042V10.472H185.858C185.378 10.472 185.186 10.088 185.186 9.624C185.186 9.16 185.378 8.776 185.858 8.776H187.042V7.336C187.042 6.744 187.538 6.472 188.05 6.472C188.562 6.472 189.058 6.744 189.058 7.336V14.744C189.058 15.336 188.562 15.608 188.05 15.608C187.538 15.608 187.042 15.336 187.042 14.744ZM179.442 18.648C179.442 16.664 181.266 15.704 184.274 15.704C187.282 15.704 189.106 16.68 189.106 18.648C189.106 20.632 187.282 21.592 184.274 21.592C181.266 21.592 179.442 20.632 179.442 18.648ZM187.074 18.648C187.074 17.848 186.29 17.336 184.274 17.336C182.258 17.336 181.474 17.848 181.474 18.648C181.474 19.448 182.258 19.96 184.274 19.96C186.29 19.96 187.074 19.448 187.074 18.648ZM194.581 9.32H190.837C190.341 9.32 190.117 8.92 190.117 8.456C190.117 7.976 190.341 7.576 190.837 7.576H195.621C196.645 7.576 196.981 7.896 196.981 8.904V10.648C196.981 13.352 196.245 14.28 191.413 17.256C190.965 17.528 190.421 17.288 190.165 16.904C189.909 16.52 189.861 15.912 190.325 15.624C194.677 12.968 194.949 12.488 194.949 10.584V9.688C194.949 9.416 194.853 9.32 194.581 9.32ZM201.237 11.192H202.741C203.253 11.192 203.477 11.592 203.477 12.072C203.477 12.568 203.253 12.968 202.741 12.968H201.237V19.592C201.237 20.184 200.741 20.456 200.213 20.456C199.685 20.456 199.189 20.184 199.189 19.592V7.336C199.189 6.744 199.685 6.472 200.213 6.472C200.741 6.472 201.237 6.744 201.237 7.336V11.192ZM210.455 9.016H208.263V9.576C208.263 10.552 208.535 11.16 209.223 11.736C209.927 12.312 210.551 12.776 210.983 13.096C211.431 13.432 211.415 13.928 211.127 14.328C210.887 14.648 210.375 14.936 209.879 14.584C209.543 14.344 208.983 13.912 208.343 13.4C207.575 12.776 207.351 12.504 207.271 12.2H207.255C207.175 12.552 206.903 12.888 206.135 13.512C205.495 14.024 204.919 14.456 204.311 14.888C203.847 15.224 203.319 14.952 203.079 14.616C202.807 14.232 202.759 13.688 203.239 13.336C203.927 12.84 204.551 12.376 205.255 11.8C205.943 11.224 206.215 10.616 206.215 9.64V9.016H203.863C203.367 9.016 203.143 8.616 203.143 8.152C203.143 7.688 203.367 7.288 203.863 7.288H210.455C210.951 7.288 211.175 7.688 211.175 8.152C211.175 8.616 210.951 9.016 210.455 9.016ZM212.951 14.424V11.752H211.079C210.583 11.752 210.359 11.352 210.359 10.888C210.359 10.408 210.583 10.008 211.079 10.008H212.951V7.336C212.951 6.744 213.447 6.472 213.975 6.472C214.487 6.472 214.983 6.744 214.983 7.336V14.424C214.983 15.016 214.487 15.288 213.975 15.288C213.447 15.288 212.951 15.016 212.951 14.424ZM205.367 18.488C205.367 16.408 207.191 15.384 210.199 15.384C213.207 15.384 215.031 16.408 215.031 18.488C215.031 20.568 213.207 21.592 210.199 21.592C207.191 21.592 205.367 20.568 205.367 18.488ZM212.999 18.488C212.999 17.608 212.215 17.016 210.199 17.016C208.183 17.016 207.399 17.608 207.399 18.488C207.399 19.368 208.183 19.96 210.199 19.96C212.215 19.96 212.999 19.368 212.999 18.488ZM228.41 19.144H216.314C215.818 19.144 215.594 18.744 215.594 18.28C215.594 17.816 215.818 17.416 216.314 17.416H221.338V14.872H218.682C217.658 14.872 217.322 14.552 217.322 13.544V8.008C217.322 7.432 217.834 7.144 218.346 7.144C218.858 7.144 219.37 7.432 219.37 8.008V9.56H225.354V8.008C225.354 7.432 225.866 7.144 226.378 7.144C226.89 7.144 227.402 7.432 227.402 8.008V13.544C227.402 14.552 227.066 14.872 226.042 14.872H223.386V17.416H228.41C228.906 17.416 229.13 17.816 229.13 18.28C229.13 18.744 228.906 19.144 228.41 19.144ZM219.738 13.16H224.986C225.258 13.16 225.354 13.064 225.354 12.792V11.272H219.37V12.792C219.37 13.064 219.466 13.16 219.738 13.16ZM233.596 12.248C231.004 12.248 229.692 11.16 229.692 9.48C229.692 7.8 231.004 6.712 233.596 6.712C236.188 6.712 237.5 7.8 237.5 9.48C237.5 11.16 236.188 12.248 233.596 12.248ZM233.596 10.648C234.956 10.648 235.58 10.2 235.58 9.48C235.58 8.76 234.956 8.312 233.596 8.312C232.236 8.312 231.612 8.76 231.612 9.48C231.612 10.2 232.236 10.648 233.596 10.648ZM239.068 17V16.664H236.908C236.444 16.664 236.22 16.296 236.22 15.848C236.22 15.4 236.444 15.032 236.908 15.032H239.068V7.336C239.068 6.744 239.564 6.472 240.092 6.472C240.604 6.472 241.1 6.744 241.1 7.336V17C241.1 17.592 240.604 17.864 240.092 17.864C239.564 17.864 239.068 17.592 239.068 17ZM229.436 14.712C228.956 14.712 228.732 14.328 228.732 13.864C228.732 13.4 228.956 13.016 229.436 13.016C232.012 13.016 234.972 12.968 237.66 12.648C238.156 12.584 238.412 12.936 238.444 13.4C238.476 13.848 238.3 14.248 237.82 14.312C236.892 14.44 235.724 14.536 234.476 14.6V16.152C234.476 16.696 234.028 16.936 233.452 16.936C232.892 16.936 232.444 16.696 232.444 16.152V14.68C231.436 14.712 230.412 14.712 229.436 14.712ZM233.436 19.496H240.732C241.228 19.496 241.452 19.896 241.452 20.36C241.452 20.824 241.228 21.224 240.732 21.224H232.364C231.34 21.224 231.004 20.904 231.004 19.896V18.024C231.004 17.432 231.5 17.16 232.044 17.16C232.572 17.16 233.068 17.432 233.068 18.024V19.128C233.068 19.4 233.164 19.496 233.436 19.496Z" fill="white"/>
<defs>
<clipPath id="clip0_1556_5214">
<rect width="30" height="28" fill="white" transform="translate(0.0688477)"/>
</clipPath>
</defs>
</svg>
