<svg width="412" height="171" viewBox="0 0 412 171" fill="none" xmlns="http://www.w3.org/2000/svg">
<g clip-path="url(#clip0_1554_11967)">
<path d="M86.9107 141.256H32.1378V130.086H114.318V105.663H70.434V101.859C66.1924 102.98 61.747 103.621 57.1384 103.621C52.5298 103.621 48.0843 102.98 43.8428 101.859V105.663H0V130.086H5.54662V148.023C5.54662 152.707 7.05563 156.951 10.2776 160.354C13.7034 164.038 18.2712 165.679 23.41 165.679H86.2582C83.4033 162.516 81.6496 158.392 81.6496 153.828C81.6496 148.943 83.648 144.499 86.9107 141.256Z" fill="white"/>
<path d="M117 154C117 161.728 110.728 168 103 168C95.272 168 89 161.728 89 154C89 146.272 95.272 140 103 140C110.728 140 117 146.272 117 154Z" fill="#00D1FF"/>
<path d="M73.452 52.1312C73.452 60.9394 66.1925 68.1061 57.1792 68.1061C48.1659 68.1061 40.9064 60.9795 40.9064 52.1312C40.9064 43.2829 48.1659 36.1562 57.1792 36.1562C66.1925 36.1562 73.452 43.2829 73.452 52.1312Z" fill="white"/>
<path d="M371.216 71.7476C371.216 62.4589 376.599 54.4114 384.471 50.4077V12.4922H356.738V157.548H384.471V93.0876C376.599 89.0839 371.216 81.0363 371.216 71.7476Z" fill="white"/>
<path d="M395.687 87.7683C404.696 87.7683 412 80.5981 412 71.7533C412 62.9084 404.696 55.7383 395.687 55.7383C386.677 55.7383 379.373 62.9084 379.373 71.7533C379.373 80.5981 386.677 87.7683 395.687 87.7683Z" fill="#00D1FF"/>
<path d="M263.423 12.4922V37.8359H316.524V41.8396C316.524 44.8024 316.32 47.9253 315.912 51.2485C315.504 54.4915 314.811 57.7746 313.792 61.1377C312.772 64.3807 311.467 67.6238 309.835 70.9068C308.245 73.9497 306.206 76.9125 303.718 79.7151C298.579 85.4405 292.543 89.6444 285.528 92.3269C279.207 94.6891 274.802 94.6891 266.441 94.6891C265.87 94.6891 265.299 94.6891 264.688 94.6891H261.588V121.634H264.688C276.637 121.634 287.608 120.033 297.56 116.83C307.715 113.587 316.565 108.462 324.069 101.375V101.335C331.777 93.7682 337.569 84.92 341.443 74.7905C345.481 64.5409 347.438 52.2894 347.438 38.1162V12.4922H263.423Z" fill="white"/>
<path d="M57.1386 0C28.5082 0 5.30212 23.1817 5.30212 51.8085C5.30212 75.831 21.6973 95.9698 43.8838 101.855C48.1253 102.976 52.5708 103.617 57.1794 103.617C61.788 103.617 66.2334 102.976 70.475 101.855C92.6615 95.9698 109.057 75.831 109.057 51.8085C109.016 23.1817 85.8098 0 57.1386 0ZM30.3843 51.8085C30.3843 39.7572 37.9701 29.9881 48.1253 26.2646C50.9802 25.2236 53.9982 24.623 57.1386 24.623C60.279 24.623 63.2562 25.2236 66.1111 26.2245C71.3314 28.1063 75.8585 31.5896 79.0396 36.1538C82.0576 40.5179 83.8929 45.8429 83.8929 51.7284C83.8929 67.1428 71.4946 78.8738 57.1386 78.8738C42.7826 78.8738 30.3843 67.1028 30.3843 51.7284V51.8085Z" fill="#00D1FF"/>
<path d="M206.204 33.8732H218.317V12.1328H128.919V33.8732H141.195V64.1815H128.919V85.9219H219.949V64.1815H206.245V33.8732H206.204ZM182.468 64.1815H164.686V33.8732H182.468V64.1815Z" fill="white"/>
<path d="M236.711 12.1328V23.1031H221.05V44.8835H236.711V52.6908H221.05V74.4311H236.711V89.2049H257.796H259.958H260.447V12.1328H236.711Z" fill="white"/>
<path fill-rule="evenodd" clip-rule="evenodd" d="M202.329 144.293C212.648 144.293 221.824 135.805 221.824 124.355C221.824 112.904 212.648 104.416 202.329 104.416C192.011 104.416 182.835 112.904 182.835 124.355C182.835 135.805 192.011 144.293 202.329 144.293ZM202.329 170.998C228.105 170.998 248.986 150.139 248.986 124.355C248.986 98.5705 228.105 77.7109 202.329 77.7109C176.554 77.7109 155.672 98.5705 155.672 124.355C155.672 150.139 176.554 170.998 202.329 170.998Z" fill="#00D1FF"/>
</g>
<defs>
<clipPath id="clip0_1554_11967">
<rect width="412" height="171" fill="white"/>
</clipPath>
</defs>
</svg>
