<svg width="38" height="42" viewBox="0 0 38 42" fill="none" xmlns="http://www.w3.org/2000/svg">
<path d="M27.0698 9.9253H24.2653V4.01053C24.2653 3.30843 23.6834 2.7399 22.9648 2.7399H15.0458C14.3271 2.7399 13.7452 3.30843 13.7452 4.01053V9.9253H10.9408V4.01053C10.9408 1.79806 12.7812 0 15.0458 0H22.9648C25.2294 0 27.0698 1.79806 27.0698 4.01053V9.9253Z" fill="#27C590"/>
<path d="M34.1333 6.62109H3.87006C2.55161 6.62109 1.48279 7.66532 1.48279 8.95344V39.6678C1.48279 40.9559 2.55161 42.0001 3.87006 42.0001H34.1333C35.4518 42.0001 36.5206 40.9559 36.5206 39.6678V8.95344C36.5206 7.66532 35.4518 6.62109 34.1333 6.62109Z" fill="#0AA36C"/>
<path d="M32.7487 23.9647H5.2583C2.35572 23.9647 0 21.6632 0 18.8274V8.77192C0 7.58349 0.985056 6.62109 2.20148 6.62109H35.7985C37.0149 6.62109 38 7.58349 38 8.77192V18.8274C38 21.6632 35.6443 23.9647 32.7417 23.9647H32.7487Z" fill="#27C590"/>
<path d="M8.95666 37.1573H8.00315C7.10574 37.1573 6.37659 36.445 6.37659 35.5682V6.62109H10.5832V35.5716C10.5832 36.4484 9.85408 37.1607 8.95666 37.1607V37.1573Z" fill="#32765E"/>
<path d="M10.5025 28.2578H6.45709C5.50843 28.2578 4.73938 29.0092 4.73938 29.936V31.0628C4.73938 31.9896 5.50843 32.741 6.45709 32.741H10.5025C11.4511 32.741 12.2202 31.9896 12.2202 31.0628V29.936C12.2202 29.0092 11.4511 28.2578 10.5025 28.2578Z" fill="#FFD255"/>
<path d="M30.0039 37.1573H29.0504C28.153 37.1573 27.4238 36.445 27.4238 35.5682V6.62109H31.6305V35.5716C31.6305 36.4484 30.9013 37.1607 30.0039 37.1607V37.1573Z" fill="#32765E"/>
<path d="M31.5497 28.2578H27.5043C26.5557 28.2578 25.7866 29.0092 25.7866 29.936V31.0628C25.7866 31.9896 26.5557 32.741 27.5043 32.741H31.5497C32.4984 32.741 33.2674 31.9896 33.2674 31.0628V29.936C33.2674 29.0092 32.4984 28.2578 31.5497 28.2578Z" fill="#FFD255"/>
<path d="M20.8438 21.8866H17.163C16.227 21.8866 15.4698 21.1468 15.4698 20.2323C15.4698 19.3179 16.227 18.5781 17.163 18.5781H20.8438C21.7798 18.5781 22.537 19.3179 22.537 20.2323C22.537 21.1468 21.7798 21.8866 20.8438 21.8866Z" fill="white"/>
</svg>
