<svg width="39" height="42" viewBox="0 0 39 42" fill="none" xmlns="http://www.w3.org/2000/svg">
<path d="M33.7719 42H5.37854C4.22073 42 3.28516 41.0554 3.28516 39.8944V2.10559C3.28516 0.941025 4.22431 0 5.37854 0H33.7719C36.3815 0 38.4999 2.12722 38.4999 4.7556V37.2444C38.4999 39.8692 36.385 42 33.7719 42Z" fill="#206CD8"/>
<path d="M5.73705 7.83108H2.50736C1.39973 7.83108 0.5 6.92611 0.5 5.81203C0.5 4.69794 1.39973 3.79297 2.50736 3.79297H5.73705C6.84468 3.79297 7.74441 4.69794 7.74441 5.81203C7.74441 6.92611 6.84468 7.83108 5.73705 7.83108Z" fill="#FFD255"/>
<path d="M5.73705 15.4756H2.50736C1.39973 15.4756 0.5 14.5706 0.5 13.4566C0.5 12.3425 1.39973 11.4375 2.50736 11.4375H5.73705C6.84468 11.4375 7.74441 12.3425 7.74441 13.4566C7.74441 14.5706 6.84468 15.4756 5.73705 15.4756Z" fill="#FFD255"/>
<path d="M5.73705 23.1162H2.50736C1.39973 23.1162 0.5 22.2113 0.5 21.0972C0.5 19.9831 1.39973 19.0781 2.50736 19.0781H5.73705C6.84468 19.0781 7.74441 19.9831 7.74441 21.0972C7.74441 22.2113 6.84468 23.1162 5.73705 23.1162Z" fill="#FFD255"/>
<path d="M5.73705 30.7569H2.50736C1.39973 30.7569 0.5 29.8519 0.5 28.7378C0.5 27.6237 1.39973 26.7188 2.50736 26.7188H5.73705C6.84468 26.7188 7.74441 27.6237 7.74441 28.7378C7.74441 29.8519 6.84468 30.7569 5.73705 30.7569Z" fill="#FFD255"/>
<path d="M5.73705 38.3936H2.50736C1.39973 38.3936 0.5 37.4886 0.5 36.3745C0.5 35.2604 1.39973 34.3555 2.50736 34.3555H5.73705C6.84468 34.3555 7.74441 35.2604 7.74441 36.3745C7.74441 37.4886 6.84468 38.3936 5.73705 38.3936Z" fill="#FFD255"/>
<path d="M30 17.0294C30 12.6111 26.4183 9.0228 22 9.01468C17.5817 9.00656 14 12.5817 14 17C14 21.4183 17.5817 25.0066 22 25.0147C26.4183 25.0228 30 21.4477 30 17.0294Z" fill="white"/>
<path d="M21.0558 21H21.0419C20.6881 20.9964 20.3515 20.8304 20.126 20.5454L18.2767 18.2217C17.8534 17.6877 17.9228 16.8975 18.4363 16.4573C18.9498 16.0171 19.7096 16.0892 20.1329 16.6232L21.0766 17.8067L23.8835 14.4331C24.3172 13.9099 25.0805 13.8521 25.5836 14.3068C26.0867 14.7578 26.1422 15.5516 25.705 16.0748L21.9683 20.567C21.7393 20.8412 21.4063 21 21.0558 21Z" fill="#206CD8"/>
<path d="M29.069 33.5352H22.4483C21.6382 33.5352 20.9822 32.8754 20.9822 32.0606C20.9822 31.2457 21.6382 30.5859 22.4483 30.5859H29.069C29.8791 30.5859 30.535 31.2457 30.535 32.0606C30.535 32.8754 29.8791 33.5352 29.069 33.5352Z" fill="white"/>
<path d="M17.7848 33.5352H15.9065C15.0964 33.5352 14.4404 32.8754 14.4404 32.0606C14.4404 31.2457 15.0964 30.5859 15.9065 30.5859H17.7848C18.5949 30.5859 19.2509 31.2457 19.2509 32.0606C19.2509 32.8754 18.5949 33.5352 17.7848 33.5352Z" fill="white"/>
</svg>
