<svg width="39" height="42" viewBox="0 0 39 42" fill="none" xmlns="http://www.w3.org/2000/svg">
<path d="M34.1475 42H5.007C3.81871 42 2.85852 41.0554 2.85852 39.8944V2.10559C2.85852 0.941025 3.82239 0 5.007 0H34.1475C36.8258 0 39 2.12722 39 4.7556V37.2444C39 39.8692 36.8295 42 34.1475 42Z" fill="#206CD8"/>
<path d="M5.37487 7.83108H2.06018C0.923403 7.83108 0 6.92611 0 5.81203C0 4.69794 0.923403 3.79297 2.06018 3.79297H5.37487C6.51165 3.79297 7.43505 4.69794 7.43505 5.81203C7.43505 6.92611 6.51165 7.83108 5.37487 7.83108Z" fill="#FFD255"/>
<path d="M5.37487 15.4756H2.06018C0.923403 15.4756 0 14.5706 0 13.4566C0 12.3425 0.923403 11.4375 2.06018 11.4375H5.37487C6.51165 11.4375 7.43505 12.3425 7.43505 13.4566C7.43505 14.5706 6.51165 15.4756 5.37487 15.4756Z" fill="#FFD255"/>
<path d="M5.37487 23.1162H2.06018C0.923403 23.1162 0 22.2113 0 21.0972C0 19.9831 0.923403 19.0781 2.06018 19.0781H5.37487C6.51165 19.0781 7.43505 19.9831 7.43505 21.0972C7.43505 22.2113 6.51165 23.1162 5.37487 23.1162Z" fill="#FFD255"/>
<path d="M5.37487 30.7569H2.06018C0.923403 30.7569 0 29.8519 0 28.7378C0 27.6237 0.923403 26.7188 2.06018 26.7188H5.37487C6.51165 26.7188 7.43505 27.6237 7.43505 28.7378C7.43505 29.8519 6.51165 30.7569 5.37487 30.7569Z" fill="#FFD255"/>
<path d="M5.37487 38.3936H2.06018C0.923403 38.3936 0 37.4886 0 36.3745C0 35.2604 0.923403 34.3555 2.06018 34.3555H5.37487C6.51165 34.3555 7.43505 35.2604 7.43505 36.3745C7.43505 37.4886 6.51165 38.3936 5.37487 38.3936Z" fill="#FFD255"/>
<path d="M30.8781 19.3265C31.6318 14.7763 28.479 10.489 23.8361 9.75036C19.1933 9.01177 14.8185 12.1017 14.0649 16.6518C13.3113 21.202 16.4641 25.4894 21.1069 26.228C25.7498 26.9666 30.1245 23.8767 30.8781 19.3265Z" fill="white"/>
<path d="M21.4664 21.4869H21.4517C21.0765 21.4833 20.7196 21.3174 20.4805 21.0326L18.5196 18.7107C18.0708 18.1771 18.1444 17.3875 18.6889 16.9476C19.2333 16.5077 20.039 16.5798 20.4878 17.1134L21.4885 18.296L24.4647 14.9249C24.9246 14.4021 25.7339 14.3444 26.2674 14.7987C26.8008 15.2494 26.8597 16.0426 26.3961 16.5654L22.434 21.0542C22.1912 21.3282 21.838 21.4869 21.4664 21.4869Z" fill="#206CD8"/>
<path d="M29.3208 33.5352H22.5259C21.6945 33.5352 21.0212 32.8754 21.0212 32.0606C21.0212 31.2457 21.6945 30.5859 22.5259 30.5859H29.3208C30.1523 30.5859 30.8255 31.2457 30.8255 32.0606C30.8255 32.8754 30.1523 33.5352 29.3208 33.5352Z" fill="white"/>
<path d="M17.7397 33.5352H15.8119C14.9805 33.5352 14.3073 32.8754 14.3073 32.0606C14.3073 31.2457 14.9805 30.5859 15.8119 30.5859H17.7397C18.5711 30.5859 19.2443 31.2457 19.2443 32.0606C19.2443 32.8754 18.5711 33.5352 17.7397 33.5352Z" fill="white"/>
</svg>
