<svg width="40" height="40" viewBox="0 0 40 40" fill="none" xmlns="http://www.w3.org/2000/svg">
<path d="M20 13.75C20 12.4239 20.5268 11.1521 21.4645 10.2145C22.4021 9.27678 23.6739 8.75 25 8.75H35C35.3315 8.75 35.6495 8.8817 35.8839 9.11612C36.1183 9.35054 36.25 9.66848 36.25 10V30C36.25 30.3315 36.1183 30.6495 35.8839 30.8839C35.6495 31.1183 35.3315 31.25 35 31.25H25C23.6739 31.25 22.4021 31.7768 21.4645 32.7145C20.5268 33.6521 20 34.9239 20 36.25" stroke="#8491A7" stroke-width="4" stroke-linecap="round" stroke-linejoin="round"/>
<path d="M3.75 30C3.75 30.3315 3.8817 30.6495 4.11612 30.8839C4.35054 31.1183 4.66848 31.25 5 31.25H15C16.3261 31.25 17.5979 31.7768 18.5355 32.7145C19.4732 33.6521 20 34.9239 20 36.25V13.75C20 12.4239 19.4732 11.1521 18.5355 10.2145C17.5979 9.27678 16.3261 8.75 15 8.75H5C4.66848 8.75 4.35054 8.8817 4.11612 9.11612C3.8817 9.35054 3.75 9.66848 3.75 10V30Z" stroke="#8491A7" stroke-width="4" stroke-linecap="round" stroke-linejoin="round"/>
</svg>
