<svg width="135" height="132" viewBox="0 0 135 132" fill="none" xmlns="http://www.w3.org/2000/svg">
<g clip-path="url(#clip0_1624_11376)">
<path opacity="0.5" d="M70.4125 91.9906L22.9738 88.3007C14.8043 87.6678 10.6356 80.7459 13.6973 72.9329L31.5078 27.5456C34.5769 19.7206 43.7757 13.8474 51.9549 14.4779L99.3936 18.1679C107.563 18.8007 111.742 25.7203 108.672 33.5453L90.8619 78.9326C87.7905 86.7479 78.594 92.6308 70.4246 91.998L70.4125 91.9906Z" fill="#E0F9FF"/>
<path opacity="0.5" d="M77.0943 105.315L29.6556 101.625C21.4861 100.992 17.3076 94.0722 20.3767 86.2472L38.1873 40.8599C41.2587 33.0447 50.4552 27.1617 58.6246 27.7945L106.063 31.4845C114.233 32.1173 118.411 39.037 115.342 46.862L97.5317 92.2493C94.4602 100.065 85.2638 105.947 77.0943 105.315Z" fill="#E0F9FF"/>
<path opacity="0.5" d="M82.3767 116.865L34.9379 113.175C26.7685 112.543 22.59 105.623 25.6591 97.798L43.4696 52.4107C46.5411 44.5954 55.7375 38.7125 63.907 39.3453L111.346 43.0353C119.515 43.6681 123.694 50.5877 120.625 58.4127L102.814 103.8C99.7426 111.615 90.5461 117.498 82.3767 116.865Z" fill="#E0F9FF"/>
</g>
<defs>
<clipPath id="clip0_1624_11376">
<rect width="112.29" height="108.25" fill="white" transform="translate(0 26.0391) rotate(-13.4085)"/>
</clipPath>
</defs>
</svg>
