<svg width="99" height="80" viewBox="0 0 99 80" fill="none" xmlns="http://www.w3.org/2000/svg">
<g clip-path="url(#clip0_1554_11990)">
<g style="mix-blend-mode:multiply">
<path d="M59.99 3.3088L7.36932 79.6173L98.6657 68.8166L59.99 3.3088ZM94.163 66.5906L30.6129 74.1062C29.8712 65.8334 25.8646 62.5608 23.3228 61.3005L59.8142 8.39604L94.171 66.5897L94.163 66.5906ZM21.7524 63.5839C23.5564 64.3641 27.2407 66.8783 27.8978 74.4244L13.0624 76.1804L21.7524 63.5839Z" fill="#69D3F4"/>
</g>
<g style="mix-blend-mode:multiply">
<path d="M45.8808 56.5733C45.9532 55.8785 46.0769 55.2107 46.3138 54.6199C46.5133 54.0572 46.7754 53.5527 47.1192 53.0557C47.3961 52.6142 47.7626 52.1795 48.1813 51.7798C48.5706 51.4073 48.9872 51.0643 49.4614 50.7315C50.2504 50.1634 50.9304 49.5582 51.5276 48.8567C52.0952 48.1825 52.423 47.5336 52.4832 46.9533C52.519 46.6019 52.4954 46.2245 52.4167 45.8609C52.3005 45.5255 52.1301 45.212 51.9277 44.9019C51.6575 44.6393 51.3579 44.4041 51.004 44.1907C50.6126 44.0056 50.1295 43.8705 49.574 43.8158C49.0514 43.7657 48.5788 43.8074 48.1529 43.9088C47.6976 44.0376 47.3273 44.2059 47.0172 44.4084C46.6969 44.6684 46.4343 44.9386 46.2888 45.245C46.0809 45.574 45.9828 45.9481 45.9471 46.2995L42.4589 45.9554C42.5427 45.1382 42.7657 44.3386 43.1961 43.59C43.5643 42.8641 44.0971 42.2421 44.7615 41.7194C45.402 41.1993 46.1767 40.8024 47.0545 40.5402C47.9029 40.3054 48.88 40.2187 49.9262 40.3268C50.9723 40.4349 51.9137 40.6996 52.7191 41.1322C53.4951 41.5921 54.1491 42.1215 54.6692 42.7619C55.1599 43.4298 55.534 44.1422 55.7701 44.9258C55.9822 45.7118 56.0504 46.5131 55.9713 47.2975C55.8969 48.049 55.713 48.6828 55.4588 49.1865C55.1752 49.7176 54.8609 50.1872 54.4695 50.6165C54.0782 51.0457 53.6267 51.4409 53.1478 51.8066C52.6394 52.1996 52.1008 52.612 51.587 53.0299C51.3934 53.1877 51.1704 53.3729 50.9419 53.5829C50.6894 53.7954 50.4508 54.063 50.2531 54.3345C50.0132 54.6669 49.8327 55.0255 49.6724 55.4223C49.4826 55.8465 49.3803 56.3342 49.3202 56.9145L45.8888 56.5725L45.8808 56.5733ZM45.1811 61.5217C45.2358 60.9662 45.4854 60.4953 45.9369 60.1002C46.359 59.7324 46.8732 59.5489 47.4855 59.6057C48.041 59.6604 48.5072 59.9427 48.9024 60.3942C49.2681 60.8731 49.4516 61.3874 49.3969 61.9428C49.3401 62.5551 49.0577 63.0214 48.6037 63.3926C48.1294 63.7254 47.6127 63.8849 47.0652 63.8294C46.4529 63.7726 45.9812 63.5151 45.6382 63.0985C45.2759 62.6516 45.1163 62.1348 45.182 61.5297L45.1811 61.5217Z" fill="#69D3F4"/>
<path d="M47.377 64.1024C47.2651 64.1142 47.1506 64.102 47.0362 64.0898C46.3662 64.0229 45.828 63.7481 45.4295 63.2646C45.0125 62.7588 44.8462 62.1781 44.9123 61.5001C44.9762 60.879 45.2598 60.348 45.7631 59.9069C46.2593 59.4747 46.8454 59.2837 47.5154 59.3506C48.1117 59.409 48.6524 59.7078 49.1111 60.2254C49.5429 60.7943 49.7251 61.3734 49.6675 61.9777C49.5989 62.6316 49.301 63.1804 48.78 63.6071C48.3281 63.9214 47.869 64.091 47.3859 64.1096L47.377 64.1024ZM47.1813 59.8627C46.779 59.8808 46.4221 60.0235 46.1116 60.2987C45.7118 60.648 45.4884 61.0595 45.4429 61.5494C45.3937 62.08 45.5225 62.5353 45.8461 62.9216C46.1432 63.2865 46.5619 63.5011 47.0926 63.5503C47.5664 63.5974 48.0217 63.4686 48.4505 63.1648C48.8528 62.8395 49.0754 62.42 49.1272 61.9133C49.176 61.4554 49.0304 60.9938 48.6849 60.5532C48.3276 60.1543 47.9143 59.9149 47.4485 59.8669C47.3589 59.8602 47.2612 59.8543 47.1724 59.8555L47.1813 59.8627ZM49.324 57.1795C49.324 57.1795 49.3 57.1821 49.284 57.1837L45.8527 56.8417C45.7054 56.8249 45.6031 56.6982 45.612 56.5518C45.6885 55.7434 45.8371 55.081 46.0613 54.5238C46.2743 53.9355 46.5347 53.415 46.8937 52.9083C47.1777 52.458 47.5514 52.0145 47.9924 51.5962C48.3896 51.2229 48.8134 50.8711 49.3019 50.5206C50.091 49.9524 50.7558 49.357 51.3163 48.6916C51.8546 48.0448 52.1563 47.4553 52.2063 46.9326C52.2366 46.6061 52.2147 46.2446 52.1411 45.929C52.0599 45.695 51.9176 45.419 51.7038 45.0777C51.4425 44.8222 51.1622 44.6173 50.8508 44.4237C50.4931 44.2512 50.0277 44.1305 49.5299 44.0859C49.064 44.0379 48.6226 44.0682 48.2047 44.1688C47.8045 44.2837 47.4574 44.4415 47.1464 44.6359C46.8342 44.8952 46.6242 45.1275 46.5118 45.3656C46.3317 45.6514 46.2358 45.9687 46.1929 46.3289C46.176 46.4762 46.0494 46.5784 45.9029 46.5696L42.4148 46.2255C42.3411 46.217 42.281 46.183 42.2351 46.1312C42.1892 46.0794 42.1657 46.0092 42.1741 45.9355C42.2654 45.0367 42.525 44.2009 42.9412 43.47C43.3085 42.736 43.8619 42.0796 44.5789 41.519C45.2337 40.9812 46.0316 40.5738 46.9557 40.2906C47.8511 40.0427 48.8691 39.9598 49.9312 40.0662C51.0182 40.1781 51.9932 40.4554 52.8244 40.9015C53.6605 41.3955 54.325 41.948 54.8548 42.6036C55.3834 43.324 55.7592 44.0525 56.0058 44.8592C56.2293 45.6764 56.3008 46.5096 56.218 47.3348C56.1443 48.0944 55.9638 48.7601 55.6827 49.3152C55.3579 49.9153 55.0276 50.3866 54.6505 50.7982C54.2735 51.2097 53.8156 51.6217 53.2913 52.0165C52.7821 52.4015 52.2443 52.8219 51.7377 53.231C51.5521 53.3879 51.3282 53.5651 51.1077 53.7743C50.8847 53.9594 50.6667 54.1926 50.4475 54.4905C50.2426 54.7708 50.0675 55.1045 49.9009 55.5181C49.7309 55.8998 49.6244 56.3476 49.5651 56.9359C49.5567 57.0095 49.5226 57.0697 49.4709 57.1156C49.4262 57.1526 49.372 57.1745 49.3152 57.1724L49.324 57.1795ZM46.1788 56.3304L49.0795 56.6232C49.1464 56.1069 49.2634 55.6823 49.427 55.3174C49.5991 54.8789 49.802 54.5019 50.0355 54.1863C50.2905 53.8441 50.53 53.5845 50.7753 53.3808C50.9958 53.1717 51.2188 52.9865 51.4204 52.8278C51.9342 52.41 52.48 51.9887 52.9883 51.5956C53.4823 51.2203 53.9179 50.8268 54.2735 50.4417C54.6219 50.0655 54.9236 49.6296 55.2278 49.064C55.4757 48.5771 55.6381 47.9698 55.7105 47.2751C55.7841 46.5155 55.7201 45.7543 55.5114 45.0002C55.2803 44.2646 54.9336 43.5816 54.4517 42.9209C53.9694 42.3331 53.3571 41.8155 52.582 41.3635C51.819 40.9507 50.9105 40.6907 49.8972 40.5872C48.9087 40.4892 47.9538 40.5574 47.1295 40.7897C46.2756 41.0493 45.5392 41.426 44.9362 41.9179C44.2789 42.4318 43.7756 43.0264 43.4424 43.7001C43.0944 44.3107 42.8739 44.9807 42.764 45.7036L45.7295 45.9977C45.791 45.6598 45.9046 45.3568 46.0712 45.0967C46.2033 44.8161 46.4554 44.5227 46.8577 44.1974C47.2284 43.9563 47.6219 43.7775 48.0852 43.6478C48.5733 43.5237 49.0796 43.4946 49.6022 43.5447C50.1577 43.5994 50.6816 43.7382 51.1235 43.9423C51.5031 44.1691 51.8275 44.4098 52.1251 44.7019C52.1427 44.7162 52.1524 44.7313 52.1621 44.7465C52.4137 45.1404 52.5753 45.4467 52.6818 45.7669C52.7736 46.1777 52.7997 46.5791 52.7601 46.9713C52.697 47.6004 52.3574 48.291 51.7468 49.0182C51.1497 49.7197 50.4562 50.3505 49.6289 50.9388C49.1627 51.2709 48.7532 51.605 48.3783 51.9598C47.9588 52.3516 47.6145 52.7677 47.3511 53.1835C47.0136 53.6637 46.7729 54.1417 46.5726 54.6964C46.3942 55.1517 46.2642 55.6828 46.186 56.3216L46.1788 56.3304Z" fill="#69D3F4"/>
</g>
</g>
<defs>
<clipPath id="clip0_1554_11990">
<rect width="91.9255" height="70.3792" fill="white" transform="translate(0 9.625) rotate(-6.01039)"/>
</clipPath>
</defs>
</svg>
