<svg width="117" height="31" viewBox="0 0 117 31" fill="none" xmlns="http://www.w3.org/2000/svg">
<g clip-path="url(#clip0_1554_11712)">
<g style="mix-blend-mode:soft-light">
<path d="M15.2 30.4C23.5947 30.4 30.4 23.5947 30.4 15.2C30.4 6.80527 23.5947 1.28137e-07 15.2 8.25472e-08C6.80527 3.69576e-08 -3.69576e-08 6.80527 -8.25472e-08 15.2C-1.28137e-07 23.5947 6.80527 30.4 15.2 30.4Z" fill="white"/>
<path d="M24.33 13.6703L10.96 5.95027C9.78 5.27026 8.31 6.12027 8.31 7.48027L8.31 22.9203C8.31 24.2803 9.78 25.1303 10.96 24.4503L24.33 16.7303C25.51 16.0503 25.51 14.3503 24.33 13.6703Z" fill="#072B65"/>
</g>
<g style="mix-blend-mode:soft-light">
<path d="M58.4 30.4C66.7947 30.4 73.6 23.5947 73.6 15.2C73.6 6.80527 66.7947 1.28137e-07 58.4 8.25472e-08C50.0053 3.69576e-08 43.2 6.80527 43.2 15.2C43.2 23.5947 50.0053 30.4 58.4 30.4Z" fill="white"/>
<path d="M67.53 13.6703L54.16 5.95027C52.98 5.27026 51.51 6.12027 51.51 7.48027L51.51 22.9203C51.51 24.2803 52.98 25.1303 54.16 24.4503L67.53 16.7303C68.71 16.0503 68.71 14.3503 67.53 13.6703Z" fill="#072B65"/>
</g>
<g style="mix-blend-mode:soft-light">
<path d="M101.61 30.4C110.005 30.4 116.81 23.5947 116.81 15.2C116.81 6.80527 110.005 1.28137e-07 101.61 8.25472e-08C93.2153 3.69576e-08 86.41 6.80527 86.41 15.2C86.41 23.5947 93.2153 30.4 101.61 30.4Z" fill="white"/>
<path d="M110.74 13.6703L97.37 5.95027C96.19 5.27026 94.72 6.12027 94.72 7.48027L94.72 22.9203C94.72 24.2803 96.19 25.1303 97.37 24.4503L110.74 16.7303C111.92 16.0503 111.92 14.3503 110.74 13.6703Z" fill="#072B65"/>
</g>
</g>
<defs>
<clipPath id="clip0_1554_11712">
<rect width="116.81" height="30.39" fill="white"/>
</clipPath>
</defs>
</svg>
