<svg width="103" height="103" viewBox="0 0 103 103" fill="none" xmlns="http://www.w3.org/2000/svg">
<g clip-path="url(#clip0_1630_11417)">
<path d="M93.7811 67.5119L80.2906 16.4713C83.9424 14.7078 85.9558 10.5249 84.8798 6.44028C83.6571 1.82259 78.9294 -0.933263 74.3402 0.297028C70.4357 1.33868 67.8843 4.93933 67.9495 8.82705L16.1561 22.6883C14.2976 19.2763 10.3034 17.4391 6.39897 18.4807C1.80978 19.711 -0.929065 24.4682 0.293632 29.0858C1.36145 33.113 5.0866 35.7212 9.06445 35.508L22.5712 86.6061C19.0172 88.4105 17.069 92.5443 18.1287 96.5632C19.3514 101.181 24.0792 103.937 28.6684 102.706C32.5076 101.681 35.0427 98.179 35.059 94.3569L86.9421 80.471C88.8414 83.7846 92.7703 85.5562 96.6096 84.5228C101.199 83.2925 103.938 78.5354 102.715 73.9177C101.639 69.8413 97.8241 67.2167 93.7811 67.5037V67.5119ZM25.9784 88.5171C28.5379 88.3039 30.9833 89.8294 31.8963 92.29L27.2989 93.5203L25.9784 88.5171ZM25.2448 85.7613L11.8033 34.8928C15.5692 33.3837 17.8027 29.3893 17.0935 25.354L68.4631 11.6075C69.8243 15.4132 73.6473 17.7508 77.6007 17.2586L91.0585 68.1763C87.3334 69.7511 85.1651 73.7782 85.9558 77.8218L34.6025 91.56C33.2738 87.6067 29.3205 85.1789 25.253 85.7613H25.2448ZM11.0697 32.137L9.78991 27.306L14.3628 26.0839C14.697 28.6101 13.3439 31.0707 11.0697 32.137ZM76.8671 14.5028C74.4217 14.634 72.1149 13.1905 71.1775 10.8775L75.5955 9.69645L76.8671 14.5028ZM91.784 70.9322L93.0963 75.9107L88.6539 77.1C88.2382 74.5656 89.5342 72.0722 91.7758 70.9404L91.784 70.9322ZM75.0575 3.02007C78.155 2.19168 81.3421 4.05352 82.1654 7.17026C82.842 9.73746 81.7008 12.3703 79.5489 13.6744L77.5844 6.25164L70.778 8.07247C71.0226 5.72671 72.661 3.66803 75.0575 3.02828V3.02007ZM2.99987 28.3559C2.17659 25.2391 4.02693 22.0322 7.12443 21.2038C9.52092 20.564 11.9582 21.5319 13.3276 23.4429L6.36636 25.3048L8.31452 32.6865C5.86098 32.5553 3.66012 30.8657 2.99987 28.3559ZM27.9429 99.9834C24.8454 100.812 21.6582 98.95 20.8349 95.8333C20.1747 93.3235 21.2425 90.7481 23.3129 89.4111L25.31 96.9569L32.206 95.1115C31.8963 97.3752 30.2742 99.3519 27.9429 99.9752V99.9834ZM95.8841 81.7997C93.5528 82.4231 91.1726 81.5209 89.7869 79.7082L96.528 77.9038L94.5228 70.3088C97.0416 70.3662 99.3239 72.0804 100.009 74.6476C100.832 77.7644 98.9816 80.9713 95.8841 81.7997Z" fill="#043B99"/>
</g>
<defs>
<clipPath id="clip0_1630_11417">
<rect width="103" height="103" fill="white"/>
</clipPath>
</defs>
</svg>
