<svg width="664" height="583" viewBox="0 0 664 583" fill="none" xmlns="http://www.w3.org/2000/svg">
<g clip-path="url(#clip0_1554_11710)">
<path d="M640.505 443.909C505.782 566.836 260.609 597.969 112.947 481.455C74.9033 450.87 46.1303 408.345 32.1865 360.913C7.85141 281.998 34.2327 193.076 92.9843 137.885C121.666 109.773 160.079 95.2693 199.221 90.5286C216.353 88.6944 239.714 87.2035 255.283 96.6656C265.305 102.808 268.797 114.73 263.86 125.483C259.172 135.701 230.415 168.037 200.168 165.366C179.129 163.515 166.15 144.684 168.53 123.821C173.78 83.5191 216.066 58.5336 249.572 45.3509C290.988 29.3514 325.49 26.2767 369.344 23.5778C340.314 27.2497 321.366 29.5373 293.526 38.0255C255.902 49.8303 208.737 69.9369 189.27 106.81C186.315 112.754 184.432 119.093 184.224 125.115C183.642 136.475 190.098 145.807 201.352 146.337C223.786 147.393 247.595 124.221 243.587 116.308C240.544 110.296 219.175 112.251 202.549 115.127C168.982 120.917 136.458 133.271 112.791 159.005C54.3095 220.626 41.1424 311.438 86.1859 385.554C161.812 506.72 332.938 513.985 453.841 471.608C504.236 453.935 551.962 426.051 589.434 387.921C604.031 373.072 627.664 373.208 642.213 388.232C657.385 403.774 656.579 429.51 640.504 443.899L640.505 443.909Z" fill="url(#paint0_linear_1554_11710)"/>
</g>
<defs>
<linearGradient id="paint0_linear_1554_11710" x1="167.48" y1="132.423" x2="473.319" y2="585.916" gradientUnits="userSpaceOnUse">
<stop stop-color="white"/>
<stop offset="0.2" stop-color="#40CEF4"/>
<stop offset="0.62" stop-color="#FF65DD"/>
<stop offset="1" stop-color="#FF6A48"/>
</linearGradient>
<clipPath id="clip0_1554_11710">
<rect width="617.875" height="528.396" fill="white" transform="translate(0 56.7852) rotate(-5.22762)"/>
</clipPath>
</defs>
</svg>
