<svg width="99" height="80" viewBox="0 0 99 80" fill="none" xmlns="http://www.w3.org/2000/svg">
<g clip-path="url(#clip0_1630_11409)">
<path d="M59.99 3.3088L7.36932 79.6173L98.6657 68.8166L59.99 3.3088ZM94.163 66.5906L30.6129 74.1062C29.8712 65.8334 25.8646 62.5608 23.3228 61.3005L59.8142 8.39604L94.171 66.5897L94.163 66.5906ZM21.7524 63.5839C23.5564 64.3641 27.2407 66.8783 27.8978 74.4244L13.0624 76.1804L21.7524 63.5839Z" fill="#043B99"/>
<path d="M45.8809 56.5733C45.9533 55.8785 46.077 55.2107 46.3139 54.6199C46.5133 54.0572 46.7755 53.5527 47.1193 53.0557C47.3962 52.6142 47.7627 52.1795 48.1814 51.7798C48.5707 51.4073 48.9873 51.0643 49.4615 50.7315C50.2505 50.1634 50.9305 49.5582 51.5277 48.8567C52.0953 48.1825 52.4231 47.5336 52.4833 46.9533C52.519 46.6019 52.4955 46.2245 52.4168 45.8609C52.3006 45.5255 52.1302 45.212 51.9278 44.9019C51.6576 44.6393 51.358 44.4041 51.0041 44.1907C50.6127 44.0056 50.1296 43.8705 49.5741 43.8158C49.0515 43.7657 48.5789 43.8074 48.153 43.9088C47.6977 44.0376 47.3274 44.2059 47.0173 44.4084C46.697 44.6684 46.4344 44.9386 46.2888 45.245C46.081 45.574 45.9829 45.9481 45.9472 46.2995L42.459 45.9554C42.5427 45.1382 42.7658 44.3386 43.1962 43.59C43.5644 42.8641 44.0972 42.2421 44.7616 41.7194C45.4021 41.1993 46.1768 40.8024 47.0546 40.5402C47.903 40.3054 48.8801 40.2187 49.9262 40.3268C50.9724 40.4349 51.9138 40.6996 52.7192 41.1322C53.4952 41.5921 54.1492 42.1215 54.6693 42.7619C55.16 43.4298 55.5341 44.1422 55.7702 44.9258C55.9823 45.7118 56.0505 46.5131 55.9714 47.2975C55.897 48.049 55.7131 48.6828 55.4589 49.1865C55.1753 49.7176 54.861 50.1872 54.4696 50.6165C54.0783 51.0457 53.6267 51.4409 53.1479 51.8066C52.6395 52.1996 52.1009 52.612 51.5871 53.0299C51.3935 53.1877 51.1705 53.3729 50.942 53.5829C50.6895 53.7954 50.4509 54.063 50.2531 54.3345C50.0133 54.6669 49.8328 55.0255 49.6724 55.4223C49.4827 55.8465 49.3804 56.3342 49.3203 56.9145L45.8889 56.5725L45.8809 56.5733ZM45.1812 61.5217C45.2359 60.9662 45.4855 60.4953 45.937 60.1002C46.359 59.7324 46.8733 59.5489 47.4856 59.6057C48.041 59.6604 48.5073 59.9427 48.9025 60.3942C49.2682 60.8731 49.4517 61.3874 49.397 61.9428C49.3402 62.5551 49.0578 63.0214 48.6038 63.3926C48.1295 63.7254 47.6128 63.8849 47.0653 63.8294C46.453 63.7726 45.9812 63.5151 45.6383 63.0985C45.2759 62.6516 45.1164 62.1348 45.1821 61.5297L45.1812 61.5217Z" fill="#043B99"/>
<path d="M47.3771 64.1024C47.2652 64.1142 47.1507 64.102 47.0362 64.0898C46.3663 64.0229 45.8281 63.7481 45.4296 63.2646C45.0125 62.7588 44.8463 62.1781 44.9123 61.5001C44.9763 60.879 45.2599 60.348 45.7632 59.9069C46.2593 59.4747 46.8455 59.2837 47.5154 59.3506C48.1117 59.409 48.6525 59.7078 49.1112 60.2254C49.543 60.7943 49.7252 61.3734 49.6675 61.9777C49.599 62.6316 49.301 63.1804 48.7801 63.6071C48.3281 63.9214 47.869 64.091 47.3859 64.1096L47.3771 64.1024ZM47.1813 59.8627C46.779 59.8808 46.4222 60.0235 46.1116 60.2987C45.7119 60.648 45.4884 61.0595 45.443 61.5494C45.3938 62.08 45.5225 62.5353 45.8462 62.9216C46.1433 63.2865 46.562 63.5011 47.0926 63.5503C47.5665 63.5974 48.0218 63.4686 48.4506 63.1648C48.8529 62.8395 49.0755 62.42 49.1272 61.9133C49.176 61.4554 49.0304 60.9938 48.6849 60.5532C48.3276 60.1543 47.9144 59.9149 47.4485 59.8669C47.3589 59.8602 47.2613 59.8543 47.1725 59.8555L47.1813 59.8627ZM49.324 57.1795C49.324 57.1795 49.3001 57.1821 49.2841 57.1837L45.8527 56.8417C45.7055 56.8249 45.6032 56.6982 45.612 56.5518C45.6886 55.7434 45.8371 55.081 46.0614 54.5238C46.2743 53.9355 46.5348 53.415 46.8937 52.9083C47.1778 52.458 47.5515 52.0145 47.9925 51.5962C48.3897 51.2229 48.8134 50.8711 49.302 50.5206C50.091 49.9524 50.7559 49.357 51.3164 48.6916C51.8546 48.0448 52.1563 47.4553 52.2064 46.9326C52.2367 46.6061 52.2148 46.2446 52.1411 45.929C52.0599 45.695 51.9177 45.419 51.7039 45.0777C51.4426 44.8222 51.1623 44.6173 50.8509 44.4237C50.4932 44.2512 50.0278 44.1305 49.5299 44.0859C49.0641 44.0379 48.6227 44.0682 48.2048 44.1688C47.8046 44.2837 47.4574 44.4415 47.1464 44.6359C46.8342 44.8952 46.6242 45.1275 46.5119 45.3656C46.3318 45.6514 46.2358 45.9687 46.1929 46.3289C46.1761 46.4762 46.0494 46.5784 45.903 46.5696L42.4148 46.2255C42.3412 46.217 42.281 46.183 42.2352 46.1312C42.1893 46.0794 42.1657 46.0092 42.1741 45.9355C42.2654 45.0367 42.525 44.2009 42.9412 43.47C43.3086 42.736 43.8619 42.0796 44.579 41.519C45.2338 40.9812 46.0316 40.5738 46.9557 40.2906C47.8512 40.0427 48.8692 39.9598 49.9313 40.0662C51.0183 40.1781 51.9933 40.4554 52.8244 40.9015C53.6606 41.3955 54.3251 41.948 54.8549 42.6036C55.3835 43.324 55.7593 44.0525 56.0059 44.8592C56.2294 45.6764 56.3009 46.5096 56.218 47.3348C56.1444 48.0944 55.9639 48.7601 55.6828 49.3152C55.3579 49.9153 55.0276 50.3866 54.6506 50.7982C54.2735 51.2097 53.8157 51.6217 53.2914 52.0165C52.7822 52.4015 52.2444 52.8219 51.7377 53.231C51.5522 53.3879 51.3283 53.5651 51.1078 53.7743C50.8848 53.9594 50.6668 54.1926 50.4476 54.4905C50.2426 54.7708 50.0676 55.1045 49.9009 55.5181C49.7309 55.8998 49.6245 56.3476 49.5652 56.9359C49.5568 57.0095 49.5227 57.0697 49.4709 57.1156C49.4263 57.1526 49.372 57.1745 49.3152 57.1724L49.324 57.1795ZM46.1789 56.3304L49.0795 56.6232C49.1464 56.1069 49.2634 55.6823 49.4271 55.3174C49.5992 54.8789 49.802 54.5019 50.0356 54.1863C50.2906 53.8441 50.53 53.5845 50.7753 53.3808C50.9959 53.1717 51.2189 52.9865 51.4204 52.8278C51.9343 52.41 52.48 51.9887 52.9884 51.5956C53.4824 51.2203 53.9179 50.8268 54.2735 50.4417C54.6219 50.0655 54.9237 49.6296 55.2279 49.064C55.4757 48.5771 55.6382 47.9698 55.7105 47.2751C55.7841 46.5155 55.7202 45.7543 55.5114 45.0002C55.2804 44.2646 54.9336 43.5816 54.4518 42.9209C53.9695 42.3331 53.3572 41.8155 52.582 41.3635C51.8191 40.9507 50.9105 40.6907 49.8972 40.5872C48.9087 40.4892 47.9539 40.5574 47.1295 40.7897C46.2757 41.0493 45.5393 41.426 44.9363 41.9179C44.279 42.4318 43.7757 43.0264 43.4424 43.7001C43.0944 44.3107 42.8739 44.9807 42.7641 45.7036L45.7296 45.9977C45.791 45.6598 45.9046 45.3568 46.0713 45.0967C46.2034 44.8161 46.4555 44.5227 46.8578 44.1974C47.2285 43.9563 47.6219 43.7775 48.0853 43.6478C48.5734 43.5237 49.0796 43.4946 49.6023 43.5447C50.1578 43.5994 50.6817 43.7382 51.1236 43.9423C51.5031 44.1691 51.8276 44.4098 52.1251 44.7019C52.1428 44.7162 52.1525 44.7313 52.1621 44.7465C52.4138 45.1404 52.5754 45.4467 52.6819 45.7669C52.7736 46.1777 52.7997 46.5791 52.7602 46.9713C52.6971 47.6004 52.3575 48.291 51.7469 49.0182C51.1498 49.7197 50.4563 50.3505 49.629 50.9388C49.1627 51.2709 48.7533 51.605 48.3784 51.9598C47.9588 52.3516 47.6146 52.7677 47.3512 53.1835C47.0137 53.6637 46.773 54.1417 46.5727 54.6964C46.3943 55.1517 46.2643 55.6828 46.186 56.3216L46.1789 56.3304Z" fill="#043B99"/>
</g>
<defs>
<clipPath id="clip0_1630_11409">
<rect width="91.9255" height="70.3792" fill="white" transform="translate(0 9.625) rotate(-6.01039)"/>
</clipPath>
</defs>
</svg>
