<svg width="73" height="69" viewBox="0 0 73 69" fill="none" xmlns="http://www.w3.org/2000/svg">
<g clip-path="url(#clip0_1554_11952)">
<path d="M38.1272 54.5785L24.7495 51.2728C23.066 50.8568 21.3645 51.8821 20.9492 53.563C20.5338 55.2438 21.5619 56.9437 23.2454 57.3597L36.6231 60.6654C38.3066 61.0814 40.0081 60.056 40.4234 58.3752C40.8388 56.6943 39.8107 54.9945 38.1272 54.5785Z" fill="white"/>
<path d="M36.3023 61.9574L22.9247 58.6517C21.2412 58.2357 19.5397 59.261 19.1244 60.9419C18.709 62.6228 19.7371 64.3226 21.4206 64.7386L34.7982 68.0443C36.4818 68.4603 38.1833 67.4349 38.5986 65.7541C39.014 64.0732 37.9859 62.3734 36.3023 61.9574Z" fill="white"/>
<path d="M30.01 45.2084C33.28 41.1784 34.84 35.9084 34.12 30.7484C33.98 29.7584 33.69 28.6884 32.66 28.2984C31.69 27.9384 30.6 28.3584 29.97 29.1284C28.44 30.9984 28.79 34.2984 29.52 36.4184C30.18 38.3384 31.66 41.2784 34.12 40.8884C36.39 40.5284 38.4 38.3084 39.52 36.4284C40.64 34.5484 41.43 31.9684 41.08 29.7084C40.94 28.8184 40.27 27.9284 39.26 28.2284C38.25 28.5284 37.73 29.8984 37.31 30.7784C34.67 36.3784 33.96 42.7484 35.26 48.7984C35.44 49.6184 36.69 49.2684 36.51 48.4485C35.63 44.3384 35.73 40.0484 36.79 35.9784C37.32 33.9584 38.04 31.8684 39.12 30.0684C39.29 29.7784 39.5 29.2784 39.75 29.6684C39.92 29.9284 39.84 30.4885 39.84 30.7885C39.83 31.7785 39.65 32.7684 39.34 33.7084C38.77 35.4484 37.73 37.0284 36.35 38.2284C35.7 38.7984 34.9 39.4085 34.04 39.5785C32.82 39.8285 32.08 38.6084 31.55 37.6985C30.54 35.9784 30.1 33.9184 30.33 31.9284C30.43 31.0484 30.67 29.7384 31.68 29.4884C32.86 29.1984 32.88 30.9384 32.95 31.6984C33.34 36.1884 31.95 40.7684 29.11 44.2784C28.59 44.9184 29.5 45.8484 30.03 45.1985L30.01 45.2084Z" fill="white"/>
<path d="M37.4 53.2589C37.74 52.2989 38.26 51.2889 38.96 50.5489C39.54 49.9389 40.16 49.8389 40.95 49.6289C41.85 49.3889 42.73 49.0889 43.59 48.7189C46.97 47.2889 49.92 44.8889 51.94 41.8089C56.01 35.5989 55.77 27.2289 51.4 21.2289C47.05 15.2589 39.36 12.4189 32.18 14.2189C25 16.0189 19.52 22.1989 18.54 29.5389C17.96 33.9289 19.03 38.4789 21.52 42.1489C22.09 42.9889 22.74 43.7989 23.44 44.5289C23.83 44.9389 24.24 45.3289 24.67 45.6989C25.07 46.0389 25.56 46.3289 25.91 46.7189C26.76 47.6689 26.43 49.3089 26.01 50.3889C25.7 51.1689 26.96 51.5089 27.26 50.7389C27.62 49.8089 27.8 48.7289 27.68 47.7389C27.47 45.9789 26.04 45.2589 24.87 44.1289C22.08 41.4389 20.25 37.7989 19.79 33.9489C18.92 26.5989 23.04 19.4089 29.79 16.4089C36.54 13.4089 44.46 15.2389 49.29 20.6589C54.08 26.0289 54.93 34.1389 51.3 40.3689C49.3 43.8089 46.06 46.4489 42.33 47.8289C40.71 48.4289 38.98 48.4889 37.81 49.8889C37.08 50.7689 36.53 51.8289 36.15 52.9089C35.87 53.6989 37.13 54.0389 37.4 53.2589Z" fill="white"/>
<path d="M35.97 0.63C35.97 3.47 35.97 6.32 35.97 9.16H37.27V8.65C37.27 7.81 35.97 7.81 35.97 8.65V9.16C35.97 10 37.27 10 37.27 9.16C37.27 6.32 37.27 3.47 37.27 0.63C37.27 -0.21 35.97 -0.21 35.97 0.63Z" fill="white"/>
<path d="M11.62 9.36028C13.43 12.0103 15.24 14.6603 17.05 17.3103C17.52 18.0003 18.65 17.3503 18.17 16.6503C16.36 14.0003 14.55 11.3503 12.74 8.70028C12.27 8.01028 11.14 8.66028 11.62 9.36028Z" fill="white"/>
<path d="M0.45997 27.9317C4.53997 28.9417 8.60997 29.9517 12.69 30.9617C13.5 31.1617 13.85 29.9117 13.04 29.7117C8.95997 28.7017 4.88997 27.6917 0.80997 26.6817C-3.03984e-05 26.4817 -0.35003 27.7317 0.45997 27.9317Z" fill="white"/>
<path d="M58.74 29.8613C62.99 29.3713 67.27 29.1113 71.54 29.0813C72.38 29.0813 72.38 27.7713 71.54 27.7813C67.26 27.8113 62.99 28.0813 58.74 28.5613C57.92 28.6513 57.91 29.9613 58.74 29.8613Z" fill="white"/>
<path d="M53.44 16.8896C56.47 14.3096 59.62 11.8696 62.89 9.59965C63.57 9.12965 62.92 7.99965 62.23 8.47965C58.87 10.8196 55.63 13.3196 52.51 15.9696C51.87 16.5096 52.8 17.4296 53.43 16.8896H53.44Z" fill="white"/>
<path d="M54.41 46.5008C56.18 47.7308 57.95 48.9508 59.72 50.1808C59.97 50.3608 60.23 50.5308 60.48 50.7108C60.77 50.9108 61.2 50.7608 61.37 50.4808C61.56 50.1608 61.43 49.7908 61.14 49.5908C59.37 48.3608 57.6 47.1408 55.83 45.9108C55.58 45.7308 55.32 45.5608 55.07 45.3808C54.78 45.1808 54.35 45.3308 54.18 45.6108C53.99 45.9308 54.12 46.3008 54.41 46.5008Z" fill="white"/>
</g>
<defs>
<clipPath id="clip0_1554_11952">
<rect width="72.17" height="68.14" fill="white"/>
</clipPath>
</defs>
</svg>
