<svg width="71" height="55" viewBox="0 0 71 55" fill="none" xmlns="http://www.w3.org/2000/svg">
<g clip-path="url(#clip0_1554_11943)">
<path d="M47.9444 0H23.0556C10.3223 0 0 10.3509 0 23.1193C0 35.8878 10.3223 46.2386 23.0556 46.2386H47.9444C60.6777 46.2386 71 35.8878 71 23.1193C71 10.3509 60.6777 0 47.9444 0Z" fill="white"/>
<path d="M45.3337 42.9471L56.1943 55.0013V39.9336L45.3337 42.9471Z" fill="white"/>
<path d="M15.6991 26.8873C17.7754 26.8873 19.4586 25.1995 19.4586 23.1175C19.4586 21.0355 17.7754 19.3477 15.6991 19.3477C13.6229 19.3477 11.9397 21.0355 11.9397 23.1175C11.9397 25.1995 13.6229 26.8873 15.6991 26.8873Z" fill="#116DFF"/>
<path d="M35.4942 26.8873C37.5705 26.8873 39.2536 25.1995 39.2536 23.1175C39.2536 21.0355 37.5705 19.3477 35.4942 19.3477C33.4179 19.3477 31.7347 21.0355 31.7347 23.1175C31.7347 25.1995 33.4179 26.8873 35.4942 26.8873Z" fill="#116DFF"/>
<path d="M55.3008 26.8873C57.3771 26.8873 59.0603 25.1995 59.0603 23.1175C59.0603 21.0355 57.3771 19.3477 55.3008 19.3477C53.2245 19.3477 51.5414 21.0355 51.5414 23.1175C51.5414 25.1995 53.2245 26.8873 55.3008 26.8873Z" fill="#116DFF"/>
</g>
<defs>
<clipPath id="clip0_1554_11943">
<rect width="71" height="55" fill="white"/>
</clipPath>
</defs>
</svg>
