<svg width="156" height="92" viewBox="0 0 156 92" fill="none" xmlns="http://www.w3.org/2000/svg">
<g clip-path="url(#clip0_1554_11981)">
<path d="M34.5 78.1811L20.59 74.3011L36.58 31.6211L50.49 35.5011L34.5 78.1811Z" fill="#80E51F"/>
<path d="M61.51 85.3706L47.59 81.4906L71.89 16.6406L85.8 20.5206L61.51 85.3706Z" fill="#80E51F"/>
<path d="M87.75 91.9798L73.84 88.0998L91.74 40.3398L105.65 44.2198L87.75 91.9798Z" fill="#80E51F"/>
<path d="M4.91001 40.8404C13.75 36.0904 22.58 31.3304 31.42 26.5804C40.3 21.8004 49.18 17.0304 58.06 12.2504C63.05 9.56041 68.05 6.88042 73.04 4.19042L72.31 3.89042C77.77 18.4204 83.23 32.9604 88.69 47.4904C90.23 51.5804 91.76 55.6704 93.3 59.7504C93.39 59.9904 93.64 60.1904 93.92 60.1004C109.02 54.8504 123.9 48.9804 138.51 42.5004C142.63 40.6704 146.73 38.7904 150.8 36.8704C151.38 36.6004 150.87 35.7304 150.3 36.0104C135.92 42.8004 121.26 48.9904 106.36 54.5604C102.14 56.1404 97.91 57.6604 93.65 59.1404L94.27 59.4904C88.81 44.9604 83.35 30.4204 77.89 15.8904C76.35 11.8004 74.82 7.71042 73.28 3.63042C73.16 3.32042 72.85 3.17042 72.55 3.33042C63.71 8.08042 54.88 12.8404 46.04 17.5904C37.16 22.3704 28.28 27.1404 19.4 31.9204L4.42001 39.9804C3.85001 40.2804 4.36001 41.1504 4.92001 40.8404H4.91001Z" fill="white"/>
<path d="M72.83 7.7C75.2987 7.7 77.3 5.9763 77.3 3.85C77.3 1.7237 75.2987 0 72.83 0C70.3613 0 68.36 1.7237 68.36 3.85C68.36 5.9763 70.3613 7.7 72.83 7.7Z" fill="#00A8F2"/>
<path d="M94.43 63.0711C96.8987 63.0711 98.9 61.3474 98.9 59.2211C98.9 57.0948 96.8987 55.3711 94.43 55.3711C91.9613 55.3711 89.96 57.0948 89.96 59.2211C89.96 61.3474 91.9613 63.0711 94.43 63.0711Z" fill="#FFE131"/>
<path d="M151.22 40.3016C153.689 40.3016 155.69 38.5779 155.69 36.4516C155.69 34.3253 153.689 32.6016 151.22 32.6016C148.751 32.6016 146.75 34.3253 146.75 36.4516C146.75 38.5779 148.751 40.3016 151.22 40.3016Z" fill="#00A8F2"/>
<path d="M4.47 44.2703C6.93871 44.2703 8.94 42.5466 8.94 40.4203C8.94 38.294 6.93871 36.5703 4.47 36.5703C2.00129 36.5703 0 38.294 0 40.4203C0 42.5466 2.00129 44.2703 4.47 44.2703Z" fill="#FFE131"/>
</g>
<defs>
<clipPath id="clip0_1554_11981">
<rect width="155.69" height="91.98" fill="white"/>
</clipPath>
</defs>
</svg>
