<svg width="123" height="109" viewBox="0 0 123 109" fill="none" xmlns="http://www.w3.org/2000/svg">
<g clip-path="url(#clip0_1630_11395)">
<path d="M57.7884 108.997C57.6042 108.997 57.42 108.951 57.2511 108.859L0.552713 76.8414C0.284037 76.6881 0.092125 76.4275 0.0230368 76.1286C-0.0460514 75.8296 0.0230368 75.5153 0.199596 75.2624L28.8865 35.495C29.1168 35.1731 29.5083 35.0044 29.9075 35.0504C30.299 35.1041 30.6368 35.3647 30.7826 35.7326L58.7941 107.518C58.9629 107.947 58.8401 108.43 58.4947 108.729C58.2951 108.905 58.0418 108.997 57.7808 108.997H57.7884ZM2.67909 75.5537L55.6697 105.471L29.4853 38.3848L2.67909 75.5537Z" fill="#043B99"/>
<path d="M58.3412 108.853L57.2357 106.983L120.551 69.7145L93.0157 2.62046L30.299 37.0835L29.2473 35.1825L93.0388 0.136916C93.3074 -0.00872391 93.6299 -0.039385 93.9216 0.0679287C94.2133 0.167577 94.4512 0.38987 94.5664 0.681149L122.916 69.7681C123.123 70.2664 122.931 70.8413 122.463 71.1172L58.3412 108.861V108.853Z" fill="#043B99"/>
<path d="M4.41979 72.916L0.577454 74.9414L1.59166 76.8598L5.43399 74.8343L4.41979 72.916Z" fill="#043B99"/>
<path d="M13.1959 70.7441L12.1826 68.8277L19.9435 64.7422L20.9568 66.6585L13.1959 70.7441ZM28.71 62.5652L27.6967 60.6489L35.4576 56.5633L36.4709 58.4796L28.71 62.5729V62.5652ZM44.2318 54.3864L43.2185 52.4701L50.9794 48.3768L51.9927 50.2931L44.2318 54.3864ZM59.746 46.2076L58.7327 44.2912L66.4936 40.198L67.5069 42.1143L59.746 46.1999V46.2076ZM72.9188 34.6637L71.0994 33.4756L75.8896 26.1399L77.7089 27.328L72.9188 34.6637ZM82.5067 19.9847L80.6873 18.7966L85.4851 11.4609L87.3045 12.6491L82.5067 19.9847Z" fill="#043B99"/>
<path d="M92.649 0.492593L90.273 4.125L92.0919 5.31123L94.4678 1.67882L92.649 0.492593Z" fill="#043B99"/>
<path d="M68.0896 39.9L67.057 41.8086L70.8796 43.8708L71.9122 41.9622L68.0896 39.9Z" fill="#043B99"/>
<path d="M110.902 65.4575L104.231 61.8548L105.267 59.9461L111.938 63.5488L110.902 65.4575ZM97.5602 58.2598L90.8894 54.6571L91.9257 52.7485L98.5965 56.3511L97.5602 58.2598ZM84.2262 51.0621L77.5553 47.4594L78.5917 45.5508L85.2625 49.1535L84.2262 51.0621Z" fill="#043B99"/>
<path d="M118.611 67.1541L117.578 69.0625L121.401 71.1253L122.434 69.217L118.611 67.1541Z" fill="#043B99"/>
</g>
<defs>
<clipPath id="clip0_1630_11395">
<rect width="123" height="109" fill="white"/>
</clipPath>
</defs>
</svg>
