<svg width="217" height="144" viewBox="0 0 217 144" fill="none" xmlns="http://www.w3.org/2000/svg">
<g clip-path="url(#clip0_1554_11932)">
<path d="M17.5301 9.86151L0.389648 18.4375L14.1779 45.9954L31.3183 37.4194L17.5301 9.86151Z" fill="#072B65"/>
<path d="M31.316 37.419L14.1799 45.993L13.9917 65.0583C13.9115 72.9853 17.1594 80.5724 22.9412 85.9953L51.4818 112.756L55.6471 110.667L38.6498 76.6919C35.9567 77.2931 33.095 75.9251 31.9729 73.2135C30.8508 70.5019 32.035 67.141 34.6889 65.7732C37.5956 64.2681 41.1707 65.4414 42.6307 68.3504C43.8528 70.8083 43.1984 73.7013 41.2062 75.4082L58.2035 109.383L62.3688 107.294L58.0725 68.4076C57.2058 60.5291 53.0763 53.3827 46.6877 48.6916L31.3154 37.4077L31.316 37.419Z" fill="white"/>
<path d="M58.9866 118.943C63.5624 129.288 72.5581 137.439 84.0552 138.818C95.5524 140.196 106.74 135.317 114.53 126.972C118.323 122.913 121.355 118.112 123.512 112.995C125.829 107.485 127.358 101.134 125.318 95.2824C123.608 90.363 119.553 86.434 114.197 86.03C108.842 85.626 103.531 88.7348 100.508 93.2748C94.4207 102.414 96.1399 115.244 102.432 123.794C109.453 133.336 121.617 136.703 133 136.278C145.036 135.831 156.703 131.256 166.488 124.358C176.273 117.46 184.152 108.207 190.462 98.1073C197.053 87.5526 202.191 75.9761 205.843 64.0912C209.496 52.2064 211.712 38.9823 211.405 26.1361C211.334 22.9864 211.105 19.8447 210.742 16.71C210.637 15.7773 209.171 15.841 209.276 16.7851C210.689 28.9305 209.827 41.2263 207.204 53.1488C204.582 65.0713 200.36 76.4314 194.889 87.2226C189.776 97.306 183.461 106.852 175.44 114.869C167.419 122.886 157.451 129.307 146.44 132.561C135.718 135.732 123.215 136.112 113.047 130.902C103.623 126.073 97.7573 115.93 98.2329 105.349C98.4713 100.07 100.394 94.5691 104.39 90.9513C108.387 87.3334 114.565 86.1468 119.119 89.2253C123.673 92.3037 125.242 98.2136 124.661 103.431C124.034 109.069 121.546 114.554 118.547 119.33C112.809 128.462 103.68 135.586 92.846 137.226C87.3501 138.05 81.5933 137.531 76.4607 135.296C71.328 133.061 67.3974 129.577 64.2616 125.285C62.718 123.171 61.4144 120.887 60.3535 118.489C59.9709 117.638 58.5809 118.082 58.9646 118.955L58.9866 118.943Z" fill="white"/>
<path d="M62.2944 113.112L54.4352 117.559L58.8818 125.418L66.7411 120.971L62.2944 113.112Z" fill="white"/>
<path d="M23.0197 143.16C25.8337 143.016 27.9981 140.618 27.8541 137.804C27.71 134.99 25.312 132.826 22.498 132.97C19.6839 133.114 17.5195 135.512 17.6635 138.326C17.8076 141.14 20.2056 143.304 23.0197 143.16Z" fill="white"/>
<path d="M96.9822 106.52C99.7962 106.375 101.961 103.977 101.817 101.163C101.673 98.3494 99.2746 96.185 96.4605 96.329C93.6465 96.4731 91.482 98.8711 91.6261 101.685C91.7701 104.499 94.1681 106.664 96.9822 106.52Z" fill="white"/>
<path d="M22.7587 138.062L97.4264 101.067" stroke="white" stroke-width="1.12875" stroke-miterlimit="10"/>
</g>
<defs>
<clipPath id="clip0_1554_11932">
<rect width="210.41" height="133.407" fill="white" transform="translate(0 10.7578) rotate(-2.93053)"/>
</clipPath>
</defs>
</svg>
