<svg width="816" height="54" viewBox="0 0 816 54" fill="none" xmlns="http://www.w3.org/2000/svg">
<mask id="path-1-inside-1_1493_10876" fill="white">
<path d="M0 0H816V54H0V0Z"/>
</mask>
<path d="M0 1H816V-1H0V1ZM816 51H0V57H816V51Z" fill="#475574" mask="url(#path-1-inside-1_1493_10876)"/>
<rect x="20.5" y="16.5" width="21" height="21" rx="10.5" fill="#F4F6FA"/>
<rect x="20.5" y="16.5" width="21" height="21" rx="10.5" stroke="#475574"/>
<rect x="46.5" y="16.5" width="21" height="21" rx="10.5" fill="#F4F6FA"/>
<rect x="46.5" y="16.5" width="21" height="21" rx="10.5" stroke="#475574"/>
<path d="M85.8691 30.3105H83.6191V18.6387H85.8691V30.3105ZM72.4219 26.3555C73.2832 26.0684 74.001 25.6523 74.5752 25.1074C75.1494 24.5566 75.5742 23.9326 75.8496 23.2354C76.1309 22.5381 76.2715 21.8145 76.2715 21.0645V19.5176H78.6094V21.0645C78.6035 21.7969 78.7324 22.4941 78.9961 23.1562C79.2656 23.8125 79.6816 24.3984 80.2441 24.9141C80.8066 25.4297 81.5098 25.8223 82.3535 26.0918L81.2109 27.8496C80.3262 27.5566 79.5703 27.1289 78.9434 26.5664C78.3164 25.998 77.8184 25.3213 77.4492 24.5361C77.0742 25.3799 76.5615 26.1123 75.9111 26.7334C75.2666 27.3545 74.4902 27.8203 73.582 28.1309L72.4219 26.3555ZM75.1465 29.1855H77.4141V32.543H86.291V34.3359H75.1465V29.1855ZM102.656 28.3066H96.627V31.0664H94.4121V28.3066H88.0137V26.5312H102.656V28.3066ZM89.7363 29.6777H91.9688V32.543H101.039V34.3359H89.7363V29.6777ZM89.8418 19.3242H100.775V25.2129H89.8418V19.3242ZM98.5781 23.4727V21.0645H92.0391V23.4727H98.5781Z" fill="#373F57"/>
<rect x="540.5" y="16.5" width="21" height="21" rx="10.5" fill="#F4F6FA"/>
<rect x="540.5" y="16.5" width="21" height="21" rx="10.5" stroke="#475574"/>
<rect x="564.5" y="16.5" width="21" height="21" rx="10.5" fill="#F4F6FA"/>
<rect x="564.5" y="16.5" width="21" height="21" rx="10.5" stroke="#475574"/>
<rect x="588.5" y="16.5" width="21" height="21" rx="10.5" fill="#F4F6FA"/>
<rect x="588.5" y="16.5" width="21" height="21" rx="10.5" stroke="#475574"/>
<rect x="612.5" y="16.5" width="21" height="21" rx="10.5" fill="#F4F6FA"/>
<rect x="612.5" y="16.5" width="21" height="21" rx="10.5" stroke="#475574"/>
<path d="M649.957 30.3984H647.725V25.1602H643.752V23.4023H647.725V22.1719H643.752V20.4141H647.725V18.6387H649.957V30.3984ZM637.371 19.6406H639.586V26.4785C640.635 26.4668 641.625 26.4229 642.557 26.3467C643.488 26.2646 644.426 26.1387 645.369 25.9688L645.598 27.7793C644.49 27.9902 643.397 28.1338 642.319 28.21C641.247 28.2803 640.025 28.3184 638.654 28.3242H637.371V19.6406ZM639.322 29.3438H641.572V32.543H650.344V34.3359H639.322V29.3438Z" fill="#373F57"/>
<rect x="660.5" y="16.5" width="21" height="21" rx="10.5" fill="#F4F6FA"/>
<rect x="660.5" y="16.5" width="21" height="21" rx="10.5" stroke="#475574"/>
<rect x="684.5" y="16.5" width="21" height="21" rx="10.5" fill="#F4F6FA"/>
<rect x="684.5" y="16.5" width="21" height="21" rx="10.5" stroke="#475574"/>
<path d="M722.027 27.9023H719.777V27.3926H716.877V26.0391H719.777V18.6387H722.027V27.9023ZM709.485 24.2637C711.249 24.2637 712.898 24.2402 714.434 24.1934C715.975 24.1465 717.439 24.0586 718.828 23.9297L718.934 25.3184C717.609 25.4883 716.18 25.6172 714.645 25.7051V27.9375H712.43V25.7842C711.656 25.8076 710.81 25.8193 709.89 25.8193L708.703 25.8105L708.475 24.2637H709.485ZM709.564 21.2578C709.564 20.7832 709.731 20.3643 710.065 20.001C710.405 19.6377 710.88 19.3564 711.489 19.1572C712.104 18.9521 712.816 18.8496 713.625 18.8496C714.41 18.8496 715.107 18.9521 715.717 19.1572C716.326 19.3564 716.801 19.6377 717.141 20.001C717.48 20.3643 717.65 20.7832 717.65 21.2578C717.65 21.7441 717.48 22.1689 717.141 22.5322C716.801 22.8955 716.326 23.1738 715.717 23.3672C715.113 23.5547 714.416 23.6484 713.625 23.6484C712.816 23.6484 712.104 23.5547 711.489 23.3672C710.88 23.1738 710.405 22.8955 710.065 22.5322C709.731 22.1689 709.564 21.7441 709.564 21.2578ZM710.76 28.377H722.027V32.1211H713.027V32.9473H722.396V34.5117H710.83V30.6797H719.795V29.8887H710.76V28.377ZM711.691 21.2578C711.686 21.5508 711.853 21.7793 712.192 21.9434C712.538 22.1016 713.016 22.1836 713.625 22.1895C714.223 22.1836 714.691 22.1016 715.031 21.9434C715.377 21.7793 715.553 21.5508 715.559 21.2578C715.553 20.9707 715.38 20.7451 715.04 20.5811C714.706 20.4111 714.249 20.3262 713.669 20.3262C713.042 20.3262 712.553 20.4082 712.201 20.5723C711.855 20.7305 711.686 20.959 711.691 21.2578Z" fill="#373F57"/>
<rect x="732.5" y="16.5" width="21" height="21" rx="10.5" fill="#F4F6FA"/>
<rect x="732.5" y="16.5" width="21" height="21" rx="10.5" stroke="#475574"/>
<rect x="756.5" y="16.5" width="21" height="21" rx="10.5" fill="#F4F6FA"/>
<rect x="756.5" y="16.5" width="21" height="21" rx="10.5" stroke="#475574"/>
<path d="M785.027 19.0957C785.83 19.0957 786.557 19.251 787.207 19.5615C787.857 19.8721 788.367 20.3057 788.736 20.8623C789.111 21.4189 789.299 22.0488 789.299 22.752C789.299 23.4492 789.111 24.0732 788.736 24.624C788.367 25.1748 787.857 25.6084 787.207 25.9248C786.557 26.2354 785.83 26.3906 785.027 26.3906C784.213 26.3906 783.478 26.2354 782.821 25.9248C782.165 25.6084 781.649 25.1748 781.274 24.624C780.905 24.0732 780.721 23.4492 780.721 22.752C780.721 22.0488 780.905 21.4189 781.274 20.8623C781.649 20.3057 782.165 19.8721 782.821 19.5615C783.478 19.251 784.213 19.0957 785.027 19.0957ZM782.9 22.752C782.895 23.127 782.982 23.4521 783.164 23.7275C783.346 23.9971 783.598 24.2051 783.92 24.3516C784.242 24.498 784.611 24.5742 785.027 24.5801C785.432 24.5742 785.792 24.498 786.108 24.3516C786.431 24.2051 786.683 23.9971 786.864 23.7275C787.046 23.4521 787.137 23.127 787.137 22.752C787.137 22.377 787.046 22.0518 786.864 21.7764C786.683 21.501 786.431 21.29 786.108 21.1436C785.792 20.9971 785.432 20.9238 785.027 20.9238C784.617 20.9238 784.248 20.9971 783.92 21.1436C783.598 21.29 783.346 21.501 783.164 21.7764C782.982 22.0518 782.895 22.377 782.9 22.752ZM783.129 27.3047H793.869V31.6465H785.361V32.6836H794.309V34.4414H783.164V30.0117H791.637V29.0273H783.129V27.3047ZM791.619 18.6211H793.869V26.6367H791.619V18.6211Z" fill="#373F57"/>
</svg>
