<svg width="100" height="94" viewBox="0 0 100 94" fill="none" xmlns="http://www.w3.org/2000/svg">
<path d="M57.3996 94C76.5248 93.1344 91.3943 81.394 97.1933 63.0481C103.169 44.1613 100.273 17.4506 81.9663 6.46856C61.7194 -5.67131 33.3745 0.186703 17.1528 16.4604C3.84835 29.8143 -6.22812 53.3853 4.54013 71.1319C11.0764 81.8891 24.7822 88.8672 36.8605 90.6689C50.3229 92.6846 63.1935 88.6108 74.728 81.8874C77.145 80.4866 75.5242 76.8866 72.8984 77.4681C61.2703 80.0322 48.9515 84.175 36.9506 81.9647C25.1459 79.791 11.2069 71.6692 8.82544 58.9928C4.70295 37.0558 24.2402 15.3619 44.0007 9.8023C56.9121 6.16839 72.9585 7.2254 83.4783 16.3511C91.9887 23.7443 94.7894 37.1057 94.7439 48.0163C94.6332 70.15 79.7413 88.9759 57.3764 91.1792C55.6181 91.3585 55.5765 94.0664 57.4036 93.9851L57.3996 94Z" fill="#FF1286"/>
</svg>
