<svg width="72" height="72" viewBox="0 0 72 72" fill="none" xmlns="http://www.w3.org/2000/svg">
<g clip-path="url(#clip0_5139_14625)">
<path d="M36 72C55.8823 72 72 55.8823 72 36C72 16.1178 55.8823 0 36 0C16.1178 0 0 16.1178 0 36C0 55.8823 16.1178 72 36 72Z" fill="#FFDC00"/>
<path d="M72.0017 36.0002C72.0017 55.8915 55.8823 72.0002 36.0017 72.0002C23.2674 72.0002 12.0698 65.3912 5.67578 55.408C12.274 62.9411 21.9779 67.7017 32.7779 67.7017C52.6585 67.7017 68.7779 51.593 68.7779 31.7017C68.7779 24.5662 66.7038 17.9142 63.1146 12.3154C68.6489 18.645 72.0017 26.9304 72.0017 36.0002Z" fill="#FFB400"/>
<path d="M20.3222 20.3855C23.0732 20.3533 25.6953 21.3312 27.7801 23.7814C31.3909 28.0261 29.6929 30.3473 28.8225 29.09C27.1783 26.7366 24.3628 23.8243 20.5049 24.007C16.0667 24.2112 14.2291 26.9945 12.8213 29.133C12.2518 30.0034 10.887 29.4554 11.7789 26.9837C13.4661 22.3199 17.5604 20.4178 20.3222 20.3963V20.3855Z" fill="#401800"/>
<path d="M51.68 20.3855C48.9289 20.3533 46.3068 21.3312 44.2221 23.7814C40.6113 28.0261 42.3092 30.3473 43.1797 29.09C44.8239 26.7366 47.6394 23.8243 51.4973 24.007C55.9355 24.2112 57.7731 26.9945 59.1809 29.133C59.7504 30.0034 61.1152 29.4554 60.2233 26.9837C58.5361 22.3199 54.4418 20.4178 51.68 20.3963V20.3855Z" fill="#401800"/>
<path d="M16.7651 48.5087C20.2727 48.5087 23.1162 45.6653 23.1162 42.1577C23.1162 38.6501 20.2727 35.8066 16.7651 35.8066C13.2575 35.8066 10.4141 38.6501 10.4141 42.1577C10.4141 45.6653 13.2575 48.5087 16.7651 48.5087Z" fill="#FFAA00"/>
<path d="M55.2378 48.5087C58.7453 48.5087 61.5888 45.6653 61.5888 42.1577C61.5888 38.6501 58.7453 35.8066 55.2378 35.8066C51.7302 35.8066 48.8867 38.6501 48.8867 42.1577C48.8867 45.6653 51.7302 48.5087 55.2378 48.5087Z" fill="#FFAA00"/>
<path d="M51.5519 43.1572C51.5519 48.1113 49.2522 52.528 45.6414 55.3757C45.6414 55.3865 45.6092 55.3972 45.5984 55.408C42.9548 57.482 39.6127 58.7178 35.9913 58.7178C32.3698 58.7178 29.0384 57.482 26.3948 55.408C26.3948 55.408 26.3877 55.4044 26.3733 55.3972C22.7519 52.5387 20.4414 48.122 20.4414 43.1572H51.5519Z" fill="#401800"/>
<path d="M45.5991 55.3975C42.9662 57.4715 39.6134 58.7181 36.0027 58.7181C32.3919 58.7181 29.0391 57.4823 26.4062 55.3975C27.4916 51.5288 32.983 49.3151 36.0027 52.9688C38.8397 49.3473 44.5137 51.5288 45.5991 55.3975Z" fill="#CC0A17"/>
</g>
<defs>
<clipPath id="clip0_5139_14625">
<rect width="72" height="72" fill="white"/>
</clipPath>
</defs>
</svg>
