<svg width="41" height="40" viewBox="0 0 41 40" fill="none" xmlns="http://www.w3.org/2000/svg">
<path d="M13.1376 17.3386C12.9876 15.8671 13.1501 16.4581 12.6188 15.0666C11.7624 16.1688 12.0687 15.7932 11.4374 16.4828C11.3124 16.2303 11.0811 15.9779 11.0749 15.7193C11.0561 14.925 11.1374 14.1184 9.89352 14.6048C9.78726 14.6479 9.59349 14.6418 9.51223 14.574C8.51839 13.7059 7.72456 12.6468 6.64946 11.8341C5.89939 11.2676 5.44935 10.2886 4.9368 9.45127C4.17423 8.20752 3.3304 6.97608 2.79285 5.63382C1.87401 3.34335 6.34943 1.15139 8.78716 3.71894C9.33096 4.29155 9.52473 5.20897 10.4436 4.18688C13.3188 6.71748 14.4502 7.48713 15.4003 8.44765C15.7316 8.78014 15.3815 10.1532 16.5191 9.06337C18.2068 10.7935 17.6005 10.2271 18.7694 10.9598C18.8881 11.0337 19.0756 11.0891 19.1131 11.1938C19.5257 12.3882 19.6132 11.7048 20.3945 11.3477C21.6009 10.7997 21.8384 9.90074 22.476 9.09415C23.1635 8.21983 24.5511 8.27525 25.0887 6.82831C25.5575 5.54762 26.9826 4.59941 27.9952 3.50959C28.0952 3.40492 28.2452 3.34335 28.3703 3.2633C28.5765 3.78667 28.4765 3.52191 28.7453 4.24845C29.5454 3.78667 28.6453 4.45164 30.7267 2.40746C30.7955 2.33973 31.083 2.33973 31.108 2.38899C31.7706 3.70047 32.3519 2.73379 32.4706 2.19811C32.8769 0.350959 34.9209 1.07135 35.771 0C36.1085 0.886634 35.946 0.418688 36.396 1.7548C37.6711 1.18834 37.1898 1.44694 38.2149 0.738862C38.4024 1.87178 38.2274 1.7979 39.7838 1.93335C39.2275 4.02064 39.0088 2.91235 39.1213 4.2854C39.7338 3.94675 39.4838 4.0699 40.0651 3.83592C40.1151 4.02064 40.2714 4.26077 40.2089 4.38391C39.3775 5.87395 38.5587 7.3763 37.6399 8.82324C37.1086 9.66061 35.6334 9.70371 35.6772 11.1753C35.6834 11.4708 34.5083 11.8033 33.8833 12.1235C33.5457 12.2959 33.1957 12.4437 32.8894 12.653C32.5706 12.8747 32.8394 14.1123 31.8706 13.2071C31.8456 13.1825 31.7518 13.1948 31.7268 13.2256C31.0455 14.0322 30.3829 14.8573 29.6954 15.6577C29.1141 16.3288 28.2827 16.883 27.964 17.6526C27.7139 18.256 28.0515 19.118 28.2265 19.8384C28.264 19.9924 29.5579 19.8507 29.6141 19.98C31.308 23.582 30.4017 22.2705 31.8331 23.3911C32.0331 23.5451 32.2706 23.6867 32.4019 23.8899C32.8707 24.6226 33.2082 25.4599 33.7708 26.1003C34.102 26.4697 34.8584 26.4512 35.2709 26.7837C35.6772 27.1162 35.8647 27.695 36.196 28.126C36.771 28.871 37.4774 29.5298 37.9462 30.3303C38.1712 30.7059 37.9462 31.3216 38.0087 31.8203C38.0462 32.1282 38.2212 32.4176 38.3337 32.7131C39.0963 32.3437 38.5587 32.5469 40.2714 31.9311C40.3526 32.5284 40.4964 33.1256 40.4964 33.7229C40.5089 37.959 40.5589 38.3161 39.19 39.5968C38.915 39.8554 37.7399 39.3875 37.3836 39.4614C36.6648 39.6091 35.9647 39.8431 35.2396 39.917C35.0709 39.9355 34.9021 39.369 34.6396 39.2151C34.3333 39.0365 33.927 39.0365 33.577 38.9134C31.7956 38.2915 31.7831 38.193 31.1455 37.8913C31.0518 37.8482 30.8955 37.8728 30.858 37.8051C30.3454 36.98 29.9392 36.0749 29.3266 35.3299C28.8203 34.7203 28.0202 34.3509 27.4702 33.766C27.2076 33.4827 27.2576 32.9348 27.1139 32.5222C26.9951 32.1774 26.7951 31.8572 26.6326 31.5248C26.3701 31.6848 26.095 31.9742 25.845 31.9619C25.5387 31.9496 25.1449 31.7403 24.9699 31.494C23.8948 29.9793 22.9135 28.4092 21.8196 26.9069C21.3383 26.2481 19.2131 26.6667 18.6756 27.2948C18.3318 27.695 17.5755 27.7381 17.2192 28.126C16.3254 29.0927 15.5628 30.1763 14.719 31.1923C14.619 31.3093 13.7689 31.2785 13.7189 31.4078C13.5251 31.9127 13.4313 32.4545 13.1938 32.9348C13.1001 33.1195 12.7063 33.1503 12.475 33.2857C11.1749 34.0184 10.0873 36.2719 8.23086 37.5834C7.08075 38.39 5.58686 38.6055 4.47426 39.7754C4.02422 40.2495 2.22405 39.8985 1.32396 39.4121C0.330118 38.8703 0.223858 36.2658 1.06769 35.8656C3.38041 34.7634 1.43022 33.0271 2.54283 31.0938C2.87411 30.5088 3.2929 29.9732 3.67418 29.419C3.68668 29.4005 3.67418 29.3513 3.68668 29.3451C4.8993 28.8402 5.29309 27.7135 5.92439 26.6975C6.5432 25.7001 8.09335 25.4353 8.16836 23.8652C8.19336 23.2988 8.42463 22.0735 9.7185 22.8555C9.78726 22.8986 10.2498 22.3075 10.5248 22.0058C10.8436 21.6548 10.2498 19.9739 11.6937 21.23C11.7687 21.2915 12.1125 21.1807 12.2187 21.0576C14.7752 18.1206 14.1627 18.6809 14.3189 17.5418C14.0252 17.5787 13.7126 17.6834 13.4376 17.6218C13.2501 17.5787 13.1188 17.2955 13.1626 17.3386H13.1376ZM10.7623 33.2118C10.6311 33.181 10.4998 33.1564 10.3686 33.1256C10.2561 33.6675 10.1435 34.2154 10.0373 34.7573L10.3561 34.825C10.4936 34.2832 10.6311 33.7475 10.7623 33.2057V33.2118ZM39.6713 33.3596C39.6088 33.3781 39.5463 33.3904 39.4838 33.4089C39.5151 33.5689 39.5401 33.7352 39.5713 33.8953C39.6338 33.8706 39.7588 33.8399 39.7588 33.8214C39.7463 33.6675 39.7088 33.5135 39.6776 33.3596H39.6713Z" fill="#FF5656"/>
</svg>
