<svg width="72" height="72" viewBox="0 0 72 72" fill="none" xmlns="http://www.w3.org/2000/svg">
<g clip-path="url(#clip0_5139_14642)">
<path d="M36 72C55.8823 72 72 55.8823 72 36C72 16.1178 55.8823 0 36 0C16.1178 0 0 16.1178 0 36C0 55.8823 16.1178 72 36 72Z" fill="#FFDC00"/>
<path d="M72.0017 36.0002C72.0017 55.8915 55.8823 72.0002 36.0017 72.0002C23.2674 72.0002 12.0698 65.3912 5.67578 55.408C12.274 62.9411 21.9779 67.7017 32.7779 67.7017C52.6585 67.7017 68.7779 51.593 68.7779 31.7017C68.7779 24.5662 66.7038 17.9142 63.1146 12.3154C68.6489 18.645 72.0017 26.9304 72.0017 36.0002Z" fill="#FFB400"/>
<path d="M23.4464 48.1548C23.4464 48.1548 23.4894 48.1333 23.5002 48.1225C26.9175 45.7369 31.2267 44.3076 35.9014 44.3076C40.576 44.3076 44.7993 45.8228 48.2918 48.1225C54.3312 52.0879 52.4184 54.8282 50.4948 53.8396C50.4733 53.8288 50.4626 53.8396 50.4518 53.8288C46.4435 51.6473 41.382 49.6485 35.9014 49.6485C30.4208 49.6485 25.413 51.8193 21.3509 53.8288C21.3187 53.8396 21.2972 53.8503 21.2864 53.861C19.4811 54.8282 17.9444 52.3136 23.4464 48.1548Z" fill="#401800"/>
<path d="M55.7909 27.2849C55.7909 31.0998 53.5557 34.2055 50.7939 34.2055C48.0321 34.2055 45.7969 31.1105 45.7969 27.2849C45.7969 23.4592 48.0321 20.3643 50.7939 20.3643C53.5557 20.3643 55.7909 23.4592 55.7909 27.2849Z" fill="#542000"/>
<path d="M55.7907 27.2851C55.7907 31.1108 53.5555 34.2057 50.7937 34.2057C48.7519 34.2057 46.9895 32.5078 46.2266 30.0791C47.1185 31.3042 48.3651 32.0564 49.7191 32.0564C52.4809 32.0564 54.7161 28.9615 54.7161 25.1358C54.7161 24.1364 54.5657 23.1908 54.2755 22.3311C55.2104 23.5884 55.7907 25.34 55.7907 27.2851Z" fill="#401800"/>
<path d="M26.1972 27.2849C26.1972 31.0998 23.9619 34.2055 21.2001 34.2055C18.4383 34.2055 16.2031 31.1105 16.2031 27.2849C16.2031 23.4592 18.4383 20.3643 21.2001 20.3643C23.9619 20.3643 26.1972 23.4592 26.1972 27.2849Z" fill="#542000"/>
<path d="M26.197 27.2851C26.197 31.1108 23.9618 34.2057 21.2 34.2057C19.1582 34.2057 17.3958 32.5078 16.6328 30.0791C17.5248 31.3042 18.7713 32.0564 20.1253 32.0564C22.8871 32.0564 25.1224 28.9615 25.1224 25.1358C25.1224 24.1364 24.9719 23.1908 24.6818 22.3311C25.6167 23.5884 26.197 25.34 26.197 27.2851Z" fill="#401800"/>
<path d="M13.3455 20.8266C11.7013 22.3848 10.358 21.5036 11.3252 19.752C13.1091 16.5604 15.9461 13.401 19.3741 11.7675C21.201 10.8863 22.5873 11.1872 23.2428 12.0039C23.8983 12.8207 24.4141 14.5616 21.3944 15.7974C17.8696 17.2266 15.4947 18.7956 13.3455 20.8374V20.8266Z" fill="#FFAA00"/>
<path d="M58.6535 20.8266C60.2976 22.3848 61.6409 21.5036 60.6738 19.752C58.8899 16.5604 56.0529 13.401 52.6248 11.7675C50.7979 10.8863 49.4117 11.1872 48.7561 12.0039C48.1006 12.8207 47.5848 14.5616 50.6045 15.7974C54.1293 17.2266 56.5042 18.7956 58.6535 20.8374V20.8266Z" fill="#FFAA00"/>
</g>
<defs>
<clipPath id="clip0_5139_14642">
<rect width="72" height="72" fill="white"/>
</clipPath>
</defs>
</svg>
