<svg width="17" height="17" viewBox="0 0 17 17" fill="none" xmlns="http://www.w3.org/2000/svg">
<path d="M16.5 10.0484H0.5V6.95155H16.5V10.0484ZM6.03846 14.6609C6.03846 14.2545 6.14672 13.8756 6.36325 13.5242C6.59117 13.1618 6.89316 12.8763 7.26923 12.6676C7.6453 12.459 8.05556 12.3547 8.5 12.3547C8.92165 12.3547 9.31481 12.459 9.67949 12.6676C10.0556 12.8763 10.3519 13.1618 10.5684 13.5242C10.7849 13.8756 10.8932 14.2545 10.8932 14.6609C10.8932 15.0782 10.7849 15.468 10.5684 15.8304C10.3519 16.1928 10.0613 16.4784 9.69658 16.687C9.3433 16.8957 8.95584 17 8.53419 17C8.08974 17 7.67379 16.8957 7.28632 16.687C6.91026 16.4784 6.60826 16.1983 6.38034 15.8469C6.15242 15.4845 6.03846 15.0891 6.03846 14.6609ZM6.03846 2.27326C6.03846 1.86693 6.14672 1.49354 6.36325 1.1531C6.59117 0.80168 6.88746 0.521641 7.25214 0.312985C7.62821 0.104328 8.03276 0 8.46581 0C8.89886 0 9.29772 0.104328 9.66239 0.312985C10.0385 0.510659 10.3348 0.785207 10.5513 1.13663C10.7792 1.47707 10.8932 1.85594 10.8932 2.27326C10.8932 2.70155 10.7849 3.0969 10.5684 3.4593C10.3519 3.81072 10.0613 4.09076 9.69658 4.29942C9.3433 4.50807 8.95584 4.6124 8.53419 4.6124C8.07835 4.6124 7.66239 4.51357 7.28632 4.31589C6.91026 4.10724 6.60826 3.8272 6.38034 3.47578C6.15242 3.11337 6.03846 2.71253 6.03846 2.27326Z" fill="#373F57"/>
</svg>
