<svg width="244" height="102" viewBox="0 0 244 102" fill="none" xmlns="http://www.w3.org/2000/svg">
<g clip-path="url(#clip0_4379_9149)">
<path d="M51.4714 84.2577H19.0331V77.5946H67.7026V63.0266H41.7133V60.7578C39.2013 61.4265 36.5686 61.8086 33.8392 61.8086C31.1099 61.8086 28.4771 61.4265 25.9652 60.7578V63.0266H0V77.5946H3.28489V88.2938C3.28489 91.088 4.17858 93.6194 6.08671 95.6494C8.11562 97.8466 10.8208 98.8257 13.8642 98.8257H51.0849C49.3942 96.939 48.3556 94.4792 48.3556 91.7566C48.3556 88.843 49.5391 86.1921 51.4714 84.2577Z" fill="white"/>
<path d="M69.2896 91.8587C69.2896 96.4684 65.5751 100.21 60.9983 100.21C56.4215 100.21 52.707 96.4684 52.707 91.8587C52.707 87.249 56.4215 83.5078 60.9983 83.5078C65.5751 83.5078 69.2896 87.249 69.2896 91.8587Z" fill="#00D1FF"/>
<path d="M43.5012 31.0953C43.5012 36.3494 39.2018 40.6242 33.8639 40.6242C28.5259 40.6242 24.2266 36.3732 24.2266 31.0953C24.2266 25.8174 28.5259 21.5664 33.8639 21.5664C39.2018 21.5664 43.5012 25.8174 43.5012 31.0953Z" fill="white"/>
<path d="M219.848 42.7946C219.848 37.254 223.036 32.4537 227.698 30.0655V7.44922H211.273V93.9737H227.698V55.5237C223.036 53.1355 219.848 48.3352 219.848 42.7946Z" fill="white"/>
<path d="M234.337 52.3556C239.673 52.3556 243.999 48.0787 243.999 42.8028C243.999 37.5269 239.673 33.25 234.337 33.25C229.001 33.25 224.676 37.5269 224.676 42.8028C224.676 48.0787 229.001 52.3556 234.337 52.3556Z" fill="#00D1FF"/>
<path d="M156.009 7.45312V22.5704H187.457V24.9586C187.457 26.7259 187.336 28.5887 187.095 30.5709C186.853 32.5053 186.442 34.4637 185.839 36.4698C185.235 38.4042 184.462 40.3386 183.496 42.297C182.554 44.112 181.346 45.8793 179.873 47.551C176.829 50.9661 173.254 53.4737 169.1 55.0738C165.356 56.4829 162.748 56.4829 157.796 56.4829C157.458 56.4829 157.12 56.4829 156.758 56.4829H154.922V72.5554H156.758C163.835 72.5554 170.332 71.6002 176.225 69.6896C182.24 67.7552 187.481 64.6983 191.925 60.4712V60.4473C196.49 55.9336 199.92 50.6557 202.215 44.6135C204.606 38.4997 205.765 31.1918 205.765 22.7376V7.45312H156.009Z" fill="white"/>
<path d="M33.8399 0C16.884 0 3.14062 13.8277 3.14062 30.9033C3.14062 45.2325 12.8504 57.2452 25.99 60.7558C28.5019 61.4245 31.1347 61.8066 33.864 61.8066C36.5934 61.8066 39.2262 61.4245 41.7381 60.7558C54.8777 57.2452 64.5875 45.2325 64.5875 30.9033C64.5633 13.8277 50.8199 0 33.8399 0ZM17.9951 30.9033C17.9951 23.7148 22.4877 17.8876 28.5019 15.6666C30.1927 15.0457 31.9801 14.6874 33.8399 14.6874C35.6997 14.6874 37.4629 15.0457 39.1537 15.6427C42.2454 16.7652 44.9264 18.8429 46.8104 21.5654C48.5978 24.1686 49.6847 27.3449 49.6847 30.8555C49.6847 40.0501 42.342 47.0475 33.8399 47.0475C25.3378 47.0475 17.9951 40.0262 17.9951 30.8555V30.9033Z" fill="#00D1FF"/>
<path d="M122.123 20.2062H129.296V7.23828H76.3516V20.2062H83.6218V38.2849H76.3516V51.2528H130.262V38.2849H122.147V20.2062H122.123ZM108.065 38.2849H97.5343V20.2062H108.065V38.2849Z" fill="white"/>
<path d="M140.189 7.23828V13.7819H130.914V26.7738H140.189V31.4307H130.914V44.3987H140.189V53.2111H152.676H153.957H154.246V7.23828H140.189Z" fill="white"/>
<path fill-rule="evenodd" clip-rule="evenodd" d="M119.827 86.0712C125.938 86.0712 131.373 81.0083 131.373 74.178C131.373 67.3477 125.938 62.2848 119.827 62.2848C113.716 62.2848 108.282 67.3477 108.282 74.178C108.282 81.0083 113.716 86.0712 119.827 86.0712ZM119.827 102.001C135.092 102.001 147.459 89.558 147.459 74.178C147.459 58.798 135.092 46.3555 119.827 46.3555C104.562 46.3555 92.1953 58.798 92.1953 74.178C92.1953 89.558 104.562 102.001 119.827 102.001Z" fill="#00D1FF"/>
</g>
<defs>
<clipPath id="clip0_4379_9149">
<rect width="244" height="102" fill="white"/>
</clipPath>
</defs>
</svg>
