<svg width="659" height="574" viewBox="0 0 659 574" fill="none" xmlns="http://www.w3.org/2000/svg">
<path d="M648.4 330.268C543.349 429.723 349.358 457.994 230.547 367.749C199.928 344.049 176.487 310.745 164.736 273.333C144.283 211.105 163.907 140.2 209.696 95.5722C232.033 72.8591 262.286 60.7959 293.26 56.4646C306.82 54.7597 325.326 53.2361 337.812 60.5127C345.85 65.2376 348.794 74.641 345.036 83.2411C341.467 91.4127 319.132 117.477 295.104 115.8C278.391 114.64 267.822 99.8953 269.405 83.3156C272.98 51.2772 306.153 30.8448 332.533 19.901C365.146 6.60763 392.465 3.66533 427.205 0.884419C404.235 4.22042 389.242 6.31138 367.286 13.4496C337.619 23.3609 300.506 39.9953 285.606 69.5216C283.349 74.2791 281.949 79.3337 281.871 84.1121C281.576 93.1301 286.832 100.436 295.765 100.692C313.573 101.202 332.117 82.4781 328.823 76.2606C326.322 71.5377 309.403 73.4003 296.259 75.9236C269.722 81.0058 244.107 91.2783 225.713 112.033C180.232 161.755 171.116 233.965 207.922 292.086C269.67 387.072 405.495 390.334 500.763 354.961C540.473 340.209 577.917 317.399 607.079 286.612C618.439 274.623 637.184 274.386 648.942 286.089C661.201 298.193 660.938 318.614 648.399 330.26L648.4 330.268Z" fill="url(#paint0_linear_4622_7311)"/>
<g clip-path="url(#clip0_4622_7311)">
<path d="M301.996 325.865C302.033 330.845 302.447 335.804 301.583 340.572L258.664 325.97C258.664 325.97 283.875 328.387 302.001 325.855L301.996 325.865Z" fill="black"/>
<path d="M106.485 365.46C106.485 365.46 144.24 324.249 153.896 312.766C160.425 305.005 169.617 297.1 179.358 294.269C190.214 291.113 201.66 296.011 211.604 301.395C225.28 308.795 258.66 325.979 258.66 325.979L301.578 340.581C301.315 342.04 300.931 343.472 300.382 344.894C295.209 358.179 282.836 368.177 269.001 371.622C231.885 380.847 196.965 347.724 196.965 347.724C196.965 347.724 158.818 386.777 143.06 398.726C143.06 398.726 135.325 395.568 122.883 386.386C110.44 377.203 106.48 365.47 106.48 365.47L106.485 365.46Z" fill="#073693"/>
<path d="M177.626 211.936L171.08 206.482C169.687 204.343 168.286 202.208 166.893 200.069C165.963 198.638 164.986 197.173 163.562 196.231C162.316 195.407 147.775 186.545 144.064 184.488C140.353 182.432 136.25 181.205 132.148 180.123C131.337 179.904 130.463 179.7 129.681 180.001C128.011 180.64 127.983 183.202 129.172 184.542C130.36 185.882 132.204 186.368 133.88 186.981C138.809 188.788 143.846 193.203 146.632 197.651L140.384 210.306C143.287 217.291 151.872 221.335 159.113 219.136L165.995 226.273" fill="#FFA38A"/>
<path d="M145.353 210.185C145.353 210.185 144.935 211.544 144.082 211.691C141.246 212.194 137.241 211.581 135.253 209.499C133.265 207.416 133.279 203.553 135.635 201.904" fill="#FFA38A"/>
<path d="M145.93 210.29C145.77 210.782 145.541 211.272 145.191 211.66C144.677 212.234 143.998 212.319 143.261 212.382C141.641 212.534 139.958 212.384 138.392 211.911C136.826 211.438 135.457 210.725 134.483 209.489C133.604 208.373 133.182 206.908 133.24 205.497C133.305 203.886 133.993 202.372 135.311 201.413C135.922 200.968 136.595 201.934 135.984 202.38C133.471 204.212 134.174 208.198 136.546 209.795C137.924 210.727 139.67 211.128 141.311 211.233C142.114 211.283 142.944 211.264 143.744 211.136C144.117 211.082 144.314 210.936 144.514 210.609C144.601 210.468 144.667 210.316 144.736 210.173C144.756 210.132 144.865 209.811 144.788 210.052C145.015 209.34 146.175 209.555 145.942 210.277L145.93 210.29Z" fill="black"/>
<path d="M143.471 191.397L140.487 193.275L139.3 200.692L140.466 207.81L145.096 207.845C145.096 207.845 149.425 199.97 149.282 199.807C149.139 199.644 143.471 191.397 143.471 191.397Z" fill="#FFA38A"/>
<path d="M137.355 196.65C135.291 198.35 134.652 201.554 135.911 203.919C137.168 206.276 140.183 207.544 142.747 206.778" fill="#FFA38A"/>
<path d="M137.682 197.129C135.869 198.672 135.283 201.542 136.419 203.651C137.554 205.761 140.231 206.867 142.537 206.217C143.26 206.014 143.658 207.12 142.928 207.326C140.069 208.128 136.775 206.846 135.376 204.18C133.977 201.515 134.729 198.101 137.009 196.163C137.586 195.669 138.252 196.638 137.682 197.129Z" fill="black"/>
<path d="M142.324 192.055C141.001 192.324 137.561 194.116 137.537 196.522C137.527 197.388 137.861 198.218 138.259 198.983C139.553 201.497 141.593 203.63 144.048 205.028" fill="#FFA38A"/>
<path d="M142.521 192.608C140.803 192.991 138.216 194.516 138.132 196.483C138.056 198.132 139.381 199.91 140.359 201.136C141.452 202.493 142.8 203.632 144.309 204.5C144.962 204.876 144.458 205.941 143.802 205.558C142.054 204.543 140.517 203.232 139.265 201.641C138.159 200.221 136.887 198.304 136.963 196.434C137.062 193.975 139.924 191.995 142.133 191.507C142.861 191.345 143.259 192.451 142.524 192.616L142.521 192.608Z" fill="black"/>
<path d="M154.179 202.718C152.18 202.373 149.016 204.468 148.688 206.469C148.36 208.471 147.146 209.676 145.117 209.587C143.28 209.509 142.651 207.963 142.444 206.141C142.125 203.318 144.085 200.255 145.793 198.706C147.501 197.157 150.525 195.538 153.559 195.016C155.257 194.725 157.289 194.556 159.241 194.791" fill="#FFA38A"/>
<path d="M154.072 203.289C152.911 203.118 151.699 203.749 150.806 204.439C150.361 204.775 149.956 205.174 149.653 205.647C149.31 206.178 149.264 206.749 149.088 207.34C148.718 208.546 147.903 209.575 146.677 209.973C145.452 210.37 144.049 210.266 143.123 209.38C142.197 208.494 141.933 207.187 141.839 206C141.731 204.578 142.13 203.141 142.74 201.867C143.938 199.38 145.934 197.533 148.357 196.245C151.716 194.465 155.578 193.797 159.354 194.217C160.109 194.302 159.884 195.456 159.129 195.372C153.713 194.778 147.091 196.648 144.197 201.619C143.554 202.725 143.053 203.968 142.993 205.252C142.944 206.302 143.122 207.776 143.936 208.539C144.751 209.302 146.337 209.102 147.139 208.376C148.053 207.551 147.93 206.331 148.481 205.326C149.531 203.411 152.076 201.815 154.292 202.145C155.04 202.257 154.823 203.409 154.067 203.3L154.072 203.289Z" fill="black"/>
<path d="M242.997 198.14C225.125 203.04 218.502 227.504 214.456 240.016C202.342 227.765 189.028 216.687 174.777 206.998C174.777 206.998 162.965 219.657 159.282 225.102C159.118 225.339 176.887 245.893 187.27 256.765C197.652 267.637 211.132 280.979 211.132 280.979L203.774 295.331C203.774 295.331 220.82 312.546 234.944 319.498C263.05 333.34 303.746 326.208 304.393 325.161C308.374 318.724 309.841 298.038 312.316 290.885C327.4 273.821 323.204 232.203 314.505 217.145C301.394 194.473 283.791 197.009 283.791 197.009C283.791 197.009 260.874 193.229 243.002 198.13L242.997 198.14Z" fill="#BD78FF"/>
<mask id="mask0_4622_7311" style="mask-type:luminance" maskUnits="userSpaceOnUse" x="159" y="195" width="164" height="133">
<path d="M242.993 198.136C225.121 203.037 218.498 227.501 214.453 240.012C202.338 227.761 189.024 216.683 174.773 206.994C174.773 206.994 162.961 219.654 159.278 225.098C159.114 225.335 176.883 245.889 187.266 256.761C197.649 267.634 211.128 280.975 211.128 280.975L203.77 295.327C203.77 295.327 220.816 312.542 234.94 319.494C263.046 333.336 303.742 326.204 304.389 325.157C308.37 318.72 309.837 298.034 312.312 290.881C327.396 273.817 323.2 232.199 314.502 217.141C301.39 194.469 283.787 197.005 283.787 197.005C283.787 197.005 260.87 193.225 242.998 198.126L242.993 198.136Z" fill="white"/>
</mask>
<g mask="url(#mask0_4622_7311)">
<path d="M335.036 220.499C286.808 227.713 237.363 216.902 196.616 190.09C193.459 188.009 197.293 183.552 200.416 185.611C239.889 211.592 288.009 221.623 334.623 214.644C338.361 214.088 338.76 219.948 335.031 220.509L335.036 220.499Z" fill="#FFE048"/>
<path d="M337.144 254.949C294.123 259.886 246.675 250.651 210.629 225.845C205.245 222.141 199.843 217.923 195.977 212.592C193.754 209.525 198.584 206.177 200.805 209.237C208.254 219.511 221.421 226.339 232.544 231.701C251.679 240.934 272.47 246.725 293.554 249.153C307.904 250.809 322.387 250.73 336.736 249.084C340.492 248.649 340.901 254.514 337.144 254.949Z" fill="#FFE048"/>
<path d="M324.926 299.982C287.746 300.371 251.746 288.232 219.908 269.584C216.66 267.68 219.178 262.372 222.447 264.286C253.395 282.419 288.35 294.499 324.519 294.125C328.28 294.09 328.722 299.952 324.928 299.99L324.926 299.982Z" fill="#FFE048"/>
<path d="M327.539 325.204C280.588 332.848 233.622 316.35 195.764 289.041C184.55 280.945 174.06 271.903 164.164 262.243C161.469 259.607 165.256 255.115 167.964 257.764C200.954 289.962 241.946 315.46 288.584 320.431C301.425 321.799 314.385 321.419 327.125 319.35C330.855 318.745 331.246 324.607 327.534 325.215L327.539 325.204Z" fill="#FFE048"/>
</g>
<path d="M230.818 219.345C228.844 223.847 227.418 228.599 226.084 233.32C224.644 238.419 223.353 243.576 222.35 248.777C221.94 250.885 221.556 253.018 221.398 255.164C221.35 255.804 220.362 255.614 220.417 254.972C220.751 250.587 221.798 246.215 222.814 241.948C224.087 236.592 225.548 231.264 227.271 226.022C228.063 223.618 228.901 221.223 229.919 218.902C230.179 218.307 231.085 218.747 230.823 219.335L230.818 219.345Z" fill="black"/>
<path d="M52.9987 291.671C55.1294 296.802 62.8578 315.215 69.0772 327.305C71.7776 332.551 75.778 337.877 77.5268 340.13C80.2266 341.082 83.0654 340.757 86.3465 338.561C90.8412 335.545 95.3125 329.916 95.3125 329.916L90.7681 312.328C90.7681 312.328 82.0666 299.516 76.8042 293.49C76.5914 293.25 76.3915 293.021 76.197 292.808C75.7664 292.336 75.3621 291.915 74.9948 291.575C71.0696 287.845 67.3076 283.22 60.9324 285.549C56.4857 287.175 54.1349 289.419 52.9885 291.666L52.9987 291.671Z" fill="#072B65"/>
<path d="M69.0861 327.308C71.7865 332.554 75.7793 337.883 77.5433 340.13C76.5468 339.772 75.5603 339.249 74.5863 338.567C65.834 332.447 53.7319 299.647 52.5445 296.711C51.9205 295.181 51.5875 294.453 53.0076 291.674C55.1409 296.812 62.859 315.22 69.0888 327.316L69.0861 327.308Z" fill="white"/>
<path d="M76.2106 292.82C74.9924 294.281 73.6815 295.673 72.2848 296.967C71.3973 297.792 70.4708 298.579 69.5159 299.333C68.7794 299.908 67.7952 300.434 67.6979 301.467C67.6177 302.306 67.8903 303.226 67.9808 304.065C68.0707 305.023 68.1324 305.974 68.1205 306.934C68.1041 310.67 67.178 314.513 64.5431 317.284C64.1377 317.708 64.825 318.303 65.2304 317.879C66.6468 316.398 67.6249 314.594 68.2289 312.649C68.7797 310.868 69.0004 308.998 69.0354 307.133C69.0504 306.206 69.007 305.282 68.9202 304.357C68.8763 303.869 68.8249 303.383 68.7583 302.903C68.7028 302.479 68.5652 302.015 68.6115 301.589C68.6598 300.975 69.3442 300.64 69.7764 300.291C70.234 299.942 70.6759 299.574 71.1179 299.205C71.9666 298.488 72.8072 297.748 73.6063 296.963C73.8043 296.774 73.9969 296.569 74.1999 296.37C75.2818 298.182 76.4094 299.979 77.5772 301.745C81.6916 307.952 86.3624 313.776 91.5122 319.167C91.9165 319.588 92.5007 318.896 92.1041 318.472C85.5571 311.61 79.7896 304.004 74.9447 295.843C74.9158 295.785 74.8694 295.75 74.8305 295.712C75.5162 294.993 76.1835 294.246 76.8201 293.484C76.6072 293.243 76.4074 293.015 76.2128 292.802L76.2106 292.82Z" fill="white"/>
<path d="M75.2778 302.497C74.586 302.741 73.8277 302.377 73.5842 301.685C73.3406 300.994 73.704 300.235 74.3958 299.992C75.0876 299.748 75.8459 300.112 76.0894 300.803C76.333 301.495 75.9696 302.253 75.2778 302.497Z" fill="white"/>
<path d="M78.8442 307.821C78.1524 308.065 77.3941 307.701 77.1506 307.01C76.907 306.318 77.2704 305.56 77.9622 305.316C78.654 305.072 79.4123 305.436 79.6558 306.128C79.8994 306.819 79.536 307.578 78.8442 307.821Z" fill="white"/>
<path d="M82.4145 313.142C81.7227 313.385 80.9645 313.022 80.7209 312.33C80.4774 311.638 80.8408 310.88 81.5326 310.636C82.2243 310.393 82.9826 310.756 83.2261 311.448C83.4697 312.14 83.1063 312.898 82.4145 313.142Z" fill="white"/>
<path d="M86.5434 318.083C85.8516 318.326 85.0934 317.963 84.8498 317.271C84.6063 316.579 84.9697 315.821 85.6615 315.578C86.3533 315.334 87.1115 315.698 87.355 316.389C87.5986 317.081 87.2352 317.839 86.5434 318.083Z" fill="white"/>
<path d="M74.6783 300.991C75.0192 300.82 75.4694 300.789 75.8299 300.722C76.5356 300.593 77.239 300.482 77.9425 300.371C79.3392 300.144 80.7774 299.962 82.1273 299.53C82.687 299.35 82.9891 300.208 82.4294 300.388C81.0616 300.818 79.6006 301.008 78.1915 301.248C77.4804 301.362 76.7693 301.476 76.0636 301.605C75.6853 301.669 75.3213 301.678 74.9831 301.857C74.7584 301.97 74.4803 301.786 74.3978 301.576C74.3069 301.318 74.4536 301.104 74.6783 300.991Z" fill="white"/>
<path d="M78.6064 306.376C79.7244 303.951 80.2936 301.301 80.2489 298.628C80.2391 298.043 81.147 297.979 81.1568 298.565C81.2042 301.39 80.6147 304.201 79.4278 306.77C79.1795 307.301 78.3581 306.907 78.6064 306.376Z" fill="white"/>
<path d="M78.1427 306.159C78.4836 305.988 78.9387 305.948 79.3067 305.878C80.0022 305.744 80.6927 305.62 81.3859 305.504C82.7746 305.254 84.1998 305.06 85.5422 304.63C86.1019 304.45 86.404 305.308 85.8443 305.488C84.4765 305.918 83.0311 306.128 81.6273 306.384C80.9216 306.513 80.2056 306.637 79.4999 306.766C79.1573 306.835 78.7656 306.862 78.4399 307.028C78.2152 307.141 77.9371 306.957 77.8546 306.747C77.7637 306.489 77.9104 306.275 78.1351 306.162L78.1427 306.159Z" fill="white"/>
<path d="M82.0617 311.542C83.2558 308.945 83.832 305.951 83.7918 303.097C83.782 302.512 84.69 302.448 84.6998 303.033C84.7452 306.047 84.1461 309.195 82.8831 311.935C82.6349 312.466 81.8135 312.073 82.0617 311.542Z" fill="white"/>
<path d="M82.2109 311.028C83.1533 310.892 84.1007 310.747 85.0453 310.593C86.4242 310.364 87.8391 310.165 89.1739 309.737L89.3567 310.621C89.2678 310.635 89.1892 310.654 89.1003 310.668C88.5241 310.777 88.4682 309.866 89.0368 309.76C89.1256 309.746 89.2043 309.727 89.2932 309.713C89.7983 309.62 89.9598 310.442 89.476 310.596C88.093 311.031 86.6173 311.252 85.1902 311.49C84.2228 311.651 83.2527 311.805 82.2772 311.944C81.7006 312.027 81.637 311.119 82.2136 311.036L82.2109 311.028Z" fill="white"/>
<path d="M86.0166 316.431C87.1345 314.006 87.7038 311.356 87.659 308.683C87.6492 308.097 88.5572 308.034 88.567 308.619C88.6143 311.445 88.0248 314.256 86.838 316.825C86.5897 317.356 85.7683 316.962 86.0166 316.431Z" fill="white"/>
<path d="M75.8879 391.259C79.6375 394.078 97.4695 401.841 110.645 405.662C111.005 405.765 111.356 405.864 111.709 405.97C113.518 406.477 115.218 406.894 116.774 407.217C123.098 408.498 126.995 409.021 129.331 409.232C130.708 408.465 131.959 407.461 133.056 406.333C136.452 402.79 138.404 397.886 138.347 392.973L128.016 384.84L126.777 383.867L113.23 373.196C105.908 372.496 99.4961 371.57 92.2792 370.466L91.1025 370.3C83.6264 369.381 73.0053 372.548 70.2403 379.411C69.9396 380.157 69.7358 380.912 69.6133 381.655C69.5764 382.035 69.3845 386.387 75.8856 391.276L75.8879 391.259Z" fill="#072B65"/>
<path d="M69.6111 381.649C69.5844 382.033 69.3898 386.378 75.8807 391.263C80.2569 394.553 103.81 404.578 116.775 407.218C123.091 408.503 126.99 409.033 129.331 409.233C128.375 409.766 127.371 410.188 126.306 410.46C118.436 412.446 87.0475 401.671 77.0258 395.17C71.6199 391.67 68.7626 386.633 69.6111 381.649Z" fill="white"/>
<path d="M128.019 384.831C119.249 384.965 110.471 384.274 101.834 382.749C99.4586 382.33 97.1027 381.845 94.7461 381.309C94.7637 381.602 94.7786 381.886 94.7784 382.177C94.7939 382.948 94.779 383.73 94.7408 384.495C94.6982 385.295 94.3933 386.247 94.9216 386.923C95.3949 387.516 96.1043 387.907 96.7323 388.309C97.4996 388.815 98.2691 389.304 99.0337 389.803C100.571 390.798 102.11 391.776 103.637 392.792C106.018 394.369 107.891 396.56 109.249 399.061C110.027 400.494 110.631 402.014 111.102 403.573C111.337 404.361 111.536 405.169 111.7 405.974C111.35 405.875 110.996 405.769 110.636 405.666C110.576 405.448 110.511 405.24 110.467 405.042C110.263 404.218 110.025 403.397 109.731 402.587C108.668 399.641 107.012 396.827 104.607 394.772C103.3 393.653 101.78 392.779 100.336 391.854C98.7324 390.814 97.1188 389.794 95.5248 388.734C94.9352 388.344 94.3371 387.906 93.9553 387.306C93.5026 386.578 93.6259 385.886 93.6887 385.07C93.8208 383.384 93.8128 381.689 93.6547 380.003C93.3439 376.647 92.4716 373.369 91.091 370.296L92.2676 370.462C93.2376 372.733 93.9368 375.107 94.3467 377.532C94.4969 378.443 94.6065 379.361 94.6754 380.284C94.7035 380.291 94.7161 380.278 94.7442 380.285C103.39 382.295 112.242 383.463 121.116 383.77C123.002 383.84 124.879 383.862 126.773 383.861L128.012 384.834L128.019 384.831Z" fill="white"/>
<path d="M99.4699 387.438C98.7066 387.707 97.8699 387.306 97.6012 386.543C97.3325 385.779 97.7334 384.943 98.4968 384.674C99.2601 384.405 100.097 384.806 100.365 385.57C100.634 386.333 100.233 387.17 99.4699 387.438Z" fill="white"/>
<path d="M106.466 388.376C105.703 388.645 104.866 388.244 104.597 387.48C104.329 386.717 104.73 385.88 105.493 385.612C106.256 385.343 107.093 385.744 107.362 386.507C107.63 387.27 107.229 388.107 106.466 388.376Z" fill="white"/>
<path d="M113.333 389.052C112.57 389.32 111.733 388.919 111.464 388.156C111.196 387.393 111.597 386.556 112.36 386.287C113.123 386.019 113.96 386.42 114.229 387.183C114.498 387.946 114.097 388.783 113.333 389.052Z" fill="white"/>
<path d="M120.286 389.884C119.523 390.152 118.686 389.751 118.418 388.988C118.149 388.225 118.55 387.388 119.313 387.119C120.077 386.851 120.913 387.252 121.182 388.015C121.451 388.778 121.05 389.615 120.286 389.884Z" fill="white"/>
<path d="M118.683 387.921C116.562 381.558 113.504 375.029 107.017 372.166C106.339 371.867 106.836 370.83 107.514 371.129C114.281 374.107 117.554 380.884 119.769 387.539C120 388.243 118.921 388.622 118.683 387.921Z" fill="white"/>
<path d="M113.575 372.087C114.116 374.884 114.324 377.729 114.198 380.573C114.135 381.944 114.013 383.319 113.806 384.672C113.621 385.915 113.389 387.123 112.627 388.16C112.281 388.631 111.513 388.219 111.621 387.677C111.955 386.057 110.963 384.597 110.195 383.263C109.366 381.831 108.51 380.416 107.59 379.042C105.741 376.287 103.613 373.733 101.014 371.66L101.956 371.184C102.897 376.256 101.378 381.374 99.9569 386.21C99.7523 386.914 98.6208 386.706 98.8304 385.992C100.225 381.25 101.733 376.247 100.809 371.272C100.714 370.759 101.405 370.516 101.751 370.795C104.549 373.019 106.818 375.805 108.78 378.785C109.752 380.261 110.656 381.786 111.53 383.322C112.338 384.745 113.084 386.232 112.745 387.913L111.739 387.431C112.453 386.454 112.577 385.156 112.735 383.982C112.922 382.644 113.034 381.29 113.062 379.94C113.126 377.332 112.901 374.731 112.41 372.172C112.276 371.451 113.418 371.374 113.56 372.092L113.575 372.087Z" fill="white"/>
<path d="M97.4338 370.542C102.694 374.793 105.991 381.101 106.402 387.87L105.268 387.8C105.973 385.247 106.503 382.653 106.805 380.021C106.959 378.712 107.054 377.406 107.096 376.094C107.138 374.782 107.262 373.245 106.552 372.052C106.175 371.417 107.121 370.759 107.498 371.395C108.206 372.605 108.277 373.946 108.257 375.319C108.236 376.691 108.149 378.139 108.012 379.545C107.724 382.411 107.17 385.252 106.397 388.025C106.231 388.621 105.3 388.642 105.263 387.955C104.872 381.487 101.739 375.497 96.6949 371.425C96.1218 370.961 96.8634 370.086 97.4365 370.55L97.4338 370.542Z" fill="white"/>
<path d="M251.845 192.558C251.238 193.719 249.524 195.663 248.708 196.692C248.337 197.165 248.14 197.746 247.995 198.326C247.799 199.104 247.677 199.898 247.708 200.689C247.849 204.386 248.838 208.383 251.662 210.974C254.486 213.564 257.657 212.559 257.657 212.559C262.572 211.802 267.476 211.04 272.39 210.283C275.222 209.841 278.14 209.377 280.58 207.869C283.243 206.223 285.034 203.527 287.186 201.25C289.628 198.658 292.605 196.568 295.879 195.151C298.566 193.983 301.459 193.255 303.938 191.691C306.418 190.126 308.486 187.418 308.162 184.511C307.844 181.618 305.212 179.404 302.399 178.661C299.585 177.919 296.608 178.336 293.738 178.791C290.869 179.247 287.908 179.734 285.063 179.122C283.724 178.834 282.437 178.306 281.075 178.171C279.713 178.036 278.189 178.384 277.392 179.493L251.86 192.553L251.845 192.558Z" fill="#FF6A48"/>
<path d="M208.709 282.805L238.878 281.411C242.013 280.982 243.866 274.269 241.601 272.053L200.062 231.282C199.216 230.454 198.038 230.066 196.867 230.231L166.125 234.481C162.99 234.91 160.653 241.657 162.911 243.875L205.511 281.746C206.358 282.574 207.535 282.962 208.707 282.797L208.709 282.805Z" fill="#0551E8"/>
<path d="M252.755 193.9L253.016 201.26L256.465 207.42L274.804 197.831C274.533 193.352 274.46 188.854 274.598 184.35L274.934 166.247L254.158 156.499C254.158 156.499 239.63 161.853 239.479 165.909C239.257 171.706 239.279 179.064 241.101 184.508C244.758 195.427 252.745 193.895 252.755 193.9Z" fill="#FFA38A"/>
<path d="M274.439 186.971C275.151 186.157 276.972 185.414 278.049 185.299C279.127 185.184 280.216 185.27 281.293 185.155C283.019 184.966 284.668 184.266 286.397 184.11C287.307 184.028 288.325 184.131 288.977 184.772C289.756 185.53 289.775 186.821 289.321 187.809C288.866 188.797 288.018 189.539 287.202 190.253C283.691 193.299 274.806 197.835 274.806 197.835L274.439 186.971Z" fill="black"/>
<path d="M283.775 199.858C280.303 202.412 276.874 205.301 272.874 207.008C270.937 207.834 268.934 208.207 266.85 208.394C264.765 208.582 262.608 208.71 260.638 209.565C260.047 209.825 259.713 208.875 260.307 208.624C262.172 207.813 264.188 207.624 266.192 207.448C268.31 207.257 270.342 206.968 272.32 206.161C276.323 204.513 279.757 201.588 283.213 199.04C283.737 198.659 284.308 199.483 283.785 199.863L283.775 199.858Z" fill="black"/>
<path d="M265.292 152.572C265.987 149.503 271.429 145.274 274.361 144.148C277.301 143.019 280.782 143.449 283.356 145.257C285.68 146.889 287.172 149.479 289.412 151.234C293.447 154.405 299.783 154.146 303.549 150.661C304.773 149.53 305.74 148.106 307.078 147.106C309.766 145.093 313.479 145.117 316.75 145.851C321.374 146.887 326.033 149.549 327.703 153.979C329.377 158.417 326.537 164.462 321.801 164.635C319.704 164.716 317.74 163.718 315.712 163.194C313.684 162.67 311.165 162.789 309.948 164.498C308.834 166.059 309.306 168.249 308.613 170.038C307.37 173.249 302.912 173.897 299.711 172.659C296.5 171.417 293.93 168.916 290.831 167.438C287.7 165.937 283.923 165.124 280.668 166.33C277.075 167.663 273.063 166.694 273.063 166.694L265.308 152.567L265.292 152.572Z" fill="#072B65"/>
<path d="M267.378 173.408C265.931 173.32 263.523 173.562 262.073 173.466C261.54 173.432 260.979 173.391 260.564 173.059C260.151 172.735 259.971 172.201 259.82 171.699C259.24 169.735 258.791 167.734 258.48 165.709C257.643 168.01 257.243 170.464 257.31 172.907C255.579 172.816 253.856 172.723 252.126 172.632C251.647 172.605 251.149 172.575 250.743 172.317C250.249 172.004 250 171.418 249.792 170.876C248.793 168.258 247.969 165.577 247.315 162.846C245.636 165.229 244.774 168.187 244.919 171.098C241.691 170.195 234.474 168.169 234.197 167.891C234.197 167.891 230.902 164.254 236.684 155.074C237.718 153.43 240.257 150.556 241.704 149.261C247.6 143.993 257.028 143.184 263.737 147.377C265.806 148.672 267.921 151.674 267.921 151.674C272.896 152.739 277.142 156.434 279.264 161.055C281.386 165.677 282.531 171.693 281.374 176.65C279.352 185.308 274.425 186.974 274.425 186.974L267.366 173.421L267.378 173.408Z" fill="#072B65"/>
<path d="M159.482 316.336C140.236 322.207 113.241 332.47 93.5032 336.363C86.4117 325.723 81.37 297.146 81.37 297.146C81.37 297.146 125.083 278.898 142.475 273.774C152.62 270.783 166.901 265.55 180.573 271.167C194.244 276.785 203.052 292.351 210.527 301.968L159.484 316.344L159.482 316.336Z" fill="#073693"/>
<path d="M267.265 174.726C269.277 172.294 273.546 171.619 275.535 174.068C277.524 176.518 276.36 182.134 271.022 183.774" fill="#FFA38A"/>
<path d="M272.919 177.098C272.669 177.066 272.488 177.061 272.218 177.071C272.091 177.073 271.962 177.093 271.832 177.113C271.794 177.127 271.758 177.122 271.72 177.135C271.751 177.125 271.751 177.125 271.72 177.135C271.66 177.157 271.593 177.163 271.533 177.184C271.419 177.225 271.305 177.265 271.191 177.305C271.191 177.305 271.044 177.373 271.123 177.329C271.057 177.36 271.002 177.397 270.946 177.434C270.717 177.583 270.634 177.663 270.467 177.867C270.3 178.071 269.954 178.107 269.763 177.927C269.558 177.734 269.53 177.437 269.703 177.223C270.518 176.193 271.874 175.972 273.109 176.109C273.366 176.138 273.568 176.442 273.503 176.696C273.439 176.974 273.195 177.129 272.916 177.09L272.919 177.098Z" fill="black"/>
<path d="M252.195 193.878C252.195 193.878 255.932 193.364 257.729 192.288L252.856 201.259L252.198 193.885L252.195 193.878Z" fill="#EF7356"/>
<path d="M207.641 285.706L238.383 281.456C241.518 281.027 242.791 277.173 240.533 274.955L198.994 234.184C198.148 233.355 196.97 232.967 195.799 233.132L165.057 237.382C161.922 237.812 160.65 241.665 162.907 243.884L204.446 284.655C205.292 285.483 206.47 285.871 207.641 285.706Z" fill="#D5E2FA"/>
<path d="M279.833 266.829C280.93 249.483 282.015 247.061 283.109 229.707L273.565 265.997L279.833 266.829Z" fill="black"/>
<path d="M189.739 252.625C189.201 251.628 189.014 250.541 189.701 249.702C190.339 248.923 191.526 248.778 192.486 249.08C193.446 249.382 194.264 250.033 195.066 250.639C196.846 251.984 202.399 253.964 204.466 254.815C210.119 257.127 216.891 256.458 221.976 253.081C220.94 251.738 219.389 249.297 218.361 247.952C220.824 248.16 223.295 248.707 225.457 249.9C227.618 251.094 230.034 254.076 230.824 256.418L236.786 259.654L228.601 278.275L216.504 278.513C210.628 278.209 200.809 276.818 195.946 273.503C194.124 272.257 192.46 270.513 192.103 268.334L192.215 267.535C190.513 266.265 188.933 264.713 187.652 263.013C186.67 261.703 187.462 259.734 188.231 259.421L187.545 258.732C186.817 257.973 186.13 257.139 185.795 256.139C185.46 255.138 185.53 253.953 186.204 253.153C186.878 252.352 189.04 252.069 189.811 252.779" fill="#FFA38A"/>
<path d="M187.9 258.317C190.227 260.733 193.386 262.31 196.465 263.539C199.543 264.768 202.941 265.765 206.322 266.009C207.013 266.056 206.807 267.119 206.116 267.072C202.649 266.824 199.209 265.808 196 264.522C192.79 263.236 189.593 261.622 187.204 259.151C186.722 258.655 187.421 257.829 187.903 258.325L187.9 258.317Z" fill="black"/>
<path d="M192.564 267.109C194.423 268.486 196.556 269.527 198.714 270.347C200.872 271.166 203.167 271.818 205.44 271.607C206.134 271.542 206.205 272.617 205.511 272.683C203.098 272.909 200.642 272.212 198.403 271.378C196.163 270.545 193.847 269.397 191.862 267.928C191.298 267.512 192.007 266.691 192.561 267.102L192.564 267.109Z" fill="black"/>
<path d="M190.172 252.313C191.001 253.771 192.345 254.8 193.747 255.681C195.15 256.561 196.598 257.281 198.096 257.923C201.017 259.19 204.116 260.233 207.264 260.738C207.95 260.846 207.744 261.909 207.057 261.801C203.756 261.273 200.499 260.166 197.446 258.817C195.861 258.121 194.32 257.332 192.87 256.391C191.421 255.45 190.133 254.41 189.288 252.932C188.95 252.334 189.83 251.708 190.172 252.313Z" fill="black"/>
<path d="M312.314 290.889C309.238 294.371 305.615 297.294 301.449 299.451C280.749 310.187 245.398 288.687 233.324 283.728C232.055 283.202 228.179 281.237 227.851 280.303C224.904 271.934 229.089 261.03 236.607 257.777C252.687 260.079 263.659 265.23 279.83 266.844" fill="#BD78FF"/>
<path d="M312.704 291.212C308.638 295.784 303.444 299.772 297.536 301.588C293.052 302.961 288.291 303.135 283.644 302.714C273.369 301.773 263.428 298.069 254.044 293.964C249.797 292.105 245.607 290.097 241.436 288.067C239.777 287.259 238.119 286.452 236.443 285.668C235.083 285.028 233.686 284.479 232.33 283.829C231.286 283.335 230.258 282.792 229.28 282.172C228.601 281.745 227.716 281.246 227.385 280.475C226.826 279.178 226.601 277.618 226.476 276.22C226.351 274.821 226.396 273.277 226.586 271.828C227.314 266.356 230.272 260.672 235.217 257.915C235.774 257.608 236.31 257.24 236.953 257.321C237.928 257.447 238.894 257.619 239.856 257.784C241.629 258.091 243.396 258.433 245.152 258.813C248.403 259.513 251.62 260.335 254.835 261.174C261.387 262.888 267.93 264.647 274.634 265.676C276.393 265.944 278.153 266.169 279.924 266.349C280.561 266.414 280.369 267.395 279.731 267.33C272.998 266.653 266.404 265.21 259.86 263.52C253.315 261.829 247.26 260.145 240.839 258.975C240.047 258.835 239.255 258.696 238.459 258.566C237.979 258.488 237.483 258.389 236.996 258.339C236.573 258.3 236.308 258.444 235.927 258.647C234.756 259.273 233.679 260.095 232.74 261.04C230.767 263.024 229.34 265.515 228.444 268.161C227.549 270.806 227.17 273.85 227.516 276.724C227.599 277.446 227.731 278.159 227.916 278.854C228.038 279.323 228.122 279.925 228.424 280.297C229.035 281.063 230.171 281.576 231.007 282.033C232.446 282.824 233.948 283.43 235.441 284.108C236.935 284.786 238.434 285.504 239.918 286.228C243.776 288.096 247.632 289.982 251.535 291.758C260.639 295.893 270.126 299.663 280.047 301.249C284.643 301.987 289.37 302.226 293.973 301.408C299.34 300.457 304.136 297.762 308.232 294.22C309.54 293.085 310.764 291.861 311.911 290.561C312.339 290.077 313.106 290.729 312.676 291.205L312.704 291.212Z" fill="black"/>
<path d="M280.896 267.473C284.339 271.433 287.905 275.282 291.578 279.025C292.029 279.48 291.377 280.248 290.934 279.789C287.196 275.984 283.581 272.067 280.083 268.049C279.658 267.567 280.488 266.993 280.906 267.477L280.896 267.473Z" fill="black"/>
<path d="M192.944 241.565C193.801 242.715 195.884 243.612 197.297 243.456C198.71 243.3 199.293 241.49 198.439 240.348C197.585 239.206 195.745 238.394 194.325 238.553C192.904 238.712 192.09 240.424 192.939 241.576L192.944 241.565Z" fill="#0551E8"/>
<path d="M193.025 241.68C193.882 242.829 195.719 243.634 197.139 243.475C198.56 243.316 199.016 242.259 198.159 241.11C197.302 239.961 195.466 239.156 194.045 239.315C192.624 239.474 192.168 240.531 193.025 241.68Z" fill="black"/>
<path d="M248.111 177.076C247.958 177.079 247.808 177.089 247.656 177.117C247.567 177.131 247.762 177.079 247.626 177.128C247.595 177.138 247.565 177.149 247.534 177.16C247.451 177.189 247.367 177.219 247.284 177.248C247.2 177.277 247.382 177.188 247.253 177.259C247.223 177.269 247.195 177.288 247.168 177.306C247.097 177.348 247.037 177.395 246.972 177.452C247.037 177.395 246.914 177.506 246.896 177.529C246.854 177.579 246.804 177.63 246.761 177.679C246.731 177.716 246.704 177.759 246.674 177.795C246.634 177.852 246.731 177.69 246.687 177.782C246.677 177.803 246.664 177.816 246.662 177.834C246.642 177.875 246.623 177.916 246.603 177.957C246.574 178.019 246.643 177.926 246.62 177.908C246.62 177.908 246.601 177.975 246.604 177.982C246.596 178.011 246.6 178.069 246.585 178.1C246.585 178.1 246.583 177.973 246.589 178.039C246.595 178.054 246.592 178.072 246.587 178.082C246.593 178.097 246.598 178.112 246.591 178.141C246.594 178.199 246.632 178.186 246.572 178.087C246.583 178.118 246.596 178.156 246.607 178.186C246.615 178.209 246.62 178.224 246.628 178.247C246.644 178.292 246.669 178.267 246.597 178.181C246.612 178.201 246.633 178.237 246.644 178.267C246.662 178.295 246.681 178.322 246.706 178.347C246.712 178.363 246.732 178.372 246.74 178.395C246.772 178.435 246.644 178.292 246.714 178.37C246.831 178.483 246.955 178.567 247.081 178.659C247.081 178.659 246.97 178.587 247.037 178.632C247.058 178.642 247.071 178.655 247.091 178.664C247.125 178.687 247.155 178.701 247.186 178.716C247.258 178.751 247.333 178.793 247.404 178.827C247.528 178.886 247.659 178.943 247.794 178.989C247.853 179.011 247.922 179.037 247.989 179.057C248.086 179.091 247.853 179.011 247.961 179.05C247.981 179.059 248.009 179.067 248.027 179.069C248.073 179.078 248.114 179.098 248.16 179.107C248.414 179.172 248.621 179.423 248.555 179.694C248.498 179.945 248.242 180.163 247.968 180.088C247.423 179.947 246.9 179.722 246.434 179.416C246.099 179.193 245.799 178.897 245.663 178.51C245.481 178.019 245.641 177.528 245.925 177.12C246.402 176.44 247.213 176.078 248.041 176.077C248.306 176.077 248.566 176.259 248.573 176.546C248.578 176.801 248.386 177.082 248.103 177.079L248.111 177.076Z" fill="black"/>
<path d="M249.38 188.283C248.002 188.273 246.913 187.53 246.284 186.326C245.761 185.324 245.53 184.185 245.443 183.063C245.426 182.821 245.407 182.572 245.415 182.33C245.419 181.979 245.666 181.781 246.007 181.806C247.881 181.94 249.752 182.067 251.618 182.203L252.432 182.259C252.659 182.273 252.813 182.517 252.839 182.713C253.017 184.357 252.739 186.452 251.421 187.582C250.856 188.063 250.121 188.279 249.386 188.298C248.742 188.312 248.669 187.305 249.315 187.299C250.402 187.283 251.091 186.742 251.483 185.793C251.798 185.042 251.878 184.152 251.867 183.371C251.866 183.174 251.858 182.981 251.835 182.793L252.242 183.247C250.368 183.113 248.497 182.986 246.631 182.85L245.818 182.795L246.41 182.27C246.399 182.846 246.46 183.431 246.558 184.002C246.711 184.896 247.053 186.013 247.736 186.668C248.163 187.081 248.691 187.297 249.308 187.302C249.924 187.307 250.027 188.303 249.378 188.301L249.38 188.283Z" fill="black"/>
<path d="M258.133 171.149C256.816 170.05 254.971 169.659 253.321 170.137C253.058 170.213 252.778 170.098 252.685 169.832C252.599 169.589 252.734 169.268 252.99 169.195C254.979 168.614 257.184 169.059 258.777 170.384C259.273 170.799 258.629 171.563 258.133 171.149Z" fill="black"/>
<path d="M245.096 169.224C245.096 169.224 245.024 169.19 244.993 169.175C244.973 169.165 244.86 169.136 244.973 169.165C244.906 169.146 244.84 169.127 244.768 169.118C244.732 169.113 244.697 169.109 244.651 169.099C244.579 169.09 244.597 169.092 244.651 169.099C244.572 169.093 244.495 169.094 244.419 169.095C244.343 169.097 244.261 169.108 244.18 169.12C244.15 169.13 244.114 169.126 244.084 169.137C244.068 169.142 243.939 169.162 244.013 169.153C244.086 169.144 243.975 169.167 243.959 169.172C243.921 169.185 243.883 169.199 243.843 169.204C243.767 169.231 243.691 169.258 243.612 169.277C243.483 169.322 243.347 169.371 243.223 169.431C243.185 169.445 242.986 169.557 243.112 169.479C243.053 169.508 242.99 169.547 242.932 169.576C242.842 169.634 242.751 169.691 242.663 169.756C242.623 169.788 242.582 169.819 242.55 169.847L242.527 169.855C242.6 169.796 242.612 169.783 242.582 169.819C242.585 169.826 242.553 169.855 242.545 169.858C242.365 170.049 242.042 170.103 241.841 169.918C241.639 169.733 241.595 169.415 241.78 169.213C242.176 168.784 242.774 168.497 243.319 168.322C244.03 168.088 244.836 168.001 245.527 168.338C245.773 168.457 245.88 168.76 245.762 169.007C245.644 169.253 245.34 169.36 245.094 169.242L245.096 169.224Z" fill="black"/>
<path d="M253.752 176.957C252.832 176.942 252.102 175.967 252.123 174.779C252.143 173.592 252.906 172.643 253.826 172.659C254.746 172.675 255.476 173.65 255.455 174.837C255.435 176.024 254.672 176.973 253.752 176.957Z" fill="black"/>
<path d="M244.4 176.477C243.48 176.461 242.751 175.486 242.771 174.299C242.791 173.112 243.554 172.163 244.474 172.178C245.395 172.194 246.124 173.169 246.104 174.356C246.083 175.543 245.321 176.493 244.4 176.477Z" fill="black"/>
<path d="M254.847 149.117C247.806 149.872 241.543 155.115 239.595 161.921C239.458 162.405 238.681 162.26 238.826 161.774C240.88 154.615 247.389 149.123 254.8 148.331C255.301 148.275 255.355 149.058 254.854 149.115L254.847 149.117Z" fill="white"/>
<path d="M245.659 159.431C244.724 160.656 244.167 162.176 244.111 163.715C244.099 163.923 243.972 164.122 243.746 164.133C243.555 164.149 243.318 163.985 243.327 163.768C243.392 162.013 243.99 160.317 245.062 158.924C245.373 158.524 245.97 159.031 245.659 159.431Z" fill="white"/>
<path d="M323.643 157.78C321.596 153.516 316.959 151.111 312.298 151.788C311.795 151.862 311.749 151.076 312.244 151.004C317.271 150.276 322.192 152.956 324.387 157.518C324.606 157.97 323.862 158.232 323.643 157.78Z" fill="white"/>
<path d="M235.161 218.183L239.076 217.845C239.709 217.79 240.267 218.26 240.322 218.893C240.376 219.527 239.907 220.084 239.274 220.139L235.359 220.477C234.726 220.532 234.168 220.063 234.113 219.429C234.059 218.796 234.528 218.238 235.161 218.183Z" fill="#FF6A48"/>
<path d="M256.594 211.897C254.901 212.083 253.312 212.976 251.838 213.785C250.365 214.594 249.032 215.438 247.63 216.256C246.306 217.03 244.954 217.77 243.546 218.377C242.261 218.923 240.684 219.606 239.261 219.493C238.621 219.445 238.811 218.456 239.453 218.512C240.208 218.57 241.06 218.228 241.762 217.989C242.463 217.751 243.189 217.461 243.879 217.142C245.339 216.465 246.731 215.642 248.113 214.815C249.494 213.987 250.759 213.217 252.13 212.504C253.501 211.791 254.948 211.077 256.524 210.898C257.164 210.826 257.234 211.825 256.594 211.897Z" fill="black"/>
<path d="M230.586 209.695L234.471 210.281C235.1 210.376 235.532 210.963 235.438 211.592C235.343 212.22 234.756 212.653 234.127 212.558L230.242 211.972C229.614 211.877 229.181 211.29 229.276 210.661C229.371 210.033 229.957 209.6 230.586 209.695Z" fill="#FF6A48"/>
<path d="M254.827 210.167C253.062 210.029 251.279 210.102 249.526 210.386C247.774 210.67 246.091 211.271 244.389 211.819C242.819 212.329 241.233 212.648 239.575 212.618C237.916 212.587 236.216 212.315 234.554 212.029C233.918 211.92 234.107 210.932 234.746 211.048C236.436 211.341 238.137 211.638 239.856 211.622C241.574 211.606 243.303 211.134 244.989 210.566C248.271 209.462 251.559 208.911 255.019 209.186C255.659 209.234 255.469 210.223 254.827 210.167Z" fill="black"/>
<path d="M211.156 302.915C206.984 300.594 202.841 298.16 198.379 296.42C193.917 294.679 189.143 293.824 184.327 294.376C173.236 295.652 164.328 303.004 156.81 310.695C152.369 315.246 148.223 320.077 144.108 324.923C143.673 325.435 142.873 324.76 143.307 324.249C147.07 319.809 150.864 315.383 154.888 311.176C158.912 306.968 162.761 303.232 167.352 300.079C171.944 296.926 176.898 294.61 182.295 293.623C187.195 292.726 192.122 293.194 196.836 294.752C202.054 296.483 206.815 299.313 211.598 301.966C212.182 302.289 211.739 303.239 211.145 302.91L211.156 302.915Z" fill="black"/>
<path d="M195.338 337.667C195.53 341.048 196.306 344.343 197.626 347.463C197.888 348.087 196.899 348.427 196.639 347.81C195.284 344.617 194.494 341.208 194.298 337.743C194.259 337.074 195.307 336.995 195.341 337.675L195.338 337.667Z" fill="black"/>
<path d="M146.374 285.636C133.385 292.138 121.246 300.329 110.343 309.92C107.254 312.638 104.269 315.481 101.385 318.417C100.914 318.899 100.113 318.224 100.584 317.743C110.879 307.248 122.515 298.09 135.156 290.575C138.706 288.463 142.34 286.493 146.032 284.638C146.635 284.34 146.975 285.33 146.379 285.626L146.374 285.636Z" fill="black"/>
<g style="mix-blend-mode:soft-light">
<path d="M108.116 175.373C111.13 193.415 122.641 210.863 133.822 214.352C145.011 217.839 151.63 206.043 148.616 188.002C145.602 169.961 134.09 152.513 122.909 149.023C111.721 145.536 105.102 157.332 108.116 175.373Z" fill="white"/>
</g>
<g style="mix-blend-mode:soft-light">
<path d="M118.445 178.588C119.917 187.424 125.555 195.972 131.038 197.678C136.513 199.386 139.763 193.608 138.283 184.774C136.803 175.94 131.173 167.39 125.69 165.684C120.207 163.978 116.966 169.754 118.445 178.588Z" fill="white"/>
</g>
<g style="mix-blend-mode:soft-light">
<path d="M123.518 180.17C124.24 184.5 127.002 188.683 129.687 189.521C132.372 190.36 133.962 187.53 133.24 183.2C132.518 178.871 129.757 174.688 127.072 173.849C124.387 173.011 122.797 175.841 123.518 180.17Z" fill="white"/>
</g>
<path d="M126.161 184.099L125.439 183.728" stroke="white" stroke-width="1.19479" stroke-miterlimit="10"/>
<path d="M124 182.981L98.6974 169.901" stroke="white" stroke-width="1.19479" stroke-miterlimit="10"/>
<path d="M97.9724 169.535L97.2535 169.165L96.4944 169.432" stroke="white" stroke-width="1.19479" stroke-miterlimit="10"/>
<path d="M95.0195 169.953L57.1701 183.278" stroke="white" stroke-width="1.19479" stroke-miterlimit="10"/>
<path d="M56.4219 183.531L55.6619 183.799" stroke="white" stroke-width="1.19479" stroke-miterlimit="10"/>
<path d="M54.4221 175.426L73.4304 168.734C74.2692 168.439 75.188 168.878 75.4826 169.714C75.7772 170.551 75.3359 171.469 74.4971 171.764L55.4888 178.456C54.65 178.751 53.7312 178.312 53.4366 177.475C53.1421 176.639 53.5833 175.721 54.4221 175.426Z" fill="white"/>
<path d="M52.512 169.996L71.5202 163.304C72.3591 163.009 73.2779 163.448 73.5724 164.285C73.867 165.121 73.4258 166.039 72.587 166.334L53.5787 173.026C52.7399 173.321 51.8211 172.883 51.5265 172.046C51.2319 171.209 51.6731 170.291 52.512 169.996Z" fill="white"/>
</g>
<g clip-path="url(#clip1_4622_7311)">
<path d="M515.195 509.926C512.163 510.123 508.883 510.811 505.458 512.249C501.633 513.853 498.615 516.026 496.225 518.366L485.441 485.128C485.227 484.473 485.226 483.784 485.415 483.161C485.704 482.164 486.425 481.309 487.446 480.951L500.882 476.148C501.813 475.82 502.799 475.959 503.573 476.46C504.172 476.837 504.655 477.427 504.901 478.178L515.197 509.933L515.195 509.926Z" fill="#FF6A48"/>
<path d="M526.024 511.175C523.098 510.308 519.382 509.652 515.195 509.933C512.163 510.129 508.883 510.817 505.458 512.255C501.632 513.859 498.615 516.032 496.225 518.372C492.462 522.059 490.288 526.179 489.086 529.213C484.795 521.877 483.086 512.997 481.999 509.315C479.776 501.83 477.07 491.386 475.003 483.857L485.414 483.16L503.57 476.453L506.926 472.066C513.035 480.672 518.832 492.805 523.106 502.417C524.152 504.777 525.216 507.836 526.03 511.168L526.024 511.175Z" fill="#FF6A48"/>
<path d="M520.156 536.886C505.194 543.816 494.353 538.208 489.089 529.222C490.291 526.188 492.465 522.067 496.228 518.38C498.611 516.042 501.635 513.867 505.46 512.264C508.886 510.825 512.166 510.138 515.198 509.941C519.385 509.66 523.101 510.316 526.027 511.184C528.956 518.166 528.649 532.958 520.151 536.894L520.156 536.886Z" fill="white"/>
<path d="M505.523 507.049C508.832 505.831 512.375 505.189 515.846 505.536C516.469 505.602 516.996 505.064 516.955 504.417C516.825 502.442 515.835 500.522 514.119 499.717C512.877 499.135 511.448 499.183 510.086 499.333C504.372 499.946 494.987 502.536 491.286 508.989C490.309 510.69 491.264 513.825 492.95 513.865C494.629 513.906 501.874 508.394 505.524 507.056L505.523 507.049Z" fill="white"/>
<path d="M488.218 504.325C488.664 505.298 489.933 505.486 490.618 504.659C493.036 501.747 496.199 499.512 499.595 497.957C503.639 496.1 508.016 495.162 512.398 494.605C513.241 494.499 514.208 494.328 514.652 493.567C514.993 492.984 514.878 492.201 514.498 491.645C514.067 491.004 513.344 490.623 512.643 490.361C511.499 489.931 510.278 489.748 509.053 489.791C503.492 489.979 497.973 491.681 493.197 494.694C491.313 495.88 489.65 497.432 488.382 499.298C487.987 499.886 487.634 500.513 487.465 501.207C487.277 501.98 487.717 503.24 488.21 504.32L488.218 504.325Z" fill="white"/>
<path d="M484.346 493.376C484.651 494.471 485.973 494.792 486.773 493.998C488.321 492.453 490.177 491.226 492.08 490.18C497.463 487.221 503.456 485.49 509.518 485.159C509.85 485.143 510.22 485.107 510.438 484.847C510.594 484.66 510.627 484.401 510.628 484.156C510.63 483.125 510.202 482.142 509.435 481.496C507.614 479.961 505.348 480.079 503.214 480.384C497.907 481.151 492.745 483.038 488.123 485.885C487.136 486.497 486.223 487.238 485.517 488.171C483.979 490.198 483.976 492.048 484.347 493.383L484.346 493.376Z" fill="white"/>
<path d="M395.937 476.869L398.964 468.75L371.861 458.377L369.763 470.325L382.488 478.59L395.937 476.869Z" fill="#FFA38A"/>
<path d="M408.998 474.378C425.764 437.697 459.716 365.824 459.716 365.824C459.716 365.824 511.782 394.13 547.082 372.856C560.987 364.476 563.733 343.437 563.733 343.437C563.733 343.437 476.416 315.233 454.328 309.636C432.233 304.04 410.002 303.977 399.486 334.094C395.134 346.574 391.173 359.171 387.767 371.941C378.608 406.297 370.654 426.002 361.495 460.358C361.495 460.358 408.568 475.32 408.998 474.378Z" fill="#072B65"/>
<path d="M379.303 473.17C379.133 473.394 378.901 473.581 378.615 473.731C375.332 475.341 370.382 477.33 365.58 477.946C359.325 478.737 349.891 480.135 344.823 480.4C344.821 480.387 344.818 480.373 344.804 480.369C343.444 477.947 340.915 474.676 339.484 473.427C341.835 473.572 362.05 470.901 369.684 467.069C370.272 466.779 371.528 465.748 372.144 466.033L379.232 469.819C380.433 470.368 379.965 472.3 379.31 473.175L379.303 473.17Z" fill="#FF6A48"/>
<path d="M397.748 499.037C396.077 503.956 394.057 505.577 394.057 505.577L346.315 502.658C346.543 498.541 346.893 489.213 345.822 483.562C345.605 482.43 345.26 481.376 344.826 480.394C349.893 480.123 359.328 478.732 365.583 477.941C370.385 477.324 375.335 475.335 378.618 473.726C378.912 473.581 379.136 473.388 379.306 473.165L395.935 476.87C395.935 476.87 402.759 484.336 397.748 499.037Z" fill="#FF6A48"/>
<path d="M339.49 473.431C334.112 473.973 327.908 475.212 324.717 478.448C314.348 488.985 323.206 501.257 323.206 501.257L346.31 502.669C346.538 498.551 346.889 489.223 345.824 483.571C344.938 478.895 341.733 475.385 339.488 473.424L339.49 473.431Z" fill="white"/>
<path d="M323.207 501.246L325.27 505.234L391.844 509.976L394.06 505.575L323.207 501.246Z" fill="white"/>
<path d="M345.972 472.424C348.677 474.788 350.715 477.893 351.806 481.308C352.024 481.983 352.205 482.679 352.604 483.265C353.004 483.85 353.674 484.309 354.38 484.243C355.079 484.171 355.645 483.585 355.883 482.925C356.12 482.266 356.077 481.537 355.979 480.846C355.439 477.011 353.157 473.455 349.887 471.363L345.972 472.424Z" fill="white"/>
<path d="M356.042 470.496C358.791 473.445 360.839 477.033 361.981 480.896C362.074 481.205 362.161 481.516 362.33 481.791C362.859 482.625 364.128 482.779 364.976 482.269C365.824 481.759 366.283 480.75 366.354 479.761C366.426 478.771 366.178 477.795 365.894 476.846C365.418 475.251 364.842 473.668 363.945 472.27C363.047 470.872 361.805 469.641 360.27 468.993L356.042 470.496Z" fill="white"/>
<path d="M364.968 468.174C367.636 470.633 369.72 473.723 370.996 477.11C371.304 477.931 371.583 478.786 372.167 479.439C372.751 480.092 373.759 480.459 374.528 480.032C375.432 479.532 375.53 478.285 375.41 477.264C374.914 473.011 372.474 469.021 368.908 466.637L364.96 468.169L364.968 468.174Z" fill="white"/>
<path d="M387.309 496.703C389.886 496.211 391.578 493.731 391.088 491.164C390.598 488.597 388.112 486.914 385.534 487.406C382.957 487.898 381.264 490.378 381.755 492.946C382.245 495.513 384.731 497.195 387.309 496.703Z" fill="white"/>
<path d="M554.419 338.504C554.211 348.221 548.785 357.05 540.3 361.809C531.365 366.825 520.786 367.431 510.813 366.155C500.273 364.809 490.154 361.438 479.699 359.68C475.056 358.901 470.357 358.331 465.648 358.103C462.065 357.927 458.23 357.793 454.718 358.668C452.024 359.339 450.539 362.291 449.235 364.505C446.644 368.917 444.425 373.551 442.246 378.178C439.234 384.581 436.38 391.056 433.585 397.554C430.323 405.124 427.143 412.726 424.007 420.347C420.871 427.968 417.55 436.157 414.369 444.08C411.402 451.471 408.456 458.864 405.517 466.263C404.866 467.91 404.207 469.557 403.557 471.21C402.955 472.724 405.341 473.558 405.944 472.051C408.794 464.874 411.644 457.696 414.516 450.522C417.666 442.652 420.837 434.786 424.046 426.939C427.221 419.167 430.435 411.416 433.715 403.692C436.638 396.821 439.605 389.97 442.713 383.173C445.034 378.103 447.383 373.075 450.017 368.246C450.9 366.624 451.819 365.015 452.856 363.486C453.22 362.953 453.609 362.442 454.014 361.942C454.192 361.723 453.817 362.129 454.07 361.876C454.157 361.791 454.242 361.7 454.329 361.615C454.474 361.478 454.636 361.359 454.79 361.234C454.701 361.305 454.505 361.391 454.738 361.285C455.064 361.127 454.59 361.299 454.703 361.278C455.37 361.15 456.024 360.95 456.703 360.848C458.441 360.585 460.197 360.523 461.951 360.522C466.522 360.53 471.101 360.973 475.626 361.597C485.928 363.022 495.848 366.179 506.07 367.974C516.335 369.775 527.048 370.017 536.909 366.189C546.075 362.631 553.375 355.287 555.931 345.709C556.543 343.422 556.889 341.07 556.944 338.705C556.978 337.088 554.458 336.879 554.419 338.504Z" fill="white"/>
<path d="M435.33 417.71L427.895 433.604L425.13 382.757L435.33 417.71Z" fill="black"/>
<path d="M511.74 468.124C510.949 472.527 502.889 478.467 498.914 480.543C489.903 485.238 479.074 486.364 469.294 483.617C451.243 449.207 436.554 429.429 427.029 391.767C424.871 383.226 422.996 373.872 426.687 365.859C429.166 360.465 433.928 356.376 439.178 353.586C449.209 348.245 461.475 347.248 472.229 350.901C475.343 351.958 478.439 353.462 480.516 356.014C482.019 357.863 482.892 360.139 483.665 362.394C491.371 384.925 511.748 468.129 511.748 468.129L511.74 468.124Z" fill="#072B65"/>
<path d="M502.008 325.359L558.193 360.379C560.201 356.4 561.765 352.607 562.528 349.138" fill="black"/>
<path d="M399.069 389.272C398.536 398.075 398.004 406.878 397.478 415.679C396.951 424.481 396.419 433.216 395.894 441.983C395.594 446.947 395.295 451.911 394.996 456.875C394.961 457.414 395.804 457.485 395.837 456.939C396.37 448.137 396.902 439.334 397.428 430.532L399.012 404.229C399.311 399.265 399.611 394.301 399.91 389.337C399.944 388.798 399.102 388.727 399.069 389.272Z" fill="black"/>
<path d="M453.059 361.473C456.564 376.855 460.264 392.186 464.162 407.473C468.038 422.682 472.116 437.839 476.383 452.939C478.796 461.493 481.275 470.029 483.819 478.545C483.972 479.061 484.805 478.902 484.645 478.387C480.136 463.271 475.822 448.098 471.71 432.873C467.613 417.727 463.71 402.523 460.005 387.274C457.905 378.64 455.869 369.986 453.893 361.321C453.773 360.798 452.945 360.949 453.067 361.478L453.059 361.473Z" fill="black"/>
<path d="M563.831 270.843C563.939 290.074 565.801 350.47 565.801 350.47C526.987 334.887 486.688 318.373 454.328 309.645L458.559 257.149L441.712 249.616C437.321 247.179 433.668 243.44 431.335 239.006C437.641 228.466 448.342 210.625 458.13 203.181C467.918 195.737 488.507 192.872 499.338 198.687L530.774 198.412C545.499 193.752 565.558 201.641 576.337 212.638C587.117 223.636 592.423 238.046 598.422 252.209C586.181 260.08 577.234 265.179 563.826 270.851L563.831 270.843Z" fill="#FF6A48"/>
<path d="M539.756 236.874C542.686 247.343 545.744 258.088 551.858 267.219C553.527 269.719 555.425 272.052 557.557 274.177C557.937 274.555 558.58 274.009 558.192 273.626C550.487 265.959 546.301 255.695 543.14 245.489C542.235 242.577 541.409 239.65 540.588 236.715C540.442 236.197 539.614 236.348 539.762 236.873L539.756 236.874Z" fill="black"/>
<path d="M536.921 258.076C531.996 267.553 524.665 275.559 516.287 282.133C507.009 289.411 496.467 294.877 485.689 299.575C479.269 302.37 472.731 304.908 466.206 307.443C465.702 307.642 466.071 308.39 466.576 308.198C478.261 303.661 489.992 299.109 501.004 293.089C510.656 287.807 519.763 281.354 527.221 273.228C531.294 268.793 534.845 263.891 537.622 258.549C537.866 258.073 537.173 257.598 536.921 258.076Z" fill="black"/>
<path d="M439.132 254.365C434.833 251.187 431.09 247.261 428.131 242.816L431.347 238.988C431.347 238.988 436.126 246.511 446.792 252.535L439.139 254.364L439.132 254.365Z" fill="white"/>
<path d="M520.346 180.098C518.99 182.465 517.481 184.753 515.843 186.942C515.325 187.635 514.773 188.334 514.007 188.739C512.994 189.281 511.77 189.221 510.622 189.126C497.158 188.011 494.762 183.139 494.984 176.476C495.192 170.029 495.771 161.647 496.227 155.206L508.485 154.102C508.485 154.102 526.044 165.402 525.74 165.46C525.436 165.518 525.058 178.366 525.058 178.366C525.058 178.366 523.968 191.854 524.074 191.588L504.257 205.423L500.072 200.189C500.139 199.248 500.168 198.431 500.27 197.313C500.584 194.004 501.464 190.11 501.66 187.329" fill="#FFA38A"/>
<path d="M500.481 195.592L492.57 196.324L495.782 209.811C495.782 209.811 501.481 207.542 503.185 205.668L508.604 212.447C515.856 209.023 528.537 202.344 535.152 197.805C532.072 195.377 528.991 192.948 525.904 190.521C518.526 195.192 511.148 199.862 503.777 204.531C501.997 201.738 500.266 197.305 500.266 197.305L500.473 195.587L500.481 195.592Z" fill="white"/>
<path d="M457.969 269.962C457.668 248.679 467.353 221.027 467.353 221.027L446.794 252.55L457.969 269.962Z" fill="black"/>
<path d="M490.28 153.461C486.148 150.441 483.075 146.005 481.724 141.083C480.981 138.372 480.849 135.17 482.714 133.06C485.087 130.382 489.572 130.836 492.553 132.813C495.534 134.789 497.549 137.878 500.051 140.437C500.579 140.978 501.19 141.524 501.942 141.619C503.008 141.75 503.93 140.946 504.741 140.238C507.526 137.782 511.457 135.728 514.845 137.252C517.842 138.598 519.066 142.104 520.137 145.202C521.209 148.301 522.882 151.755 526.092 152.494C526.837 152.666 527.612 152.668 528.352 152.882C531.381 153.75 532.378 157.607 532.015 160.733C531.642 163.944 530.315 173.396 528.353 175.968L524.523 184.152L523.899 172.158C523.285 170.268 522.65 168.342 521.456 166.755C520.262 165.167 518.374 163.958 516.385 164.092C514.68 164.206 513.056 165.28 511.375 164.98C509.772 164.693 508.645 163.242 507.929 161.789C505.354 156.555 497.86 158.033 494.62 159.361C493.4 159.86 486.399 160.835 487.632 155.74C488.231 153.278 490.291 153.479 490.291 153.479L490.28 153.461Z" fill="#072B65"/>
<path d="M522.123 170.74C522.827 168.469 525.995 167.585 528.026 168.821C530.057 170.058 530.823 172.812 530.178 175.105C529.294 178.263 524.534 179.813 522.356 178.598" fill="#FFA38A"/>
<path d="M401.437 249.015L408.184 192.94C407.353 192.498 402.031 189.453 404.871 181.432C405.17 180.596 405.372 178.818 404.974 178.027L425.724 167.139C426.778 160.817 428.811 156.068 430.495 149.884C431.619 145.759 434.743 145.183 435.809 145.778C437.579 146.764 437.772 147.342 437.049 151.595C435.921 158.246 434.783 164.919 433.22 171.482L428.967 191.519C428.215 196.446 433.517 248.235 433.666 253.216" fill="#FFA38A"/>
<path d="M424.153 178.228C424.153 178.228 422.028 177.896 419.561 180.803C417.101 183.709 416.753 188.526 417.486 189.853" fill="#FFA38A"/>
<path d="M424.188 177.804C422.511 177.558 420.724 178.929 419.671 180.052C417.871 181.965 416.922 184.568 416.747 187.168C416.684 188.094 416.662 189.197 417.104 190.041C417.353 190.519 418.111 190.149 417.862 189.671C417.539 189.057 417.544 188.258 417.567 187.585C417.606 186.499 417.804 185.417 418.126 184.38C418.849 182.099 420.408 179.788 422.732 178.894C423.165 178.723 423.674 178.591 424.112 178.658C424.648 178.74 424.714 177.901 424.178 177.82L424.188 177.804Z" fill="black"/>
<path d="M409.641 166.576C405.505 165.544 404.205 170.473 404.028 173.169C403.984 173.873 404.045 174.585 404.15 175.281C404.344 176.582 404.701 177.913 405.578 178.885C406.49 179.892 407.935 180.394 409.275 180.165C410.616 179.937 411.819 178.991 412.348 177.743" fill="#FFA38A"/>
<path d="M419.611 162.572C417.549 161.997 415.029 161.788 413.277 162.553C410.975 163.559 409.142 166.734 408.891 169.225C408.641 171.716 409.349 174.208 410.248 176.548C410.44 177.05 410.666 177.587 411.114 177.891C411.73 178.319 412.612 178.164 413.222 177.734C413.832 177.304 414.231 176.634 414.6 175.983" fill="#FFA38A"/>
<path d="M427.16 161.785C421.94 160.175 418.048 162.146 416.015 165.782C415.214 167.218 414.796 168.834 414.431 170.439C413.994 172.351 413.625 174.401 414.356 176.22C415.092 178.031 417.379 179.349 419.084 178.375C420.381 177.636 420.794 175.994 421.035 174.529C421.278 173.001 421.474 171.442 422.102 170.032C422.73 168.623 423.964 168.769 425.481 168.425" fill="#FFA38A"/>
<path d="M427.759 194.781C429.927 192.968 432.119 191.137 433.883 188.93C435.648 186.723 436.987 184.086 437.19 181.27C437.392 178.454 437.695 175.591 434.056 173.788C430.416 171.985 420.304 170.298 416.218 172.832C415.262 173.424 414.352 174.328 414.305 175.449C414.277 176.198 414.641 176.92 415.174 177.453C415.708 177.986 416.385 178.341 417.077 178.626C418.594 179.251 422.963 179.276 424.607 179.277" fill="#FFA38A"/>
<path d="M428.029 195.103C431.865 191.901 435.999 188.361 437.27 183.321C437.543 182.238 437.634 181.136 437.688 180.02C437.732 179.104 437.732 178.169 437.52 177.274C437.049 175.269 435.53 173.955 433.688 173.168C432.158 172.511 430.512 172.108 428.883 171.792C426.911 171.404 424.899 171.167 422.886 171.135C421.086 171.11 419.231 171.225 417.51 171.792C415.789 172.36 413.833 173.634 413.872 175.599C413.921 177.971 416.574 179.13 418.588 179.414C420.601 179.699 422.576 179.704 424.563 179.707C425.104 179.706 425.177 178.866 424.629 178.868C423.046 178.864 421.453 178.847 419.872 178.712C418.187 178.569 416.194 178.288 415.134 176.791C413.773 174.867 415.997 173.2 417.661 172.623C419.184 172.094 420.847 171.974 422.443 171.977C425.822 171.98 429.339 172.496 432.53 173.634C434.161 174.21 435.789 175.094 436.472 176.772C436.804 177.575 436.871 178.47 436.857 179.326C436.843 180.256 436.791 181.208 436.651 182.122C435.82 187.46 431.382 191.201 427.464 194.474C427.05 194.819 427.604 195.457 428.016 195.106L428.029 195.103Z" fill="black"/>
<path d="M418.912 162.683C416.783 165.382 415.91 168.954 416.533 172.329C416.635 172.863 417.461 172.705 417.36 172.172C416.775 169.001 417.609 165.689 419.606 163.158C419.942 162.732 419.244 162.265 418.906 162.684L418.912 162.683Z" fill="black"/>
<path d="M409.183 166.965C408.515 170.068 408.622 173.467 409.82 176.439C410.316 177.675 411.209 178.869 412.554 179.24C413.79 179.578 415.113 179.045 415.64 177.86C415.86 177.36 415.062 177.09 414.847 177.581C414.339 178.722 412.892 178.678 411.999 178.057C410.979 177.344 410.52 176.087 410.205 174.939C409.515 172.436 409.434 169.79 409.984 167.249C410.097 166.729 409.303 166.444 409.191 166.97L409.183 166.965Z" fill="black"/>
<path d="M404.833 178.308C405.101 178.994 405.748 179.403 406.362 179.75C407.032 180.134 407.748 180.441 408.536 180.331C410.071 180.12 410.963 178.653 411.066 177.221C411.107 176.681 410.266 176.616 410.225 177.156C410.147 178.222 409.543 179.361 408.377 179.502C407.809 179.576 407.271 179.303 406.793 179.026C406.315 178.749 405.795 178.466 405.584 177.933C405.386 177.432 404.627 177.802 404.826 178.303L404.833 178.308Z" fill="black"/>
<path d="M426.021 163.009C424.552 165.617 423.52 168.427 422.956 171.36C422.852 171.892 423.693 171.957 423.797 171.425C424.335 168.64 425.329 165.953 426.721 163.483C426.988 163.015 426.288 162.542 426.021 163.009Z" fill="black"/>
<path d="M473.121 318.812L384.056 307.402L366.469 238.809L455.534 250.218L473.121 318.812Z" fill="white"/>
<path d="M455.539 250.223L460.487 250.95L476.885 314.209L524.186 319.805L523.534 324.181L473.127 318.816L455.539 250.223Z" fill="#0551E8"/>
<path d="M524.187 319.796L475.969 310.648L476.886 314.199L524.187 319.796Z" fill="#072B65"/>
<path d="M428.143 282.565C428.889 289.056 424.013 293.515 417.259 292.518C410.498 291.522 404.413 285.45 403.666 278.952C402.919 272.455 407.797 268.002 414.551 268.999C421.305 269.996 427.396 276.067 428.143 282.565Z" fill="#0551E8"/>
<path d="M446.844 295.494L444.416 292.142C444.107 291.71 443.602 291.465 443.07 291.478L438.922 291.573C437.585 291.603 436.789 290.09 437.583 289.01L440.036 285.669C440.351 285.241 440.43 284.686 440.26 284.187L438.891 280.285C438.452 279.024 439.651 277.806 440.922 278.218L444.868 279.506C445.372 279.669 445.929 279.576 446.348 279.257L449.651 276.75C450.716 275.939 452.252 276.697 452.247 278.036L452.235 282.174C452.234 282.706 452.493 283.203 452.927 283.502L456.336 285.854C457.44 286.613 457.186 288.299 455.909 288.713L451.957 289.979C451.454 290.144 451.057 290.54 450.901 291.048L449.704 295.009C449.318 296.291 447.632 296.572 446.844 295.494Z" fill="#FFE048"/>
<path d="M409.049 299.166L391.055 291.258C390.06 290.82 389.568 289.604 389.958 288.56L392.879 280.748C393.269 279.705 394.406 279.201 395.401 279.639L413.394 287.547C414.389 287.985 414.882 289.201 414.492 290.244L411.571 298.056C411.181 299.1 410.043 299.604 409.049 299.166Z" fill="#FFE048"/>
<path d="M407.85 296.829L393.409 290.482C392.414 290.044 391.922 288.828 392.312 287.784L394.076 283.066C394.466 282.022 395.603 281.519 396.598 281.957L411.039 288.304C412.034 288.742 412.527 289.958 412.137 291.002L410.372 295.72C409.982 296.764 408.845 297.267 407.85 296.829Z" stroke="white" stroke-width="1.16269" stroke-miterlimit="10"/>
<path d="M431.792 254.664L423.242 264.895C422.16 266.193 422.673 268.163 424.254 268.762L437.525 273.824C439.446 274.556 441.371 272.763 440.771 270.802L436.05 255.509C435.475 253.647 433.053 253.16 431.798 254.662L431.792 254.664Z" fill="#BD78FF"/>
<path d="M445.861 283.934C445.861 283.934 445.776 283.704 445.768 283.699C445.748 283.662 445.72 283.626 445.694 283.597C445.673 283.56 445.647 283.531 445.627 283.494C445.625 283.488 445.611 283.484 445.61 283.477C445.499 283.362 445.378 283.269 445.231 283.215C445.224 283.216 445.209 283.206 445.187 283.203C445.187 283.203 445.181 283.204 445.174 283.205C445.124 283.194 445.074 283.183 445.11 283.19C445.089 283.188 445.03 283.165 444.995 283.164L444.764 283.174C444.764 283.174 444.552 283.249 444.546 283.25C444.486 283.296 444.432 283.333 444.372 283.379C444.328 283.435 444.284 283.491 444.241 283.554C444.241 283.554 444.241 283.554 444.242 283.561C444.231 283.576 444.169 283.752 444.165 283.766C444.165 283.766 444.139 283.99 444.14 283.996C444.142 284.078 444.159 284.163 444.18 284.241C444.18 284.241 444.272 284.469 444.278 284.468L444.418 284.66C444.47 284.718 444.534 284.767 444.598 284.816C444.662 284.865 444.736 284.892 444.804 284.927C444.804 284.927 445.02 284.981 445.027 284.98L445.251 284.971C445.323 284.951 445.393 284.924 445.464 284.903C445.477 284.901 445.627 284.79 445.639 284.781C445.65 284.765 445.761 284.628 445.772 284.613C445.8 284.546 445.828 284.479 445.857 284.412C445.857 284.412 445.89 284.194 445.888 284.181C445.88 284.142 445.873 284.102 445.872 284.061C445.864 284.022 445.863 283.981 445.856 283.942L445.861 283.934ZM444.998 284.938C444.998 284.938 445.053 284.941 445.08 284.936C445.06 284.939 445.032 284.938 445.011 284.935C445.011 284.935 445.005 284.936 444.998 284.938ZM445.175 284.931C445.175 284.931 445.215 284.924 445.234 284.92C445.234 284.92 445.234 284.92 445.228 284.921C445.215 284.924 445.195 284.927 445.18 284.923L445.175 284.931Z" fill="black"/>
<path d="M449.093 286.659C450.349 286.46 449.979 284.484 448.692 284.702C447.405 284.921 447.863 286.853 449.093 286.659Z" fill="black"/>
<path d="M444.343 286.49C444.36 286.33 444.333 286.513 444.327 286.555C444.319 286.618 444.309 286.674 444.301 286.737C444.278 286.905 444.26 287.066 444.272 287.234C444.297 287.652 444.471 288.063 444.796 288.363C445.171 288.714 445.687 288.977 446.19 288.99C446.645 289.006 447.05 288.867 447.408 288.622C447.669 288.449 447.949 288.191 448.047 287.879C448.107 287.69 447.994 287.459 447.788 287.382C447.581 287.305 447.347 287.405 447.288 287.6C447.29 287.613 447.281 287.636 447.276 287.644C447.264 287.653 447.328 287.558 447.285 287.621C447.26 287.667 447.226 287.708 447.194 287.755C447.183 287.77 447.134 287.834 447.166 287.787C447.206 287.746 447.143 287.812 447.131 287.821C447.08 287.872 447.028 287.923 446.973 287.961C446.949 287.979 446.919 287.998 446.896 288.023C446.872 288.041 446.804 288.082 446.865 288.043C446.798 288.083 446.723 288.124 446.648 288.159C446.616 288.172 446.578 288.186 446.546 288.199C446.526 288.203 446.42 288.223 446.5 288.208C446.42 288.223 446.341 288.238 446.255 288.255C446.242 288.257 446.173 288.257 446.222 288.261C446.27 288.259 446.209 288.263 446.202 288.265C446.153 288.26 446.106 288.263 446.062 288.25C446.041 288.248 445.942 288.232 445.964 288.235C445.999 288.242 445.941 288.226 445.941 288.226C445.912 288.218 445.875 288.204 445.846 288.196C445.802 288.177 445.757 288.159 445.712 288.14C445.668 288.121 445.682 288.125 445.621 288.089C445.575 288.064 445.527 288.032 445.48 288C445.457 287.984 445.433 287.968 445.408 287.945L445.375 287.918C445.343 287.89 445.309 287.855 445.275 287.821C445.258 287.803 445.241 287.786 445.224 287.769C445.224 287.769 445.179 287.716 445.215 287.757C445.241 287.786 445.177 287.703 445.166 287.684C445.146 287.647 445.125 287.61 445.104 287.573C445.155 287.659 445.102 287.56 445.095 287.527C445.089 287.494 445.083 287.462 445.07 287.43C445.062 287.39 445.051 287.331 445.065 287.404C445.059 287.371 445.051 287.331 445.058 287.296C445.057 287.221 445.057 287.146 445.064 287.076C445.06 287.056 445.076 286.958 445.073 287.013C445.069 287.068 445.084 286.963 445.081 286.95C445.103 286.816 445.127 286.689 445.143 286.556C445.166 286.354 444.938 286.131 444.745 286.12C444.509 286.104 444.38 286.258 444.352 286.468L444.343 286.49Z" fill="black"/>
<path d="M432.046 259.25L427.467 264.731C426.809 265.519 427.121 266.722 428.082 267.091L435.19 269.801C436.365 270.246 437.54 269.155 437.168 267.957L434.638 259.766C434.284 258.625 432.81 258.334 432.046 259.25Z" fill="#FF6A48"/>
<path d="M600.621 262.422C599.533 259.914 598.393 257.606 597.209 255.601L562.994 272.935C565.328 276.98 567.785 280.954 570.358 284.851C570.358 284.851 575.342 284.363 578.163 284.569L600.615 262.424L600.621 262.422Z" fill="#EF7356"/>
<path d="M600.616 262.418L578.164 284.563C575.344 284.358 570.36 284.845 570.36 284.845C549.371 287.302 531.366 289.388 510.603 293.351C510.603 293.351 500.152 290.501 497.229 290.151C496.163 290.027 490.765 288.341 488.98 288.607C487.186 288.867 484.724 290.47 483.157 291.377C479.781 293.324 475.912 294.95 472.204 296.163L473.607 301.573C474.649 301.825 475.724 301.033 476.73 300.67C480.468 299.328 485.39 297.795 485.39 297.795C485.39 297.795 490.06 294.59 494.885 296.502C499.71 298.413 496.528 298.863 496.528 298.863L494.269 309.749L503.889 310.186C504.953 312.098 507.293 313.016 509.488 312.993C511.683 312.97 513.785 312.173 515.833 311.38C518.41 310.383 520.56 308.184 520.56 308.184C542.457 312.46 558.467 315.86 580.757 314.622C596.363 313.752 609.704 307.766 610.868 303.926C611.875 300.622 607.305 277.862 600.617 262.425L600.616 262.418Z" fill="#FFA38A"/>
<path d="M505.055 294.089C502.318 292.783 499.478 291.687 496.573 290.822C495.977 290.642 495.363 290.48 494.744 290.502C493.813 290.544 492.963 291.006 492.146 291.462C487.663 293.963 476.477 300.868 476.477 300.868C474.962 301.437 474.498 303.744 475.68 304.842C476.655 305.748 478.165 305.692 479.482 305.481C484.271 304.731 488.9 302.776 492.67 299.736C494.558 298.215 494.777 298.071 494.777 298.071L496.35 298.952" fill="#FFA38A"/>
<path d="M505.202 293.684C502.587 292.437 499.878 291.384 497.106 290.535C495.796 290.136 494.619 289.89 493.3 290.408C492.427 290.752 491.614 291.269 490.798 291.732C487.656 293.54 484.55 295.429 481.45 297.317C480.187 298.091 478.922 298.858 477.659 299.638C477.065 300.004 476.423 300.338 475.838 300.723C474.323 301.722 474.111 304.164 475.55 305.316C476.368 305.972 477.454 306.099 478.471 306.041C479.799 305.965 481.125 305.664 482.411 305.33C485.393 304.549 488.254 303.314 490.829 301.621C492.315 300.648 493.597 299.394 495.067 298.41L494.532 298.444C495.055 298.74 495.576 299.03 496.105 299.325C496.589 299.601 497.088 298.878 496.597 298.603C496.075 298.307 495.554 298.017 495.025 297.722C494.833 297.616 494.667 297.641 494.49 297.756C493.427 298.471 492.491 299.38 491.457 300.137C489.355 301.685 487.003 302.898 484.547 303.776C483.335 304.212 482.091 304.552 480.826 304.814C479.746 305.04 478.594 305.288 477.481 305.166C476.494 305.054 475.583 304.518 475.459 303.47C475.355 302.603 475.764 301.733 476.549 301.324C478.239 300.449 479.84 299.324 481.466 298.331C484.411 296.534 487.359 294.75 490.336 293.008C490.97 292.634 491.613 292.266 492.256 291.904C492.9 291.542 493.522 291.178 494.232 291.022C494.982 290.858 495.701 291.035 496.426 291.245C499.337 292.102 502.172 293.205 504.908 294.512C505.414 294.757 505.701 293.93 505.203 293.691L505.202 293.684Z" fill="black"/>
<path d="M494.274 309.742C493.067 310.416 491.187 311.477 488.784 311.561C486.382 311.644 484.467 309.58 486.246 307.521C487.317 306.279 492.712 302.349 495.759 299.501C497.009 298.335 498.29 297.148 499.872 296.498C501.454 295.848 503.419 295.842 504.731 296.936" fill="#FFA38A"/>
<path d="M494.084 309.374C493.081 309.934 492.058 310.464 490.955 310.784C489.851 311.104 488.443 311.372 487.293 310.875C486.435 310.507 485.755 309.674 486.036 308.706C486.237 307.999 486.828 307.504 487.355 307.035C488.822 305.745 490.377 304.561 491.897 303.336C493.654 301.915 495.321 300.423 497.008 298.921C498.954 297.198 502.032 295.341 504.485 297.282C504.912 297.617 505.382 296.92 504.961 296.584C502.782 294.857 499.832 295.734 497.79 297.202C496.658 298.018 495.678 299.024 494.635 299.947C493.684 300.783 492.708 301.591 491.729 302.385C489.991 303.795 488.178 305.138 486.526 306.64C485.89 307.219 485.306 307.897 485.158 308.771C484.997 309.758 485.494 310.673 486.281 311.246C487.443 312.089 488.931 312.064 490.279 311.8C491.778 311.507 493.138 310.845 494.458 310.115C494.929 309.854 494.566 309.098 494.088 309.36L494.084 309.374Z" fill="black"/>
<path d="M507.758 300.814C506.831 300.37 505.734 300.293 504.754 300.616C503.691 300.969 502.824 301.742 502.002 302.493C498.889 305.319 497.38 306.924 494.273 309.742C493.742 310.225 491.593 311.959 491.409 312.65C491.06 314.013 492.434 315.327 493.837 315.462C495.24 315.597 496.582 314.911 497.813 314.218C500.671 312.608 501.221 312.08 503.892 310.171" fill="#FFA38A"/>
<path d="M507.903 300.42C506.193 299.641 504.4 300.052 502.938 301.15C501.29 302.386 499.815 303.916 498.309 305.323C496.803 306.729 495.185 308.267 493.659 309.786C493.153 310.292 492.645 310.792 492.122 311.281C491.663 311.71 491.019 312.249 490.858 312.88C490.59 313.948 491.503 315.002 492.38 315.469C493.655 316.154 495.043 315.889 496.333 315.397C498.454 314.59 500.321 313.244 502.155 311.939C503.819 310.754 505.476 309.564 507.133 308.374C507.573 308.058 507.014 307.428 506.581 307.743C505.364 308.617 504.147 309.49 502.928 310.358C501.458 311.41 500.007 312.499 498.449 313.417C497.291 314.095 496.029 314.773 494.696 315C493.575 315.194 492.172 314.772 491.738 313.613C491.528 313.052 491.841 312.754 492.229 312.345C492.617 311.937 493.022 311.614 493.401 311.234C494.762 309.856 496.15 308.512 497.553 307.18C499.115 305.708 500.694 304.253 502.283 302.81C502.989 302.17 503.711 301.5 504.599 301.126C505.587 300.705 506.662 300.773 507.623 301.211C508.118 301.437 508.397 300.64 507.903 300.42Z" fill="black"/>
<path d="M557.667 272.832C558.561 274.033 560.315 276.005 561.209 277.207C575.831 273.521 600.648 259.244 600.25 258.235C600.25 258.235 599.288 253.839 598.434 252.2C585.795 260.468 572.285 267.469 557.667 272.832Z" fill="white"/>
<path d="M524.735 173.168C525.476 172.058 527.004 171.664 528.207 172.226C528.411 172.323 528.676 172.17 528.748 171.972C528.833 171.738 528.698 171.532 528.495 171.434C526.96 170.717 524.982 171.299 524.043 172.7C523.739 173.154 524.438 173.621 524.743 173.174L524.735 173.168Z" fill="black"/>
<path d="M504.503 170.901C504.503 170.901 504.47 170.873 504.454 170.863C504.454 170.863 504.505 170.914 504.478 170.879C504.458 170.848 504.427 170.827 504.402 170.804C504.377 170.782 504.358 170.751 504.332 170.722C504.322 170.71 504.313 170.698 504.304 170.686C504.367 170.763 504.316 170.712 504.304 170.686C504.272 170.624 504.233 170.564 504.206 170.494C504.193 170.462 504.137 170.384 504.194 170.469C504.175 170.438 504.171 170.384 504.165 170.351C504.151 170.279 504.137 170.207 504.125 170.141C504.11 170.062 504.124 170.209 504.122 170.128C504.121 170.087 504.12 170.046 504.126 170.004C504.132 169.928 504.139 169.858 504.153 169.787C504.139 169.892 504.153 169.787 504.161 169.758C504.175 169.722 504.187 169.678 504.201 169.642C504.214 169.605 504.229 169.575 504.244 169.545C504.253 169.522 504.28 169.483 504.24 169.559C504.25 169.543 504.255 169.529 504.26 169.521C504.303 169.458 504.344 169.389 504.395 169.332C504.339 169.397 504.395 169.332 504.419 169.313C504.443 169.295 504.471 169.262 504.501 169.243C504.513 169.234 504.604 169.169 504.555 169.199C504.58 169.187 504.598 169.177 504.622 169.159C504.653 169.139 504.685 169.126 504.716 169.113C504.73 169.111 504.837 169.063 504.78 169.087C504.723 169.112 504.826 169.079 504.846 169.075C504.886 169.067 504.926 169.06 504.965 169.052C504.998 169.046 505.038 169.038 505.071 169.032C505.078 169.031 505.111 169.024 505.117 169.023C505.117 169.023 505.014 169.022 505.097 169.027C505.173 169.026 505.241 169.027 505.311 169.034C505.353 169.039 505.395 169.045 505.431 169.052C505.509 169.064 505.431 169.052 505.417 169.048C505.439 169.057 505.467 169.059 505.489 169.068C505.569 169.094 505.644 169.127 505.718 169.154C505.762 169.173 505.694 169.138 505.688 169.139C505.711 169.155 505.733 169.165 505.756 169.174C505.787 169.195 505.825 169.216 505.858 169.243C505.874 169.254 505.882 169.259 505.897 169.27C505.976 169.323 505.862 169.229 505.897 169.27C505.931 169.304 505.964 169.332 505.991 169.368C506.139 169.531 506.42 169.566 506.588 169.404C506.755 169.243 506.788 168.984 506.625 168.81C506.06 168.181 505.111 168.021 504.346 168.358C503.582 168.695 503.176 169.585 503.313 170.412C503.39 170.888 503.642 171.311 504.029 171.613C504.206 171.749 504.502 171.686 504.617 171.5C504.743 171.299 504.691 171.063 504.505 170.914L504.503 170.901Z" fill="black"/>
<path d="M502.81 177.226C503.947 178.013 505.678 177.716 506.909 177.311C508.276 176.859 509.47 176.044 510.399 174.952C510.751 174.537 510.052 174.07 509.699 174.478C508.92 175.391 507.887 176.08 506.758 176.48C506.206 176.674 505.618 176.793 505.031 176.837C504.443 176.88 503.785 176.876 503.28 176.529C502.83 176.219 502.36 176.916 502.803 177.228L502.81 177.226Z" fill="black"/>
<path d="M514.276 168.694C514.505 167.543 513.974 166.468 513.088 166.294C512.202 166.119 511.298 166.912 511.068 168.063C510.839 169.215 511.37 170.29 512.256 170.464C513.142 170.638 514.046 169.846 514.276 168.694Z" fill="black"/>
<path d="M503.858 167.745C504.087 166.593 503.556 165.519 502.67 165.344C501.784 165.17 500.88 165.963 500.65 167.114C500.421 168.266 500.952 169.34 501.838 169.515C502.724 169.689 503.628 168.896 503.858 167.745Z" fill="black"/>
<path d="M511.468 164.05C512.111 163.682 512.869 163.708 513.585 163.728C513.957 163.739 514.313 163.773 514.666 163.897C514.996 164.011 515.309 164.177 515.615 164.344C515.813 164.449 516.064 164.435 516.203 164.231C516.321 164.059 516.29 163.758 516.091 163.645C515.718 163.45 515.344 163.249 514.947 163.106C514.528 162.961 514.099 162.9 513.658 162.888C512.791 162.869 511.87 162.854 511.098 163.295C510.628 163.562 510.999 164.317 511.468 164.05Z" fill="black"/>
<path d="M505.393 162.342C504.79 161.55 503.702 161.055 502.713 161.079C502.147 161.092 501.604 161.23 501.088 161.465C500.571 161.7 500.966 162.443 501.458 162.22C501.824 162.055 502.206 161.941 502.626 161.915C502.559 161.921 502.66 161.915 502.681 161.918C502.729 161.916 502.778 161.92 502.825 161.918C502.908 161.923 502.998 161.926 503.082 161.937C503.118 161.944 503.16 161.95 503.196 161.956C503.217 161.959 503.246 161.967 503.267 161.97C503.267 161.97 503.202 161.955 503.254 161.973C503.333 161.992 503.405 162.012 503.477 162.032C503.615 162.074 503.75 162.131 503.878 162.195C503.803 162.161 503.878 162.195 503.908 162.209C503.932 162.225 503.962 162.24 503.986 162.256C504.04 162.287 504.095 162.324 504.149 162.355C504.243 162.418 504.339 162.489 504.429 162.567C504.446 162.584 504.462 162.595 504.479 162.612C504.502 162.628 504.404 162.545 504.463 162.602C504.496 162.63 504.53 162.664 504.562 162.692C504.629 162.754 504.69 162.824 504.746 162.902C504.883 163.081 505.179 163.086 505.343 162.939C505.525 162.781 505.518 162.53 505.38 162.345L505.393 162.342Z" fill="black"/>
<path d="M500.274 197.306L511.905 188.896C511.905 188.896 506.343 188.757 504.006 188.036L501.671 187.322L500.281 197.305L500.274 197.306Z" fill="#EF7356"/>
<path d="M483.879 136.963C485.212 142.687 488.91 147.741 493.989 150.73C494.474 151.012 494.968 150.297 494.481 150.008C489.603 147.138 486.023 142.307 484.745 136.798C484.621 136.255 483.761 136.413 483.886 136.962L483.879 136.963Z" fill="white"/>
<path d="M495.206 147.372C496 148.619 497.112 149.601 498.451 150.226C498.662 150.329 498.933 150.168 499.01 149.962C499.094 149.721 498.958 149.508 498.746 149.405C498.219 149.158 497.648 148.783 497.196 148.391C496.744 148 496.294 147.471 495.99 146.99C495.863 146.789 495.63 146.684 495.405 146.795C495.211 146.893 495.08 147.178 495.208 147.378L495.206 147.372Z" fill="white"/>
<path d="M508.61 212.461L500.457 207.616L503.183 205.676L508.61 212.461Z" fill="black"/>
<path d="M435.701 417.522C431.883 407.462 428.318 397.182 426.231 386.607C425.449 382.654 424.857 378.618 424.9 374.576C424.929 371.459 425.36 368.367 426.783 365.557C428.792 361.584 431.955 358.339 435.716 355.97C439.477 353.6 443.799 351.977 448.1 350.678C452.855 349.245 457.704 348.265 462.694 348.459C466.587 348.61 470.501 349.412 474.004 351.145C476.789 352.524 479.135 354.479 480.728 357.15C483.458 361.727 484.858 366.947 486.183 372.058C486.517 373.338 486.843 374.614 487.176 375.895C487.316 376.414 488.144 376.263 488.003 375.737C486.59 370.417 485.408 364.979 483.124 359.941C482.262 358.045 481.275 356.104 479.896 354.518C478.938 353.411 477.798 352.462 476.576 351.658C469.406 346.939 459.929 346.823 451.826 348.772C447.169 349.893 442.462 351.433 438.184 353.608C434.248 355.601 430.652 358.301 428.04 361.877C426.86 363.488 425.818 365.277 425.151 367.165C424.647 368.585 424.365 370.086 424.205 371.577C423.8 375.38 424.156 379.257 424.731 383.023C426.332 393.528 429.738 403.763 433.378 413.714C433.891 415.111 434.41 416.499 434.935 417.887C435.127 418.389 435.885 418.019 435.693 417.517L435.701 417.522Z" fill="black"/>
</g>
<g clip-path="url(#clip2_4622_7311)">
<path d="M441.904 119.73L432.553 117.449C431.376 117.162 430.187 117.87 429.896 119.029C429.606 120.189 430.324 121.362 431.501 121.649L440.853 123.929C442.03 124.216 443.219 123.509 443.51 122.349C443.8 121.19 443.081 120.017 441.904 119.73Z" fill="white"/>
<path d="M440.631 124.82L431.279 122.539C430.102 122.252 428.913 122.96 428.623 124.119C428.332 125.279 429.051 126.452 430.228 126.739L439.579 129.019C440.756 129.306 441.946 128.599 442.236 127.439C442.526 126.28 441.808 125.107 440.631 124.82Z" fill="white"/>
<path d="M436.235 113.264C438.521 110.484 439.611 106.848 439.108 103.288C439.01 102.605 438.807 101.867 438.087 101.598C437.409 101.349 436.647 101.639 436.207 102.17C435.138 103.461 435.382 105.737 435.892 107.2C436.354 108.525 437.388 110.553 439.108 110.284C440.695 110.035 442.1 108.504 442.883 107.207C443.666 105.91 444.218 104.13 443.973 102.571C443.876 101.957 443.407 101.343 442.701 101.55C441.995 101.757 441.632 102.702 441.338 103.309C439.493 107.172 438.996 111.567 439.905 115.741C440.031 116.307 440.905 116.065 440.779 115.499C440.164 112.664 440.234 109.704 440.975 106.896C441.345 105.503 441.848 104.061 442.603 102.819C442.722 102.619 442.869 102.274 443.044 102.543C443.163 102.722 443.107 103.109 443.107 103.316C443.1 103.999 442.974 104.682 442.757 105.33C442.359 106.531 441.632 107.621 440.667 108.449C440.213 108.842 439.653 109.263 439.052 109.38C438.199 109.552 437.682 108.711 437.312 108.083C436.606 106.896 436.298 105.475 436.459 104.102C436.529 103.495 436.696 102.591 437.402 102.419C438.227 102.219 438.241 103.419 438.29 103.944C438.563 107.041 437.591 110.201 435.606 112.623C435.242 113.064 435.878 113.706 436.249 113.257L436.235 113.264Z" fill="white"/>
<path d="M441.405 118.819C441.643 118.157 442.006 117.46 442.496 116.949C442.901 116.528 443.334 116.459 443.887 116.315C444.516 116.149 445.131 115.942 445.732 115.687C448.095 114.7 450.157 113.044 451.569 110.919C454.414 106.635 454.247 100.861 451.192 96.7212C448.151 92.6024 442.775 90.6431 437.756 91.8849C432.737 93.1268 428.906 97.3904 428.221 102.454C427.816 105.483 428.564 108.622 430.304 111.154C430.703 111.734 431.157 112.292 431.646 112.796C431.919 113.079 432.206 113.348 432.506 113.603C432.786 113.838 433.128 114.038 433.373 114.307C433.967 114.962 433.737 116.094 433.443 116.839C433.226 117.377 434.107 117.612 434.317 117.08C434.568 116.439 434.694 115.694 434.61 115.011C434.464 113.796 433.464 113.3 432.646 112.52C430.696 110.664 429.416 108.153 429.095 105.497C428.487 100.426 431.367 95.4655 436.085 93.3958C440.804 91.3261 446.34 92.5886 449.717 96.3279C453.065 100.033 453.659 105.628 451.122 109.926C449.724 112.299 447.459 114.121 444.851 115.073C443.719 115.487 442.51 115.528 441.692 116.494C441.181 117.101 440.797 117.832 440.531 118.577C440.336 119.122 441.216 119.357 441.405 118.819Z" fill="white"/>
<path d="M440.402 82.5089C440.402 84.4682 440.402 86.4344 440.402 88.3938H441.311V88.0419C441.311 87.4624 440.402 87.4624 440.402 88.0419V88.3938C440.402 88.9733 441.311 88.9733 441.311 88.3938C441.311 86.4344 441.311 84.4682 441.311 82.5089C441.311 81.9293 440.402 81.9293 440.402 82.5089Z" fill="white"/>
<path d="M423.378 88.5332C424.643 90.3614 425.909 92.1897 427.174 94.018C427.503 94.494 428.293 94.0456 427.957 93.5626C426.692 91.7344 425.426 89.9061 424.161 88.0779C423.833 87.6018 423.043 88.0503 423.378 88.5332Z" fill="white"/>
<path d="M415.579 101.338C418.431 102.035 421.277 102.732 424.129 103.429C424.695 103.567 424.94 102.704 424.373 102.566C421.521 101.869 418.676 101.173 415.824 100.476C415.258 100.338 415.013 101.2 415.579 101.338Z" fill="white"/>
<path d="M456.311 102.677C459.282 102.339 462.274 102.16 465.259 102.139C465.846 102.139 465.846 101.235 465.259 101.242C462.267 101.263 459.282 101.449 456.311 101.78C455.738 101.842 455.731 102.746 456.311 102.677Z" fill="white"/>
<path d="M452.609 93.7262C454.727 91.9462 456.929 90.2628 459.215 88.6967C459.691 88.3725 459.236 87.5929 458.754 87.924C456.405 89.5384 454.14 91.2632 451.959 93.0914C451.512 93.464 452.162 94.0987 452.602 93.7262H452.609Z" fill="white"/>
<path d="M453.29 114.152C454.527 115.001 455.764 115.843 457.002 116.691C457.176 116.815 457.358 116.933 457.533 117.057C457.736 117.195 458.036 117.091 458.155 116.898C458.288 116.677 458.197 116.422 457.994 116.284C456.757 115.436 455.52 114.594 454.282 113.745C454.108 113.621 453.926 113.504 453.751 113.38C453.548 113.242 453.248 113.345 453.129 113.538C452.996 113.759 453.087 114.014 453.29 114.152Z" fill="white"/>
</g>
<g clip-path="url(#clip3_4622_7311)">
<path d="M149.349 75.1953H129.654C119.578 75.1953 111.41 83.3952 111.41 93.5102C111.41 103.625 119.578 111.825 129.654 111.825H149.349C159.425 111.825 167.593 103.625 167.593 93.5102C167.593 83.3952 159.425 75.1953 149.349 75.1953Z" fill="white"/>
<path d="M147.281 109.219L155.875 118.769V106.832L147.281 109.219Z" fill="white"/>
<path d="M123.83 96.4924C125.473 96.4924 126.805 95.1553 126.805 93.506C126.805 91.8566 125.473 90.5195 123.83 90.5195C122.187 90.5195 120.855 91.8566 120.855 93.506C120.855 95.1553 122.187 96.4924 123.83 96.4924Z" fill="#116DFF"/>
<path d="M139.494 96.4924C141.137 96.4924 142.469 95.1553 142.469 93.506C142.469 91.8566 141.137 90.5195 139.494 90.5195C137.851 90.5195 136.52 91.8566 136.52 93.506C136.52 95.1553 137.851 96.4924 139.494 96.4924Z" fill="#116DFF"/>
<path d="M155.17 96.4924C156.813 96.4924 158.145 95.1553 158.145 93.506C158.145 91.8566 156.813 90.5195 155.17 90.5195C153.527 90.5195 152.195 91.8566 152.195 93.506C152.195 95.1553 153.527 96.4924 155.17 96.4924Z" fill="#116DFF"/>
</g>
<defs>
<linearGradient id="paint0_linear_4622_7311" x1="268.699" y1="90.1529" x2="517.863" y2="445.34" gradientUnits="userSpaceOnUse">
<stop stop-color="white"/>
<stop offset="0.2" stop-color="#40CEF4"/>
<stop offset="0.62" stop-color="#FF65DD"/>
<stop offset="1" stop-color="#FF6A48"/>
</linearGradient>
<clipPath id="clip0_4622_7311">
<rect width="320.36" height="262.239" fill="white" transform="matrix(-0.943255 0.332071 0.332071 0.943255 302.367 82.0742)"/>
</clipPath>
<clipPath id="clip1_4622_7311">
<rect width="322.192" height="405.894" fill="white" transform="translate(259.137 174.594) rotate(-10.8066)"/>
</clipPath>
<clipPath id="clip2_4622_7311">
<rect width="50.4501" height="47.0103" fill="white" transform="translate(415.258 82.0742)"/>
</clipPath>
<clipPath id="clip3_4622_7311">
<rect width="56.183" height="43.5705" fill="white" transform="translate(111.41 75.1953)"/>
</clipPath>
</defs>
</svg>
