<svg width="33" height="32" viewBox="0 0 33 32" fill="none" xmlns="http://www.w3.org/2000/svg">
<path d="M11.25 20C14.8399 20 17.75 17.0899 17.75 13.5C17.75 9.91015 14.8399 7 11.25 7C7.66015 7 4.75 9.91015 4.75 13.5C4.75 17.0899 7.66015 20 11.25 20Z" stroke="#15276F" stroke-width="2" stroke-miterlimit="10"/>
<path d="M19.6758 7.2375C20.2504 7.08166 20.8429 7.00181 21.4383 7C23.1622 7 24.8155 7.68482 26.0345 8.90381C27.2535 10.1228 27.9383 11.7761 27.9383 13.5C27.9383 15.2239 27.2535 16.8772 26.0345 18.0962C24.8155 19.3152 23.1622 20 21.4383 20" stroke="#15276F" stroke-width="2" stroke-linecap="round" stroke-linejoin="round"/>
<path d="M2.25 24.6754C3.26493 23.2312 4.61255 22.0524 6.17901 21.2386C7.74547 20.4248 9.48477 20 11.25 20C13.0152 20 14.7545 20.4248 16.321 21.2386C17.8875 22.0524 19.2351 23.2312 20.25 24.6754" stroke="#15276F" stroke-width="2" stroke-linecap="round" stroke-linejoin="round"/>
<path d="M21.4375 20C23.2029 19.9989 24.9425 20.4232 26.5092 21.237C28.0758 22.0508 29.4233 23.2301 30.4375 24.675" stroke="#15276F" stroke-width="2" stroke-linecap="round" stroke-linejoin="round"/>
</svg>
