<svg width="40" height="40" viewBox="0 0 40 40" fill="none" xmlns="http://www.w3.org/2000/svg">
<path d="M31.25 27.5V10C31.2521 9.507 31.1565 9.01843 30.9688 8.56253C30.781 8.10662 30.5049 7.69241 30.1563 7.34377C29.8076 6.99514 29.3934 6.719 28.9375 6.53127C28.4816 6.34355 27.993 6.24797 27.5 6.25003H6.25" stroke="white" stroke-width="2" stroke-linecap="round" stroke-linejoin="round"/>
<path d="M16.25 16.25H26.25" stroke="white" stroke-width="2" stroke-linecap="round" stroke-linejoin="round"/>
<path d="M16.25 21.25H26.25" stroke="white" stroke-width="2" stroke-linecap="round" stroke-linejoin="round"/>
<path d="M3.45312 12.5C3.04834 12.0467 2.75976 11.5019 2.61221 10.9125C2.46467 10.323 2.46259 9.70647 2.60616 9.11601C2.74972 8.52555 3.03462 7.97882 3.43634 7.52288C3.83805 7.06695 4.34455 6.71546 4.91224 6.49869C5.47992 6.28191 6.09178 6.20634 6.69515 6.27847C7.29851 6.3506 7.87531 6.56828 8.3759 6.91277C8.87648 7.25726 9.28585 7.71823 9.56877 8.25602C9.85168 8.7938 9.99967 9.39229 10 9.99995V30C10.0003 30.6076 10.1483 31.2061 10.4312 31.7439C10.7142 32.2817 11.1235 32.7426 11.6241 33.0871C12.1247 33.4316 12.7015 33.6493 13.3049 33.7214C13.9082 33.7936 14.5201 33.718 15.0878 33.5012C15.6554 33.2844 16.1619 32.933 16.5637 32.477C16.9654 32.0211 17.2503 31.4744 17.3938 30.8839C17.5374 30.2934 17.5353 29.6769 17.3878 29.0874C17.2402 28.498 16.9517 27.9532 16.5469 27.5H34.0469C34.5296 28.0396 34.8457 28.7075 34.9571 29.423C35.0685 30.1384 34.9704 30.8708 34.6747 31.5317C34.3789 32.1926 33.8982 32.7538 33.2905 33.1474C32.6827 33.541 31.9741 33.7503 31.25 33.75H13.75" stroke="white" stroke-width="2" stroke-linecap="round" stroke-linejoin="round"/>
</svg>
