<svg width="81" height="55" viewBox="0 0 81 55" fill="none" xmlns="http://www.w3.org/2000/svg">
<g opacity="0.5">
<path d="M43 4H38C34.134 4 31 7.13401 31 11V21C31 24.866 34.134 28 38 28H43C46.866 28 50 24.866 50 21V11C50 7.13401 46.866 4 43 4Z" stroke="white" stroke-width="2" stroke-linecap="round" stroke-linejoin="round"/>
<path d="M40.5 14V9" stroke="white" stroke-width="2" stroke-linecap="round" stroke-linejoin="round"/>
<path d="M0.730469 51.04L2.05047 50.38C2.44047 51.24 3.18047 51.79 4.17047 51.79C5.15047 51.79 5.70047 51.45 5.70047 50.83C5.70047 50.28 5.42047 49.99 4.67047 49.79L3.48047 49.47C2.39047 49.18 1.20047 48.57 1.20047 47.09C1.20047 45.59 2.47047 44.69 4.10047 44.69C5.68047 44.69 6.77047 45.62 7.22047 46.67L5.92047 47.33C5.58047 46.67 4.98047 46.11 4.10047 46.11C3.21047 46.11 2.75047 46.48 2.75047 47.09C2.75047 47.68 3.20047 47.91 3.84047 48.08L4.98047 48.38C6.08047 48.67 7.25047 49.33 7.25047 50.83C7.25047 52.33 5.89047 53.21 4.17047 53.21C2.49047 53.21 1.28047 52.39 0.730469 51.04ZM11.6196 53.21C9.70961 53.21 8.04961 51.92 8.04961 49.65V48.25C8.04961 45.99 9.69961 44.69 11.6196 44.69C13.3896 44.69 14.6496 45.72 15.0496 47.42L13.5596 47.85C13.2896 46.74 12.6996 46.15 11.6196 46.15C10.5396 46.15 9.61961 46.88 9.61961 48.31V49.59C9.61961 51.03 10.5396 51.75 11.6196 51.75C12.6996 51.75 13.2896 51.16 13.5596 50.05L15.0496 50.48C14.6496 52.18 13.3896 53.21 11.6196 53.21ZM22.6612 53.06H20.9212L19.4612 49.8H17.7212V53.06H16.1512V44.84H19.5912C21.2012 44.84 22.4212 45.63 22.4212 47.31C22.4212 48.49 21.8312 49.23 20.9412 49.57L22.6612 53.06ZM19.4912 46.22H17.7212V48.42H19.4912C20.3512 48.42 20.8512 48.01 20.8512 47.31C20.8512 46.61 20.3512 46.22 19.4912 46.22ZM26.8933 53.21C24.9733 53.21 23.3133 51.92 23.3133 49.65V48.25C23.3133 45.99 24.9733 44.69 26.8933 44.69C28.8133 44.69 30.4733 45.99 30.4733 48.25V49.65C30.4733 51.92 28.8133 53.21 26.8933 53.21ZM26.8933 51.75C27.9733 51.75 28.9033 51.03 28.9033 49.59V48.31C28.9033 46.88 27.9633 46.15 26.8933 46.15C25.8233 46.15 24.8833 46.88 24.8833 48.31V49.59C24.8833 51.03 25.8233 51.75 26.8933 51.75ZM33.1899 44.84V51.68H36.7999V53.06H31.6199V44.84H33.1899ZM39.2739 44.84V51.68H42.8839V53.06H37.7039V44.84H39.2739ZM49.3079 44.84C51.4279 44.84 53.0479 46.14 53.0479 48.46V49.44C53.0479 51.77 51.4279 53.06 49.3079 53.06H46.2879V44.84H49.3079ZM51.4779 49.39V48.51C51.4779 46.97 50.5579 46.27 49.3079 46.27H47.8579V51.63H49.3079C50.5579 51.63 51.4779 50.94 51.4779 49.39ZM57.528 53.21C55.608 53.21 53.948 51.92 53.948 49.65V48.25C53.948 45.99 55.608 44.69 57.528 44.69C59.448 44.69 61.108 45.99 61.108 48.25V49.65C61.108 51.92 59.448 53.21 57.528 53.21ZM57.528 51.75C58.608 51.75 59.538 51.03 59.538 49.59V48.31C59.538 46.88 58.598 46.15 57.528 46.15C56.458 46.15 55.518 46.88 55.518 48.31V49.59C55.518 51.03 56.458 51.75 57.528 51.75ZM63.5894 53.06L61.5094 44.84H63.0994L64.6094 50.99L66.0994 44.85L67.6994 44.84L69.1894 50.99L70.6994 44.84H72.2894L70.2094 53.06H68.3094L66.8994 47.35L65.4894 53.06H63.5894ZM74.6934 53.06H73.1434V44.84H74.6634L78.3734 50.36V44.84H79.9234V53.06H78.4034L74.6934 47.54V53.06Z" fill="white"/>
</g>
</svg>
